<svg xmlns="http://www.w3.org/2000/svg" viewBox="0 0 222.46 230"><defs><style>.cls-1{fill:none;stroke:#fff;stroke-miterlimit:10;stroke-width:10px;}</style></defs><g id="Capa_2" data-name="Capa 2"><g id="NOTES"><path class="cls-1" d="M205.49,92.19c.14,29.94.09,81.89.11,111.83h0a21,21,0,0,1-21,21H161.55a21.11,21.11,0,0,1-21.11-21.12c0-20.66,0-20.32,0-41,0-14.79-11.56-27.93-25.65-29.52a29.07,29.07,0,0,0-31.71,23c-.93,4.37-.88,9-.88,13.5,0,18.32,0,15.64,0,34A21.12,21.12,0,0,1,61.12,225h-23A21.12,21.12,0,0,1,17,203.89c0-29.9,0-81.81.11-111.71"/><path class="cls-1" d="M14.83,5H58.46a0,0,0,0,1,0,0V72.27A26.73,26.73,0,0,1,31.73,99h0A26.73,26.73,0,0,1,5,72.27V14.83A9.83,9.83,0,0,1,14.83,5Z"/><path class="cls-1" d="M164,5h43.63a9.83,9.83,0,0,1,9.83,9.83V72.27A26.73,26.73,0,0,1,190.73,99h0A26.73,26.73,0,0,1,164,72.27V5a0,0,0,0,1,0,0Z"/><path class="cls-1" d="M58,5h53.46a0,0,0,0,1,0,0V72.27A26.73,26.73,0,0,1,84.73,99h0A26.73,26.73,0,0,1,58,72.27V5A0,0,0,0,1,58,5Z"/><path class="cls-1" d="M111,5h53.46a0,0,0,0,1,0,0V72.27A26.73,26.73,0,0,1,137.73,99h0A26.73,26.73,0,0,1,111,72.27V5a0,0,0,0,1,0,0Z"/></g></g></svg>
