<svg xmlns="http://www.w3.org/2000/svg" width="107.92" height="107.899">
  <path fill="#076280" d="M107.623 59.897a55.642 55.642 0 0 1-3.3 13.606 52.884 52.884 0 0 1-8.819 14.979 42.116 42.116 0 0 1-4.108 4.477c-.262.237-.445.6-.878.584a11.194 11.194 0 0 0-4.405-5.583 21.385 21.385 0 0 0-5.207-2.083 21.858 21.858 0 0 1-1.953-7.442c.118-.546.3-1.1-.187-1.574a61.74 61.74 0 0 1-.008-6.666 3.667 3.667 0 0 0 .271-2.661 10.488 10.488 0 0 1 .1-1.306 78.014 78.014 0 0 0 1.3-13.99c.043-2.982-.17-5.946-.406-8.921a39.558 39.558 0 0 0-4.711-16.675 19.008 19.008 0 0 0-10.6-9.124 34.491 34.491 0 0 0-16.046-1.659 22.6 22.6 0 0 0-9.784 3.391c-8.6 5.852-11.927 14.387-12.33 24.392a.215.215 0 0 0 0 .2l.006.453a23.514 23.514 0 0 0 .027 3.923 3.694 3.694 0 0 0 .14 1.543l.064 1.121a8.589 8.589 0 0 0 0 1.088 63.43 63.43 0 0 0 1.789 9.638 37.907 37.907 0 0 1 .248 18.238 54.347 54.347 0 0 1-1.871 6.023c-.551.172-1.1.345-1.652.515a11.242 11.242 0 0 0-7.8 7.116c-1.047-.308-1.565-1.244-2.252-1.954a51.714 51.714 0 0 1-7.021-8.839 91.735 91.735 0 0 1-4.919-9.781.213.213 0 0 0-.027-.173l-.2-.244a.373.373 0 0 0-.025-.194.4.4 0 0 0-.182-.455.349.349 0 0 0-.011-.156l.175-.244c-.3-.789-.611-1.572-.885-2.369A45.782 45.782 0 0 1 .082 56.558 46.717 46.717 0 0 1 .694 45.7c.218-1.211.4-2.427.6-3.642a81.6 81.6 0 0 1 3.251-9.592A53.861 53.861 0 0 1 26.666 7.521 53.978 53.978 0 0 1 50.637.233l6.987.007a53.238 53.238 0 0 1 26.2 8.887c2.381 1.588 4.631 3.372 6.941 5.067.013.146.076.215.227.146a.117.117 0 0 1 .1.065.457.457 0 0 0 .131.671 39.471 39.471 0 0 1 4.122 4.389 43.242 43.242 0 0 1 5.477 7.7 54.614 54.614 0 0 1 6.8 21.113 56.552 56.552 0 0 1 .007 11.624" data-name="Trazado 258"/>
  <path fill="#dc2e35" d="M34.339 104.306a33.2 33.2 0 0 1-4.547-2c-.041-.1-.094-.164-.2-.073a.417.417 0 0 1-.114-.1 30.979 30.979 0 0 1 1.028-3.995 8.174 8.174 0 0 0 .261-4.15c-.342-2.953-.847-5.889-.991-8.864l4.624-1.433c2.886 9.388 8.792 15.607 18.607 17.716a3.766 3.766 0 0 0 1.509.164 22.969 22.969 0 0 0 14.133-8.044 24.141 24.141 0 0 0 5.039-9.6 39.559 39.559 0 0 1 4.822 1.314c-.29 2.349-.564 4.7-.872 7.047-.318 2.419-.663 4.823.46 7.161a9.26 9.26 0 0 1 .465 1.906 1.321 1.321 0 0 1-.815.981c-.905.376-1.777.831-2.676 1.224a51.558 51.558 0 0 1-18.183 4.253 50.925 50.925 0 0 1-14.965-1.307c-.174-.246-.364-.256-.569-.038l-.327-.03a.552.552 0 0 0-.347-.382c-1.423-.429-2.823-.958-4.271-1.262-.7-.146-1.3-.688-2.067-.493" data-name="Trazado 263"/>
  <path fill="#ebb193" d="M29.608 85.127c.144 2.976.649 5.911.991 8.864a8.178 8.178 0 0 1-.26 4.15 30.975 30.975 0 0 0-1.028 3.994 16.514 16.514 0 0 1-3.641-1.9 9.714 9.714 0 0 0-1.276-.612c-1.329-1.537-3.255-2.306-4.713-3.657-.827-.766-1.883-1.352-2.336-2.481a11.242 11.242 0 0 1 7.8-7.116c.552-.17 1.1-.343 1.652-.515 1 .008 1.8-.784 2.816-.725" data-name="Trazado 265"/>
  <path fill="#a4a3a4" d="M57.624.24 50.633.234a25.825 25.825 0 0 1 6.987.007" data-name="Trazado 274"/>
  <path fill="#ebb193" d="M29.428 102.233c.109-.09.162-.025.2.073l-.2-.073" data-name="Trazado 316"/>
  <path fill="#808181" d="M90.988 14.34c-.151.068-.214 0-.227-.146l.227.146" data-name="Trazado 317"/>
  <path fill="#ebb193" d="m78.687 102.11-.128-.749a9.181 9.181 0 0 0-.464-1.9c-1.123-2.339-.778-4.742-.46-7.161.308-2.346.583-4.7.872-7.046l2.4.609a21.373 21.373 0 0 1 5.207 2.083 11.192 11.192 0 0 1 4.405 5.583 40.169 40.169 0 0 1-6.2 5.094c-1.794 1.306-3.8 2.262-5.632 3.493" data-name="Trazado 323"/>
  <path fill="#ee6c08" d="m80.905 85.88-2.4-.609a39.578 39.578 0 0 0-4.822-1.314 2.318 2.318 0 0 0-1.195-.468c-3-.877-6-1.733-9-2.612-.34-.1-.871-.015-.832-.637l-.1-.232-.044-5.057c.023-.021.069-.049.065-.063a.949.949 0 0 0-.072-.151l.013-2.413.152-.168a24.494 24.494 0 0 0 3.227-2.7c.705-.039.977-.432.9-1.107l-.006.005c.5.025.485-.31.452-.655l-.006.006c.5.007.474-.336.451-.678l.918-1.709.159-.308a.1.1 0 0 1 .056-.127 1.781 1.781 0 0 0 .956-2.447l.148-.4.124-.364.121-.513.132-.3.06-.361a.448.448 0 0 0 .16-.511l.067-.364a.472.472 0 0 0 .149-.525l.074-.57c.184-.114.224-.251.071-.422l-.023-.445c.552-.2.314-.64.3-1.011l.093-.97a.3.3 0 0 0 .072-.371l.141-1.821c.226-.18.18-.43.172-.671-.021-.214.047-.447-.134-.627a22.254 22.254 0 0 1 .011-2.269c.095-.935-.277-1.327-1.185-1.278-.063-.11-.135-.128-.218-.02-.433-.117-.921.241-1.321-.154-.7-.732-.7-.732-1.095-.311l-.435.011-.226-.149-.65-.247a1.7 1.7 0 0 0-1.74-.637l-.231-.071-.209-.146c-.279.032-.456-.169-.667-.291l-.2-.152-.9-.5-.194-.158c-.32-.261-.769-.3-1.035-.691-.138-.2-.5-.48-.7.042l-.079.139.141-.1a25.36 25.36 0 0 1 2.493 2.768 2.81 2.81 0 0 1-1.721-.593 1.116 1.116 0 0 0-1.073-.466l-.226-.08c-.077-.411-.385-.367-.681-.346l-.861-.507-.206-.16-.222-.091-.1-.233-.128.109-.436-.285-.2-.159c-.5-.041-.753-.475-1.118-.73l-.217-.138-.2-.223-.45-.273-.234-.156a45.045 45.045 0 0 1-6.12-5.256 2.356 2.356 0 0 0-1.964-1.98l-.216-.237c.02-.212-.035-.54.209-.567 1.161-.127 1.26-1.2 1.739-1.912a.722.722 0 0 0-.342-1.164c-.262-.121-.635-.147-.317-.57.282-.375.557-.369.9-.04a18.18 18.18 0 0 0 1.568 1.347c.329.249.513.975 1.115.528.579-.429.967-.946.52-1.769a1.593 1.593 0 0 1 .092-1.663c.34-.53.711-.717 1.235-.248 2.109 1.89 4.311 3.69 6.3 5.7a49.811 49.811 0 0 0 4.95 4.884c.226.172.427.685.755.332.28-.3-.195-.541-.341-.811-.9-1.647-2.523-2.816-3.066-4.692-.057-.2-.274-.412-.017-.575.209-.133.411.02.584.169a20.744 20.744 0 0 0 1.684 1.551c2.054 1.425 3.959 3.048 6.032 4.457a34.636 34.636 0 0 0 4.884 3.043c.311.143.665.242.919-.007.219-.215-.073-.46-.143-.691a66.85 66.85 0 0 0-3.889-9.581 7.407 7.407 0 0 0-1.509-2.488c-.19-.171-.427-.528-.733-.328-.266.174-.165.538-.084.812.3 1.007.62 2.008.934 3.011.1.318.237.714-.042.918s-.7.006-.9-.2a37.861 37.861 0 0 1-2.82-2.568c-1.387-1.676-2.78-3.344-4.082-5.091a8.124 8.124 0 0 0-2.144-2.008c-.6-.379-.864-.322-.862.419 0 .547-.02 1.1 0 1.641.029.668-.22.77-.768.451a11.761 11.761 0 0 1-3.342-2.853c-.138-.173-.3-.338-.2-.58s.35-.221.563-.226a8.629 8.629 0 0 0 1.419-.034c.562-.109 1.108-.537 1.084-1.055-.021-.445-.676-.183-1.046-.223a6.227 6.227 0 0 0-1.2 0c-.649.055-.948-.175-.9-.863.044-.58.015-1.167.005-1.75 0-.206.068-.479-.2-.561-.243-.074-.369.173-.54.3a1.622 1.622 0 0 0-.581 1.556c.012.263.156.665-.215.757-.314.079-.5-.252-.63-.508-.393-.783-1.329-.863-1.867-1.463a.407.407 0 0 0-.593.074c-.6.732-1.163.425-1.806.026a2.676 2.676 0 0 0-3.183.056 2.561 2.561 0 0 0-1.081 2.756 7.847 7.847 0 0 0 1.657 3.606c.441.435 1.02.833.226 1.465-.161.128-.094.312-.01.495.484 1.049.382 1.245-.768 1.032a1.825 1.825 0 0 0-2.183 1.287c-.113.244-.171.48-.488.5-.987-.441-1.354.552-2.012.871a.383.383 0 0 0-.4.439 12.024 12.024 0 0 0-3.081 4.166.427.427 0 0 0-.205.432.853.853 0 0 0-.878.478 8.816 8.816 0 0 1-1.064 1.346c-.157.181-.342.422-.641.235s-.184-.422-.1-.672c.07-.2.029-.474.15-.623.306-.377.183-.611-.116-.913-.351-.354-.673-.216-.97-.007-.991.7-1.227 1.534-.4 2.767.264.4.584.626.22 1.2-.257.405.318.852.632.733 1.021-.388 1.356.319 1.794.927l-.2 1.757c-.025.021-.074.046-.071.061a.883.883 0 0 0 .06.158 46.625 46.625 0 0 0-.007 6.355 1.5 1.5 0 0 0-.83 1.606 10.989 10.989 0 0 1 0 2.076c-.128 1.531-.117 1.561 1.323 1.355a.69.69 0 0 1 .184.656c-.024.023-.073.056-.069.067a1.014 1.014 0 0 0 .086.152l.072.527a.5.5 0 0 0 .141.568l.086.52.117.356.121 1.164.1.368.065.389a.434.434 0 0 0 .168.487 14.179 14.179 0 0 0 1.951 3.732.725.725 0 0 0 .473.668l-.006-.01a1.838 1.838 0 0 0 .672 1.1l-.007-.007a.535.535 0 0 0 .426.465l-.008-.009a2.969 2.969 0 0 0 1.334 1.529l-.007-.007a.556.556 0 0 0 .45.489l.807.826a.545.545 0 0 0 .493.453l-.007-.006c.1.255.15.559.5.607 1.26.682 1.489 1.758 1.349 3.1a22.609 22.609 0 0 0-.037 3.809c.059.9-.265 1.221-1.1 1.471-3.463 1.038-6.9 2.165-10.344 3.26l-4.624 1.433c-1.016-.059-1.813.732-2.816.725a54.373 54.373 0 0 0 1.87-6.023 37.907 37.907 0 0 0-.247-18.238 63.509 63.509 0 0 1-1.789-9.638 8.758 8.758 0 0 1 0-1.089c.3.371.288.891.883 1.144 2.884 1.227 5.359-1.286 5.614-3.4.083-.69.762-2.03-.869-2.246-.22-.029-.2-.291-.121-.453.343-.681-.129-.905-.608-1.142-.383-.19-.76-.393-1.1-.571 0-.52.678-.19.632-.671-.241-.377-1.179-.248-.8-1.108.075-.171-.151-.307-.354-.313a.39.39 0 0 0-.456.362c-.036.324-.007.7-.484.7s-.584.238-.649.67c-.1.686-.82.765-1.295 1.023-.438.238-.358-.428-.619-.576l-.007-.453c.025-.02.074-.047.071-.058a.935.935 0 0 0-.073-.146c.4-10.005 3.734-18.54 12.33-24.392a22.6 22.6 0 0 1 9.772-3.388 34.492 34.492 0 0 1 16.046 1.659 19.01 19.01 0 0 1 10.6 9.124 39.565 39.565 0 0 1 4.711 16.675c.236 2.975.449 5.939.407 8.921a77.973 77.973 0 0 1-1.3 13.99 10.5 10.5 0 0 0-.1 1.306 5.969 5.969 0 0 0-.271 2.661 61.96 61.96 0 0 0 .008 6.666c-.184.555.116 1.051.188 1.575a21.867 21.867 0 0 0 1.953 7.442M59.225 43.633c.407.566.594.963 1.221 1.031-.363-.678-.363-.678-1.221-1.031" data-name="Trazado 433"/>
  <path fill="#fba631" d="M26.406 44.299c.261.149.181.814.619.576.474-.258 1.19-.337 1.295-1.023.066-.432.18-.673.65-.67s.448-.374.485-.7a.389.389 0 0 1 .456-.362c.2.006.428.142.353.313-.376.861.562.731.8 1.108.047.481-.633.151-.631.67.342.178.718.381 1.1.571.479.237.951.461.609 1.142-.081.161-.1.423.121.452 1.631.217.952 1.557.87 2.246-.255 2.119-2.73 4.631-5.614 3.4-.595-.253-.582-.774-.883-1.144l-.064-1.121c.245.065.488.138.736.194a1.16 1.16 0 0 0 1.347-.7 1.124 1.124 0 0 0-.179-1.412 1.028 1.028 0 0 0-1.474.05 4.161 4.161 0 0 1-.57.323 23.513 23.513 0 0 1-.027-3.924" data-name="Trazado 434"/>
  <path fill="#fba631" d="M26.425 48.222a4.085 4.085 0 0 0 .569-.323 1.029 1.029 0 0 1 1.475-.05 1.124 1.124 0 0 1 .179 1.412 1.16 1.16 0 0 1-1.347.7c-.247-.056-.49-.129-.736-.194a3.691 3.691 0 0 1-.14-1.543" data-name="Trazado 435"/>
  <path fill="#fba631" d="M78.756 70.197a5.969 5.969 0 0 1 .271-2.661 3.666 3.666 0 0 1-.271 2.661" data-name="Trazado 436"/>
  <path fill="#fba631" d="M78.952 78.419c-.072-.524-.372-1.02-.188-1.575.488.474.306 1.028.188 1.575" data-name="Trazado 437"/>
  <path fill="#ccc" d="M2.852 72.32c-.335-.042-.512-.147-.182-.455a.4.4 0 0 1 .182.455" data-name="Trazado 438"/>
  <path fill="#372014" d="M26.389 43.642a.925.925 0 0 1 .073.146c0 .011-.046.039-.071.058a.216.216 0 0 1 0-.2" data-name="Trazado 439"/>
  <path fill="#ccc" d="m2.658 71.706.175-.244-.175.244" data-name="Trazado 440"/>
  <path fill="#ccc" d="m3.073 72.76-.2-.243.2.243" data-name="Trazado 441"/>
  <path fill="#ebb193" d="m68.604 65.316-.918 1.709a1.2 1.2 0 0 0-.451.678l.006-.007a1.079 1.079 0 0 0-.452.655l.006-.005a3.121 3.121 0 0 0-.9 1.107 24.55 24.55 0 0 1-3.227 2.7c-.126-.012-.186.035-.152.168l-.013 2.412c0 .071 0 .142.007.214l.044 5.057c-.077.125.007.181.1.232-.039.622.492.537.832.637 3 .879 6 1.735 9 2.612a2.323 2.323 0 0 1 1.195.468 24.134 24.134 0 0 1-5.039 9.6 22.967 22.967 0 0 1-14.133 8.043 3.759 3.759 0 0 1-1.509-.164c-9.814-2.109-15.721-8.327-18.607-17.716 3.446-1.094 6.882-2.222 10.344-3.259.835-.251 1.159-.573 1.1-1.471a22.615 22.615 0 0 1 .037-3.809c.139-1.34-.09-2.416-1.349-3.1-.029-.318-.074-.623-.5-.607l.007.006c-.006-.324-.19-.453-.493-.453l-.808-.826c0-.306-.131-.482-.45-.489l.007.007a2.647 2.647 0 0 0-1.334-1.529l.007.009c0-.282-.1-.478-.425-.466l.007.007a1.083 1.083 0 0 0-.673-1.1l.006.01a.616.616 0 0 0-.473-.668 14.183 14.183 0 0 1-1.951-3.732.459.459 0 0 0-.168-.487l-.065-.389-.1-.368-.121-1.164-.117-.356-.086-.52a.587.587 0 0 0-.141-.567l-.072-.527-.018-.219a.691.691 0 0 0-.184-.656q-.247-2.519-.5-5.037a46.605 46.605 0 0 1 .007-6.355c0-.073.007-.145.011-.218l.2-1.757a30.89 30.89 0 0 1 1.374-5.472c.192-.085.214-.251.205-.432a12.029 12.029 0 0 1 3.087-4.168c.319.022.509-.072.4-.439.658-.319 1.025-1.312 2.012-.871 1.2 1.284 2.208 2.735 3.512 3.923l.216.237a11.419 11.419 0 0 0 1.964 1.981 45.076 45.076 0 0 0 6.12 5.256c.036.115.084.212.234.156l.45.273a.194.194 0 0 0 .2.223c.029.115.072.207.218.138.365.255.613.688 1.118.729 0 .134.037.226.2.159l.436.285c.037.117.085.214.231.124l.222.091c.006.134.048.222.206.161l.861.506.681.346.226.08c.279.336.709.325 1.072.466a2.811 2.811 0 0 0 1.721.593 25.315 25.315 0 0 0-2.493-2.767l-.062-.037c.2-.522.567-.246.705-.042.265.393.715.429 1.035.691 0 .134.035.22.194.158l.9.5c.006.127.031.229.2.152.211.122.388.323.666.29.015.127.047.23.209.146l.231.071c.47.513 1.144.468 1.74.637l.651.247c.027.123.067.226.226.149l.435-.011c.287.376.734.194 1.095.311.4.394.888.037 1.321.153l.218.02c.908-.049 1.28.343 1.185 1.279a22.237 22.237 0 0 0-.011 2.268l-.037.633v.666l-.14 1.821-.073.371-.093.97c-.463.228-.451.6-.3 1.01l.023.445-.071.422-.073.57a.477.477 0 0 0-.149.524l-.067.364a.5.5 0 0 0-.16.512l-.06.361-.132.3-.121.513-.124.364-.148.4-.956 2.447a.1.1 0 0 0-.056.127l-.159.307" data-name="Trazado 463"/>
  <path fill="#fba631" d="M46.686 36.168c-1.3-1.188-2.314-2.639-3.512-3.923.318-.015.376-.251.488-.5a1.825 1.825 0 0 1 2.183-1.287c1.15.213 1.251.017.768-1.032-.084-.183-.151-.367.01-.495.795-.632.216-1.03-.225-1.465a7.843 7.843 0 0 1-1.657-3.606 2.56 2.56 0 0 1 1.081-2.756 2.676 2.676 0 0 1 3.182-.057c.643.4 1.2.706 1.807-.025a.407.407 0 0 1 .593-.075c.537.6 1.473.681 1.867 1.463.129.257.316.587.63.509.371-.093.227-.494.215-.757a1.624 1.624 0 0 1 .582-1.556c.17-.124.3-.371.539-.3.271.082.2.355.2.561.01.584.039 1.17-.005 1.75-.052.688.247.918.9.862a6.262 6.262 0 0 1 1.2 0c.37.04 1.026-.221 1.046.223.024.518-.523.947-1.084 1.055a8.683 8.683 0 0 1-1.419.034c-.212 0-.457-.03-.562.226s.064.407.2.58a11.771 11.771 0 0 0 3.342 2.853c.548.319.8.217.768-.451-.024-.546 0-1.094 0-1.641 0-.74.265-.8.862-.419a8.116 8.116 0 0 1 2.144 2.008c1.3 1.747 2.694 3.415 4.082 5.091a37.85 37.85 0 0 0 2.82 2.569c.2.2.636.389.9.2s.142-.6.042-.919c-.315-1-.635-2-.934-3.011-.082-.274-.183-.638.084-.813.305-.2.543.157.733.328a7.4 7.4 0 0 1 1.509 2.487 66.8 66.8 0 0 1 3.889 9.581c.07.23.361.476.143.69-.255.25-.608.151-.92.008a34.639 34.639 0 0 1-4.884-3.043c-2.073-1.408-3.978-3.032-6.032-4.457a20.59 20.59 0 0 1-1.685-1.551c-.173-.149-.375-.3-.584-.169-.257.163-.039.379.018.575.543 1.877 2.17 3.045 3.065 4.692.147.27.622.51.341.811-.328.353-.529-.16-.755-.332a49.812 49.812 0 0 1-4.95-4.884c-1.99-2.009-4.191-3.808-6.3-5.7-.524-.469-.895-.282-1.235.248a1.593 1.593 0 0 0-.093 1.663c.447.823.059 1.34-.52 1.769-.6.447-.786-.279-1.115-.528a18.261 18.261 0 0 1-1.568-1.347c-.345-.329-.62-.336-.9.04-.318.424.055.449.316.57a.723.723 0 0 1 .342 1.164c-.479.716-.579 1.785-1.74 1.912-.244.027-.188.355-.208.567" data-name="Trazado 556"/>
  <path fill="#fba631" d="M37.475 38.157a30.893 30.893 0 0 0-1.374 5.473c-.438-.609-.773-1.315-1.794-.927-.315.119-.889-.328-.632-.733.365-.575.044-.805-.22-1.2-.823-1.234-.587-2.067.4-2.768.3-.21.618-.347.97.007.3.3.422.536.116.913-.121.149-.081.42-.15.623-.085.251-.187.495.1.672s.483-.054.641-.235a8.816 8.816 0 0 0 1.064-1.346.853.853 0 0 1 .878-.478" data-name="Trazado 557"/>
  <path fill="#fba631" d="m35.883 51.959.5 5.037c-1.44.206-1.451.176-1.323-1.355a10.989 10.989 0 0 0 0-2.076 1.5 1.5 0 0 1 .83-1.606" data-name="Trazado 558"/>
  <path fill="#fba631" d="m68.819 64.882.955-2.447a1.781 1.781 0 0 1-.955 2.447" data-name="Trazado 559"/>
  <path fill="#fba631" d="M48.866 38.385a11.416 11.416 0 0 1-1.964-1.98 2.356 2.356 0 0 1 1.964 1.98" data-name="Trazado 560"/>
  <path fill="#ebb193" d="M40.955 68.187a2.653 2.653 0 0 1 1.334 1.529 2.967 2.967 0 0 1-1.334-1.529" data-name="Trazado 561"/>
  <path fill="#fba631" d="M66.388 47.773c-.6-.17-1.27-.124-1.74-.637a1.694 1.694 0 0 1 1.74.637" data-name="Trazado 562"/>
  <path fill="#fba631" d="M59.227 43.635c.858.353.858.353 1.221 1.031-.628-.068-.814-.465-1.221-1.031" data-name="Trazado 563"/>
  <path fill="#fba631" d="M65.894 69.454a3.115 3.115 0 0 1 .9-1.107c.075.675-.2 1.068-.9 1.107" data-name="Trazado 564"/>
  <path fill="#fba631" d="M68.793 48.466c-.361-.117-.807.065-1.094-.311.4-.42.4-.42 1.094.311" data-name="Trazado 565"/>
  <path fill="#ebb193" d="M39.869 66.64a1.083 1.083 0 0 1 .673 1.1 1.84 1.84 0 0 1-.673-1.1" data-name="Trazado 566"/>
  <path fill="#fba631" d="M70.858 57.66c-.147-.411-.159-.782.3-1.01.01.37.248.809-.3 1.01" data-name="Trazado 567"/>
  <path fill="#fba631" d="M61.346 47.38c-.364-.141-.794-.129-1.073-.466a1.116 1.116 0 0 1 1.073.466" data-name="Trazado 568"/>
  <path fill="#ebb193" d="M39.402 65.982a.616.616 0 0 1 .473.668.725.725 0 0 1-.473-.668" data-name="Trazado 569"/>
  <path fill="#fba631" d="M67.235 67.7a1.2 1.2 0 0 1 .451-.678c.023.341.05.685-.451.678" data-name="Trazado 570"/>
  <path fill="#fba631" d="M66.788 68.352a1.079 1.079 0 0 1 .452-.655c.033.345.05.679-.452.655" data-name="Trazado 571"/>
  <path fill="#ebb193" d="M44.024 71.471c.43-.015.476.289.5.607-.354-.047-.4-.352-.5-.607" data-name="Trazado 572"/>
  <path fill="#fba631" d="M41.162 33.116c.11.367-.08.461-.4.439a.383.383 0 0 1 .4-.439" data-name="Trazado 573"/>
  <path fill="#fba631" d="m60.047 46.834-.681-.346c.3-.021.6-.065.681.346" data-name="Trazado 574"/>
  <path fill="#ebb193" d="M43.54 71.025c.3 0 .487.129.493.453a.545.545 0 0 1-.493-.453" data-name="Trazado 575"/>
  <path fill="#ebb193" d="M42.28 69.709c.318.007.454.184.45.489a.554.554 0 0 1-.45-.489" data-name="Trazado 576"/>
  <path fill="#ebb193" d="M40.535 67.73c.326-.013.422.184.425.465a.534.534 0 0 1-.425-.465" data-name="Trazado 577"/>
  <path fill="#fba631" d="m71.47 52.822.037-.633c.18.18.112.414.134.628a1.311 1.311 0 0 1-.171 0" data-name="Trazado 578"/>
  <path fill="#fba631" d="M71.47 52.825a1.309 1.309 0 0 0 .171 0c.008.24.054.49-.173.67v-.666" data-name="Trazado 579"/>
  <path fill="#fba631" d="M37.683 37.721c.009.18-.013.347-.205.432a.427.427 0 0 1 .205-.432" data-name="Trazado 580"/>
  <path fill="#fba631" d="M37.279 61.763a.458.458 0 0 1 .168.487.434.434 0 0 1-.168-.487" data-name="Trazado 581"/>
  <path fill="#fba631" d="M58.077 45.731c-.147.09-.195-.006-.231-.124l.128-.109.1.233" data-name="Trazado 582"/>
  <path fill="#fba631" d="M70.36 60.497a.5.5 0 0 1 .16-.511.449.449 0 0 1-.16.511" data-name="Trazado 583"/>
  <path fill="#fba631" d="M70.587 59.622a.478.478 0 0 1 .149-.525.473.473 0 0 1-.149.525" data-name="Trazado 584"/>
  <path fill="#fba631" d="M36.653 58.398a.587.587 0 0 1 .142.567.5.5 0 0 1-.142-.567" data-name="Trazado 585"/>
  <path fill="#fba631" d="m70.809 58.527.071-.422c.154.171.113.308-.071.422" data-name="Trazado 586"/>
  <path fill="#fba631" d="M64.416 47.064c-.162.084-.194-.019-.209-.146l.209.146" data-name="Trazado 587"/>
  <path fill="#fba631" d="m70.333 48.641-.217-.02c.083-.108.154-.091.217.02" data-name="Trazado 588"/>
  <path fill="#fba631" d="M67.265 48.168c-.159.077-.2-.027-.226-.149l.226.149" data-name="Trazado 589"/>
  <path fill="#fba631" d="m71.255 55.679.073-.371a.3.3 0 0 1-.073.371" data-name="Trazado 590"/>
  <path fill="#fba631" d="M63.541 46.627c-.164.078-.19-.024-.2-.152l.2.152" data-name="Trazado 591"/>
  <path fill="#fba631" d="m36.563 57.652.018.219a1.03 1.03 0 0 1-.086-.152c0-.012.044-.045.069-.067" data-name="Trazado 592"/>
  <path fill="#fba631" d="M62.447 45.976c-.158.062-.2-.023-.194-.158l.194.158" data-name="Trazado 593"/>
  <path fill="#372014" d="m36.878 59.486.117.356-.117-.356" data-name="Trazado 594"/>
  <path fill="#fba631" d="M58.506 45.982c-.158.061-.2-.026-.205-.16l.205.16" data-name="Trazado 595"/>
  <path fill="#372014" d="m70.168 61.154.132-.3-.132.3" data-name="Trazado 596"/>
  <path fill="#372014" d="M35.902 45.386c0 .073-.007.145-.011.218a.882.882 0 0 1-.06-.158c0-.015.046-.04.071-.06" data-name="Trazado 597"/>
  <path fill="#fba631" d="m60.512 45.169.061.037-.141.1.079-.139" data-name="Trazado 598"/>
  <path fill="#fba631" d="M57.41 45.322c-.162.066-.2-.026-.2-.159l.2.159" data-name="Trazado 599"/>
  <path fill="#fba631" d="M56.093 44.432c-.145.069-.189-.023-.218-.138l.218.138" data-name="Trazado 600"/>
  <path fill="#372014" d="m37.12 61.006.1.368-.1-.368" data-name="Trazado 601"/>
  <path fill="#fba631" d="M55.879 44.293a.194.194 0 0 1-.2-.223l.2.223" data-name="Trazado 602"/>
  <path fill="#372014" d="m69.922 62.032.124-.364-.124.364" data-name="Trazado 603"/>
  <path fill="#fba631" d="M55.22 43.795c-.15.057-.2-.04-.234-.156l.234.156" data-name="Trazado 604"/>
  <path fill="#372014" d="m68.604 65.316.159-.307-.159.307" data-name="Trazado 605"/>
  <path fill="#372014" d="M62.655 80.22c-.095-.051-.178-.106-.1-.232l.1.232" data-name="Trazado 606"/>
  <path fill="#fba631" d="M62.515 72.321c-.034-.132.026-.18.152-.168l-.152.168" data-name="Trazado 607"/>
  <path fill="#fba631" d="M62.509 74.951c0-.071 0-.142-.007-.214a.9.9 0 0 1 .072.151c0 .013-.042.041-.065.063" data-name="Trazado 608"/>
</svg>
