<svg xmlns="http://www.w3.org/2000/svg" width="107.732" height="107.904">
  <path fill="#bbc9d0" d="m91.544 15.203.254.182c.177.643.742.975 1.16 1.415a54.037 54.037 0 0 1 6.668 65.55 43.845 43.845 0 0 1-6.079 7.974 12.966 12.966 0 0 0-5.708-3.458c-4.018-1.246-8.07-2.385-12.115-3.544a67.825 67.825 0 0 0-7.345-1.956l-5.91-5.364c0-.754.039-1.512-.028-2.261-.06-.679.286-1.412-.234-2.037a3.652 3.652 0 0 1 .336-.216 14.179 14.179 0 0 0 5.848-5.168c1.626-2.669 2.074-5.836 2.709-8.884l.329-1.047a3.139 3.139 0 0 0 2.309-1.942 18.953 18.953 0 0 0 1.675-6.133 2.027 2.027 0 0 0-.8-2.172c-.074-.276-.276-.227-.474-.185l-.358-.039c.046-.322.067-.651.144-.966a38.691 38.691 0 0 0 .924-7.749 53.146 53.146 0 0 0-.647-9.531 7.448 7.448 0 0 0-3.043-5.424l-.016-.028a.165.165 0 0 0-.192-.186l-.033-.017a5.807 5.807 0 0 0-2.677-2.128 26.151 26.151 0 0 0-9.323-2.72 28.254 28.254 0 0 0-7.285-.117 26.071 26.071 0 0 0-8.778 2.626 6.26 6.26 0 0 0-2.923 2.552l-.031.022c-.217.037-.244.194-.236.374l-.018.028a.6.6 0 0 0-.648.477 2.563 2.563 0 0 1-1.689 1.69 2.743 2.743 0 0 0-.681.528 9.793 9.793 0 0 0-2.434 3.906 13.537 13.537 0 0 0-.654 8.044l.025 1.087a9.848 9.848 0 0 0 .4 3.73l.029.874c-.228 1.036.2 2.032.187 3.055a9.856 9.856 0 0 0-1.3.009c-.766.1-1.394.6-1.348 1.33.181 2.871.587 5.712 2.416 8.093a2.012 2.012 0 0 0 1.985.878c.3.394.051 1.03.59 1.315.12 1.345.647 2.6.894 3.912.909 4.822 3.838 8.021 8.084 10.185l-.006.076c-.565.1-.335.549-.366.867-.1 1.033.193 2.088-.181 3.106l-6.671 6.208c-1.4.351-2.811.694-4.212 1.055-3.266.841-6.483 1.866-9.775 2.617-2.431.555-4.932.938-7.1 2.282-1.118.692-2.446 1.177-2.965 2.573A53 53 0 0 1 1.338 66.509a49.99 49.99 0 0 1-1.335-8.836v-7.43a53.345 53.345 0 0 1 15.609-34.35 57.19 57.19 0 0 1 6.609-5.558A52.147 52.147 0 0 1 45.981.591 47.279 47.279 0 0 1 56.429.099a49.834 49.834 0 0 1 12.73 2.167 82.788 82.788 0 0 1 10.768 4.591c3.168 1.6 5.77 3.9 8.579 5.96.966.708 1.773 1.6 2.8 2.219a.185.185 0 0 0 .236.165" data-name="Trazado 250"/>
  <path fill="#040405" d="M93.547 90.309a40.778 40.778 0 0 1-6.706 6.248 55.115 55.115 0 0 1-20.411 9.842 54.015 54.015 0 0 1-29.983-1.338c-1.343-.45-2.649-1.012-3.974-1.515-.226-.086-.442-.293-.711-.1-1.73-1.207-3.69-2.006-5.488-3.1a52.4 52.4 0 0 1-12.044-9.81c.519-1.4 1.847-1.88 2.965-2.572 2.171-1.344 4.672-1.728 7.1-2.282 3.292-.751 6.508-1.776 9.775-2.617 1.4-.361 2.808-.7 4.213-1.055l.475.633.894 1.528.025.061h-.005L49.35 99.92c.087.177.106.411.369.441 1.079 2.058 2.392 3.973 3.6 5.95.382.624.573.574.909-.037 1.162-2.113 2.367-4.2 3.556-6.3.139-.243.275-.489.419-.729q3.989-6.68 7.756-13.489a4.593 4.593 0 0 0 .84-1.586 8.668 8.668 0 0 0 1.576-2.814 67.864 67.864 0 0 1 7.347 1.958c4.044 1.159 8.1 2.3 12.114 3.544a12.966 12.966 0 0 1 5.708 3.457" data-name="Trazado 260"/>
  <path fill="#808181" d="M91.733 15.21a.185.185 0 0 1-.236-.165l.236.165" data-name="Trazado 313"/>
  <path fill="#f9c48c" d="M71.099 57.432c-.635 3.047-1.083 6.214-2.709 8.883a14.177 14.177 0 0 1-5.848 5.168 3.782 3.782 0 0 0-.336.216l.014-.008a2.61 2.61 0 0 0-.541.059 26.587 26.587 0 0 1-12.074.846 25.862 25.862 0 0 0-3.832-.687l.019.014c.012-.253-.152-.181-.29-.159-4.246-2.163-7.174-5.364-8.083-10.185-.248-1.313-.774-2.567-.894-3.912.326.026.513.419.911.329a21.085 21.085 0 0 0-.25-3.85c-.073-1.889-.374-3.77-.584-5.654q-.191-1.705-.4-3.408a3.83 3.83 0 0 1 .16-1.926 35.317 35.317 0 0 1 1.633-3.962 6.246 6.246 0 0 0 .817-2.777c.023-.472.15-.94.163-1.411.106-3.912 1.643-5.638 5.5-6.9a32.244 32.244 0 0 1 11.906-1.1h.039a16.8 16.8 0 0 1 8.3 2.418c2.34 1.546 3.978 3.684 4.021 6.533a10.175 10.175 0 0 0 1.3 5.167c.347.6.563 1.266.887 1.876a2.477 2.477 0 0 1 .236 1.481c-.34 3.261-.718 6.518-1 9.784a16.847 16.847 0 0 0-.247 3.793c.522-.047.8-.438 1.181-.626" data-name="Trazado 340"/>
  <path fill="#742811" d="M56.382 27.008a32.226 32.226 0 0 0-11.906 1.1c-3.861 1.267-5.4 2.993-5.5 6.9-.013.472-.14.939-.162 1.412a6.247 6.247 0 0 1-.818 2.777 35.355 35.355 0 0 0-1.635 3.966 3.828 3.828 0 0 0-.16 1.926q.212 1.7.4 3.408c.21 1.884.512 3.765.585 5.654a21.083 21.083 0 0 1 .249 3.85c-.4.09-.585-.3-.911-.329-.539-.285-.294-.921-.59-1.315a10.5 10.5 0 0 0-.136-1.288c-.467-2.983-1.118-5.937-1.418-8.946a3.476 3.476 0 0 0-.389-3.132l-.029-.874a5.441 5.441 0 0 0-.4-3.73l-.025-1.087a3.462 3.462 0 0 0 .158-2.019 15.044 15.044 0 0 1 1.084-6.453 6.4 6.4 0 0 1 3.109-3.729 3.849 3.849 0 0 0 1.756-2.444l.018-.028.236-.374.03-.022c1.092-.4 1.748-1.417 2.734-1.942a25.826 25.826 0 0 1 7.5-2.505 29.074 29.074 0 0 1 7.92-.2 28.181 28.181 0 0 1 9.526 2.423c1.189.551 2.066 1.577 3.31 2.012l.033.017.192.186.016.028a1.148 1.148 0 0 0 .407.859 8.032 8.032 0 0 1 2.021 3.543 19.212 19.212 0 0 1 .57 4.837 64.89 64.89 0 0 1-.014 8.929 48.758 48.758 0 0 1-.785 5.574c-1.061 3.389-1.324 6.925-1.93 10.4l-.329 1.048c-.384.188-.658.579-1.181.626a16.871 16.871 0 0 1 .247-3.793c.28-3.266.658-6.524 1-9.784a2.478 2.478 0 0 0-.237-1.481c-.325-.61-.541-1.28-.887-1.875a10.171 10.171 0 0 1-1.3-5.167c-.043-2.849-1.681-4.986-4.021-6.533a16.8 16.8 0 0 0-8.3-2.419l-.018-.057Z" data-name="Trazado 341"/>
  <path fill="#fefdfe" d="m38.758 82.647-.475-.633 6.666-6.203a88.228 88.228 0 0 1 8.779 4.465l-5.381 6.953c-.278.48-.624.486-1.075.213-1.118-.676-2.232-1.361-3.385-1.974a54.933 54.933 0 0 0-5.13-2.819" data-name="Trazado 342"/>
  <path fill="#fefdfe" d="M68.378 81.353a8.669 8.669 0 0 1-1.576 2.815 2 2 0 0 0-.623.123c-1.97 1.132-3.941 2.264-5.886 3.439-.447.27-.774.3-1.131-.069-.2-.3-.373-.619-.593-.9Q56.43 84 54.277 81.25c-.233-.3-.6-.576-.217-1.01a2.223 2.223 0 0 0 1.1-.434q3.661-1.9 7.312-3.814l5.91 5.364" data-name="Trazado 343"/>
  <path fill="#f9c48c" d="M62.468 75.991q-3.655 1.909-7.312 3.814a2.215 2.215 0 0 1-1.1.434l-.332.035a88.284 88.284 0 0 0-8.78-4.465c.374-1.018.081-2.074.181-3.107.031-.319-.2-.767.367-.867l.295.082-.019-.014c.054.086.087.2.164.253a14.286 14.286 0 0 0 16.283-.472l-.014.008c.52.625.173 1.358.234 2.037.067.748.023 1.507.028 2.261" data-name="Trazado 344"/>
  <path fill="#f9c48c" d="M34.38 46.12c.3 3.009.951 5.963 1.418 8.946a10.5 10.5 0 0 1 .139 1.288 2.01 2.01 0 0 1-1.985-.877c-1.829-2.381-2.235-5.222-2.416-8.093-.046-.732.582-1.228 1.348-1.331a9.773 9.773 0 0 1 1.3-.009l.2.077" data-name="Trazado 345"/>
  <path fill="#f9c48c" d="M71.577 56.384c.606-3.473.869-7.01 1.93-10.4l.421-.072.358.038.474.186a2.027 2.027 0 0 1 .8 2.172 18.959 18.959 0 0 1-1.675 6.133 3.138 3.138 0 0 1-2.309 1.942" data-name="Trazado 346"/>
  <path fill="#742811" d="M70.918 22.021c-1.245-.435-2.122-1.461-3.31-2.012a28.176 28.176 0 0 0-9.525-2.423 29.094 29.094 0 0 0-7.921.2 25.831 25.831 0 0 0-7.5 2.505c-.985.525-1.642 1.546-2.734 1.942a6.265 6.265 0 0 1 2.923-2.552 26.071 26.071 0 0 1 8.778-2.626 28.273 28.273 0 0 1 7.285.117 26.138 26.138 0 0 1 9.323 2.72 5.809 5.809 0 0 1 2.677 2.127" data-name="Trazado 347"/>
  <path fill="#742811" d="m73.78 45.918-.421.072a48.866 48.866 0 0 0 .784-5.573 64.831 64.831 0 0 0 .014-8.93 19.213 19.213 0 0 0-.57-4.837 8.032 8.032 0 0 0-2.021-3.543 1.148 1.148 0 0 1-.407-.859 7.451 7.451 0 0 1 3.042 5.424 53.185 53.185 0 0 1 .647 9.531 38.7 38.7 0 0 1-.925 7.75c-.076.315-.1.643-.144.965" data-name="Trazado 348"/>
  <path fill="#742811" d="M39.647 22.657a3.853 3.853 0 0 1-1.756 2.444 6.394 6.394 0 0 0-3.109 3.729 15.029 15.029 0 0 0-1.086 6.453 3.467 3.467 0 0 1-.158 2.02 13.542 13.542 0 0 1 .654-8.045 9.8 9.8 0 0 1 2.435-3.906 2.743 2.743 0 0 1 .681-.528 2.563 2.563 0 0 0 1.689-1.69.6.6 0 0 1 .648-.477" data-name="Trazado 349"/>
  <path fill="#742811" d="M33.564 38.387a5.441 5.441 0 0 1 .4 3.73 9.85 9.85 0 0 1-.4-3.73" data-name="Trazado 350"/>
  <path fill="#372014" d="m34.38 46.125-.2-.077c.011-1.023-.415-2.019-.187-3.055a3.475 3.475 0 0 1 .389 3.132" data-name="Trazado 351"/>
  <path fill="#742811" d="m39.901 22.257-.236.374c-.009-.18.018-.337.236-.374" data-name="Trazado 352"/>
  <path fill="#bbc9d0" d="m74.612 46.14-.474-.186c.2-.041.4-.09.474.186" data-name="Trazado 353"/>
  <path fill="#742811" d="m71.142 22.223-.192-.186a.166.166 0 0 1 .192.186" data-name="Trazado 354"/>
  <path fill="#742811" d="m45.792 71.919-.295-.082v-.076c.138-.022.3-.094.29.159" data-name="Trazado 355"/>
  <path fill="#ee6c08" d="m53.729 80.27.332-.035c-.383.434-.017.711.217 1.01l4.292 5.512c.22.284.4.6.593.9l-.257.383a29.814 29.814 0 0 0-2.613 2.757 1.378 1.378 0 0 0-.43 1.413c.386 1.886.654 3.8 1.129 5.661.178.7-.123 1.657.8 2.1-1.188 2.1-2.393 4.189-3.555 6.3-.336.611-.527.661-.909.037-1.211-1.977-2.525-3.892-3.6-5.95.014-.438.382-.822.2-1.29a1.852 1.852 0 0 0 .26-1.093.586.586 0 0 0 .181-.653c1.765-5.637 1.765-5.637-1.33-9.084a1.072 1.072 0 0 0-.172-.127c-.119-.325-.593-.449-.506-.891l5.381-6.953" data-name="Trazado 450"/>
  <path fill="#fefdfe" d="M48.854 88.113a1 1 0 0 1 .172.127c3.1 3.447 3.1 3.447 1.331 9.084a.638.638 0 0 0-.181.653 1.848 1.848 0 0 1-.26 1.093c-.261.235-.146.72-.566.849l-9.678-15.692a1.139 1.139 0 0 1 .9.281c2.039 1.248 4.1 2.462 6.127 3.726.782.488 1.483.711 2.157-.124" data-name="Trazado 451"/>
  <path fill="#fefdfe" d="M57.785 99.97c-.919-.439-.618-1.4-.8-2.1-.475-1.861-.743-3.775-1.129-5.661a1.379 1.379 0 0 1 .43-1.413 29.745 29.745 0 0 1 2.613-2.757c.405 1.323.463 1.327 1.57.641 1.606-.995 3.24-1.946 4.857-2.924.222-.134.414-.345.63-.008q-3.761 6.811-7.756 13.489c-.144.241-.279.486-.418.729" data-name="Trazado 452"/>
  <path fill="#ccc" d="M48.854 88.116c-.675.835-1.375.612-2.157.124-2.029-1.264-4.088-2.478-6.127-3.726a1.14 1.14 0 0 0-.9-.281h.006l.121-.112-.147.051-.894-1.528a54.83 54.83 0 0 1 5.13 2.819c1.152.612 2.267 1.3 3.384 1.974.451.273.8.267 1.076-.213-.087.442.388.566.506.891" data-name="Trazado 453"/>
  <path fill="#ccc" d="M65.961 85.753c-.216-.336-.408-.125-.629.009-1.617.978-3.251 1.928-4.857 2.923-1.107.686-1.165.681-1.57-.641l.257-.383c.357.369.684.339 1.131.068 1.945-1.175 3.916-2.307 5.886-3.439a2.028 2.028 0 0 1 .623-.123 4.586 4.586 0 0 1-.841 1.586" data-name="Trazado 454"/>
  <path fill="#ccc" d="M49.35 99.918c.419-.13.3-.614.566-.849.185.468-.182.852-.2 1.29-.264-.029-.283-.263-.369-.441" data-name="Trazado 455"/>
  <path fill="#fefdfe" d="m39.652 84.174.147-.051-.121.113-.026-.062" data-name="Trazado 456"/>
  <path fill="#742811" d="M62.22 71.686a14.287 14.287 0 0 1-16.283.472c-.077-.051-.11-.167-.164-.253a25.865 25.865 0 0 1 3.833.687 26.594 26.594 0 0 0 12.074-.847 2.639 2.639 0 0 1 .54-.059" data-name="Trazado 490"/>
  <path fill="#e96733" d="m56.383 27.01.022-.055.018.057h-.04" data-name="Trazado 491"/>
  <path fill="#ccc" d="M50.176 97.976a.638.638 0 0 1 .181-.653.587.587 0 0 1-.181.653" data-name="Trazado 609"/>
</svg>
