<svg xmlns="http://www.w3.org/2000/svg" width="108" height="108">
  <path fill="#97b24a" d="M57.157.001A59.155 59.155 0 0 1 68.826 2.02a53.1 53.1 0 0 1 16.948 8.447 60.826 60.826 0 0 1 6.11 5.171c.3.294.683.367.986.607a.465.465 0 0 0 .485.215 25.025 25.025 0 0 0 2.896 3.957 36.536 36.536 0 0 1 4.66 7 303.052 303.052 0 0 1 3.577 7.4 42.712 42.712 0 0 1 1.842 6.344 37.4 37.4 0 0 1 1.292 9.015 57.786 57.786 0 0 1-2.976 21.486A55.757 55.757 0 0 1 91.22 92.717c-.23.232-.411.667-.885.4a12.068 12.068 0 0 0-2.217-3.581c-2.6-2.876-6.191-3.581-9.688-4.5a19.328 19.328 0 0 0-4.8-1.464 4.428 4.428 0 0 0-1.662-.6 19.666 19.666 0 0 0 4.978-3.283c4.516-4.236 6.173-9.687 6.505-15.622a88.492 88.492 0 0 0-.79-14.231 92.428 92.428 0 0 0-1.75-10.89c-.735-3.229-1.959-6.3-2.984-9.428a14.648 14.648 0 0 0-2.564-4.668 25.716 25.716 0 0 0-10.661-7.931 19.948 19.948 0 0 0-14.259-.1 28.6 28.6 0 0 0-6.614 3.755c-.506.347-.8.923-1.437 1.143a17.81 17.81 0 0 0-10.559 9.314c-2.676 5.445-3.635 11.314-4.4 17.234-.389 2.994-.491 6.016-.723 9.025-.459 5.885-.259 11.657 2.455 17.053 1.466 2.919 3.307 5.57 6.3 7.184a1.559 1.559 0 0 1 .948 1.116l-2.362.884a49.174 49.174 0 0 0-4.687 1.55 21.65 21.65 0 0 0-5.623 1.6 10.328 10.328 0 0 0-6.422 6.673 8.7 8.7 0 0 1-2.226-1.9A62.223 62.223 0 0 1 5.6 78.04 53.6 53.6 0 0 1 0 57.18q0-3.37.01-6.742a52.619 52.619 0 0 1 16.071-35.064A51.779 51.779 0 0 1 39.113 1.982 42.08 42.08 0 0 1 48.73.255a12.238 12.238 0 0 0 1.488-.236l6.939-.018" data-name="Trazado 1307"/>
  <path fill="#e96733" d="M78.529 101.694a54.773 54.773 0 0 1-15.2 5.169 54.148 54.148 0 0 1-12.933.735 46.723 46.723 0 0 1-14.552-2.926c-1.795-.7-3.588-1.387-5.338-2.19a.967.967 0 0 0-.739-.078l.012-.024-.193-.2-.244-.474a10.653 10.653 0 0 1 .517-2.766c.338-1.387 1.065-2.668.828-4.207-.493-3.21-.492-6.488-1.316-9.655a49.052 49.052 0 0 1 4.687-1.55c.666.62.584 1.536.9 2.3a24.385 24.385 0 0 0 5.4 8.371c1.147 1.11 2.25 2.278 3.489 3.274a15.859 15.859 0 0 0 4.707 2.465c2.07.732 4.122 1.709 6.423 1.282a22.52 22.52 0 0 0 12.558-6.8 26.056 26.056 0 0 0 6.1-10.85 19.33 19.33 0 0 1 4.8 1.464c-.34 2.877-.713 5.751-1.006 8.632-.137 1.35-.617 2.712-.027 4.074a20.645 20.645 0 0 1 1.132 3.96" data-name="Trazado 1308"/>
  <path fill="#ebb193" d="M73.63 83.564a26.059 26.059 0 0 1-6.1 10.849 22.515 22.515 0 0 1-12.559 6.8c-2.3.426-4.352-.55-6.423-1.282a15.836 15.836 0 0 1-4.706-2.465c-1.239-1-2.343-2.164-3.489-3.274a24.387 24.387 0 0 1-5.4-8.371c-.316-.76-.234-1.676-.9-2.3l2.356-.884c1.033-.349 1.766.49 2.662.683.427.092.882.576 1.256.247s-.076-.8-.177-1.207c-.067-.269-.155-.534-.233-.8 1.772-.527 3.541-1.067 5.319-1.571.434-.123.448-.407.449-.743l.025-5.9a1.013 1.013 0 0 0-.375-.856 33.289 33.289 0 0 1-8.939-11.947.743.743 0 0 0-.845-.5 7.17 7.17 0 0 1-.387-3.032c.17-2.214-.018-4.418.09-6.622a.144.144 0 0 0 .01-.163 76.144 76.144 0 0 1 .915-8.689c.29-1.647.322-3.476 1.225-4.834a10.976 10.976 0 0 1 6.753-4.9c1.425-.326 2.74-.511 3.434 1.2.063.156.251.258.374.391a36.514 36.514 0 0 0 10.406 7.782 26.911 26.911 0 0 0 5.916 2.57c2.335.534 4.7.928 7.028 1.561 1.106.3 1.29.888 1.291 1.838a39.511 39.511 0 0 0 .212 4.636 68.418 68.418 0 0 1 .34 8.049c-1.255-.247-1.789.4-2.286 1.5a31.659 31.659 0 0 1-7.893 10.626 1.548 1.548 0 0 0-.7 1.265c.044 2.187.025 4.376.029 6.564-.053.134.01.176.134.171l7.391 2.258a2.506 2.506 0 0 0-.117.5c-.009.27-.407.462-.151.778.293.36.605.055.879-.011.519-.126 1.016-.34 1.521-.518a4.437 4.437 0 0 1 1.662.6" data-name="Trazado 1309"/>
  <path fill="#312b24" d="M39.92 81.565c.078.267.165.531.233.8.1.406.561.87.177 1.207s-.829-.155-1.256-.247c-.9-.194-1.629-1.033-2.662-.684a1.56 1.56 0 0 0-.95-1.12c-2.99-1.613-4.83-4.265-6.3-7.183-2.711-5.4-2.916-11.168-2.461-17.055.233-3.009.335-6.031.723-9.025.769-5.919 1.728-11.789 4.4-17.234a17.811 17.811 0 0 1 10.567-9.308c.634-.22.931-.8 1.437-1.143a28.587 28.587 0 0 1 6.613-3.752 19.948 19.948 0 0 1 14.259.1 25.713 25.713 0 0 1 10.661 7.931 14.648 14.648 0 0 1 2.566 4.669c1.026 3.131 2.25 6.2 2.984 9.428a92.4 92.4 0 0 1 1.753 10.894 88.492 88.492 0 0 1 .79 14.231c-.335 5.931-1.993 11.382-6.509 15.607a19.689 19.689 0 0 1-4.978 3.283c-.506.177-1 .391-1.521.517-.273.066-.586.371-.878.011-.257-.316.141-.508.15-.778a2.465 2.465 0 0 1 .117-.5 1.208 1.208 0 0 0 .5-.811 55.005 55.005 0 0 0 2.255-10.5 95.634 95.634 0 0 0 .571-11.072 68.418 68.418 0 0 0-.34-8.049 39.508 39.508 0 0 1-.212-4.636c0-.951-.185-1.537-1.291-1.838-2.325-.633-4.693-1.028-7.028-1.561a26.92 26.92 0 0 1-5.916-2.57 36.521 36.521 0 0 1-10.408-7.773c-.123-.134-.311-.236-.374-.392-.694-1.712-2.009-1.526-3.434-1.2a10.977 10.977 0 0 0-6.753 4.9c-.9 1.358-.935 3.187-1.225 4.834a76.149 76.149 0 0 0-.915 8.689c-.022.014-.066.034-.064.042a.83.83 0 0 0 .054.121c-.108 2.2.08 4.408-.09 6.622a7.167 7.167 0 0 0 .387 3.032 49.518 49.518 0 0 0 .593 5.381 78.965 78.965 0 0 0 2.026 10.088c.529 2.029 1.162 4.03 1.749 6.044" data-name="Trazado 1310"/>
  <path fill="#ebb193" d="M78.529 101.695a20.646 20.646 0 0 0-1.132-3.96c-.59-1.362-.11-2.724.027-4.074.293-2.881.666-5.755 1.006-8.632 3.5.923 7.085 1.628 9.688 4.5a12.067 12.067 0 0 1 2.217 3.581c-.007.756-.7.99-1.131 1.373a42.98 42.98 0 0 1-10.675 7.207" data-name="Trazado 1311"/>
  <path fill="#211d1a" d="M73.157 59.831a95.633 95.633 0 0 1-.571 11.072 55.005 55.005 0 0 1-2.255 10.5 1.208 1.208 0 0 1-.5.811l-7.391-2.258-.134-.171c0-2.188.015-4.377-.029-6.564a1.547 1.547 0 0 1 .7-1.265A31.66 31.66 0 0 0 70.87 61.33c.5-1.1 1.031-1.744 2.286-1.5" data-name="Trazado 1312"/>
  <path fill="#211d1a" d="M39.921 81.566c-.587-2.014-1.22-4.015-1.749-6.044a78.965 78.965 0 0 1-2.027-10.094 49.517 49.517 0 0 1-.593-5.381.744.744 0 0 1 .845.5 33.294 33.294 0 0 0 8.943 11.954 1.012 1.012 0 0 1 .375.856q-.018 2.948-.025 5.9c0 .337-.015.62-.449.743-1.779.5-3.547 1.044-5.32 1.571" data-name="Trazado 1313"/>
  <path fill="#761b22" d="m62.312 79.785.134.171c-.124 0-.187-.038-.134-.171" data-name="Trazado 1314"/>
  <path fill="#97b24a" d="M57.157.001A59.155 59.155 0 0 1 68.826 2.02a53.1 53.1 0 0 1 16.948 8.447 60.826 60.826 0 0 1 6.11 5.171c.3.294.683.367.986.607a.465.465 0 0 0 .485.215 25.025 25.025 0 0 0 2.896 3.957 36.536 36.536 0 0 1 4.66 7 303.052 303.052 0 0 1 3.577 7.4 42.712 42.712 0 0 1 1.842 6.344 37.4 37.4 0 0 1 1.292 9.015 57.786 57.786 0 0 1-2.976 21.486A55.757 55.757 0 0 1 91.22 92.717c-.23.232-.411.667-.885.4a12.068 12.068 0 0 0-2.217-3.581c-2.6-2.876-6.191-3.581-9.688-4.5a19.328 19.328 0 0 0-4.8-1.464 4.428 4.428 0 0 0-1.662-.6 19.666 19.666 0 0 0 4.978-3.283c4.516-4.236 6.173-9.687 6.505-15.622a88.492 88.492 0 0 0-.79-14.231 92.428 92.428 0 0 0-1.75-10.89c-.735-3.229-1.959-6.3-2.984-9.428a14.648 14.648 0 0 0-2.564-4.668 25.716 25.716 0 0 0-10.661-7.931 19.948 19.948 0 0 0-14.259-.1 28.6 28.6 0 0 0-6.614 3.755c-.506.347-.8.923-1.437 1.143a17.81 17.81 0 0 0-10.559 9.314c-2.676 5.445-3.635 11.314-4.4 17.234-.389 2.994-.491 6.016-.723 9.025-.459 5.885-.259 11.657 2.455 17.053 1.466 2.919 3.307 5.57 6.3 7.184a1.559 1.559 0 0 1 .948 1.116l-2.362.884a49.174 49.174 0 0 0-4.687 1.55 21.65 21.65 0 0 0-5.623 1.6 10.328 10.328 0 0 0-6.422 6.673 8.7 8.7 0 0 1-2.226-1.9A62.223 62.223 0 0 1 5.6 78.04 53.6 53.6 0 0 1 0 57.18q0-3.37.01-6.742a52.619 52.619 0 0 1 16.071-35.064A51.779 51.779 0 0 1 39.113 1.982 42.08 42.08 0 0 1 48.73.255a12.238 12.238 0 0 0 1.488-.236l6.939-.018" data-name="Trazado 1315"/>
  <path fill="#97b24a" d="M57.157.001A59.155 59.155 0 0 1 68.826 2.02a53.1 53.1 0 0 1 16.948 8.447 60.826 60.826 0 0 1 6.11 5.171c.3.294.683.367.986.607a.465.465 0 0 0 .485.215 25.025 25.025 0 0 0 2.896 3.957 36.536 36.536 0 0 1 4.66 7 303.052 303.052 0 0 1 3.577 7.4 42.712 42.712 0 0 1 1.842 6.344 37.4 37.4 0 0 1 1.292 9.015 57.786 57.786 0 0 1-2.976 21.486A55.757 55.757 0 0 1 91.22 92.717c-.23.232-.411.667-.885.4a12.068 12.068 0 0 0-2.217-3.581c-2.6-2.876-6.191-3.581-9.688-4.5a19.328 19.328 0 0 0-4.8-1.464 4.428 4.428 0 0 0-1.662-.6 19.666 19.666 0 0 0 4.978-3.283c4.516-4.236 6.173-9.687 6.505-15.622a88.492 88.492 0 0 0-.79-14.231 92.428 92.428 0 0 0-1.75-10.89c-.735-3.229-1.959-6.3-2.984-9.428a14.648 14.648 0 0 0-2.564-4.668 25.716 25.716 0 0 0-10.661-7.931 19.948 19.948 0 0 0-14.259-.1 28.6 28.6 0 0 0-6.614 3.755c-.506.347-.8.923-1.437 1.143a17.81 17.81 0 0 0-10.559 9.314c-2.676 5.445-3.635 11.314-4.4 17.234-.389 2.994-.491 6.016-.723 9.025-.459 5.885-.259 11.657 2.455 17.053 1.466 2.919 3.307 5.57 6.3 7.184a1.559 1.559 0 0 1 .948 1.116l-2.362.884a49.174 49.174 0 0 0-4.687 1.55 21.65 21.65 0 0 0-5.623 1.6 10.328 10.328 0 0 0-6.422 6.673 8.7 8.7 0 0 1-2.226-1.9A62.223 62.223 0 0 1 5.6 78.04 53.6 53.6 0 0 1 0 57.18q0-3.37.01-6.742a52.619 52.619 0 0 1 16.071-35.064A51.779 51.779 0 0 1 39.113 1.982 42.08 42.08 0 0 1 48.73.255a12.238 12.238 0 0 0 1.488-.236l6.939-.018" data-name="Trazado 1316"/>
  <path fill="#e96733" d="M78.529 101.694a54.773 54.773 0 0 1-15.2 5.169 54.148 54.148 0 0 1-12.933.735 46.723 46.723 0 0 1-14.552-2.926c-1.795-.7-3.588-1.387-5.338-2.19a.967.967 0 0 0-.739-.078l.012-.024-.193-.2-.244-.474a10.653 10.653 0 0 1 .517-2.766c.338-1.387 1.065-2.668.828-4.207-.493-3.21-.492-6.488-1.316-9.655a49.052 49.052 0 0 1 4.687-1.55c.666.62.584 1.536.9 2.3a24.385 24.385 0 0 0 5.4 8.371c1.147 1.11 2.25 2.278 3.489 3.274a15.859 15.859 0 0 0 4.707 2.465c2.07.732 4.122 1.709 6.423 1.282a22.52 22.52 0 0 0 12.558-6.8 26.056 26.056 0 0 0 6.1-10.85 19.33 19.33 0 0 1 4.8 1.464c-.34 2.877-.713 5.751-1.006 8.632-.137 1.35-.617 2.712-.027 4.074a20.645 20.645 0 0 1 1.132 3.96" data-name="Trazado 1317"/>
  <path fill="#ebb193" d="M73.63 83.564a26.059 26.059 0 0 1-6.1 10.849 22.515 22.515 0 0 1-12.559 6.8c-2.3.426-4.352-.55-6.423-1.282a15.836 15.836 0 0 1-4.706-2.465c-1.239-1-2.343-2.164-3.489-3.274a24.387 24.387 0 0 1-5.4-8.371c-.316-.76-.234-1.676-.9-2.3l2.356-.884c1.033-.349 1.766.49 2.662.683.427.092.882.576 1.256.247s-.076-.8-.177-1.207c-.067-.269-.155-.534-.233-.8 1.772-.527 3.541-1.067 5.319-1.571.434-.123.448-.407.449-.743l.025-5.9a1.013 1.013 0 0 0-.375-.856 33.289 33.289 0 0 1-8.939-11.947.743.743 0 0 0-.845-.5 7.17 7.17 0 0 1-.387-3.032c.17-2.214-.018-4.418.09-6.622a.144.144 0 0 0 .01-.163 76.144 76.144 0 0 1 .915-8.689c.29-1.647.322-3.476 1.225-4.834a10.976 10.976 0 0 1 6.753-4.9c1.425-.326 2.74-.511 3.434 1.2.063.156.251.258.374.391a36.514 36.514 0 0 0 10.406 7.782 26.911 26.911 0 0 0 5.916 2.57c2.335.534 4.7.928 7.028 1.561 1.106.3 1.29.888 1.291 1.838a39.511 39.511 0 0 0 .212 4.636 68.418 68.418 0 0 1 .34 8.049c-1.255-.247-1.789.4-2.286 1.5a31.659 31.659 0 0 1-7.893 10.626 1.548 1.548 0 0 0-.7 1.265c.044 2.187.025 4.376.029 6.564-.053.134.01.176.134.171l7.391 2.258a2.506 2.506 0 0 0-.117.5c-.009.27-.407.462-.151.778.293.36.605.055.879-.011.519-.126 1.016-.34 1.521-.518a4.437 4.437 0 0 1 1.662.6" data-name="Trazado 1318"/>
  <path fill="#312b24" d="M39.92 81.565c.078.267.165.531.233.8.1.406.561.87.177 1.207s-.829-.155-1.256-.247c-.9-.194-1.629-1.033-2.662-.684a1.56 1.56 0 0 0-.95-1.12c-2.99-1.613-4.83-4.265-6.3-7.183-2.711-5.4-2.916-11.168-2.461-17.055.233-3.009.335-6.031.723-9.025.769-5.919 1.728-11.789 4.4-17.234a17.811 17.811 0 0 1 10.567-9.308c.634-.22.931-.8 1.437-1.143a28.587 28.587 0 0 1 6.613-3.752 19.948 19.948 0 0 1 14.259.1 25.713 25.713 0 0 1 10.661 7.931 14.648 14.648 0 0 1 2.566 4.669c1.026 3.131 2.25 6.2 2.984 9.428a92.4 92.4 0 0 1 1.753 10.894 88.492 88.492 0 0 1 .79 14.231c-.335 5.931-1.993 11.382-6.509 15.607a19.689 19.689 0 0 1-4.978 3.283c-.506.177-1 .391-1.521.517-.273.066-.586.371-.878.011-.257-.316.141-.508.15-.778a2.465 2.465 0 0 1 .117-.5 1.208 1.208 0 0 0 .5-.811 55.005 55.005 0 0 0 2.255-10.5 95.634 95.634 0 0 0 .571-11.072 68.418 68.418 0 0 0-.34-8.049 39.508 39.508 0 0 1-.212-4.636c0-.951-.185-1.537-1.291-1.838-2.325-.633-4.693-1.028-7.028-1.561a26.92 26.92 0 0 1-5.916-2.57 36.521 36.521 0 0 1-10.408-7.773c-.123-.134-.311-.236-.374-.392-.694-1.712-2.009-1.526-3.434-1.2a10.977 10.977 0 0 0-6.753 4.9c-.9 1.358-.935 3.187-1.225 4.834a76.149 76.149 0 0 0-.915 8.689c-.022.014-.066.034-.064.042a.83.83 0 0 0 .054.121c-.108 2.2.08 4.408-.09 6.622a7.167 7.167 0 0 0 .387 3.032 49.518 49.518 0 0 0 .593 5.381 78.965 78.965 0 0 0 2.026 10.088c.529 2.029 1.162 4.03 1.749 6.044" data-name="Trazado 1319"/>
  <path fill="#ebb193" d="M78.529 101.695a20.646 20.646 0 0 0-1.132-3.96c-.59-1.362-.11-2.724.027-4.074.293-2.881.666-5.755 1.006-8.632 3.5.923 7.085 1.628 9.688 4.5a12.067 12.067 0 0 1 2.217 3.581c-.007.756-.7.99-1.131 1.373a42.98 42.98 0 0 1-10.675 7.207" data-name="Trazado 1320"/>
  <path fill="#211d1a" d="M73.157 59.831a95.633 95.633 0 0 1-.571 11.072 55.005 55.005 0 0 1-2.255 10.5 1.208 1.208 0 0 1-.5.811l-7.391-2.258-.134-.171c0-2.188.015-4.377-.029-6.564a1.547 1.547 0 0 1 .7-1.265A31.66 31.66 0 0 0 70.87 61.33c.5-1.1 1.031-1.744 2.286-1.5" data-name="Trazado 1321"/>
  <path fill="#211d1a" d="M39.921 81.566c-.587-2.014-1.22-4.015-1.749-6.044a78.965 78.965 0 0 1-2.027-10.094 49.517 49.517 0 0 1-.593-5.381.744.744 0 0 1 .845.5 33.294 33.294 0 0 0 8.943 11.954 1.012 1.012 0 0 1 .375.856q-.018 2.948-.025 5.9c0 .337-.015.62-.449.743-1.779.5-3.547 1.044-5.32 1.571" data-name="Trazado 1322"/>
  <path fill="#761b22" d="m62.312 79.785.134.171c-.124 0-.187-.038-.134-.171" data-name="Trazado 1323"/>
  <path fill="#97b24a" d="M57.157.001A59.155 59.155 0 0 1 68.826 2.02a53.1 53.1 0 0 1 16.948 8.447 60.826 60.826 0 0 1 6.11 5.171c.3.294.683.367.986.607a.465.465 0 0 0 .485.215 25.025 25.025 0 0 0 2.896 3.957 36.536 36.536 0 0 1 4.66 7 303.052 303.052 0 0 1 3.577 7.4 42.712 42.712 0 0 1 1.842 6.344 37.4 37.4 0 0 1 1.292 9.015 57.786 57.786 0 0 1-2.976 21.486A55.757 55.757 0 0 1 91.22 92.717c-.23.232-.411.667-.885.4a12.068 12.068 0 0 0-2.217-3.581c-2.6-2.876-6.191-3.581-9.688-4.5a19.328 19.328 0 0 0-4.8-1.464 4.428 4.428 0 0 0-1.662-.6 19.666 19.666 0 0 0 4.978-3.283c4.516-4.236 6.173-9.687 6.505-15.622a88.492 88.492 0 0 0-.79-14.231 92.428 92.428 0 0 0-1.75-10.89c-.735-3.229-1.959-6.3-2.984-9.428a14.648 14.648 0 0 0-2.564-4.668 25.716 25.716 0 0 0-10.661-7.931 19.948 19.948 0 0 0-14.259-.1 28.6 28.6 0 0 0-6.614 3.755c-.506.347-.8.923-1.437 1.143a17.81 17.81 0 0 0-10.559 9.314c-2.676 5.445-3.635 11.314-4.4 17.234-.389 2.994-.491 6.016-.723 9.025-.459 5.885-.259 11.657 2.455 17.053 1.466 2.919 3.307 5.57 6.3 7.184a1.559 1.559 0 0 1 .948 1.116l-2.362.884a49.174 49.174 0 0 0-4.687 1.55 21.65 21.65 0 0 0-5.623 1.6 10.328 10.328 0 0 0-6.422 6.673 8.7 8.7 0 0 1-2.226-1.9A62.223 62.223 0 0 1 5.6 78.04 53.6 53.6 0 0 1 0 57.18q0-3.37.01-6.742a52.619 52.619 0 0 1 16.071-35.064A51.779 51.779 0 0 1 39.113 1.982 42.08 42.08 0 0 1 48.73.255a12.238 12.238 0 0 0 1.488-.236l6.939-.018" data-name="Trazado 1324"/>
  <path fill="#97b24a" d="M57.157.001A59.155 59.155 0 0 1 68.826 2.02a53.1 53.1 0 0 1 16.948 8.447 60.826 60.826 0 0 1 6.11 5.171c.3.294.683.367.986.607a.465.465 0 0 0 .485.215 25.025 25.025 0 0 0 2.896 3.957 36.536 36.536 0 0 1 4.66 7 303.052 303.052 0 0 1 3.577 7.4 42.712 42.712 0 0 1 1.842 6.344 37.4 37.4 0 0 1 1.292 9.015 57.786 57.786 0 0 1-2.976 21.486A55.757 55.757 0 0 1 91.22 92.717c-.23.232-.411.667-.885.4a12.068 12.068 0 0 0-2.217-3.581c-2.6-2.876-6.191-3.581-9.688-4.5a19.328 19.328 0 0 0-4.8-1.464 4.428 4.428 0 0 0-1.662-.6 19.666 19.666 0 0 0 4.978-3.283c4.516-4.236 6.173-9.687 6.505-15.622a88.492 88.492 0 0 0-.79-14.231 92.428 92.428 0 0 0-1.75-10.89c-.735-3.229-1.959-6.3-2.984-9.428a14.648 14.648 0 0 0-2.564-4.668 25.716 25.716 0 0 0-10.661-7.931 19.948 19.948 0 0 0-14.259-.1 28.6 28.6 0 0 0-6.614 3.755c-.506.347-.8.923-1.437 1.143a17.81 17.81 0 0 0-10.559 9.314c-2.676 5.445-3.635 11.314-4.4 17.234-.389 2.994-.491 6.016-.723 9.025-.459 5.885-.259 11.657 2.455 17.053 1.466 2.919 3.307 5.57 6.3 7.184a1.559 1.559 0 0 1 .948 1.116l-2.362.884a49.174 49.174 0 0 0-4.687 1.55 21.65 21.65 0 0 0-5.623 1.6 10.328 10.328 0 0 0-6.422 6.673 8.7 8.7 0 0 1-2.226-1.9A62.223 62.223 0 0 1 5.6 78.04 53.6 53.6 0 0 1 0 57.18q0-3.37.01-6.742a52.619 52.619 0 0 1 16.071-35.064A51.779 51.779 0 0 1 39.113 1.982 42.08 42.08 0 0 1 48.73.255a12.238 12.238 0 0 0 1.488-.236l6.939-.018" data-name="Trazado 1325"/>
  <path fill="#e96733" d="M78.529 101.694a54.773 54.773 0 0 1-15.2 5.169 54.148 54.148 0 0 1-12.933.735 46.723 46.723 0 0 1-14.552-2.926c-1.795-.7-3.588-1.387-5.338-2.19a.967.967 0 0 0-.739-.078l.012-.024-.193-.2-.244-.474a10.653 10.653 0 0 1 .517-2.766c.338-1.387 1.065-2.668.828-4.207-.493-3.21-.492-6.488-1.316-9.655a49.052 49.052 0 0 1 4.687-1.55c.666.62.584 1.536.9 2.3a24.385 24.385 0 0 0 5.4 8.371c1.147 1.11 2.25 2.278 3.489 3.274a15.859 15.859 0 0 0 4.707 2.465c2.07.732 4.122 1.709 6.423 1.282a22.52 22.52 0 0 0 12.558-6.8 26.056 26.056 0 0 0 6.1-10.85 19.33 19.33 0 0 1 4.8 1.464c-.34 2.877-.713 5.751-1.006 8.632-.137 1.35-.617 2.712-.027 4.074a20.645 20.645 0 0 1 1.132 3.96" data-name="Trazado 1326"/>
  <path fill="#ebb193" d="M73.63 83.564a26.059 26.059 0 0 1-6.1 10.849 22.515 22.515 0 0 1-12.559 6.8c-2.3.426-4.352-.55-6.423-1.282a15.836 15.836 0 0 1-4.706-2.465c-1.239-1-2.343-2.164-3.489-3.274a24.387 24.387 0 0 1-5.4-8.371c-.316-.76-.234-1.676-.9-2.3l2.356-.884c1.033-.349 1.766.49 2.662.683.427.092.882.576 1.256.247s-.076-.8-.177-1.207c-.067-.269-.155-.534-.233-.8 1.772-.527 3.541-1.067 5.319-1.571.434-.123.448-.407.449-.743l.025-5.9a1.013 1.013 0 0 0-.375-.856 33.289 33.289 0 0 1-8.939-11.947.743.743 0 0 0-.845-.5 7.17 7.17 0 0 1-.387-3.032c.17-2.214-.018-4.418.09-6.622a.144.144 0 0 0 .01-.163 76.144 76.144 0 0 1 .915-8.689c.29-1.647.322-3.476 1.225-4.834a10.976 10.976 0 0 1 6.753-4.9c1.425-.326 2.74-.511 3.434 1.2.063.156.251.258.374.391a36.514 36.514 0 0 0 10.406 7.782 26.911 26.911 0 0 0 5.916 2.57c2.335.534 4.7.928 7.028 1.561 1.106.3 1.29.888 1.291 1.838a39.511 39.511 0 0 0 .212 4.636 68.418 68.418 0 0 1 .34 8.049c-1.255-.247-1.789.4-2.286 1.5a31.659 31.659 0 0 1-7.893 10.626 1.548 1.548 0 0 0-.7 1.265c.044 2.187.025 4.376.029 6.564-.053.134.01.176.134.171l7.391 2.258a2.506 2.506 0 0 0-.117.5c-.009.27-.407.462-.151.778.293.36.605.055.879-.011.519-.126 1.016-.34 1.521-.518a4.437 4.437 0 0 1 1.662.6" data-name="Trazado 1327"/>
  <path fill="#312b24" d="M39.92 81.565c.078.267.165.531.233.8.1.406.561.87.177 1.207s-.829-.155-1.256-.247c-.9-.194-1.629-1.033-2.662-.684a1.56 1.56 0 0 0-.95-1.12c-2.99-1.613-4.83-4.265-6.3-7.183-2.711-5.4-2.916-11.168-2.461-17.055.233-3.009.335-6.031.723-9.025.769-5.919 1.728-11.789 4.4-17.234a17.811 17.811 0 0 1 10.567-9.308c.634-.22.931-.8 1.437-1.143a28.587 28.587 0 0 1 6.613-3.752 19.948 19.948 0 0 1 14.259.1 25.713 25.713 0 0 1 10.661 7.931 14.648 14.648 0 0 1 2.566 4.669c1.026 3.131 2.25 6.2 2.984 9.428a92.4 92.4 0 0 1 1.753 10.894 88.492 88.492 0 0 1 .79 14.231c-.335 5.931-1.993 11.382-6.509 15.607a19.689 19.689 0 0 1-4.978 3.283c-.506.177-1 .391-1.521.517-.273.066-.586.371-.878.011-.257-.316.141-.508.15-.778a2.465 2.465 0 0 1 .117-.5 1.208 1.208 0 0 0 .5-.811 55.005 55.005 0 0 0 2.255-10.5 95.634 95.634 0 0 0 .571-11.072 68.418 68.418 0 0 0-.34-8.049 39.508 39.508 0 0 1-.212-4.636c0-.951-.185-1.537-1.291-1.838-2.325-.633-4.693-1.028-7.028-1.561a26.92 26.92 0 0 1-5.916-2.57 36.521 36.521 0 0 1-10.408-7.773c-.123-.134-.311-.236-.374-.392-.694-1.712-2.009-1.526-3.434-1.2a10.977 10.977 0 0 0-6.753 4.9c-.9 1.358-.935 3.187-1.225 4.834a76.149 76.149 0 0 0-.915 8.689c-.022.014-.066.034-.064.042a.83.83 0 0 0 .054.121c-.108 2.2.08 4.408-.09 6.622a7.167 7.167 0 0 0 .387 3.032 49.518 49.518 0 0 0 .593 5.381 78.965 78.965 0 0 0 2.026 10.088c.529 2.029 1.162 4.03 1.749 6.044" data-name="Trazado 1328"/>
  <path fill="#ebb193" d="M78.529 101.695a20.646 20.646 0 0 0-1.132-3.96c-.59-1.362-.11-2.724.027-4.074.293-2.881.666-5.755 1.006-8.632 3.5.923 7.085 1.628 9.688 4.5a12.067 12.067 0 0 1 2.217 3.581c-.007.756-.7.99-1.131 1.373a42.98 42.98 0 0 1-10.675 7.207" data-name="Trazado 1329"/>
  <path fill="#211d1a" d="M73.157 59.831a95.633 95.633 0 0 1-.571 11.072 55.005 55.005 0 0 1-2.255 10.5 1.208 1.208 0 0 1-.5.811l-7.391-2.258-.134-.171c0-2.188.015-4.377-.029-6.564a1.547 1.547 0 0 1 .7-1.265A31.66 31.66 0 0 0 70.87 61.33c.5-1.1 1.031-1.744 2.286-1.5" data-name="Trazado 1330"/>
  <path fill="#211d1a" d="M39.921 81.566c-.587-2.014-1.22-4.015-1.749-6.044a78.965 78.965 0 0 1-2.027-10.094 49.517 49.517 0 0 1-.593-5.381.744.744 0 0 1 .845.5 33.294 33.294 0 0 0 8.943 11.954 1.012 1.012 0 0 1 .375.856q-.018 2.948-.025 5.9c0 .337-.015.62-.449.743-1.779.5-3.547 1.044-5.32 1.571" data-name="Trazado 1331"/>
  <path fill="#761b22" d="m62.312 79.785.134.171c-.124 0-.187-.038-.134-.171" data-name="Trazado 1332"/>
  <path fill="#97b24a" d="M57.157.001A59.155 59.155 0 0 1 68.826 2.02a53.1 53.1 0 0 1 16.948 8.447 60.826 60.826 0 0 1 6.11 5.171c.3.294.683.367.986.607a.465.465 0 0 0 .485.215 25.025 25.025 0 0 0 2.896 3.957 36.536 36.536 0 0 1 4.66 7 303.052 303.052 0 0 1 3.577 7.4 42.712 42.712 0 0 1 1.842 6.344 37.4 37.4 0 0 1 1.292 9.015 57.786 57.786 0 0 1-2.976 21.486A55.757 55.757 0 0 1 91.22 92.717c-.23.232-.411.667-.885.4a12.068 12.068 0 0 0-2.217-3.581c-2.6-2.876-6.191-3.581-9.688-4.5a19.328 19.328 0 0 0-4.8-1.464 4.428 4.428 0 0 0-1.662-.6 19.666 19.666 0 0 0 4.978-3.283c4.516-4.236 6.173-9.687 6.505-15.622a88.492 88.492 0 0 0-.79-14.231 92.428 92.428 0 0 0-1.75-10.89c-.735-3.229-1.959-6.3-2.984-9.428a14.648 14.648 0 0 0-2.564-4.668 25.716 25.716 0 0 0-10.661-7.931 19.948 19.948 0 0 0-14.259-.1 28.6 28.6 0 0 0-6.614 3.755c-.506.347-.8.923-1.437 1.143a17.81 17.81 0 0 0-10.559 9.314c-2.676 5.445-3.635 11.314-4.4 17.234-.389 2.994-.491 6.016-.723 9.025-.459 5.885-.259 11.657 2.455 17.053 1.466 2.919 3.307 5.57 6.3 7.184a1.559 1.559 0 0 1 .948 1.116l-2.362.884a49.174 49.174 0 0 0-4.687 1.55 21.65 21.65 0 0 0-5.623 1.6 10.328 10.328 0 0 0-6.422 6.673 8.7 8.7 0 0 1-2.226-1.9A62.223 62.223 0 0 1 5.6 78.04 53.6 53.6 0 0 1 0 57.18q0-3.37.01-6.742a52.619 52.619 0 0 1 16.071-35.064A51.779 51.779 0 0 1 39.113 1.982 42.08 42.08 0 0 1 48.73.255a12.238 12.238 0 0 0 1.488-.236l6.939-.018" data-name="Trazado 1333"/>
  <path fill="#97b24a" d="M57.157.001A59.155 59.155 0 0 1 68.826 2.02a53.1 53.1 0 0 1 16.948 8.447 60.826 60.826 0 0 1 6.11 5.171c.3.294.683.367.986.607a.465.465 0 0 0 .485.215 25.025 25.025 0 0 0 2.896 3.957 36.536 36.536 0 0 1 4.66 7 303.052 303.052 0 0 1 3.577 7.4 42.712 42.712 0 0 1 1.842 6.344 37.4 37.4 0 0 1 1.292 9.015 57.786 57.786 0 0 1-2.976 21.486A55.757 55.757 0 0 1 91.22 92.717c-.23.232-.411.667-.885.4a12.068 12.068 0 0 0-2.217-3.581c-2.6-2.876-6.191-3.581-9.688-4.5a19.328 19.328 0 0 0-4.8-1.464 4.428 4.428 0 0 0-1.662-.6 19.666 19.666 0 0 0 4.978-3.283c4.516-4.236 6.173-9.687 6.505-15.622a88.492 88.492 0 0 0-.79-14.231 92.428 92.428 0 0 0-1.75-10.89c-.735-3.229-1.959-6.3-2.984-9.428a14.648 14.648 0 0 0-2.564-4.668 25.716 25.716 0 0 0-10.661-7.931 19.948 19.948 0 0 0-14.259-.1 28.6 28.6 0 0 0-6.614 3.755c-.506.347-.8.923-1.437 1.143a17.81 17.81 0 0 0-10.559 9.314c-2.676 5.445-3.635 11.314-4.4 17.234-.389 2.994-.491 6.016-.723 9.025-.459 5.885-.259 11.657 2.455 17.053 1.466 2.919 3.307 5.57 6.3 7.184a1.559 1.559 0 0 1 .948 1.116l-2.362.884a49.174 49.174 0 0 0-4.687 1.55 21.65 21.65 0 0 0-5.623 1.6 10.328 10.328 0 0 0-6.422 6.673 8.7 8.7 0 0 1-2.226-1.9A62.223 62.223 0 0 1 5.6 78.04 53.6 53.6 0 0 1 0 57.18q0-3.37.01-6.742a52.619 52.619 0 0 1 16.071-35.064A51.779 51.779 0 0 1 39.113 1.982 42.08 42.08 0 0 1 48.73.255a12.238 12.238 0 0 0 1.488-.236l6.939-.018" data-name="Trazado 1334"/>
  <path fill="#e96733" d="M78.529 101.694a54.773 54.773 0 0 1-15.2 5.169 54.148 54.148 0 0 1-12.933.735 46.723 46.723 0 0 1-14.552-2.926c-1.795-.7-3.588-1.387-5.338-2.19a.967.967 0 0 0-.739-.078l.012-.024-.193-.2-.244-.474a10.653 10.653 0 0 1 .517-2.766c.338-1.387 1.065-2.668.828-4.207-.493-3.21-.492-6.488-1.316-9.655a49.052 49.052 0 0 1 4.687-1.55c.666.62.584 1.536.9 2.3a24.385 24.385 0 0 0 5.4 8.371c1.147 1.11 2.25 2.278 3.489 3.274a15.859 15.859 0 0 0 4.707 2.465c2.07.732 4.122 1.709 6.423 1.282a22.52 22.52 0 0 0 12.558-6.8 26.056 26.056 0 0 0 6.1-10.85 19.33 19.33 0 0 1 4.8 1.464c-.34 2.877-.713 5.751-1.006 8.632-.137 1.35-.617 2.712-.027 4.074a20.645 20.645 0 0 1 1.132 3.96" data-name="Trazado 1335"/>
  <path fill="#ebb193" d="M73.63 83.564a26.059 26.059 0 0 1-6.1 10.849 22.515 22.515 0 0 1-12.559 6.8c-2.3.426-4.352-.55-6.423-1.282a15.836 15.836 0 0 1-4.706-2.465c-1.239-1-2.343-2.164-3.489-3.274a24.387 24.387 0 0 1-5.4-8.371c-.316-.76-.234-1.676-.9-2.3l2.356-.884c1.033-.349 1.766.49 2.662.683.427.092.882.576 1.256.247s-.076-.8-.177-1.207c-.067-.269-.155-.534-.233-.8 1.772-.527 3.541-1.067 5.319-1.571.434-.123.448-.407.449-.743l.025-5.9a1.013 1.013 0 0 0-.375-.856 33.289 33.289 0 0 1-8.939-11.947.743.743 0 0 0-.845-.5 7.17 7.17 0 0 1-.387-3.032c.17-2.214-.018-4.418.09-6.622a.144.144 0 0 0 .01-.163 76.144 76.144 0 0 1 .915-8.689c.29-1.647.322-3.476 1.225-4.834a10.976 10.976 0 0 1 6.753-4.9c1.425-.326 2.74-.511 3.434 1.2.063.156.251.258.374.391a36.514 36.514 0 0 0 10.406 7.782 26.911 26.911 0 0 0 5.916 2.57c2.335.534 4.7.928 7.028 1.561 1.106.3 1.29.888 1.291 1.838a39.511 39.511 0 0 0 .212 4.636 68.418 68.418 0 0 1 .34 8.049c-1.255-.247-1.789.4-2.286 1.5a31.659 31.659 0 0 1-7.893 10.626 1.548 1.548 0 0 0-.7 1.265c.044 2.187.025 4.376.029 6.564-.053.134.01.176.134.171l7.391 2.258a2.506 2.506 0 0 0-.117.5c-.009.27-.407.462-.151.778.293.36.605.055.879-.011.519-.126 1.016-.34 1.521-.518a4.437 4.437 0 0 1 1.662.6" data-name="Trazado 1336"/>
  <path fill="#312b24" d="M39.92 81.565c.078.267.165.531.233.8.1.406.561.87.177 1.207s-.829-.155-1.256-.247c-.9-.194-1.629-1.033-2.662-.684a1.56 1.56 0 0 0-.95-1.12c-2.99-1.613-4.83-4.265-6.3-7.183-2.711-5.4-2.916-11.168-2.461-17.055.233-3.009.335-6.031.723-9.025.769-5.919 1.728-11.789 4.4-17.234a17.811 17.811 0 0 1 10.567-9.308c.634-.22.931-.8 1.437-1.143a28.587 28.587 0 0 1 6.613-3.752 19.948 19.948 0 0 1 14.259.1 25.713 25.713 0 0 1 10.661 7.931 14.648 14.648 0 0 1 2.566 4.669c1.026 3.131 2.25 6.2 2.984 9.428a92.4 92.4 0 0 1 1.753 10.894 88.492 88.492 0 0 1 .79 14.231c-.335 5.931-1.993 11.382-6.509 15.607a19.689 19.689 0 0 1-4.978 3.283c-.506.177-1 .391-1.521.517-.273.066-.586.371-.878.011-.257-.316.141-.508.15-.778a2.465 2.465 0 0 1 .117-.5 1.208 1.208 0 0 0 .5-.811 55.005 55.005 0 0 0 2.255-10.5 95.634 95.634 0 0 0 .571-11.072 68.418 68.418 0 0 0-.34-8.049 39.508 39.508 0 0 1-.212-4.636c0-.951-.185-1.537-1.291-1.838-2.325-.633-4.693-1.028-7.028-1.561a26.92 26.92 0 0 1-5.916-2.57 36.521 36.521 0 0 1-10.408-7.773c-.123-.134-.311-.236-.374-.392-.694-1.712-2.009-1.526-3.434-1.2a10.977 10.977 0 0 0-6.753 4.9c-.9 1.358-.935 3.187-1.225 4.834a76.149 76.149 0 0 0-.915 8.689c-.022.014-.066.034-.064.042a.83.83 0 0 0 .054.121c-.108 2.2.08 4.408-.09 6.622a7.167 7.167 0 0 0 .387 3.032 49.518 49.518 0 0 0 .593 5.381 78.965 78.965 0 0 0 2.026 10.088c.529 2.029 1.162 4.03 1.749 6.044" data-name="Trazado 1337"/>
  <path fill="#ebb193" d="M78.529 101.695a20.646 20.646 0 0 0-1.132-3.96c-.59-1.362-.11-2.724.027-4.074.293-2.881.666-5.755 1.006-8.632 3.5.923 7.085 1.628 9.688 4.5a12.067 12.067 0 0 1 2.217 3.581c-.007.756-.7.99-1.131 1.373a42.98 42.98 0 0 1-10.675 7.207" data-name="Trazado 1338"/>
  <path fill="#211d1a" d="M73.157 59.831a95.633 95.633 0 0 1-.571 11.072 55.005 55.005 0 0 1-2.255 10.5 1.208 1.208 0 0 1-.5.811l-7.391-2.258-.134-.171c0-2.188.015-4.377-.029-6.564a1.547 1.547 0 0 1 .7-1.265A31.66 31.66 0 0 0 70.87 61.33c.5-1.1 1.031-1.744 2.286-1.5" data-name="Trazado 1339"/>
  <path fill="#211d1a" d="M39.921 81.566c-.587-2.014-1.22-4.015-1.749-6.044a78.965 78.965 0 0 1-2.027-10.094 49.517 49.517 0 0 1-.593-5.381.744.744 0 0 1 .845.5 33.294 33.294 0 0 0 8.943 11.954 1.012 1.012 0 0 1 .375.856q-.018 2.948-.025 5.9c0 .337-.015.62-.449.743-1.779.5-3.547 1.044-5.32 1.571" data-name="Trazado 1340"/>
  <path fill="#761b22" d="m62.312 79.785.134.171c-.124 0-.187-.038-.134-.171" data-name="Trazado 1341"/>
  <path fill="#97b24a" d="M57.157.001A59.155 59.155 0 0 1 68.826 2.02a53.1 53.1 0 0 1 16.948 8.447 60.826 60.826 0 0 1 6.11 5.171c.3.294.683.367.986.607a.465.465 0 0 0 .485.215 25.025 25.025 0 0 0 2.896 3.957 36.536 36.536 0 0 1 4.66 7 303.052 303.052 0 0 1 3.577 7.4 42.712 42.712 0 0 1 1.842 6.344 37.4 37.4 0 0 1 1.292 9.015 57.786 57.786 0 0 1-2.976 21.486A55.757 55.757 0 0 1 91.22 92.717c-.23.232-.411.667-.885.4a12.068 12.068 0 0 0-2.217-3.581c-2.6-2.876-6.191-3.581-9.688-4.5a19.328 19.328 0 0 0-4.8-1.464 4.428 4.428 0 0 0-1.662-.6 19.666 19.666 0 0 0 4.978-3.283c4.516-4.236 6.173-9.687 6.505-15.622a88.492 88.492 0 0 0-.79-14.231 92.428 92.428 0 0 0-1.75-10.89c-.735-3.229-1.959-6.3-2.984-9.428a14.648 14.648 0 0 0-2.564-4.668 25.716 25.716 0 0 0-10.661-7.931 19.948 19.948 0 0 0-14.259-.1 28.6 28.6 0 0 0-6.614 3.755c-.506.347-.8.923-1.437 1.143a17.81 17.81 0 0 0-10.559 9.314c-2.676 5.445-3.635 11.314-4.4 17.234-.389 2.994-.491 6.016-.723 9.025-.459 5.885-.259 11.657 2.455 17.053 1.466 2.919 3.307 5.57 6.3 7.184a1.559 1.559 0 0 1 .948 1.116l-2.362.884a49.174 49.174 0 0 0-4.687 1.55 21.65 21.65 0 0 0-5.623 1.6 10.328 10.328 0 0 0-6.422 6.673 8.7 8.7 0 0 1-2.226-1.9A62.223 62.223 0 0 1 5.6 78.04 53.6 53.6 0 0 1 0 57.18q0-3.37.01-6.742a52.619 52.619 0 0 1 16.071-35.064A51.779 51.779 0 0 1 39.113 1.982 42.08 42.08 0 0 1 48.73.255a12.238 12.238 0 0 0 1.488-.236l6.939-.018" data-name="Trazado 1342"/>
  <path fill="#97b24a" d="M57.157.001A59.155 59.155 0 0 1 68.826 2.02a53.1 53.1 0 0 1 16.948 8.447 60.826 60.826 0 0 1 6.11 5.171c.3.294.683.367.986.607a.465.465 0 0 0 .485.215 25.025 25.025 0 0 0 2.896 3.957 36.536 36.536 0 0 1 4.66 7 303.052 303.052 0 0 1 3.577 7.4 42.712 42.712 0 0 1 1.842 6.344 37.4 37.4 0 0 1 1.292 9.015 57.786 57.786 0 0 1-2.976 21.486A55.757 55.757 0 0 1 91.22 92.717c-.23.232-.411.667-.885.4a12.068 12.068 0 0 0-2.217-3.581c-2.6-2.876-6.191-3.581-9.688-4.5a19.328 19.328 0 0 0-4.8-1.464 4.428 4.428 0 0 0-1.662-.6 19.666 19.666 0 0 0 4.978-3.283c4.516-4.236 6.173-9.687 6.505-15.622a88.492 88.492 0 0 0-.79-14.231 92.428 92.428 0 0 0-1.75-10.89c-.735-3.229-1.959-6.3-2.984-9.428a14.648 14.648 0 0 0-2.564-4.668 25.716 25.716 0 0 0-10.661-7.931 19.948 19.948 0 0 0-14.259-.1 28.6 28.6 0 0 0-6.614 3.755c-.506.347-.8.923-1.437 1.143a17.81 17.81 0 0 0-10.559 9.314c-2.676 5.445-3.635 11.314-4.4 17.234-.389 2.994-.491 6.016-.723 9.025-.459 5.885-.259 11.657 2.455 17.053 1.466 2.919 3.307 5.57 6.3 7.184a1.559 1.559 0 0 1 .948 1.116l-2.362.884a49.174 49.174 0 0 0-4.687 1.55 21.65 21.65 0 0 0-5.623 1.6 10.328 10.328 0 0 0-6.422 6.673 8.7 8.7 0 0 1-2.226-1.9A62.223 62.223 0 0 1 5.6 78.04 53.6 53.6 0 0 1 0 57.18q0-3.37.01-6.742a52.619 52.619 0 0 1 16.071-35.064A51.779 51.779 0 0 1 39.113 1.982 42.08 42.08 0 0 1 48.73.255a12.238 12.238 0 0 0 1.488-.236l6.939-.018" data-name="Trazado 1343"/>
  <path fill="#e96733" d="M78.529 101.694a54.773 54.773 0 0 1-15.2 5.169 54.148 54.148 0 0 1-12.933.735 46.723 46.723 0 0 1-14.552-2.926c-1.795-.7-3.588-1.387-5.338-2.19a.967.967 0 0 0-.739-.078l.012-.024-.193-.2-.244-.474a10.653 10.653 0 0 1 .517-2.766c.338-1.387 1.065-2.668.828-4.207-.493-3.21-.492-6.488-1.316-9.655a49.052 49.052 0 0 1 4.687-1.55c.666.62.584 1.536.9 2.3a24.385 24.385 0 0 0 5.4 8.371c1.147 1.11 2.25 2.278 3.489 3.274a15.859 15.859 0 0 0 4.707 2.465c2.07.732 4.122 1.709 6.423 1.282a22.52 22.52 0 0 0 12.558-6.8 26.056 26.056 0 0 0 6.1-10.85 19.33 19.33 0 0 1 4.8 1.464c-.34 2.877-.713 5.751-1.006 8.632-.137 1.35-.617 2.712-.027 4.074a20.645 20.645 0 0 1 1.132 3.96" data-name="Trazado 1344"/>
  <path fill="#ebb193" d="M73.63 83.564a26.059 26.059 0 0 1-6.1 10.849 22.515 22.515 0 0 1-12.559 6.8c-2.3.426-4.352-.55-6.423-1.282a15.836 15.836 0 0 1-4.706-2.465c-1.239-1-2.343-2.164-3.489-3.274a24.387 24.387 0 0 1-5.4-8.371c-.316-.76-.234-1.676-.9-2.3l2.356-.884c1.033-.349 1.766.49 2.662.683.427.092.882.576 1.256.247s-.076-.8-.177-1.207c-.067-.269-.155-.534-.233-.8 1.772-.527 3.541-1.067 5.319-1.571.434-.123.448-.407.449-.743l.025-5.9a1.013 1.013 0 0 0-.375-.856 33.289 33.289 0 0 1-8.939-11.947.743.743 0 0 0-.845-.5 7.17 7.17 0 0 1-.387-3.032c.17-2.214-.018-4.418.09-6.622a.144.144 0 0 0 .01-.163 76.144 76.144 0 0 1 .915-8.689c.29-1.647.322-3.476 1.225-4.834a10.976 10.976 0 0 1 6.753-4.9c1.425-.326 2.74-.511 3.434 1.2.063.156.251.258.374.391a36.514 36.514 0 0 0 10.406 7.782 26.911 26.911 0 0 0 5.916 2.57c2.335.534 4.7.928 7.028 1.561 1.106.3 1.29.888 1.291 1.838a39.511 39.511 0 0 0 .212 4.636 68.418 68.418 0 0 1 .34 8.049c-1.255-.247-1.789.4-2.286 1.5a31.659 31.659 0 0 1-7.893 10.626 1.548 1.548 0 0 0-.7 1.265c.044 2.187.025 4.376.029 6.564-.053.134.01.176.134.171l7.391 2.258a2.506 2.506 0 0 0-.117.5c-.009.27-.407.462-.151.778.293.36.605.055.879-.011.519-.126 1.016-.34 1.521-.518a4.437 4.437 0 0 1 1.662.6" data-name="Trazado 1345"/>
  <path fill="#312b24" d="M39.92 81.565c.078.267.165.531.233.8.1.406.561.87.177 1.207s-.829-.155-1.256-.247c-.9-.194-1.629-1.033-2.662-.684a1.56 1.56 0 0 0-.95-1.12c-2.99-1.613-4.83-4.265-6.3-7.183-2.711-5.4-2.916-11.168-2.461-17.055.233-3.009.335-6.031.723-9.025.769-5.919 1.728-11.789 4.4-17.234a17.811 17.811 0 0 1 10.567-9.308c.634-.22.931-.8 1.437-1.143a28.587 28.587 0 0 1 6.613-3.752 19.948 19.948 0 0 1 14.259.1 25.713 25.713 0 0 1 10.661 7.931 14.648 14.648 0 0 1 2.566 4.669c1.026 3.131 2.25 6.2 2.984 9.428a92.4 92.4 0 0 1 1.753 10.894 88.492 88.492 0 0 1 .79 14.231c-.335 5.931-1.993 11.382-6.509 15.607a19.689 19.689 0 0 1-4.978 3.283c-.506.177-1 .391-1.521.517-.273.066-.586.371-.878.011-.257-.316.141-.508.15-.778a2.465 2.465 0 0 1 .117-.5 1.208 1.208 0 0 0 .5-.811 55.005 55.005 0 0 0 2.255-10.5 95.634 95.634 0 0 0 .571-11.072 68.418 68.418 0 0 0-.34-8.049 39.508 39.508 0 0 1-.212-4.636c0-.951-.185-1.537-1.291-1.838-2.325-.633-4.693-1.028-7.028-1.561a26.92 26.92 0 0 1-5.916-2.57 36.521 36.521 0 0 1-10.408-7.773c-.123-.134-.311-.236-.374-.392-.694-1.712-2.009-1.526-3.434-1.2a10.977 10.977 0 0 0-6.753 4.9c-.9 1.358-.935 3.187-1.225 4.834a76.149 76.149 0 0 0-.915 8.689c-.022.014-.066.034-.064.042a.83.83 0 0 0 .054.121c-.108 2.2.08 4.408-.09 6.622a7.167 7.167 0 0 0 .387 3.032 49.518 49.518 0 0 0 .593 5.381 78.965 78.965 0 0 0 2.026 10.088c.529 2.029 1.162 4.03 1.749 6.044" data-name="Trazado 1346"/>
  <path fill="#ebb193" d="M78.529 101.695a20.646 20.646 0 0 0-1.132-3.96c-.59-1.362-.11-2.724.027-4.074.293-2.881.666-5.755 1.006-8.632 3.5.923 7.085 1.628 9.688 4.5a12.067 12.067 0 0 1 2.217 3.581c-.007.756-.7.99-1.131 1.373a42.98 42.98 0 0 1-10.675 7.207" data-name="Trazado 1347"/>
  <path fill="#211d1a" d="M73.157 59.831a95.633 95.633 0 0 1-.571 11.072 55.005 55.005 0 0 1-2.255 10.5 1.208 1.208 0 0 1-.5.811l-7.391-2.258-.134-.171c0-2.188.015-4.377-.029-6.564a1.547 1.547 0 0 1 .7-1.265A31.66 31.66 0 0 0 70.87 61.33c.5-1.1 1.031-1.744 2.286-1.5" data-name="Trazado 1348"/>
  <path fill="#211d1a" d="M39.921 81.566c-.587-2.014-1.22-4.015-1.749-6.044a78.965 78.965 0 0 1-2.027-10.094 49.517 49.517 0 0 1-.593-5.381.744.744 0 0 1 .845.5 33.294 33.294 0 0 0 8.943 11.954 1.012 1.012 0 0 1 .375.856q-.018 2.948-.025 5.9c0 .337-.015.62-.449.743-1.779.5-3.547 1.044-5.32 1.571" data-name="Trazado 1349"/>
  <path fill="#761b22" d="m62.312 79.785.134.171c-.124 0-.187-.038-.134-.171" data-name="Trazado 1350"/>
  <path fill="#97b24a" d="M57.157.001A59.155 59.155 0 0 1 68.826 2.02a53.1 53.1 0 0 1 16.948 8.447 60.826 60.826 0 0 1 6.11 5.171c.3.294.683.367.986.607a.465.465 0 0 0 .485.215 25.025 25.025 0 0 0 2.896 3.957 36.536 36.536 0 0 1 4.66 7 303.052 303.052 0 0 1 3.577 7.4 42.712 42.712 0 0 1 1.842 6.344 37.4 37.4 0 0 1 1.292 9.015 57.786 57.786 0 0 1-2.976 21.486A55.757 55.757 0 0 1 91.22 92.717c-.23.232-.411.667-.885.4a12.068 12.068 0 0 0-2.217-3.581c-2.6-2.876-6.191-3.581-9.688-4.5a19.328 19.328 0 0 0-4.8-1.464 4.428 4.428 0 0 0-1.662-.6 19.666 19.666 0 0 0 4.978-3.283c4.516-4.236 6.173-9.687 6.505-15.622a88.492 88.492 0 0 0-.79-14.231 92.428 92.428 0 0 0-1.75-10.89c-.735-3.229-1.959-6.3-2.984-9.428a14.648 14.648 0 0 0-2.564-4.668 25.716 25.716 0 0 0-10.661-7.931 19.948 19.948 0 0 0-14.259-.1 28.6 28.6 0 0 0-6.614 3.755c-.506.347-.8.923-1.437 1.143a17.81 17.81 0 0 0-10.559 9.314c-2.676 5.445-3.635 11.314-4.4 17.234-.389 2.994-.491 6.016-.723 9.025-.459 5.885-.259 11.657 2.455 17.053 1.466 2.919 3.307 5.57 6.3 7.184a1.559 1.559 0 0 1 .948 1.116l-2.362.884a49.174 49.174 0 0 0-4.687 1.55 21.65 21.65 0 0 0-5.623 1.6 10.328 10.328 0 0 0-6.422 6.673 8.7 8.7 0 0 1-2.226-1.9A62.223 62.223 0 0 1 5.6 78.04 53.6 53.6 0 0 1 0 57.18q0-3.37.01-6.742a52.619 52.619 0 0 1 16.071-35.064A51.779 51.779 0 0 1 39.113 1.982 42.08 42.08 0 0 1 48.73.255a12.238 12.238 0 0 0 1.488-.236l6.939-.018" data-name="Trazado 1351"/>
  <path fill="#97b24a" d="M57.157.001A59.155 59.155 0 0 1 68.826 2.02a53.1 53.1 0 0 1 16.948 8.447 60.826 60.826 0 0 1 6.11 5.171c.3.294.683.367.986.607a.465.465 0 0 0 .485.215 25.025 25.025 0 0 0 2.896 3.957 36.536 36.536 0 0 1 4.66 7 303.052 303.052 0 0 1 3.577 7.4 42.712 42.712 0 0 1 1.842 6.344 37.4 37.4 0 0 1 1.292 9.015 57.786 57.786 0 0 1-2.976 21.486A55.757 55.757 0 0 1 91.22 92.717c-.23.232-.411.667-.885.4a12.068 12.068 0 0 0-2.217-3.581c-2.6-2.876-6.191-3.581-9.688-4.5a19.328 19.328 0 0 0-4.8-1.464 4.428 4.428 0 0 0-1.662-.6 19.666 19.666 0 0 0 4.978-3.283c4.516-4.236 6.173-9.687 6.505-15.622a88.492 88.492 0 0 0-.79-14.231 92.428 92.428 0 0 0-1.75-10.89c-.735-3.229-1.959-6.3-2.984-9.428a14.648 14.648 0 0 0-2.564-4.668 25.716 25.716 0 0 0-10.661-7.931 19.948 19.948 0 0 0-14.259-.1 28.6 28.6 0 0 0-6.614 3.755c-.506.347-.8.923-1.437 1.143a17.81 17.81 0 0 0-10.559 9.314c-2.676 5.445-3.635 11.314-4.4 17.234-.389 2.994-.491 6.016-.723 9.025-.459 5.885-.259 11.657 2.455 17.053 1.466 2.919 3.307 5.57 6.3 7.184a1.559 1.559 0 0 1 .948 1.116l-2.362.884a49.174 49.174 0 0 0-4.687 1.55 21.65 21.65 0 0 0-5.623 1.6 10.328 10.328 0 0 0-6.422 6.673 8.7 8.7 0 0 1-2.226-1.9A62.223 62.223 0 0 1 5.6 78.04 53.6 53.6 0 0 1 0 57.18q0-3.37.01-6.742a52.619 52.619 0 0 1 16.071-35.064A51.779 51.779 0 0 1 39.113 1.982 42.08 42.08 0 0 1 48.73.255a12.238 12.238 0 0 0 1.488-.236l6.939-.018" data-name="Trazado 1352"/>
  <path fill="#e96733" d="M78.529 101.694a54.773 54.773 0 0 1-15.2 5.169 54.148 54.148 0 0 1-12.933.735 46.723 46.723 0 0 1-14.552-2.926c-1.795-.7-3.588-1.387-5.338-2.19a.967.967 0 0 0-.739-.078l.012-.024-.193-.2-.244-.474a10.653 10.653 0 0 1 .517-2.766c.338-1.387 1.065-2.668.828-4.207-.493-3.21-.492-6.488-1.316-9.655a49.052 49.052 0 0 1 4.687-1.55c.666.62.584 1.536.9 2.3a24.385 24.385 0 0 0 5.4 8.371c1.147 1.11 2.25 2.278 3.489 3.274a15.859 15.859 0 0 0 4.707 2.465c2.07.732 4.122 1.709 6.423 1.282a22.52 22.52 0 0 0 12.558-6.8 26.056 26.056 0 0 0 6.1-10.85 19.33 19.33 0 0 1 4.8 1.464c-.34 2.877-.713 5.751-1.006 8.632-.137 1.35-.617 2.712-.027 4.074a20.645 20.645 0 0 1 1.132 3.96" data-name="Trazado 1353"/>
  <path fill="#ebb193" d="M73.63 83.564a26.059 26.059 0 0 1-6.1 10.849 22.515 22.515 0 0 1-12.559 6.8c-2.3.426-4.352-.55-6.423-1.282a15.836 15.836 0 0 1-4.706-2.465c-1.239-1-2.343-2.164-3.489-3.274a24.387 24.387 0 0 1-5.4-8.371c-.316-.76-.234-1.676-.9-2.3l2.356-.884c1.033-.349 1.766.49 2.662.683.427.092.882.576 1.256.247s-.076-.8-.177-1.207c-.067-.269-.155-.534-.233-.8 1.772-.527 3.541-1.067 5.319-1.571.434-.123.448-.407.449-.743l.025-5.9a1.013 1.013 0 0 0-.375-.856 33.289 33.289 0 0 1-8.939-11.947.743.743 0 0 0-.845-.5 7.17 7.17 0 0 1-.387-3.032c.17-2.214-.018-4.418.09-6.622a.144.144 0 0 0 .01-.163 76.144 76.144 0 0 1 .915-8.689c.29-1.647.322-3.476 1.225-4.834a10.976 10.976 0 0 1 6.753-4.9c1.425-.326 2.74-.511 3.434 1.2.063.156.251.258.374.391a36.514 36.514 0 0 0 10.406 7.782 26.911 26.911 0 0 0 5.916 2.57c2.335.534 4.7.928 7.028 1.561 1.106.3 1.29.888 1.291 1.838a39.511 39.511 0 0 0 .212 4.636 68.418 68.418 0 0 1 .34 8.049c-1.255-.247-1.789.4-2.286 1.5a31.659 31.659 0 0 1-7.893 10.626 1.548 1.548 0 0 0-.7 1.265c.044 2.187.025 4.376.029 6.564-.053.134.01.176.134.171l7.391 2.258a2.506 2.506 0 0 0-.117.5c-.009.27-.407.462-.151.778.293.36.605.055.879-.011.519-.126 1.016-.34 1.521-.518a4.437 4.437 0 0 1 1.662.6" data-name="Trazado 1354"/>
  <path fill="#312b24" d="M39.92 81.565c.078.267.165.531.233.8.1.406.561.87.177 1.207s-.829-.155-1.256-.247c-.9-.194-1.629-1.033-2.662-.684a1.56 1.56 0 0 0-.95-1.12c-2.99-1.613-4.83-4.265-6.3-7.183-2.711-5.4-2.916-11.168-2.461-17.055.233-3.009.335-6.031.723-9.025.769-5.919 1.728-11.789 4.4-17.234a17.811 17.811 0 0 1 10.567-9.308c.634-.22.931-.8 1.437-1.143a28.587 28.587 0 0 1 6.613-3.752 19.948 19.948 0 0 1 14.259.1 25.713 25.713 0 0 1 10.661 7.931 14.648 14.648 0 0 1 2.566 4.669c1.026 3.131 2.25 6.2 2.984 9.428a92.4 92.4 0 0 1 1.753 10.894 88.492 88.492 0 0 1 .79 14.231c-.335 5.931-1.993 11.382-6.509 15.607a19.689 19.689 0 0 1-4.978 3.283c-.506.177-1 .391-1.521.517-.273.066-.586.371-.878.011-.257-.316.141-.508.15-.778a2.465 2.465 0 0 1 .117-.5 1.208 1.208 0 0 0 .5-.811 55.005 55.005 0 0 0 2.255-10.5 95.634 95.634 0 0 0 .571-11.072 68.418 68.418 0 0 0-.34-8.049 39.508 39.508 0 0 1-.212-4.636c0-.951-.185-1.537-1.291-1.838-2.325-.633-4.693-1.028-7.028-1.561a26.92 26.92 0 0 1-5.916-2.57 36.521 36.521 0 0 1-10.408-7.773c-.123-.134-.311-.236-.374-.392-.694-1.712-2.009-1.526-3.434-1.2a10.977 10.977 0 0 0-6.753 4.9c-.9 1.358-.935 3.187-1.225 4.834a76.149 76.149 0 0 0-.915 8.689c-.022.014-.066.034-.064.042a.83.83 0 0 0 .054.121c-.108 2.2.08 4.408-.09 6.622a7.167 7.167 0 0 0 .387 3.032 49.518 49.518 0 0 0 .593 5.381 78.965 78.965 0 0 0 2.026 10.088c.529 2.029 1.162 4.03 1.749 6.044" data-name="Trazado 1355"/>
  <path fill="#ebb193" d="M78.529 101.695a20.646 20.646 0 0 0-1.132-3.96c-.59-1.362-.11-2.724.027-4.074.293-2.881.666-5.755 1.006-8.632 3.5.923 7.085 1.628 9.688 4.5a12.067 12.067 0 0 1 2.217 3.581c-.007.756-.7.99-1.131 1.373a42.98 42.98 0 0 1-10.675 7.207" data-name="Trazado 1356"/>
  <path fill="#211d1a" d="M73.157 59.831a95.633 95.633 0 0 1-.571 11.072 55.005 55.005 0 0 1-2.255 10.5 1.208 1.208 0 0 1-.5.811l-7.391-2.258-.134-.171c0-2.188.015-4.377-.029-6.564a1.547 1.547 0 0 1 .7-1.265A31.66 31.66 0 0 0 70.87 61.33c.5-1.1 1.031-1.744 2.286-1.5" data-name="Trazado 1357"/>
  <path fill="#211d1a" d="M39.921 81.566c-.587-2.014-1.22-4.015-1.749-6.044a78.965 78.965 0 0 1-2.027-10.094 49.517 49.517 0 0 1-.593-5.381.744.744 0 0 1 .845.5 33.294 33.294 0 0 0 8.943 11.954 1.012 1.012 0 0 1 .375.856q-.018 2.948-.025 5.9c0 .337-.015.62-.449.743-1.779.5-3.547 1.044-5.32 1.571" data-name="Trazado 1358"/>
  <path fill="#761b22" d="m62.312 79.785.134.171c-.124 0-.187-.038-.134-.171" data-name="Trazado 1359"/>
  <path fill="#97b24a" d="M57.157.001A59.155 59.155 0 0 1 68.826 2.02a53.1 53.1 0 0 1 16.948 8.447 60.826 60.826 0 0 1 6.11 5.171c.3.294.683.367.986.607a.465.465 0 0 0 .485.215 25.025 25.025 0 0 0 2.896 3.957 36.536 36.536 0 0 1 4.66 7 303.052 303.052 0 0 1 3.577 7.4 42.712 42.712 0 0 1 1.842 6.344 37.4 37.4 0 0 1 1.292 9.015 57.786 57.786 0 0 1-2.976 21.486A55.757 55.757 0 0 1 91.22 92.717c-.23.232-.411.667-.885.4a12.068 12.068 0 0 0-2.217-3.581c-2.6-2.876-6.191-3.581-9.688-4.5a19.328 19.328 0 0 0-4.8-1.464 4.428 4.428 0 0 0-1.662-.6 19.666 19.666 0 0 0 4.978-3.283c4.516-4.236 6.173-9.687 6.505-15.622a88.492 88.492 0 0 0-.79-14.231 92.428 92.428 0 0 0-1.75-10.89c-.735-3.229-1.959-6.3-2.984-9.428a14.648 14.648 0 0 0-2.564-4.668 25.716 25.716 0 0 0-10.661-7.931 19.948 19.948 0 0 0-14.259-.1 28.6 28.6 0 0 0-6.614 3.755c-.506.347-.8.923-1.437 1.143a17.81 17.81 0 0 0-10.559 9.314c-2.676 5.445-3.635 11.314-4.4 17.234-.389 2.994-.491 6.016-.723 9.025-.459 5.885-.259 11.657 2.455 17.053 1.466 2.919 3.307 5.57 6.3 7.184a1.559 1.559 0 0 1 .948 1.116l-2.362.884a49.174 49.174 0 0 0-4.687 1.55 21.65 21.65 0 0 0-5.623 1.6 10.328 10.328 0 0 0-6.422 6.673 8.7 8.7 0 0 1-2.226-1.9A62.223 62.223 0 0 1 5.6 78.04 53.6 53.6 0 0 1 0 57.18q0-3.37.01-6.742a52.619 52.619 0 0 1 16.071-35.064A51.779 51.779 0 0 1 39.113 1.982 42.08 42.08 0 0 1 48.73.255a12.238 12.238 0 0 0 1.488-.236l6.939-.018" data-name="Trazado 1360"/>
  <path fill="#97b24a" d="M57.157.001A59.155 59.155 0 0 1 68.826 2.02a53.1 53.1 0 0 1 16.948 8.447 60.826 60.826 0 0 1 6.11 5.171c.3.294.683.367.986.607a.465.465 0 0 0 .485.215 25.025 25.025 0 0 0 2.896 3.957 36.536 36.536 0 0 1 4.66 7 303.052 303.052 0 0 1 3.577 7.4 42.712 42.712 0 0 1 1.842 6.344 37.4 37.4 0 0 1 1.292 9.015 57.786 57.786 0 0 1-2.976 21.486A55.757 55.757 0 0 1 91.22 92.717c-.23.232-.411.667-.885.4a12.068 12.068 0 0 0-2.217-3.581c-2.6-2.876-6.191-3.581-9.688-4.5a19.328 19.328 0 0 0-4.8-1.464 4.428 4.428 0 0 0-1.662-.6 19.666 19.666 0 0 0 4.978-3.283c4.516-4.236 6.173-9.687 6.505-15.622a88.492 88.492 0 0 0-.79-14.231 92.428 92.428 0 0 0-1.75-10.89c-.735-3.229-1.959-6.3-2.984-9.428a14.648 14.648 0 0 0-2.564-4.668 25.716 25.716 0 0 0-10.661-7.931 19.948 19.948 0 0 0-14.259-.1 28.6 28.6 0 0 0-6.614 3.755c-.506.347-.8.923-1.437 1.143a17.81 17.81 0 0 0-10.559 9.314c-2.676 5.445-3.635 11.314-4.4 17.234-.389 2.994-.491 6.016-.723 9.025-.459 5.885-.259 11.657 2.455 17.053 1.466 2.919 3.307 5.57 6.3 7.184a1.559 1.559 0 0 1 .948 1.116l-2.362.884a49.174 49.174 0 0 0-4.687 1.55 21.65 21.65 0 0 0-5.623 1.6 10.328 10.328 0 0 0-6.422 6.673 8.7 8.7 0 0 1-2.226-1.9A62.223 62.223 0 0 1 5.6 78.04 53.6 53.6 0 0 1 0 57.18q0-3.37.01-6.742a52.619 52.619 0 0 1 16.071-35.064A51.779 51.779 0 0 1 39.113 1.982 42.08 42.08 0 0 1 48.73.255a12.238 12.238 0 0 0 1.488-.236l6.939-.018" data-name="Trazado 1361"/>
  <path fill="#e96733" d="M78.529 101.694a54.773 54.773 0 0 1-15.2 5.169 54.148 54.148 0 0 1-12.933.735 46.723 46.723 0 0 1-14.552-2.926c-1.795-.7-3.588-1.387-5.338-2.19a.967.967 0 0 0-.739-.078l.012-.024-.193-.2-.244-.474a10.653 10.653 0 0 1 .517-2.766c.338-1.387 1.065-2.668.828-4.207-.493-3.21-.492-6.488-1.316-9.655a49.052 49.052 0 0 1 4.687-1.55c.666.62.584 1.536.9 2.3a24.385 24.385 0 0 0 5.4 8.371c1.147 1.11 2.25 2.278 3.489 3.274a15.859 15.859 0 0 0 4.707 2.465c2.07.732 4.122 1.709 6.423 1.282a22.52 22.52 0 0 0 12.558-6.8 26.056 26.056 0 0 0 6.1-10.85 19.33 19.33 0 0 1 4.8 1.464c-.34 2.877-.713 5.751-1.006 8.632-.137 1.35-.617 2.712-.027 4.074a20.645 20.645 0 0 1 1.132 3.96" data-name="Trazado 1362"/>
  <path fill="#ebb193" d="M73.63 83.564a26.059 26.059 0 0 1-6.1 10.849 22.515 22.515 0 0 1-12.559 6.8c-2.3.426-4.352-.55-6.423-1.282a15.836 15.836 0 0 1-4.706-2.465c-1.239-1-2.343-2.164-3.489-3.274a24.387 24.387 0 0 1-5.4-8.371c-.316-.76-.234-1.676-.9-2.3l2.356-.884c1.033-.349 1.766.49 2.662.683.427.092.882.576 1.256.247s-.076-.8-.177-1.207c-.067-.269-.155-.534-.233-.8 1.772-.527 3.541-1.067 5.319-1.571.434-.123.448-.407.449-.743l.025-5.9a1.013 1.013 0 0 0-.375-.856 33.289 33.289 0 0 1-8.939-11.947.743.743 0 0 0-.845-.5 7.17 7.17 0 0 1-.387-3.032c.17-2.214-.018-4.418.09-6.622a.144.144 0 0 0 .01-.163 76.144 76.144 0 0 1 .915-8.689c.29-1.647.322-3.476 1.225-4.834a10.976 10.976 0 0 1 6.753-4.9c1.425-.326 2.74-.511 3.434 1.2.063.156.251.258.374.391a36.514 36.514 0 0 0 10.406 7.782 26.911 26.911 0 0 0 5.916 2.57c2.335.534 4.7.928 7.028 1.561 1.106.3 1.29.888 1.291 1.838a39.511 39.511 0 0 0 .212 4.636 68.418 68.418 0 0 1 .34 8.049c-1.255-.247-1.789.4-2.286 1.5a31.659 31.659 0 0 1-7.893 10.626 1.548 1.548 0 0 0-.7 1.265c.044 2.187.025 4.376.029 6.564-.053.134.01.176.134.171l7.391 2.258a2.506 2.506 0 0 0-.117.5c-.009.27-.407.462-.151.778.293.36.605.055.879-.011.519-.126 1.016-.34 1.521-.518a4.437 4.437 0 0 1 1.662.6" data-name="Trazado 1363"/>
  <path fill="#312b24" d="M39.92 81.565c.078.267.165.531.233.8.1.406.561.87.177 1.207s-.829-.155-1.256-.247c-.9-.194-1.629-1.033-2.662-.684a1.56 1.56 0 0 0-.95-1.12c-2.99-1.613-4.83-4.265-6.3-7.183-2.711-5.4-2.916-11.168-2.461-17.055.233-3.009.335-6.031.723-9.025.769-5.919 1.728-11.789 4.4-17.234a17.811 17.811 0 0 1 10.567-9.308c.634-.22.931-.8 1.437-1.143a28.587 28.587 0 0 1 6.613-3.752 19.948 19.948 0 0 1 14.259.1 25.713 25.713 0 0 1 10.661 7.931 14.648 14.648 0 0 1 2.566 4.669c1.026 3.131 2.25 6.2 2.984 9.428a92.4 92.4 0 0 1 1.753 10.894 88.492 88.492 0 0 1 .79 14.231c-.335 5.931-1.993 11.382-6.509 15.607a19.689 19.689 0 0 1-4.978 3.283c-.506.177-1 .391-1.521.517-.273.066-.586.371-.878.011-.257-.316.141-.508.15-.778a2.465 2.465 0 0 1 .117-.5 1.208 1.208 0 0 0 .5-.811 55.005 55.005 0 0 0 2.255-10.5 95.634 95.634 0 0 0 .571-11.072 68.418 68.418 0 0 0-.34-8.049 39.508 39.508 0 0 1-.212-4.636c0-.951-.185-1.537-1.291-1.838-2.325-.633-4.693-1.028-7.028-1.561a26.92 26.92 0 0 1-5.916-2.57 36.521 36.521 0 0 1-10.408-7.773c-.123-.134-.311-.236-.374-.392-.694-1.712-2.009-1.526-3.434-1.2a10.977 10.977 0 0 0-6.753 4.9c-.9 1.358-.935 3.187-1.225 4.834a76.149 76.149 0 0 0-.915 8.689c-.022.014-.066.034-.064.042a.83.83 0 0 0 .054.121c-.108 2.2.08 4.408-.09 6.622a7.167 7.167 0 0 0 .387 3.032 49.518 49.518 0 0 0 .593 5.381 78.965 78.965 0 0 0 2.026 10.088c.529 2.029 1.162 4.03 1.749 6.044" data-name="Trazado 1364"/>
  <path fill="#ebb193" d="M78.529 101.695a20.646 20.646 0 0 0-1.132-3.96c-.59-1.362-.11-2.724.027-4.074.293-2.881.666-5.755 1.006-8.632 3.5.923 7.085 1.628 9.688 4.5a12.067 12.067 0 0 1 2.217 3.581c-.007.756-.7.99-1.131 1.373a42.98 42.98 0 0 1-10.675 7.207" data-name="Trazado 1365"/>
  <path fill="#211d1a" d="M73.157 59.831a95.633 95.633 0 0 1-.571 11.072 55.005 55.005 0 0 1-2.255 10.5 1.208 1.208 0 0 1-.5.811l-7.391-2.258-.134-.171c0-2.188.015-4.377-.029-6.564a1.547 1.547 0 0 1 .7-1.265A31.66 31.66 0 0 0 70.87 61.33c.5-1.1 1.031-1.744 2.286-1.5" data-name="Trazado 1366"/>
  <path fill="#211d1a" d="M39.921 81.566c-.587-2.014-1.22-4.015-1.749-6.044a78.965 78.965 0 0 1-2.027-10.094 49.517 49.517 0 0 1-.593-5.381.744.744 0 0 1 .845.5 33.294 33.294 0 0 0 8.943 11.954 1.012 1.012 0 0 1 .375.856q-.018 2.948-.025 5.9c0 .337-.015.62-.449.743-1.779.5-3.547 1.044-5.32 1.571" data-name="Trazado 1367"/>
  <path fill="#761b22" d="m62.312 79.785.134.171c-.124 0-.187-.038-.134-.171" data-name="Trazado 1368"/>
  <path fill="#97b24a" d="M57.157.001A59.155 59.155 0 0 1 68.826 2.02a53.1 53.1 0 0 1 16.948 8.447 60.826 60.826 0 0 1 6.11 5.171c.3.294.683.367.986.607a.465.465 0 0 0 .485.215 25.025 25.025 0 0 0 2.896 3.957 36.536 36.536 0 0 1 4.66 7 303.052 303.052 0 0 1 3.577 7.4 42.712 42.712 0 0 1 1.842 6.344 37.4 37.4 0 0 1 1.292 9.015 57.786 57.786 0 0 1-2.976 21.486A55.757 55.757 0 0 1 91.22 92.717c-.23.232-.411.667-.885.4a12.068 12.068 0 0 0-2.217-3.581c-2.6-2.876-6.191-3.581-9.688-4.5a19.328 19.328 0 0 0-4.8-1.464 4.428 4.428 0 0 0-1.662-.6 19.666 19.666 0 0 0 4.978-3.283c4.516-4.236 6.173-9.687 6.505-15.622a88.492 88.492 0 0 0-.79-14.231 92.428 92.428 0 0 0-1.75-10.89c-.735-3.229-1.959-6.3-2.984-9.428a14.648 14.648 0 0 0-2.564-4.668 25.716 25.716 0 0 0-10.661-7.931 19.948 19.948 0 0 0-14.259-.1 28.6 28.6 0 0 0-6.614 3.755c-.506.347-.8.923-1.437 1.143a17.81 17.81 0 0 0-10.559 9.314c-2.676 5.445-3.635 11.314-4.4 17.234-.389 2.994-.491 6.016-.723 9.025-.459 5.885-.259 11.657 2.455 17.053 1.466 2.919 3.307 5.57 6.3 7.184a1.559 1.559 0 0 1 .948 1.116l-2.362.884a49.174 49.174 0 0 0-4.687 1.55 21.65 21.65 0 0 0-5.623 1.6 10.328 10.328 0 0 0-6.422 6.673 8.7 8.7 0 0 1-2.226-1.9A62.223 62.223 0 0 1 5.6 78.04 53.6 53.6 0 0 1 0 57.18q0-3.37.01-6.742a52.619 52.619 0 0 1 16.071-35.064A51.779 51.779 0 0 1 39.113 1.982 42.08 42.08 0 0 1 48.73.255a12.238 12.238 0 0 0 1.488-.236l6.939-.018" data-name="Trazado 1369"/>
  <path fill="#97b24a" d="M57.157.001A59.155 59.155 0 0 1 68.826 2.02a53.1 53.1 0 0 1 16.948 8.447 60.826 60.826 0 0 1 6.11 5.171c.3.294.683.367.986.607a.465.465 0 0 0 .485.215 25.025 25.025 0 0 0 2.896 3.957 36.536 36.536 0 0 1 4.66 7 303.052 303.052 0 0 1 3.577 7.4 42.712 42.712 0 0 1 1.842 6.344 37.4 37.4 0 0 1 1.292 9.015 57.786 57.786 0 0 1-2.976 21.486A55.757 55.757 0 0 1 91.22 92.717c-.23.232-.411.667-.885.4a12.068 12.068 0 0 0-2.217-3.581c-2.6-2.876-6.191-3.581-9.688-4.5a19.328 19.328 0 0 0-4.8-1.464 4.428 4.428 0 0 0-1.662-.6 19.666 19.666 0 0 0 4.978-3.283c4.516-4.236 6.173-9.687 6.505-15.622a88.492 88.492 0 0 0-.79-14.231 92.428 92.428 0 0 0-1.75-10.89c-.735-3.229-1.959-6.3-2.984-9.428a14.648 14.648 0 0 0-2.564-4.668 25.716 25.716 0 0 0-10.661-7.931 19.948 19.948 0 0 0-14.259-.1 28.6 28.6 0 0 0-6.614 3.755c-.506.347-.8.923-1.437 1.143a17.81 17.81 0 0 0-10.559 9.314c-2.676 5.445-3.635 11.314-4.4 17.234-.389 2.994-.491 6.016-.723 9.025-.459 5.885-.259 11.657 2.455 17.053 1.466 2.919 3.307 5.57 6.3 7.184a1.559 1.559 0 0 1 .948 1.116l-2.362.884a49.174 49.174 0 0 0-4.687 1.55 21.65 21.65 0 0 0-5.623 1.6 10.328 10.328 0 0 0-6.422 6.673 8.7 8.7 0 0 1-2.226-1.9A62.223 62.223 0 0 1 5.6 78.04 53.6 53.6 0 0 1 0 57.18q0-3.37.01-6.742a52.619 52.619 0 0 1 16.071-35.064A51.779 51.779 0 0 1 39.113 1.982 42.08 42.08 0 0 1 48.73.255a12.238 12.238 0 0 0 1.488-.236l6.939-.018" data-name="Trazado 1370"/>
  <path fill="#e96733" d="M78.529 101.694a54.773 54.773 0 0 1-15.2 5.169 54.148 54.148 0 0 1-12.933.735 46.723 46.723 0 0 1-14.552-2.926c-1.795-.7-3.588-1.387-5.338-2.19a.967.967 0 0 0-.739-.078l.012-.024-.193-.2-.244-.474a10.653 10.653 0 0 1 .517-2.766c.338-1.387 1.065-2.668.828-4.207-.493-3.21-.492-6.488-1.316-9.655a49.052 49.052 0 0 1 4.687-1.55c.666.62.584 1.536.9 2.3a24.385 24.385 0 0 0 5.4 8.371c1.147 1.11 2.25 2.278 3.489 3.274a15.859 15.859 0 0 0 4.707 2.465c2.07.732 4.122 1.709 6.423 1.282a22.52 22.52 0 0 0 12.558-6.8 26.056 26.056 0 0 0 6.1-10.85 19.33 19.33 0 0 1 4.8 1.464c-.34 2.877-.713 5.751-1.006 8.632-.137 1.35-.617 2.712-.027 4.074a20.645 20.645 0 0 1 1.132 3.96" data-name="Trazado 1371"/>
  <path fill="#ebb193" d="M73.63 83.564a26.059 26.059 0 0 1-6.1 10.849 22.515 22.515 0 0 1-12.559 6.8c-2.3.426-4.352-.55-6.423-1.282a15.836 15.836 0 0 1-4.706-2.465c-1.239-1-2.343-2.164-3.489-3.274a24.387 24.387 0 0 1-5.4-8.371c-.316-.76-.234-1.676-.9-2.3l2.356-.884c1.033-.349 1.766.49 2.662.683.427.092.882.576 1.256.247s-.076-.8-.177-1.207c-.067-.269-.155-.534-.233-.8 1.772-.527 3.541-1.067 5.319-1.571.434-.123.448-.407.449-.743l.025-5.9a1.013 1.013 0 0 0-.375-.856 33.289 33.289 0 0 1-8.939-11.947.743.743 0 0 0-.845-.5 7.17 7.17 0 0 1-.387-3.032c.17-2.214-.018-4.418.09-6.622a.144.144 0 0 0 .01-.163 76.144 76.144 0 0 1 .915-8.689c.29-1.647.322-3.476 1.225-4.834a10.976 10.976 0 0 1 6.753-4.9c1.425-.326 2.74-.511 3.434 1.2.063.156.251.258.374.391a36.514 36.514 0 0 0 10.406 7.782 26.911 26.911 0 0 0 5.916 2.57c2.335.534 4.7.928 7.028 1.561 1.106.3 1.29.888 1.291 1.838a39.511 39.511 0 0 0 .212 4.636 68.418 68.418 0 0 1 .34 8.049c-1.255-.247-1.789.4-2.286 1.5a31.659 31.659 0 0 1-7.893 10.626 1.548 1.548 0 0 0-.7 1.265c.044 2.187.025 4.376.029 6.564-.053.134.01.176.134.171l7.391 2.258a2.506 2.506 0 0 0-.117.5c-.009.27-.407.462-.151.778.293.36.605.055.879-.011.519-.126 1.016-.34 1.521-.518a4.437 4.437 0 0 1 1.662.6" data-name="Trazado 1372"/>
  <path fill="#312b24" d="M39.92 81.565c.078.267.165.531.233.8.1.406.561.87.177 1.207s-.829-.155-1.256-.247c-.9-.194-1.629-1.033-2.662-.684a1.56 1.56 0 0 0-.95-1.12c-2.99-1.613-4.83-4.265-6.3-7.183-2.711-5.4-2.916-11.168-2.461-17.055.233-3.009.335-6.031.723-9.025.769-5.919 1.728-11.789 4.4-17.234a17.811 17.811 0 0 1 10.567-9.308c.634-.22.931-.8 1.437-1.143a28.587 28.587 0 0 1 6.613-3.752 19.948 19.948 0 0 1 14.259.1 25.713 25.713 0 0 1 10.661 7.931 14.648 14.648 0 0 1 2.566 4.669c1.026 3.131 2.25 6.2 2.984 9.428a92.4 92.4 0 0 1 1.753 10.894 88.492 88.492 0 0 1 .79 14.231c-.335 5.931-1.993 11.382-6.509 15.607a19.689 19.689 0 0 1-4.978 3.283c-.506.177-1 .391-1.521.517-.273.066-.586.371-.878.011-.257-.316.141-.508.15-.778a2.465 2.465 0 0 1 .117-.5 1.208 1.208 0 0 0 .5-.811 55.005 55.005 0 0 0 2.255-10.5 95.634 95.634 0 0 0 .571-11.072 68.418 68.418 0 0 0-.34-8.049 39.508 39.508 0 0 1-.212-4.636c0-.951-.185-1.537-1.291-1.838-2.325-.633-4.693-1.028-7.028-1.561a26.92 26.92 0 0 1-5.916-2.57 36.521 36.521 0 0 1-10.408-7.773c-.123-.134-.311-.236-.374-.392-.694-1.712-2.009-1.526-3.434-1.2a10.977 10.977 0 0 0-6.753 4.9c-.9 1.358-.935 3.187-1.225 4.834a76.149 76.149 0 0 0-.915 8.689c-.022.014-.066.034-.064.042a.83.83 0 0 0 .054.121c-.108 2.2.08 4.408-.09 6.622a7.167 7.167 0 0 0 .387 3.032 49.518 49.518 0 0 0 .593 5.381 78.965 78.965 0 0 0 2.026 10.088c.529 2.029 1.162 4.03 1.749 6.044" data-name="Trazado 1373"/>
  <path fill="#ebb193" d="M78.529 101.695a20.646 20.646 0 0 0-1.132-3.96c-.59-1.362-.11-2.724.027-4.074.293-2.881.666-5.755 1.006-8.632 3.5.923 7.085 1.628 9.688 4.5a12.067 12.067 0 0 1 2.217 3.581c-.007.756-.7.99-1.131 1.373a42.98 42.98 0 0 1-10.675 7.207" data-name="Trazado 1374"/>
  <path fill="#211d1a" d="M73.157 59.831a95.633 95.633 0 0 1-.571 11.072 55.005 55.005 0 0 1-2.255 10.5 1.208 1.208 0 0 1-.5.811l-7.391-2.258-.134-.171c0-2.188.015-4.377-.029-6.564a1.547 1.547 0 0 1 .7-1.265A31.66 31.66 0 0 0 70.87 61.33c.5-1.1 1.031-1.744 2.286-1.5" data-name="Trazado 1375"/>
  <path fill="#211d1a" d="M39.921 81.566c-.587-2.014-1.22-4.015-1.749-6.044a78.965 78.965 0 0 1-2.027-10.094 49.517 49.517 0 0 1-.593-5.381.744.744 0 0 1 .845.5 33.294 33.294 0 0 0 8.943 11.954 1.012 1.012 0 0 1 .375.856q-.018 2.948-.025 5.9c0 .337-.015.62-.449.743-1.779.5-3.547 1.044-5.32 1.571" data-name="Trazado 1376"/>
  <path fill="#761b22" d="m62.312 79.785.134.171c-.124 0-.187-.038-.134-.171" data-name="Trazado 1377"/>
  <path fill="#97b24a" d="M57.157.001A59.155 59.155 0 0 1 68.826 2.02a53.1 53.1 0 0 1 16.948 8.447 60.826 60.826 0 0 1 6.11 5.171c.3.294.683.367.986.607a.465.465 0 0 0 .485.215 25.025 25.025 0 0 0 2.896 3.957 36.536 36.536 0 0 1 4.66 7 303.052 303.052 0 0 1 3.577 7.4 42.712 42.712 0 0 1 1.842 6.344 37.4 37.4 0 0 1 1.292 9.015 57.786 57.786 0 0 1-2.976 21.486A55.757 55.757 0 0 1 91.22 92.717c-.23.232-.411.667-.885.4a12.068 12.068 0 0 0-2.217-3.581c-2.6-2.876-6.191-3.581-9.688-4.5a19.328 19.328 0 0 0-4.8-1.464 4.428 4.428 0 0 0-1.662-.6 19.666 19.666 0 0 0 4.978-3.283c4.516-4.236 6.173-9.687 6.505-15.622a88.492 88.492 0 0 0-.79-14.231 92.428 92.428 0 0 0-1.75-10.89c-.735-3.229-1.959-6.3-2.984-9.428a14.648 14.648 0 0 0-2.564-4.668 25.716 25.716 0 0 0-10.661-7.931 19.948 19.948 0 0 0-14.259-.1 28.6 28.6 0 0 0-6.614 3.755c-.506.347-.8.923-1.437 1.143a17.81 17.81 0 0 0-10.559 9.314c-2.676 5.445-3.635 11.314-4.4 17.234-.389 2.994-.491 6.016-.723 9.025-.459 5.885-.259 11.657 2.455 17.053 1.466 2.919 3.307 5.57 6.3 7.184a1.559 1.559 0 0 1 .948 1.116l-2.362.884a49.174 49.174 0 0 0-4.687 1.55 21.65 21.65 0 0 0-5.623 1.6 10.328 10.328 0 0 0-6.422 6.673 8.7 8.7 0 0 1-2.226-1.9A62.223 62.223 0 0 1 5.6 78.04 53.6 53.6 0 0 1 0 57.18q0-3.37.01-6.742a52.619 52.619 0 0 1 16.071-35.064A51.779 51.779 0 0 1 39.113 1.982 42.08 42.08 0 0 1 48.73.255a12.238 12.238 0 0 0 1.488-.236l6.939-.018" data-name="Trazado 1378"/>
  <path fill="#ebb193" d="M29.214 85.067c.824 3.167.822 6.445 1.316 9.655.237 1.539-.49 2.82-.828 4.207a10.694 10.694 0 0 0-.517 2.766 18.05 18.05 0 0 1-5.034-2.714 43.552 43.552 0 0 1-6.356-4.9 7.909 7.909 0 0 1-.626-.737 10.325 10.325 0 0 1 6.422-6.672 21.633 21.633 0 0 1 5.623-1.6" data-name="Trazado 1379"/>
</svg>
