<svg xmlns="http://www.w3.org/2000/svg" width="107.892" height="108.057">
  <path fill="#b8a888" d="m2.774 71.915-.06-.257a24.863 24.863 0 0 0-1.126-4.4 44.791 44.791 0 0 1-1.452-9.125c-.182-4.68-.363-9.387.751-14.024a4.936 4.936 0 0 0 .29-2.16c.6-2.2 1.194-4.4 1.975-6.546a53.8 53.8 0 0 1 8.609-15.177A52.83 52.83 0 0 1 26.609 7.409a51.556 51.556 0 0 1 12.362-5.214A63.509 63.509 0 0 1 46.796.556 45.178 45.178 0 0 1 57.565.171a59.34 59.34 0 0 1 17.051 4.068 50 50 0 0 1 14.544 9.058 19.356 19.356 0 0 0 3.795 3.1c-.015.179.036.306.242.316-.025.172.053.239.219.216-.137.508.29.718.561.967a30.766 30.766 0 0 1 4.693 6.284 3.238 3.238 0 0 0 1.278 1.763l.555 1.076c-.079.413.217.554.508.7a6.223 6.223 0 0 0 .827 2.013 35.611 35.611 0 0 1 2.552 5.253 41.279 41.279 0 0 1 3.266 14.614c.059.864-.245 1.758.208 2.591l.023 4.17a48.857 48.857 0 0 1-2.322 13.8 53.661 53.661 0 0 1-6.669 13.893c-1.273 1.867-2.706 3.6-4.026 5.424-.3.419-.616.826-1.2.834a10.988 10.988 0 0 0-3.048-2.206 1.608 1.608 0 0 0-.942-.447l-.074.005a.343.343 0 0 0-.366-.189l-.038-.046-.055.024-.345-.21-.084-.013a101.372 101.372 0 0 0-9.324-2.622l.009.006c-2.628-.978-5.343-1.673-8.039-2.424-.957-.267-1.865-.823-2.924-.629l-5.745-5.326-.017-4.509.457-.32h.1l.024-.093c1.7-1.2 3.449-2.355 4.526-4.225l-.019.022c.154.007.177-.091.169-.213a15.572 15.572 0 0 0 2.433-6.555c.253-.06.291-.238.253-.459l.007-.037a1.208 1.208 0 0 0 .231-.845 14.108 14.108 0 0 1 .692-2.814c1.2.22 1.652-.741 2.068-1.494a16.323 16.323 0 0 0 1.805-6.517c.136-1.5-.412-2-1.97-2.052a13.491 13.491 0 0 1 .371-3.348 31.649 31.649 0 0 0 .421-6.356 34.262 34.262 0 0 0-.5-6.008c-.922-5.222-3.126-9.6-7.579-12.648-3.133-2.147-6.719-2.9-10.422-3.242a.442.442 0 0 0-.682-.022 18.962 18.962 0 0 0-11.022 2.873 6.755 6.755 0 0 0-3.18 3.615 1.787 1.787 0 0 1-1.107 1.193 7.683 7.683 0 0 0-5.029 6.456 84.737 84.737 0 0 0-.695 13.6 17.893 17.893 0 0 0 .163 4.009c-.182 0-.364-.009-.545-.01-1.645-.011-2.1.432-1.986 2.078a16.451 16.451 0 0 0 .431 2.567c.542 2.31 1.144 4.6 3.538 5.782.682.384.512 1.094.647 1.688-.037.141.029.2.163.206l.077.443c-.027.3-.2.675.366.627.343 1.205.624 2.433 1.046 3.609.481 1.341.785 2.8 2.028 3.741-.22.505.245.7.472.976a23.885 23.885 0 0 0 4.841 3.966l-.072 3.908a46.288 46.288 0 0 0-4.2 3.788 13.914 13.914 0 0 0-2.615 2.6.978.978 0 0 0-.185.032 1.175 1.175 0 0 0-.418-.049q-4.166 1.108-8.326 2.235c-.6.133-1.2.25-1.8.4-2.5.638-4.993 1.294-7.493 1.929a16.942 16.942 0 0 0-6.134 3.4c-.4-.074-.595-.4-.837-.665a46.845 46.845 0 0 1-7.836-11.7c-.313-.656-.894-1.192-.921-1.979a2.947 2.947 0 0 0-.814-1.847.4.4 0 0 0-.067-.132 2.355 2.355 0 0 0-.781-1.921" data-name="Trazado 251"/>
  <path fill="#372014" d="M89.606 87.66h.074c.082.639.569.423.942.447a10.981 10.981 0 0 1 3.049 2.205 44.043 44.043 0 0 1-8.2 7.462 58.135 58.135 0 0 1-9.187 5.414c-1.15.453-2.29.931-3.452 1.352a47.736 47.736 0 0 1-11.622 2.872 2.982 2.982 0 0 1 1-2.438c.358-.359.66-.772 1.01-1.139 1.931-2.024 3.623-4.252 5.427-6.384 1.921-2.27 3.886-4.5 5.754-6.816 1.2-1.484 1.132-1.532.049-3.012-.214-.293-.393-.611-.58-.923-.135-.227-.276-.557-.046-.7 1-.633 2.032-1.216 3.064-1.8a.469.469 0 0 1 .414.072c.64.53 1.391.3 2.1.34l-.009-.006a.428.428 0 0 0 .387.442c2.052.363 3.983 1.18 6 1.629.964.214 1.881.783 2.932.551l.084.013.345.211.054-.025.039.046.365.188" data-name="Trazado 326"/>
  <path fill="#372014" d="M39.122 105.947a31.379 31.379 0 0 1-4.214-1.272 2.778 2.778 0 0 0-1.235-.314c-3.213-1.709-6.6-3.106-9.6-5.2a64.593 64.593 0 0 1-9.9-8.318 1.431 1.431 0 0 1-.283-.683 16.929 16.929 0 0 1 6.133-3.4c2.5-.635 4.994-1.291 7.493-1.929.6-.152 1.2-.269 1.8-.4a.508.508 0 0 0 .6.155 1.245 1.245 0 0 1 1.568.31c.421.438 1.021.7 1.44 1.142a.828.828 0 0 1-.058 1.022 3.091 3.091 0 0 1-.866.957.908.908 0 0 0-.267 1.49c1.129 1.146 1.867 2.58 2.983 3.752 1.647 1.73 3.156 3.6 4.673 5.452 1.817 2.213 3.353 4.655 5.475 6.62.238.22.755.448.482.843-.195.28-.677.139-1.034.054-.769-.183-1.472-1.226-2.347-.168-.061.074-.356 0-.52-.063a.783.783 0 0 0-.956.3 1.459 1.459 0 0 1-.885-.205c-.058-.377-.176-.563-.48-.149" data-name="Trazado 327"/>
  <path fill="#a4a3a4" d="M2.56 71.915a2.355 2.355 0 0 1 .781 1.921 4.079 4.079 0 0 1-.781-1.921" data-name="Trazado 328"/>
  <path fill="#a4a3a4" d="M3.409 73.968a2.948 2.948 0 0 1 .814 1.847 2.575 2.575 0 0 1-.814-1.847" data-name="Trazado 329"/>
  <path fill="#724636" d="M39.957 66.974c-1.244-.938-1.547-2.4-2.028-3.741-.422-1.177-.7-2.4-1.046-3.609l-.016-.633q0-.657-.007-1.315l-.025-.43a31.564 31.564 0 0 1-.52-4.667c-.139-2.095-.429-4.242.445-6.326a16.33 16.33 0 0 0 1.52-6.862 33.782 33.782 0 0 1-.056-5.237c.8-6.7 4.271-8.224 9.083-7.484a41.6 41.6 0 0 0 13.268.18 6.831 6.831 0 0 1 7.51 4.167 10.176 10.176 0 0 1 .785 4.919 10.514 10.514 0 0 0 1.391 6.281 8.782 8.782 0 0 1 1.048 5.158c-.307 3.325-.661 6.648-.715 9.992a2.807 2.807 0 0 0-.149 1.4l-.032.91c-.171.209-.394.415-.045.661a15.588 15.588 0 0 1-2.433 6.555c-.083.05-.248.035-.169.213l.019-.022c-1.354.224-2.6.85-3.987 1-.721.078-.845-.085-.88-.75a6.778 6.778 0 0 0-1.187-3.24c-1.538-2.445-6.457-3.7-8.108-1.2a2.365 2.365 0 0 0-2.315-1.335 6.172 6.172 0 0 0-6.754 5.928c-.053.552-.2.643-.728.579a15.363 15.363 0 0 1-3.871-1.088" data-name="Trazado 356"/>
  <path fill="#201210" d="M70.597 57.37c.055-3.344.407-6.668.714-9.992a8.77 8.77 0 0 0-1.048-5.158 10.522 10.522 0 0 1-1.391-6.281 10.172 10.172 0 0 0-.785-4.919 6.83 6.83 0 0 0-7.51-4.167 41.587 41.587 0 0 1-13.267-.18c-4.812-.74-8.279.785-9.083 7.484a33.775 33.775 0 0 0 .056 5.237 16.337 16.337 0 0 1-1.521 6.856c-.875 2.084-.584 4.232-.445 6.327a31.5 31.5 0 0 0 .519 4.667c-.183.155-.161.3.026.43q0 .658.007 1.316h-.35l-.077-.443.094-.137-.257-.069c-.135-.594.035-1.3-.644-1.687.288-.182.184-.465.123-.682a50.836 50.836 0 0 1-1.563-9.737 17.863 17.863 0 0 1-.163-4.009 84.736 84.736 0 0 1 .695-13.6 7.684 7.684 0 0 1 5.029-6.457 1.787 1.787 0 0 0 1.107-1.193 6.757 6.757 0 0 1 3.18-3.615 18.957 18.957 0 0 1 11.022-2.873l.681.021c3.7.343 7.29 1.1 10.423 3.242 4.454 3.051 6.658 7.426 7.579 12.648a34.262 34.262 0 0 1 .5 6.008 31.713 31.713 0 0 1-.421 6.356 13.45 13.45 0 0 0-.372 3.347c-.375 1.945-.535 3.918-1.009 5.861a24.4 24.4 0 0 0-.894 4.2 14.1 14.1 0 0 0-.692 2.814c-.321.215-.215.547-.23.845l-.007.037-.208-.2.032-.91c.329-.435.16-.924.149-1.4" data-name="Trazado 357"/>
  <path fill="#201210" d="M40.628 106.301a.782.782 0 0 1 .955-.3c.163.064.458.137.52.063.875-1.058 1.578-.016 2.347.168.357.085.84.226 1.034-.054.274-.395-.244-.622-.481-.843-2.123-1.965-3.659-4.407-5.475-6.62-1.518-1.849-3.026-3.722-4.673-5.452-1.116-1.172-1.854-2.606-2.982-3.752a.908.908 0 0 1 .267-1.489 3.091 3.091 0 0 0 .866-.957.827.827 0 0 0 .058-1.023c-.419-.438-1.019-.7-1.44-1.142a1.245 1.245 0 0 0-1.568-.31.508.508 0 0 1-.6-.155q4.162-1.121 8.325-2.236a1.188 1.188 0 0 1 .418.05c-1.7 1.576-1.728 3.266-.513 5.2.794 1.266 1.367 1.279 2.551.394.346-.258.671-.545 1.005-.818l.286.429a9.867 9.867 0 0 0-1.762 1.43 4.386 4.386 0 0 0 2.446-.132c.517.221.649.753.91 1.167q3.142 5.01 6.251 10.04l.259.468 4.213 6.807 3.7-6.633a.323.323 0 0 0 .189-.361l8.434-14.588.737-1.47a11.31 11.31 0 0 0 1.536-2.627c1.06-.194 1.967.363 2.924.629 2.7.751 5.41 1.445 8.038 2.424-.712-.037-1.463.19-2.1-.34a.468.468 0 0 0-.414-.072c-1.032.58-2.065 1.162-3.064 1.8-.23.146-.089.476.046.7.187.312.366.63.58.923 1.082 1.48 1.149 1.528-.05 3.013-1.868 2.312-3.834 4.546-5.754 6.816-1.8 2.132-3.5 4.36-5.427 6.384-.35.367-.653.78-1.01 1.139a2.983 2.983 0 0 0-1 2.438 18.263 18.263 0 0 1-4.389.461l-.216.02a7.9 7.9 0 0 1-2.207.092 1.911 1.911 0 0 0-1.485 0l-2.213-.1-.427-.013a46.376 46.376 0 0 1-9.644-1.564m-4.319-20.95c-.384.619-.142 1.307-.888 1.281-.15-.005-.235.148-.224.315s.175.307.282.251c.85-.435.966.431 1.557 1.034-.03-1.14-.57-1.829-.727-2.881" data-name="Trazado 358"/>
  <path fill="#724636" d="M39.958 66.97a15.362 15.362 0 0 0 3.871 1.088c.528.064.675-.027.728-.579a6.172 6.172 0 0 1 6.754-5.928 2.366 2.366 0 0 1 2.315 1.335c1.651-2.5 6.57-1.244 8.108 1.2a6.777 6.777 0 0 1 1.187 3.24c.035.665.159.828.88.75 1.387-.149 2.632-.775 3.987-1-1.078 1.87-2.823 3.026-4.525 4.224l-.1.011-.03.084-.456.32a.74.74 0 0 0-.63.374c-.917.427-1.817.9-2.754 1.274-2.65 1.067-5.323 1.872-8.229.961a36.882 36.882 0 0 1-5.8-2.414 23.9 23.9 0 0 1-4.842-3.966c-.227-.277-.692-.471-.472-.976m15.154 3.842c-.076 1.284.509 2.344 1.32 2.436.868.1 3.8-1.519 4.163-2.353a5.338 5.338 0 0 0-.357-5.508 4.669 4.669 0 0 0-4.776-1.99 6.228 6.228 0 0 1-3.493.015 3.42 3.42 0 0 0-2.461.218 4.766 4.766 0 0 0-3.16 4.1c-.223 1.988.36 3.585 2.412 4.362.644.244 1.238.623 1.879.875a1.5 1.5 0 0 0 1.957-1.634 3.378 3.378 0 0 1-.069-1.507 1.11 1.11 0 0 1 1.03-.973c.518-.029 1.037-.033 1.347.5a2.9 2.9 0 0 1 .206 1.46" data-name="Trazado 359"/>
  <path fill="#fefdfe" d="M38.386 82.214a13.931 13.931 0 0 1 2.615-2.6 46.307 46.307 0 0 1 4.2-3.787q3.628 1.882 7.255 3.766c.473.247 1.043.41 1.1 1.085-.212.378-.637.608-.74 1.061-.874 1.1-1.773 2.189-2.612 3.319a10.785 10.785 0 0 0-1.87 2.615 1.692 1.692 0 0 1-.952-.128c-1.243-.733-2.471-1.492-3.738-2.182a25.841 25.841 0 0 0-4.752-2.508l-.006-.013a.318.318 0 0 0-.3-.381l-.2-.245" data-name="Trazado 360"/>
  <path fill="#fefdfe" d="M68.441 81.557a11.31 11.31 0 0 1-1.536 2.627 1.485 1.485 0 0 0-.9.34c-1.763 1.007-3.509 2.043-5.282 3.032-.432.241-.86.774-1.46.3a2.539 2.539 0 0 0-.669-1.09q-2.322-3.041-4.652-6.075c.878-.509 1.744-1.039 2.636-1.523a55.08 55.08 0 0 0 5.709-3.117l.407.181 5.746 5.326" data-name="Trazado 361"/>
  <path fill="#724636" d="M62.288 76.049a55.121 55.121 0 0 1-5.709 3.117c-.892.483-1.758 1.014-2.636 1.522l-.389-.014c-.056-.675-.626-.839-1.1-1.085q-3.624-1.891-7.256-3.766l.072-3.908a36.8 36.8 0 0 0 5.8 2.414c2.906.912 5.579.107 8.229-.96.937-.378 1.837-.847 2.754-1.274.514 1.292.13 2.637.238 3.954" data-name="Trazado 362"/>
  <path fill="#724636" d="M34.044 46.242a50.865 50.865 0 0 0 1.563 9.737c.061.217.165.5-.123.682-2.4-1.184-3-3.473-3.541-5.783a16.508 16.508 0 0 1-.431-2.567c-.119-1.646.341-2.089 1.986-2.078.181 0 .363.007.545.01" data-name="Trazado 363"/>
  <path fill="#724636" d="M71.553 56.181a24.479 24.479 0 0 1 .893-4.2c.474-1.942.635-3.916 1.01-5.861 1.558.048 2.106.554 1.971 2.053a16.32 16.32 0 0 1-1.805 6.517c-.417.753-.867 1.714-2.068 1.494" data-name="Trazado 364"/>
  <path fill="#372014" d="m38.385 82.214.2.245c.041.172.083.342.3.381l.006.013a4.191 4.191 0 0 0 .74 1.339l1.614 2.834c-.335.273-.66.559-1.005.818-1.184.885-1.757.872-2.551-.394-1.214-1.937-1.186-3.627.513-5.2a.982.982 0 0 1 .185-.032" data-name="Trazado 365"/>
  <path fill="#201210" d="M88.721 87.225c-1.051.232-1.968-.337-2.932-.551-2.022-.449-3.953-1.267-6-1.629a.428.428 0 0 1-.387-.442c3.148.732 6.259 1.593 9.324 2.622" data-name="Trazado 366"/>
  <path fill="#b8a888" d="M62.288 76.049c-.107-1.316.276-2.662-.238-3.954a.742.742 0 0 1 .63-.374l.016 4.51-.408-.182" data-name="Trazado 367"/>
  <path fill="#201210" d="M90.621 88.102c-.373-.024-.86.191-.942-.447a1.6 1.6 0 0 1 .942.447" data-name="Trazado 368"/>
  <path fill="#372014" d="m36.518 58.995.35-.005.016.633c-.561.047-.393-.331-.366-.627" data-name="Trazado 369"/>
  <path fill="#372014" d="m70.415 59.675.207.2c.039.221 0 .4-.253.459-.349-.245-.126-.451.046-.661" data-name="Trazado 370"/>
  <path fill="#372014" d="M70.63 59.839c.016-.3-.09-.63.231-.845a1.215 1.215 0 0 1-.231.845" data-name="Trazado 371"/>
  <path fill="#076280" d="m55.745 14.538-.682-.021a.442.442 0 0 1 .682.021" data-name="Trazado 372"/>
  <path fill="#a4a3a4" d="m63.136 71.401.03-.084.1-.011-.025.094Z" data-name="Trazado 373"/>
  <path fill="#372014" d="m36.277 58.347.257.069-.094.137c-.134-.006-.2-.065-.163-.206" data-name="Trazado 374"/>
  <path fill="#a9a8a8" d="M67.768 67.103c-.079-.178.086-.163.169-.213.008.123-.015.22-.169.213" data-name="Trazado 375"/>
  <path fill="#201210" d="m89.147 87.449-.345-.21.345.21" data-name="Trazado 376"/>
  <path fill="#201210" d="m89.605 87.66-.365-.188a.341.341 0 0 1 .365.188" data-name="Trazado 377"/>
  <path fill="#761b22" d="M52.911 107.979a1.909 1.909 0 0 1 1.485 0 3.618 3.618 0 0 1-1.485 0" data-name="Trazado 486"/>
  <path fill="#201210" d="M39.262 105.947c.3-.414.422-.227.48.149l-.48-.149" data-name="Trazado 487"/>
  <path fill="#761b22" d="m50.275 107.864.427.013a.266.266 0 0 1-.427-.013" data-name="Trazado 488"/>
  <path fill="#761b22" d="m56.603 107.889.216-.02-.216.02" data-name="Trazado 489"/>
  <path fill="#372014" d="M70.597 57.37c.01.471.179.96-.149 1.4a2.8 2.8 0 0 1 .149-1.4" data-name="Trazado 492"/>
  <path fill="#372014" d="M36.86 57.674c-.187-.133-.208-.276-.026-.43l.026.43" data-name="Trazado 493"/>
  <path fill="#e96733" d="m57.546 100.601-3.7 6.634-4.213-6.807c.107-.14.278-.266.313-.422.644-2.89 1.271-5.783 1.9-8.675l3.961.088.831 5.023.905 4.16" data-name="Trazado 494"/>
  <path fill="#fefdfe" d="m41.244 87.025-1.614-2.834a1.79 1.79 0 0 1 1.007.367c2.133 1.308 4.281 2.592 6.4 3.928.764.483 1.319.513 1.7-.406a13.223 13.223 0 0 1 2.03 2.162.189.189 0 0 0 .186.229l.026.029a.19.19 0 0 0 .2.212l.205.216a.212.212 0 0 0 .194.239l.018.014c-.422 2.152-.952 4.282-1.44 6.417-.175.764.106 1.8-.783 2.362q-3.121-5.022-6.251-10.04c-.26-.414-.392-.947-.91-1.168a1.976 1.976 0 0 0-.683-1.3l-.286-.429" data-name="Trazado 495"/>
  <path fill="#fefdfe" d="m56.64 96.442-.832-5.023.375-.437.872-.807c.658-.609 1.008-1.525 1.9-1.9.216.911.7 1.1 1.483.573a17.006 17.006 0 0 1 1.66-1.016c1.37-.7 2.532-1.8 4.07-2.181l-8.435 14.591a22.156 22.156 0 0 0-.53-2.4c-.155-.469.1-1.134-.563-1.4" data-name="Trazado 496"/>
  <path fill="#ccc" d="M66.168 85.654c-1.539.385-2.7 1.478-4.07 2.181a17.006 17.006 0 0 0-1.66 1.016c-.784.524-1.267.338-1.483-.573a.48.48 0 0 1 .308-.424c.6.477 1.027-.056 1.46-.3 1.773-.989 3.518-2.025 5.281-3.032a1.483 1.483 0 0 1 .9-.34l-.737 1.47" data-name="Trazado 497"/>
  <path fill="#ebb193" d="M49.374 99.96c.89-.562.608-1.6.783-2.362.488-2.135 1.019-4.265 1.44-6.417l.25.151c-.631 2.892-1.258 5.785-1.9 8.675-.035.156-.205.281-.313.421l-.258-.468" data-name="Trazado 498"/>
  <path fill="#372014" d="M41.529 87.454a1.974 1.974 0 0 1 .683 1.3 4.386 4.386 0 0 1-2.446.132 9.856 9.856 0 0 1 1.762-1.43" data-name="Trazado 499"/>
  <path fill="#372014" d="M36.311 85.351c.157 1.052.7 1.741.727 2.881-.591-.6-.708-1.469-1.557-1.034-.107.055-.27-.072-.282-.251s.074-.32.224-.315c.746.026.5-.662.888-1.281" data-name="Trazado 500"/>
  <path fill="#ebb193" d="M56.64 96.442c.667.265.408.93.563 1.4a22.183 22.183 0 0 1 .53 2.4.322.322 0 0 1-.189.36q-.452-2.08-.9-4.16" data-name="Trazado 501"/>
  <path fill="#724636" d="M55.113 70.815a2.9 2.9 0 0 0-.206-1.46c-.31-.533-.829-.529-1.347-.5a1.11 1.11 0 0 0-1.03.973 3.379 3.379 0 0 0 .069 1.507 1.5 1.5 0 0 1-1.957 1.634c-.642-.252-1.235-.631-1.879-.875-2.052-.777-2.635-2.375-2.412-4.363a4.766 4.766 0 0 1 3.16-4.1 3.419 3.419 0 0 1 2.461-.218 6.228 6.228 0 0 0 3.493-.015 4.669 4.669 0 0 1 4.776 1.99 5.338 5.338 0 0 1 .357 5.508c-.363.834-3.295 2.451-4.163 2.353-.812-.092-1.4-1.152-1.32-2.436" data-name="Trazado 502"/>
  <path fill="#742811" d="m51.847 91.331-.25-.15-.018-.014a.19.19 0 0 0-.194-.239l-.206-.216c0-.137-.061-.213-.2-.212l-.026-.029a.185.185 0 0 0-.186-.229 13.222 13.222 0 0 0-2.029-2.161.638.638 0 0 0-.4-.41 10.79 10.79 0 0 1 1.87-2.615c.839-1.13 1.738-2.215 2.612-3.319a12.668 12.668 0 0 0 3.37 9.245l-.375.437-3.961-.088" data-name="Trazado 503"/>
  <path fill="#e96733" d="M56.183 90.982a12.668 12.668 0 0 1-3.37-9.245c.1-.453.528-.683.74-1.061l.389.013q2.327 3.037 4.652 6.075a2.537 2.537 0 0 1 .669 1.09.479.479 0 0 0-.309.423c-.892.375-1.242 1.291-1.9 1.9l-.872.807" data-name="Trazado 504"/>
  <path fill="#ccc" d="M48.331 87.67a.639.639 0 0 1 .4.41c-.381.92-.937.888-1.7.406-2.116-1.336-4.264-2.62-6.4-3.928a1.794 1.794 0 0 0-1.006-.367 4.191 4.191 0 0 1-.74-1.339 25.815 25.815 0 0 1 4.751 2.508c1.266.69 2.5 1.448 3.738 2.182a1.691 1.691 0 0 0 .952.128" data-name="Trazado 505"/>
  <path fill="#ccc" d="M38.885 82.84c-.213-.039-.255-.209-.3-.381a.318.318 0 0 1 .3.381" data-name="Trazado 506"/>
  <path fill="#ebb193" d="M50.763 90.242a.184.184 0 0 1 .186.229.19.19 0 0 1-.186-.229" data-name="Trazado 612"/>
  <path fill="#ebb193" d="M50.971 90.5c.143 0 .205.074.2.212a.19.19 0 0 1-.2-.212" data-name="Trazado 613"/>
  <path fill="#ebb193" d="M51.385 90.929a.19.19 0 0 1 .194.239.212.212 0 0 1-.194-.239" data-name="Trazado 614"/>
</svg>
