<svg xmlns="http://www.w3.org/2000/svg" width="107.826" height="107.339" viewBox="0 0 107.826 107.339">
  <path id="Trazado_256" data-name="Trazado 256" d="M384.03,306.732a.222.222,0,0,0,.183.083l.254.11.212.091.236.134a.228.228,0,0,0,.183.078l.232.151.037.046c.01.131.082.18.209.157a53.244,53.244,0,0,1,8.539,5.13l.2.135.056.044a.977.977,0,0,0,.824.631l.662.525.164.151a69.026,69.026,0,0,1,6.643,6.337l.25.191,0,0a.718.718,0,0,0,.258.575,52.874,52.874,0,0,1,9.886,17.534c1.234,3.63,1.679,7.405,2.508,11.108.6,2.676.059,5.413.22,8.124a35.138,35.138,0,0,1-.671,8.013,8.109,8.109,0,0,1-.181,1.174,64.084,64.084,0,0,1-2.083,6.944c-.373.067-.326.326-.269.589l-.126.314c-.067,0-.1.036-.086.1-.034.127-.068.253-.1.379-.944.9-1.076,2.231-1.712,3.309a46.709,46.709,0,0,0-2.079,4.467l-.395.713c-.246.01-.344.131-.277.374-.293.372-.41.869-.817,1.16a.1.1,0,0,0-.1.125l-.555.962a.736.736,0,0,0-.522.807l-.133.29a2.5,2.5,0,0,0-1.376,1.7.378.378,0,0,0-.106.115,7.273,7.273,0,0,0-1.692,1.611,22.56,22.56,0,0,1-3.914,3.86,12.412,12.412,0,0,0-4.331-5.495,17.486,17.486,0,0,0-5.024-2.063c-3.275-.95-6.489-2.1-9.8-2.946l-.275.019a.975.975,0,0,0-.626-.391q-3.367-.979-6.733-1.957c-.7-.2-1.264-.52-1.32-1.349a3.6,3.6,0,0,1,.252-1.7,7.223,7.223,0,0,0,5.716,2.206c.99.009,1.96-.185,2.938-.209a4.818,4.818,0,0,0,4.588-3.257,24.584,24.584,0,0,0,.948-2.557c1.653-5.46,1.884-11.111,2.13-16.747.187-4.264.037-8.532-.111-12.8a38.052,38.052,0,0,0-4.656-17.677,19.476,19.476,0,0,0-12.439-9.733,25.49,25.49,0,0,0-9.1-.535,13.785,13.785,0,0,0-7.825,2.953c-.616.517-1.054,1.277-1.96,1.491a11.9,11.9,0,0,0-5.442,3.269,24.658,24.658,0,0,0-5.288,7.71c-1.723,3.759-3.293,7.653-3.609,11.756a98.514,98.514,0,0,0,1.017,24.955,22.933,22.933,0,0,0,3.13,8.906,3.031,3.031,0,0,0,1.895,1.552,18.656,18.656,0,0,0,4.883.451c1.647-.136,3.364-.325,4.384-1.816a1.408,1.408,0,0,1,1.686-.725,18.946,18.946,0,0,0,.04,2.077c.118.954-.478,1.334-1.19,1.561-1.764.562-3.584.964-5.307,1.627-.832.32-1.912.092-2.5,1.008a1.3,1.3,0,0,0-1.047.077q-5.425,1.655-10.847,3.323a11.852,11.852,0,0,0-7.554,7.195c-.138-.15-.285-.28-.513-.216l-1.262-1.211-.2-.2-.752-.832a20.214,20.214,0,0,0-3.209-3.753.516.516,0,0,0-.113-.173,10.023,10.023,0,0,0-2.45-3.367l-.37-.6q-1.6-3.041-3.208-6.079c-.027-.051-.125-.064-.19-.1l-.1-.393a.809.809,0,0,0-.583-.89,42.867,42.867,0,0,1-1.809-5.261c.036-.173.022-.326-.162-.411q-.053-.226-.106-.452a21.942,21.942,0,0,0-1.268-5.22q-.029-.239-.058-.478a5.232,5.232,0,0,0-.4-2.8l-.075-.914c.068-.46.354-.965-.262-1.285l-.071-1.819a1.517,1.517,0,0,0-.021-1.665q0-.921,0-1.843a40.794,40.794,0,0,0,.392-5.848q.019-.254.039-.507c.224-.561.617-1.1.235-1.741a43.511,43.511,0,0,1,1.637-7.074,54.8,54.8,0,0,1,5.517-12.192A53.791,53.791,0,0,1,333.63,310.09a49.133,49.133,0,0,1,14.708-6.215,3.2,3.2,0,0,0,.5-.205c.3.037.608.085.835-.2l.641-.1a3.289,3.289,0,0,0,1.546-.34l3.531-.49a48.41,48.41,0,0,1,8.13-.388c1.661.056,3.32.2,4.979.3l.485.062a9.978,9.978,0,0,0,2.369.357l.479.075,6.742,1.717.631.158a2.522,2.522,0,0,0,1.541.577l.375.129a4.2,4.2,0,0,0,1.82.726l.2.095a1.136,1.136,0,0,0,.888.379" transform="translate(-308.025 -302.124)" fill="#312b24"/>
  <path id="Trazado_269" data-name="Trazado 269" d="M429.251,302.172" transform="translate(-368.764 -301.827)" fill="#ccc"/>
  <path id="Trazado_308" data-name="Trazado 308" d="M483.232,313.427l-.236-.134.236.134" transform="translate(-406.296 -308.39)" fill="#ccc"/>
  <path id="Trazado_312" data-name="Trazado 312" d="M508.668,329.476l-.164-.151c.138-.039.19.014.164.151" transform="translate(-420.606 -317.394)" fill="#ebb193"/>
  <path id="Trazado_314" data-name="Trazado 314" d="M524.293,344.332l-.25-.191c.152-.027.246.024.25.191" transform="translate(-429.323 -325.724)" fill="#808181"/>
  <path id="Trazado_419" data-name="Trazado 419" d="M389.848,398.379a1.407,1.407,0,0,0-1.685.725c-1.02,1.491-2.737,1.68-4.384,1.816a18.672,18.672,0,0,1-4.883-.451A3.029,3.029,0,0,1,377,398.917a22.922,22.922,0,0,1-3.13-8.906,98.494,98.494,0,0,1-1.017-24.955c.315-4.1,1.885-8,3.609-11.756a24.647,24.647,0,0,1,5.288-7.71,11.9,11.9,0,0,1,5.441-3.269c.906-.213,1.345-.974,1.961-1.49a13.785,13.785,0,0,1,7.825-2.953,25.51,25.51,0,0,1,9.1.535,19.477,19.477,0,0,1,12.438,9.733,38.045,38.045,0,0,1,4.656,17.676c.148,4.265.3,8.534.111,12.8-.247,5.636-.478,11.287-2.13,16.747a24.665,24.665,0,0,1-.948,2.557,4.817,4.817,0,0,1-4.587,3.257c-.978.024-1.949.219-2.938.209a7.22,7.22,0,0,1-5.716-2.206c-.128-.345-.356-.668-.24-1.068,2.67-.527,4.341-2.324,5.73-4.491,2.019-3.151,2.888-6.712,3.607-10.311.1-.479.527-1.143-.124-1.63.533-.33.521-.906.584-1.414a96.613,96.613,0,0,0,.461-14.526c-.018-.65-.228-.9-.9-.885-1.6.029-3.2-.1-4.8-.224a51.694,51.694,0,0,1-9.25-1.872,20.466,20.466,0,0,1-5.243-2.365,50.827,50.827,0,0,1-5.7-3.853,43.8,43.8,0,0,1-3.712-3.635,29.814,29.814,0,0,1-1.159,3.027,26.558,26.558,0,0,1-7.267,8.488,2.514,2.514,0,0,0-.733,1.125c-.383.925,0,1.781-.021,2.664a75.785,75.785,0,0,0,.32,10.161c.112,1.029-.039,2.134.586,3.074a.763.763,0,0,0-.178.81c.716,4.136,1.656,8.217,4.076,11.739,1.672,2.431,3.7,4.456,7.041,4.116.033.159-.06.226-.193.265" transform="translate(-344.257 -322.118)" fill="#742811"/>
  <path id="Trazado_420" data-name="Trazado 420" d="M413.833,417.621c-.116.4.111.723.24,1.068a3.6,3.6,0,0,0-.252,1.7c.057.828.621,1.146,1.32,1.348q3.368.973,6.733,1.957a.974.974,0,0,1,.626.391l-.962.55-.058.02-.3.164a.1.1,0,0,0-.126.047,5.977,5.977,0,0,0-1.984.845h0a.576.576,0,0,0-.521.2.078.078,0,0,0-.119.033.567.567,0,0,0-.53.186.1.1,0,0,0-.131.037.427.427,0,0,0-.456.19l0,0a34.932,34.932,0,0,0-4.6,1.35c-.527.3-1.207-.047-1.7.4-.1-.192-.28-.191-.461-.172l-4.588.5-2.456,0c-.756-.064-1.511-.132-2.267-.189a43.611,43.611,0,0,1-8.67-1.862.078.078,0,0,0-.12-.034.6.6,0,0,0-.514-.2c-1.289-.709-2.709-1.161-3.936-1.992.589-.917,1.67-.688,2.5-1.008,1.722-.662,3.543-1.065,5.307-1.626.713-.227,1.308-.608,1.19-1.562a18.933,18.933,0,0,1-.04-2.076c.132-.039.226-.106.192-.266.014-.764-.024-1.534.056-2.292a2.165,2.165,0,0,0-.907-2.035,31.669,31.669,0,0,1-8.075-10.753c-.429-.93-.9-1.607-2.013-1.583-.625-.94-.474-2.045-.586-3.074a75.87,75.87,0,0,1-.32-10.162c.022-.882-.362-1.738.021-2.664a2.516,2.516,0,0,1,.733-1.125,26.548,26.548,0,0,0,7.267-8.488,29.808,29.808,0,0,0,1.16-3.027,43.739,43.739,0,0,0,3.711,3.634,50.72,50.72,0,0,0,5.7,3.853,20.487,20.487,0,0,0,5.243,2.365,51.728,51.728,0,0,0,9.25,1.871c1.6.127,3.2.254,4.8.225.671-.012.88.235.9.885a96.56,96.56,0,0,1-.461,14.526c-.062.507-.051,1.083-.584,1.414a35.178,35.178,0,0,1-8.948,12.273.9.9,0,0,0-.315.77c.021,1.13.034,2.259.05,3.389" transform="translate(-351.366 -341.625)" fill="#ebb193"/>
  <path id="Trazado_421" data-name="Trazado 421" d="M382.211,494.678h2.456a11.06,11.06,0,0,0,5.049-.325c.491-.451,1.171-.1,1.7-.4a7.082,7.082,0,0,0,4.6-1.35l0,0a.42.42,0,0,0,.456-.19.1.1,0,0,1,.131-.037.476.476,0,0,0,.53-.187.078.078,0,0,1,.119-.033c.209.027.407.024.52-.2h0a1.814,1.814,0,0,0,1.984-.845.1.1,0,0,1,.127-.047l.3-.164.058-.02c.484-.034,1.023.053,1.238-.569,3.308.843,6.522,2,9.8,2.945a17.481,17.481,0,0,1,5.024,2.063,12.408,12.408,0,0,1,4.331,5.494c.128.318-.1.531-.228.775l-.515.345a22.786,22.786,0,0,0-3.57-3.646c-1.942-1.4-4.238-1.881-6.453-2.57-2.375-.739-4.76-1.449-7.156-2.115-.523-.145-1.036-.484-1.673-.161a31.518,31.518,0,0,1-3.185,1.383,38.938,38.938,0,0,1-17.5,2.664,33.312,33.312,0,0,1-13.419-3.964,1.416,1.416,0,0,0-1.244-.084c-1.685.561-3.393,1.054-5.086,1.594a61.373,61.373,0,0,0-7.446,2.4,14.1,14.1,0,0,0-2.722,1.935,4.444,4.444,0,0,0-1.942,3.085c-.5-.255-.642-.905-1.212-1.079q-.012-.188-.023-.375a11.85,11.85,0,0,1,7.554-7.2q5.419-1.678,10.847-3.323a1.3,1.3,0,0,1,1.047-.077c1.227.832,2.646,1.283,3.935,1.992.11.225.307.226.515.2a.078.078,0,0,1,.12.034c.064.551.573.486.907.624a23.878,23.878,0,0,0,6.393,1.362,10.159,10.159,0,0,0,3.637.066" transform="translate(-330.07 -407.879)" fill="#742811"/>
  <path id="Trazado_424" data-name="Trazado 424" d="M469.443,490.31c-.214.622-.753.535-1.238.569l.963-.55.275-.019" transform="translate(-397.997 -407.877)" fill="#761b22"/>
  <path id="Trazado_426" data-name="Trazado 426" d="M546.9,466.632c.127.3.153.545-.269.59-.057-.264-.1-.523.269-.59" transform="translate(-441.973 -394.57)" fill="#e96733"/>
  <path id="Trazado_428" data-name="Trazado 428" d="M546.281,468.691a.08.08,0,0,1-.086.1c-.009-.066.019-.1.086-.1" transform="translate(-441.75 -395.727)" fill="#e96733"/>
  <path id="Trazado_429" data-name="Trazado 429" d="M342.945,511.192a.17.17,0,0,1-.2-.2l.2.2" transform="translate(-327.613 -419.501)" fill="#ebb193"/>
  <path id="Trazado_442" data-name="Trazado 442" d="M350.076,506.294a4.444,4.444,0,0,1,1.942-3.085,14.073,14.073,0,0,1,2.722-1.935,61.37,61.37,0,0,1,7.446-2.4c1.692-.54,3.4-1.033,5.086-1.594a1.416,1.416,0,0,1,1.244.084,33.312,33.312,0,0,0,13.419,3.964,38.938,38.938,0,0,0,17.5-2.664,31.515,31.515,0,0,0,3.185-1.383c.638-.322,1.151.016,1.673.161,2.4.666,4.781,1.376,7.157,2.115,2.215.689,4.512,1.173,6.453,2.57a22.805,22.805,0,0,1,3.57,3.646,46.6,46.6,0,0,1-10.692,7.561c-.379.2-.742.437-1.112.656l-.006,0a.436.436,0,0,0-.417.219l-.019.011a.2.2,0,0,0-.185.054l-.269.156-.4.206-.04.021-.45.183c-2.577.893-5.118,1.912-7.74,2.646a34.716,34.716,0,0,1-8.457,1.572l-12.387-.045a45.27,45.27,0,0,1-9.188-1.935,52,52,0,0,1-13.157-6.093c-.222-.145-3.119-1.723-4.044-2.38-.509-.356-.789-1.015-1.488-1.121l-1-.844c0-.2-.139-.266-.3-.308Z" transform="translate(-331.653 -411.724)" fill="#dc2e35"/>
  <path id="Trazado_443" data-name="Trazado 443" d="M350.184,518.124c.163.042.3.11.3.307l-.3-.307" transform="translate(-331.787 -423.51)" fill="#742811"/>
  <path id="Trazado_472" data-name="Trazado 472" d="M485.139,535.824a.435.435,0,0,1,.417-.219l-.417.219" transform="translate(-407.498 -433.334)" fill="#a4a3a4"/>
  <path id="Trazado_473" data-name="Trazado 473" d="M483.155,536.817l.4-.205-.4.205" transform="translate(-406.385 -433.9)" fill="#a4a3a4"/>
  <path id="Trazado_474" data-name="Trazado 474" d="M482.037,537.31l.45-.183a.44.44,0,0,1-.45.183" transform="translate(-405.757 -434.189)" fill="#a4a3a4"/>
  <path id="Trazado_475" data-name="Trazado 475" d="M484.674,536.18a.2.2,0,0,1,.185-.055l-.185.055" transform="translate(-407.237 -433.624)" fill="#a4a3a4"/>
  <path id="Trazado_541" data-name="Trazado 541" d="M387.289,437.557c1.107-.024,1.582.653,2.013,1.583a31.651,31.651,0,0,0,8.075,10.753,2.164,2.164,0,0,1,.907,2.035c-.08.758-.042,1.528-.056,2.293-3.346.34-5.369-1.685-7.041-4.117-2.42-3.521-3.36-7.6-4.076-11.738a.761.761,0,0,1,.178-.81" transform="translate(-352.472 -378.231)" fill="#201210"/>
  <path id="Trazado_542" data-name="Trazado 542" d="M450.554,454.526c-.016-1.13-.029-2.259-.049-3.389a.9.9,0,0,1,.315-.77,35.179,35.179,0,0,0,8.948-12.273c.651.487.22,1.15.124,1.63-.719,3.6-1.588,7.159-3.607,10.311-1.388,2.167-3.06,3.964-5.73,4.491" transform="translate(-388.058 -378.533)" fill="#201210"/>
  <path id="Trazado_543" data-name="Trazado 543" d="M413.018,497.65a10.159,10.159,0,0,1-3.637-.066,23.878,23.878,0,0,1-6.393-1.362c-.335-.138-.844-.073-.907-.624a43.6,43.6,0,0,0,8.67,1.862c.756.057,1.511.126,2.267.189" transform="translate(-360.892 -410.85)" fill="#761b22"/>
  <path id="Trazado_544" data-name="Trazado 544" d="M452.654,495.534a7.087,7.087,0,0,1-4.6,1.35,34.951,34.951,0,0,1,4.6-1.35" transform="translate(-386.687 -410.813)" fill="#761b22"/>
  <path id="Trazado_545" data-name="Trazado 545" d="M437.7,499.3a11.054,11.054,0,0,1-5.049.325l4.588-.5c.182-.02.358-.021.461.172" transform="translate(-378.047 -412.831)" fill="#761b22"/>
  <path id="Trazado_546" data-name="Trazado 546" d="M464.564,492.136a1.813,1.813,0,0,1-1.984.845,5.976,5.976,0,0,1,1.984-.845" transform="translate(-394.84 -408.904)" fill="#761b22"/>
  <path id="Trazado_547" data-name="Trazado 547" d="M461.9,494.065c-.114.222-.311.226-.52.2a.573.573,0,0,1,.52-.2" transform="translate(-394.169 -409.987)" fill="#761b22"/>
  <path id="Trazado_548" data-name="Trazado 548" d="M460.43,494.591a.475.475,0,0,1-.53.186.567.567,0,0,1,.53-.186" transform="translate(-393.338 -410.281)" fill="#761b22"/>
  <path id="Trazado_549" data-name="Trazado 549" d="M401.145,495.267c-.208.026-.4.025-.515-.2a.6.6,0,0,1,.515.2" transform="translate(-360.088 -410.551)" fill="#761b22"/>
  <path id="Trazado_550" data-name="Trazado 550" d="M459.017,495.1a.419.419,0,0,1-.456.19.427.427,0,0,1,.456-.19" transform="translate(-392.587 -410.568)" fill="#761b22"/>
  <path id="Trazado_551" data-name="Trazado 551" d="M467.693,491.653l-.3.164.3-.164" transform="translate(-397.544 -408.632)" fill="#761b22"/>
  <path id="Trazado_751" data-name="Trazado 751" d="M384.03,306.732a.222.222,0,0,0,.183.083l.254.11.212.091.236.134a.228.228,0,0,0,.183.078l.232.151.037.046c.01.131.082.18.209.157a53.244,53.244,0,0,1,8.539,5.13l.2.135.056.044a.977.977,0,0,0,.824.631l.662.525.164.151a69.026,69.026,0,0,1,6.643,6.337l.25.191,0,0a.718.718,0,0,0,.258.575,52.874,52.874,0,0,1,9.886,17.534c1.234,3.63,1.679,7.405,2.508,11.108.6,2.676.059,5.413.22,8.124a35.138,35.138,0,0,1-.671,8.013,8.109,8.109,0,0,1-.181,1.174,64.084,64.084,0,0,1-2.083,6.944c-.373.067-.326.326-.269.589l-.126.314c-.067,0-.1.036-.086.1-.034.127-.068.253-.1.379-.944.9-1.076,2.231-1.712,3.309a46.709,46.709,0,0,0-2.079,4.467l-.395.713c-.246.01-.344.131-.277.374-.293.372-.41.869-.817,1.16a.1.1,0,0,0-.1.125l-.555.962a.736.736,0,0,0-.522.807l-.133.29a2.5,2.5,0,0,0-1.376,1.7.378.378,0,0,0-.106.115,7.273,7.273,0,0,0-1.692,1.611,22.56,22.56,0,0,1-3.914,3.86,12.412,12.412,0,0,0-4.331-5.495,17.486,17.486,0,0,0-5.024-2.063c-3.275-.95-6.489-2.1-9.8-2.946l-.275.019a.975.975,0,0,0-.626-.391q-3.367-.979-6.733-1.957c-.7-.2-1.264-.52-1.32-1.349a3.6,3.6,0,0,1,.252-1.7,7.223,7.223,0,0,0,5.716,2.206c.99.009,1.96-.185,2.938-.209a4.818,4.818,0,0,0,4.588-3.257,24.584,24.584,0,0,0,.948-2.557c1.653-5.46,1.884-11.111,2.13-16.747.187-4.264.037-8.532-.111-12.8a38.052,38.052,0,0,0-4.656-17.677,19.476,19.476,0,0,0-12.439-9.733,25.49,25.49,0,0,0-9.1-.535,13.785,13.785,0,0,0-7.825,2.953c-.616.517-1.054,1.277-1.96,1.491a11.9,11.9,0,0,0-5.442,3.269,24.658,24.658,0,0,0-5.288,7.71c-1.723,3.759-3.293,7.653-3.609,11.756a98.514,98.514,0,0,0,1.017,24.955,22.933,22.933,0,0,0,3.13,8.906,3.031,3.031,0,0,0,1.895,1.552,18.656,18.656,0,0,0,4.883.451c1.647-.136,3.364-.325,4.384-1.816a1.408,1.408,0,0,1,1.686-.725,18.946,18.946,0,0,0,.04,2.077c.118.954-.478,1.334-1.19,1.561-1.764.562-3.584.964-5.307,1.627-.832.32-1.912.092-2.5,1.008a1.3,1.3,0,0,0-1.047.077q-5.425,1.655-10.847,3.323a11.852,11.852,0,0,0-7.554,7.195c-.138-.15-.285-.28-.513-.216l-1.262-1.211-.2-.2-.752-.832a20.214,20.214,0,0,0-3.209-3.753.516.516,0,0,0-.113-.173,10.023,10.023,0,0,0-2.45-3.367l-.37-.6q-1.6-3.041-3.208-6.079c-.027-.051-.125-.064-.19-.1l-.1-.393a.809.809,0,0,0-.583-.89,42.867,42.867,0,0,1-1.809-5.261c.036-.173.022-.326-.162-.411q-.053-.226-.106-.452a21.942,21.942,0,0,0-1.268-5.22q-.029-.239-.058-.478a5.232,5.232,0,0,0-.4-2.8l-.075-.914c.068-.46.354-.965-.262-1.285l-.071-1.819a1.517,1.517,0,0,0-.021-1.665q0-.921,0-1.843a40.794,40.794,0,0,0,.392-5.848q.019-.254.039-.507c.224-.561.617-1.1.235-1.741a43.511,43.511,0,0,1,1.637-7.074,54.8,54.8,0,0,1,5.517-12.192A53.791,53.791,0,0,1,333.63,310.09a49.133,49.133,0,0,1,14.708-6.215,3.2,3.2,0,0,0,.5-.205c.3.037.608.085.835-.2l.641-.1a3.289,3.289,0,0,0,1.546-.34l3.531-.49a48.41,48.41,0,0,1,8.13-.388c1.661.056,3.32.2,4.979.3l.485.062a9.978,9.978,0,0,0,2.369.357l.479.075,6.742,1.717.631.158a2.522,2.522,0,0,0,1.541.577l.375.129a4.2,4.2,0,0,0,1.82.726l.2.095a1.136,1.136,0,0,0,.888.379" transform="translate(-308.025 -302.124)" fill="#312b24"/>
  <path id="Trazado_752" data-name="Trazado 752" d="M429.251,302.172" transform="translate(-368.764 -301.827)" fill="#ccc"/>
  <path id="Trazado_753" data-name="Trazado 753" d="M483.232,313.427l-.236-.134.236.134" transform="translate(-406.296 -308.39)" fill="#ccc"/>
  <path id="Trazado_754" data-name="Trazado 754" d="M508.668,329.476l-.164-.151c.138-.039.19.014.164.151" transform="translate(-420.606 -317.394)" fill="#ebb193"/>
  <path id="Trazado_755" data-name="Trazado 755" d="M524.293,344.332l-.25-.191c.152-.027.246.024.25.191" transform="translate(-429.323 -325.724)" fill="#808181"/>
  <path id="Trazado_756" data-name="Trazado 756" d="M389.848,398.379a1.407,1.407,0,0,0-1.685.725c-1.02,1.491-2.737,1.68-4.384,1.816a18.672,18.672,0,0,1-4.883-.451A3.029,3.029,0,0,1,377,398.917a22.922,22.922,0,0,1-3.13-8.906,98.494,98.494,0,0,1-1.017-24.955c.315-4.1,1.885-8,3.609-11.756a24.647,24.647,0,0,1,5.288-7.71,11.9,11.9,0,0,1,5.441-3.269c.906-.213,1.345-.974,1.961-1.49a13.785,13.785,0,0,1,7.825-2.953,25.51,25.51,0,0,1,9.1.535,19.477,19.477,0,0,1,12.438,9.733,38.045,38.045,0,0,1,4.656,17.676c.148,4.265.3,8.534.111,12.8-.247,5.636-.478,11.287-2.13,16.747a24.665,24.665,0,0,1-.948,2.557,4.817,4.817,0,0,1-4.587,3.257c-.978.024-1.949.219-2.938.209a7.22,7.22,0,0,1-5.716-2.206c-.128-.345-.356-.668-.24-1.068,2.67-.527,4.341-2.324,5.73-4.491,2.019-3.151,2.888-6.712,3.607-10.311.1-.479.527-1.143-.124-1.63.533-.33.521-.906.584-1.414a96.613,96.613,0,0,0,.461-14.526c-.018-.65-.228-.9-.9-.885-1.6.029-3.2-.1-4.8-.224a51.694,51.694,0,0,1-9.25-1.872,20.466,20.466,0,0,1-5.243-2.365,50.827,50.827,0,0,1-5.7-3.853,43.8,43.8,0,0,1-3.712-3.635,29.814,29.814,0,0,1-1.159,3.027,26.558,26.558,0,0,1-7.267,8.488,2.514,2.514,0,0,0-.733,1.125c-.383.925,0,1.781-.021,2.664a75.785,75.785,0,0,0,.32,10.161c.112,1.029-.039,2.134.586,3.074a.763.763,0,0,0-.178.81c.716,4.136,1.656,8.217,4.076,11.739,1.672,2.431,3.7,4.456,7.041,4.116.033.159-.06.226-.193.265" transform="translate(-344.257 -322.118)" fill="#742811"/>
  <path id="Trazado_757" data-name="Trazado 757" d="M413.833,417.621c-.116.4.111.723.24,1.068a3.6,3.6,0,0,0-.252,1.7c.057.828.621,1.146,1.32,1.348q3.368.973,6.733,1.957a.974.974,0,0,1,.626.391l-.962.55-.058.02-.3.164a.1.1,0,0,0-.126.047,5.977,5.977,0,0,0-1.984.845h0a.576.576,0,0,0-.521.2.078.078,0,0,0-.119.033.567.567,0,0,0-.53.186.1.1,0,0,0-.131.037.427.427,0,0,0-.456.19l0,0a34.932,34.932,0,0,0-4.6,1.35c-.527.3-1.207-.047-1.7.4-.1-.192-.28-.191-.461-.172l-4.588.5-2.456,0c-.756-.064-1.511-.132-2.267-.189a43.611,43.611,0,0,1-8.67-1.862.078.078,0,0,0-.12-.034.6.6,0,0,0-.514-.2c-1.289-.709-2.709-1.161-3.936-1.992.589-.917,1.67-.688,2.5-1.008,1.722-.662,3.543-1.065,5.307-1.626.713-.227,1.308-.608,1.19-1.562a18.933,18.933,0,0,1-.04-2.076c.132-.039.226-.106.192-.266.014-.764-.024-1.534.056-2.292a2.165,2.165,0,0,0-.907-2.035,31.669,31.669,0,0,1-8.075-10.753c-.429-.93-.9-1.607-2.013-1.583-.625-.94-.474-2.045-.586-3.074a75.87,75.87,0,0,1-.32-10.162c.022-.882-.362-1.738.021-2.664a2.516,2.516,0,0,1,.733-1.125,26.548,26.548,0,0,0,7.267-8.488,29.808,29.808,0,0,0,1.16-3.027,43.739,43.739,0,0,0,3.711,3.634,50.72,50.72,0,0,0,5.7,3.853,20.487,20.487,0,0,0,5.243,2.365,51.728,51.728,0,0,0,9.25,1.871c1.6.127,3.2.254,4.8.225.671-.012.88.235.9.885a96.56,96.56,0,0,1-.461,14.526c-.062.507-.051,1.083-.584,1.414a35.178,35.178,0,0,1-8.948,12.273.9.9,0,0,0-.315.77c.021,1.13.034,2.259.05,3.389" transform="translate(-351.366 -341.625)" fill="#ebb193"/>
  <path id="Trazado_758" data-name="Trazado 758" d="M382.211,494.678h2.456a11.06,11.06,0,0,0,5.049-.325c.491-.451,1.171-.1,1.7-.4a7.082,7.082,0,0,0,4.6-1.35l0,0a.42.42,0,0,0,.456-.19.1.1,0,0,1,.131-.037.476.476,0,0,0,.53-.187.078.078,0,0,1,.119-.033c.209.027.407.024.52-.2h0a1.814,1.814,0,0,0,1.984-.845.1.1,0,0,1,.127-.047l.3-.164.058-.02c.484-.034,1.023.053,1.238-.569,3.308.843,6.522,2,9.8,2.945a17.481,17.481,0,0,1,5.024,2.063,12.408,12.408,0,0,1,4.331,5.494c.128.318-.1.531-.228.775l-.515.345a22.786,22.786,0,0,0-3.57-3.646c-1.942-1.4-4.238-1.881-6.453-2.57-2.375-.739-4.76-1.449-7.156-2.115-.523-.145-1.036-.484-1.673-.161a31.518,31.518,0,0,1-3.185,1.383,38.938,38.938,0,0,1-17.5,2.664,33.312,33.312,0,0,1-13.419-3.964,1.416,1.416,0,0,0-1.244-.084c-1.685.561-3.393,1.054-5.086,1.594a61.373,61.373,0,0,0-7.446,2.4,14.1,14.1,0,0,0-2.722,1.935,4.444,4.444,0,0,0-1.942,3.085c-.5-.255-.642-.905-1.212-1.079q-.012-.188-.023-.375a11.85,11.85,0,0,1,7.554-7.2q5.419-1.678,10.847-3.323a1.3,1.3,0,0,1,1.047-.077c1.227.832,2.646,1.283,3.935,1.992.11.225.307.226.515.2a.078.078,0,0,1,.12.034c.064.551.573.486.907.624a23.878,23.878,0,0,0,6.393,1.362,10.159,10.159,0,0,0,3.637.066" transform="translate(-330.07 -407.879)" fill="#742811"/>
  <path id="Trazado_759" data-name="Trazado 759" d="M469.443,490.31c-.214.622-.753.535-1.238.569l.963-.55.275-.019" transform="translate(-397.997 -407.877)" fill="#761b22"/>
  <path id="Trazado_760" data-name="Trazado 760" d="M546.9,466.632c.127.3.153.545-.269.59-.057-.264-.1-.523.269-.59" transform="translate(-441.973 -394.57)" fill="#e96733"/>
  <path id="Trazado_761" data-name="Trazado 761" d="M546.281,468.691a.08.08,0,0,1-.086.1c-.009-.066.019-.1.086-.1" transform="translate(-441.75 -395.727)" fill="#e96733"/>
  <path id="Trazado_762" data-name="Trazado 762" d="M342.945,511.192a.17.17,0,0,1-.2-.2l.2.2" transform="translate(-327.613 -419.501)" fill="#ebb193"/>
  <path id="Trazado_763" data-name="Trazado 763" d="M350.076,506.294a4.444,4.444,0,0,1,1.942-3.085,14.073,14.073,0,0,1,2.722-1.935,61.37,61.37,0,0,1,7.446-2.4c1.692-.54,3.4-1.033,5.086-1.594a1.416,1.416,0,0,1,1.244.084,33.312,33.312,0,0,0,13.419,3.964,38.938,38.938,0,0,0,17.5-2.664,31.515,31.515,0,0,0,3.185-1.383c.638-.322,1.151.016,1.673.161,2.4.666,4.781,1.376,7.157,2.115,2.215.689,4.512,1.173,6.453,2.57a22.805,22.805,0,0,1,3.57,3.646,46.6,46.6,0,0,1-10.692,7.561c-.379.2-.742.437-1.112.656l-.006,0a.436.436,0,0,0-.417.219l-.019.011a.2.2,0,0,0-.185.054l-.269.156-.4.206-.04.021-.45.183c-2.577.893-5.118,1.912-7.74,2.646a34.716,34.716,0,0,1-8.457,1.572l-12.387-.045a45.27,45.27,0,0,1-9.188-1.935,52,52,0,0,1-13.157-6.093c-.222-.145-3.119-1.723-4.044-2.38-.509-.356-.789-1.015-1.488-1.121l-1-.844c0-.2-.139-.266-.3-.308Z" transform="translate(-331.653 -411.724)" fill="#dc2e35"/>
  <path id="Trazado_764" data-name="Trazado 764" d="M350.184,518.124c.163.042.3.11.3.307l-.3-.307" transform="translate(-331.787 -423.51)" fill="#742811"/>
  <path id="Trazado_765" data-name="Trazado 765" d="M485.139,535.824a.435.435,0,0,1,.417-.219l-.417.219" transform="translate(-407.498 -433.334)" fill="#a4a3a4"/>
  <path id="Trazado_766" data-name="Trazado 766" d="M483.155,536.817l.4-.205-.4.205" transform="translate(-406.385 -433.9)" fill="#a4a3a4"/>
  <path id="Trazado_767" data-name="Trazado 767" d="M482.037,537.31l.45-.183a.44.44,0,0,1-.45.183" transform="translate(-405.757 -434.189)" fill="#a4a3a4"/>
  <path id="Trazado_768" data-name="Trazado 768" d="M484.674,536.18a.2.2,0,0,1,.185-.055l-.185.055" transform="translate(-407.237 -433.624)" fill="#a4a3a4"/>
  <path id="Trazado_769" data-name="Trazado 769" d="M387.289,437.557c1.107-.024,1.582.653,2.013,1.583a31.651,31.651,0,0,0,8.075,10.753,2.164,2.164,0,0,1,.907,2.035c-.08.758-.042,1.528-.056,2.293-3.346.34-5.369-1.685-7.041-4.117-2.42-3.521-3.36-7.6-4.076-11.738a.761.761,0,0,1,.178-.81" transform="translate(-352.472 -378.231)" fill="#201210"/>
  <path id="Trazado_770" data-name="Trazado 770" d="M450.554,454.526c-.016-1.13-.029-2.259-.049-3.389a.9.9,0,0,1,.315-.77,35.179,35.179,0,0,0,8.948-12.273c.651.487.22,1.15.124,1.63-.719,3.6-1.588,7.159-3.607,10.311-1.388,2.167-3.06,3.964-5.73,4.491" transform="translate(-388.058 -378.533)" fill="#201210"/>
  <path id="Trazado_771" data-name="Trazado 771" d="M413.018,497.65a10.159,10.159,0,0,1-3.637-.066,23.878,23.878,0,0,1-6.393-1.362c-.335-.138-.844-.073-.907-.624a43.6,43.6,0,0,0,8.67,1.862c.756.057,1.511.126,2.267.189" transform="translate(-360.892 -410.85)" fill="#761b22"/>
  <path id="Trazado_772" data-name="Trazado 772" d="M452.654,495.534a7.087,7.087,0,0,1-4.6,1.35,34.951,34.951,0,0,1,4.6-1.35" transform="translate(-386.687 -410.813)" fill="#761b22"/>
  <path id="Trazado_773" data-name="Trazado 773" d="M437.7,499.3a11.054,11.054,0,0,1-5.049.325l4.588-.5c.182-.02.358-.021.461.172" transform="translate(-378.047 -412.831)" fill="#761b22"/>
  <path id="Trazado_774" data-name="Trazado 774" d="M464.564,492.136a1.813,1.813,0,0,1-1.984.845,5.976,5.976,0,0,1,1.984-.845" transform="translate(-394.84 -408.904)" fill="#761b22"/>
  <path id="Trazado_775" data-name="Trazado 775" d="M461.9,494.065c-.114.222-.311.226-.52.2a.573.573,0,0,1,.52-.2" transform="translate(-394.169 -409.987)" fill="#761b22"/>
  <path id="Trazado_776" data-name="Trazado 776" d="M460.43,494.591a.475.475,0,0,1-.53.186.567.567,0,0,1,.53-.186" transform="translate(-393.338 -410.281)" fill="#761b22"/>
  <path id="Trazado_777" data-name="Trazado 777" d="M401.145,495.267c-.208.026-.4.025-.515-.2a.6.6,0,0,1,.515.2" transform="translate(-360.088 -410.551)" fill="#761b22"/>
  <path id="Trazado_778" data-name="Trazado 778" d="M459.017,495.1a.419.419,0,0,1-.456.19.427.427,0,0,1,.456-.19" transform="translate(-392.587 -410.568)" fill="#761b22"/>
  <path id="Trazado_779" data-name="Trazado 779" d="M467.693,491.653l-.3.164.3-.164" transform="translate(-397.544 -408.632)" fill="#761b22"/>
</svg>
