<svg xmlns="http://www.w3.org/2000/svg" width="107.8" height="107.404" viewBox="0 0 107.8 107.404">
  <path id="Trazado_255" data-name="Trazado 255" d="M325.753,709.446a46.85,46.85,0,0,1-5.135-5.305,65.235,65.235,0,0,1-5.257-7.693l-.138-.17-.042-.049a.333.333,0,0,0-.19-.358l-.047-.08-.134-.213-.064-.222a.335.335,0,0,0-.195-.366l-.043-.074c.015-.163-.017-.3-.194-.36l-.042-.064c.021-.153.01-.29-.176-.334a.243.243,0,0,0-.061-.115,2.183,2.183,0,0,0-.825-1.677l-.021-.057c-.159-1.475-.981-2.719-1.448-4.089a58.532,58.532,0,0,1-2.991-14.246,63.651,63.651,0,0,1,.115-9.266c.117-1.823.455-3.648.64-5.478a44.77,44.77,0,0,0,1.331-4.764,52.426,52.426,0,0,1,6.2-13.364,53.575,53.575,0,0,1,35.573-24.028,20.641,20.641,0,0,1,4.929-.546,1.5,1.5,0,0,0,1.027-.266,3.77,3.77,0,0,0,1.956-.134l3.743-.01c.256.226.557.153.851.127a53.13,53.13,0,0,1,19.012,4.385,66,66,0,0,1,12.187,7.231c.006.254.184.269.374.27l-.008-.011.23.229-.007-.014c.061.23.219.283.432.24v0c.165.953,1.073,1.233,1.67,1.765a57.193,57.193,0,0,1,10.4,13.064,46.15,46.15,0,0,1,5.411,13.428,42.791,42.791,0,0,1,1.377,9.215c.006.318.241,7.275.229,9.245-.022,3.535-1.264,6.758-2.174,10.035a51.438,51.438,0,0,1-6.23,13.867,54.56,54.56,0,0,1-7.136,9.149,3.173,3.173,0,0,1-1.557.946,12.086,12.086,0,0,0-7.784-7.444,6.1,6.1,0,0,1,1.216-2.881c.8-.989,1.606-1.979,2.392-2.983,2.793-3.572,2.559-7.465-.61-10.719-1.709-1.755-3.768-3.1-5.525-4.8-1.976-1.911-2.285-3.475-1.087-5.986.705-1.479,1.506-2.913,2.166-4.411a10.74,10.74,0,0,0,.8-7.36c-.865-3.12-3.038-5.378-5.172-7.653a6.277,6.277,0,0,1-.584-1.386,32.8,32.8,0,0,0-4.107-10.54,21.955,21.955,0,0,0-11.959-10.669c-1.1-.4-2.264-.461-3.361-.822a.54.54,0,0,0-.763-.052l-2.944.045c-.052-.106-.084-.08-.105.016a15.065,15.065,0,0,0-9.783,5.423,4.783,4.783,0,0,1-1.8,1.349,16.316,16.316,0,0,0-5.917,4.2,20.7,20.7,0,0,0-4.88,13.115,32.376,32.376,0,0,0,.946,10.385c-.368.3-.308.712-.3,1.107a20.145,20.145,0,0,0,.618,3.193,9.633,9.633,0,0,0,2.093,4.6,27.858,27.858,0,0,0,5.251,13.918,13.739,13.739,0,0,0,6.266,4.917c.015.075.031.151.047.227a1.529,1.529,0,0,1-1.519,1.881,1.9,1.9,0,0,0-1.176.486l-.209.074a28.439,28.439,0,0,0-5.488,1.684l-.023.006c-.763.195-1.649.072-2.183.853-.354.076-.749,0-1.047.287-.434-.278-.842-.008-1.226.108-2.64.792-5.269,1.622-7.9,2.433a11.351,11.351,0,0,0-7.92,7.56" transform="translate(-308.625 -616.102)" fill="#ee6c08"/>
  <path id="Trazado_286" data-name="Trazado 286" d="M424.575,616.072a3.766,3.766,0,0,1-1.956.134,4.094,4.094,0,0,1,1.956-.134" transform="translate(-372.686 -616.02)" fill="#ccc"/>
  <path id="Trazado_297" data-name="Trazado 297" d="M436.48,616.2c-.294.026-.595.1-.851-.127.294-.028.6-.116.851.127" transform="translate(-379.985 -616.025)" fill="#ccc"/>
  <path id="Trazado_299" data-name="Trazado 299" d="M510.562,644.232c-.212.043-.371-.01-.432-.24.2-.03.369.014.432.24" transform="translate(-421.781 -631.736)" fill="#808181"/>
  <path id="Trazado_300" data-name="Trazado 300" d="M509.161,643.192c-.189,0-.368-.016-.374-.27l.374.27" transform="translate(-421.028 -631.14)" fill="#808181"/>
  <path id="Trazado_318" data-name="Trazado 318" d="M509.852,643.741l-.23-.229c.136.017.242.064.23.229" transform="translate(-421.497 -631.471)" fill="#808181"/>
  <path id="Trazado_330" data-name="Trazado 330" d="M347.721,816.042a11.351,11.351,0,0,1,7.92-7.56c2.635-.81,5.263-1.641,7.9-2.433.384-.115.792-.386,1.226-.108a13,13,0,0,0-.243,1.5c-.149,3.137,1.264,5.637,3.347,7.8a26.307,26.307,0,0,0,9.657,6.032c2.868,1.117,5.444,2.524,6.893,5.517.454-.681.788-1.281,1.216-1.8a13.084,13.084,0,0,1,6.047-3.749,11.165,11.165,0,0,0,6.613,6.947.667.667,0,0,1,.443.44,6.583,6.583,0,0,1-.708.271,32.436,32.436,0,0,1-7.058,1.2c-4.271-.118-8.542-.1-12.813-.034a37.857,37.857,0,0,1-10.165-2.1,4.973,4.973,0,0,0-2.161-.632l-4.793-1.97,0,.057c0-.174-.126-.2-.257-.21l-.075-.01-.355-.2c-1.9-1.143-3.874-2.144-5.711-3.39a45.822,45.822,0,0,1-6.928-5.562" transform="translate(-330.621 -722.698)" fill="#761b22"/>
  <path id="Trazado_331" data-name="Trazado 331" d="M319.084,790.163a2.183,2.183,0,0,1,.825,1.678c-.81-.3-.86-.967-.825-1.678" transform="translate(-314.599 -713.899)" fill="#a4a3a4"/>
  <path id="Trazado_332" data-name="Trazado 332" d="M323.154,798.165a.334.334,0,0,1,.19.358.3.3,0,0,1-.19-.358" transform="translate(-316.885 -718.396)" fill="#a4a3a4"/>
  <path id="Trazado_333" data-name="Trazado 333" d="M322.151,796.156a.335.335,0,0,1,.195.366.316.316,0,0,1-.195-.366" transform="translate(-316.322 -717.267)" fill="#a4a3a4"/>
  <path id="Trazado_334" data-name="Trazado 334" d="M321.615,795.166c.177.06.209.2.194.36a.345.345,0,0,1-.194-.36" transform="translate(-316.023 -716.711)" fill="#a4a3a4"/>
  <path id="Trazado_335" data-name="Trazado 335" d="M321.116,794.256c.187.044.2.181.176.334l-.176-.334" transform="translate(-315.744 -716.199)" fill="#a4a3a4"/>
  <path id="Trazado_336" data-name="Trazado 336" d="M322.745,797.5l.134.213-.134-.213" transform="translate(-316.658 -718.02)" fill="#a4a3a4"/>
  <path id="Trazado_337" data-name="Trazado 337" d="M323.686,799.1l.138.17-.138-.17" transform="translate(-317.185 -718.919)" fill="#a4a3a4"/>
  <path id="Trazado_338" data-name="Trazado 338" d="M376.573,849.585l.356.205-.356-.205" transform="translate(-346.855 -747.289)" fill="#fefdfe"/>
  <path id="Trazado_339" data-name="Trazado 339" d="M377.556,850.077c.132.014.256.036.257.21l-.257-.21" transform="translate(-347.407 -747.566)" fill="#fefdfe"/>
  <path id="Trazado_409" data-name="Trazado 409" d="M410.171,751.7a13.089,13.089,0,0,0-6.047,3.75c-.429.521-.762,1.122-1.217,1.8-1.449-2.992-4.025-4.4-6.893-5.517a26.3,26.3,0,0,1-9.657-6.033c-2.083-2.161-3.5-4.662-3.347-7.8a12.913,12.913,0,0,1,.243-1.5c.3-.284.693-.211,1.047-.287.725-.291,1.634-.112,2.183-.854l.023-.006a8.681,8.681,0,0,0,3.2-.805c.782-.232,1.67-.219,2.291-.879l.209-.074a4.028,4.028,0,0,0,.761.007c2.049-.367,2.342-.734,1.934-2.374l-.047-.227c.011-1.42-.021-2.842.051-4.258a2.27,2.27,0,0,0-.8-1.9,39.348,39.348,0,0,1-8.016-10.42c-.49-.974-.85-1.975-2.2-1.959-.183,0-.368-.2-.552-.3a9.631,9.631,0,0,1-2.092-4.6,20.165,20.165,0,0,1-.618-3.193c-.009-.4-.07-.811.3-1.107.181-.12.349-.309.546-.348,1.022-.2,1.115-.9,1.185-1.79a29.99,29.99,0,0,1,2.385-10.358c1.486-3.21,3.263-6.206,6.951-7.366,1.155-.309,2.3-.69,3.467-.913,4.976-.948,9.355.117,12.943,3.882a20.494,20.494,0,0,1,3.057,4.7c0,.456.347.779.463,1.189a18.142,18.142,0,0,0,4.02,7.2,2.843,2.843,0,0,1,.691,2.585c-.328,2.2-1.463,4.045-2.365,6a23.97,23.97,0,0,0-2.378,12.516c.124,1.287.815,2.4.929,3.665-.522.509-1.362.749-1.357,1.695.011,2.077.008,4.154,0,6.231,0,.389.027.7.5.826,1.574.436,3.138.909,4.705,1.368.361.255.242.467.029.793a9.259,9.259,0,0,1-2.572,2.463c-3.211,2.235-4.23,5.435-4.375,9.132-.067,1.72.328,3.374.424,5.066" transform="translate(-349.087 -653.156)" fill="#ebb193"/>
  <path id="Trazado_410" data-name="Trazado 410" d="M411.922,706.9c-.114-1.269-.8-2.378-.929-3.665a23.965,23.965,0,0,1,2.378-12.516c.9-1.957,2.038-3.805,2.365-6a2.843,2.843,0,0,0-.691-2.585,18.14,18.14,0,0,1-4.02-7.2c-.116-.41-.46-.733-.463-1.189a17.462,17.462,0,0,0-1.387-6.553,8.388,8.388,0,0,0-2.967-3.811c-2.356-1.614-4.975-1.336-7.495-1.05-2.714.309-5.018,1.957-7.5,3.028-.364.156-.321.437-.12.717-3.688,1.16-5.464,4.157-6.951,7.366A29.993,29.993,0,0,0,381.76,683.8c-.071.889-.163,1.589-1.185,1.79-.2.039-.365.228-.546.347a32.4,32.4,0,0,1-.945-10.385,20.7,20.7,0,0,1,4.88-13.116,16.325,16.325,0,0,1,5.917-4.2,4.774,4.774,0,0,0,1.8-1.349,15.063,15.063,0,0,1,9.783-5.423l.057.021.049-.037,2.943-.044.764.052c1.1.361,2.259.425,3.362.822a21.959,21.959,0,0,1,11.959,10.669,32.811,32.811,0,0,1,4.107,10.54,6.276,6.276,0,0,0,.583,1.386,12.415,12.415,0,0,0-.036,4.216c.178,1.406-.368,2.816-.187,4.238a11.134,11.134,0,0,1-.824,4.567,38.424,38.424,0,0,1-3.383,7.406c-1.463,2.706-1.437,4.532,1.013,6.945,1.451,1.429,2.968,2.795,4.422,4.225a10.057,10.057,0,0,1,3.02,5.664,6.816,6.816,0,0,1-1.454,5.166,14.649,14.649,0,0,1-3.029,3.173c-2.32,1.884-3.08,6.633-1.24,9.539.311.491.553,1.026.866,1.515a18.762,18.762,0,0,0,4.8,4.958,40.089,40.089,0,0,1-5.293,2.845c-2.014.724-4.024,1.461-6.046,2.164a14.206,14.206,0,0,1-1.584.363.667.667,0,0,0-.443-.44,11.164,11.164,0,0,1-6.613-6.947c-.1-1.692-.491-3.346-.424-5.066.145-3.7,1.164-6.9,4.375-9.132a9.262,9.262,0,0,0,2.572-2.462c.213-.326.332-.539-.029-.794.886-.143.89-.886.943-1.509a6.237,6.237,0,0,0-1.738-4.995,46.263,46.263,0,0,0-3.054-3.615" transform="translate(-348.178 -635.933)" fill="#372014"/>
  <path id="Trazado_411" data-name="Trazado 411" d="M481.642,766.591a18.761,18.761,0,0,1-4.8-4.958c-.313-.489-.556-1.024-.866-1.515-1.84-2.906-1.081-7.655,1.24-9.539a14.64,14.64,0,0,0,3.029-3.173,6.817,6.817,0,0,0,1.454-5.166,10.057,10.057,0,0,0-3.021-5.664c-1.454-1.431-2.97-2.8-4.421-4.225-2.45-2.413-2.476-4.239-1.013-6.945A38.4,38.4,0,0,0,476.621,718a11.134,11.134,0,0,0,.824-4.567c-.181-1.422.365-2.832.187-4.238a12.415,12.415,0,0,1,.036-4.216c2.133,2.275,4.307,4.533,5.172,7.653a10.742,10.742,0,0,1-.8,7.36c-.661,1.5-1.461,2.932-2.167,4.411-1.2,2.511-.889,4.075,1.087,5.986,1.757,1.7,3.816,3.045,5.525,4.8,3.169,3.255,3.4,7.147.61,10.719-.785,1-1.588,1.993-2.391,2.983a6.1,6.1,0,0,0-1.217,2.88,7.6,7.6,0,0,0,1.735,6.471c1,1.283,2.114,2.473,3.177,3.7a37.93,37.93,0,0,1-6.756,4.643" transform="translate(-400.512 -666.035)" fill="#201210"/>
  <path id="Trazado_412" data-name="Trazado 412" d="M386.823,750.553c.184.105.369.3.552.3,1.348-.016,1.709.985,2.2,1.959a39.364,39.364,0,0,0,8.016,10.42,2.268,2.268,0,0,1,.8,1.9c-.073,1.417-.039,2.839-.051,4.259a13.739,13.739,0,0,1-6.266-4.917,27.862,27.862,0,0,1-5.251-13.918" transform="translate(-352.595 -691.642)" fill="#201210"/>
  <path id="Trazado_413" data-name="Trazado 413" d="M502.6,821.966c-1.063-1.232-2.181-2.42-3.177-3.7a7.605,7.605,0,0,1-1.735-6.471,12.087,12.087,0,0,1,7.784,7.445,14.214,14.214,0,0,1-2.872,2.73" transform="translate(-414.7 -726.052)" fill="#761b22"/>
  <path id="Trazado_414" data-name="Trazado 414" d="M399.552,799.637c-.621.66-1.51.647-2.291.879a8.69,8.69,0,0,1-3.2.806,28.4,28.4,0,0,1,5.488-1.684" transform="translate(-356.663 -719.223)" fill="#ebb193"/>
  <path id="Trazado_415" data-name="Trazado 415" d="M409.762,794.063c.408,1.64.115,2.007-1.934,2.374a3.991,3.991,0,0,1-.762-.006,1.9,1.9,0,0,1,1.176-.487,1.529,1.529,0,0,0,1.52-1.881" transform="translate(-363.959 -716.091)" fill="#ebb193"/>
  <path id="Trazado_416" data-name="Trazado 416" d="M391.212,803.495c-.549.742-1.458.563-2.183.853.534-.782,1.42-.659,2.183-.853" transform="translate(-353.841 -721.391)" fill="#ebb193"/>
  <path id="Trazado_417" data-name="Trazado 417" d="M437.96,651.29l-.764-.052a.541.541,0,0,1,.764.052" transform="translate(-380.864 -635.739)" fill="#076280"/>
  <path id="Trazado_418" data-name="Trazado 418" d="M430.342,651.422l-.049.037-.057-.021c.022-.1.054-.123.106-.016" transform="translate(-376.961 -635.878)" fill="#076280"/>
  <path id="Trazado_539" data-name="Trazado 539" d="M406.383,679.807c-.2-.28-.244-.561.12-.718,2.48-1.07,4.785-2.719,7.5-3.027,2.52-.287,5.139-.565,7.495,1.05a8.389,8.389,0,0,1,2.967,3.81,17.474,17.474,0,0,1,1.387,6.553,20.507,20.507,0,0,0-3.057-4.7c-3.588-3.765-7.967-4.83-12.943-3.881-1.171.223-2.312.6-3.467.913" transform="translate(-363.473 -649.644)" fill="#201210"/>
  <path id="Trazado_540" data-name="Trazado 540" d="M452.377,778.076a46.252,46.252,0,0,1,3.054,3.615,6.237,6.237,0,0,1,1.738,4.995c-.053.623-.057,1.366-.943,1.509-1.568-.459-3.131-.931-4.705-1.368-.473-.131-.5-.437-.5-.826.007-2.077.01-4.154,0-6.231-.005-.945.835-1.186,1.357-1.695" transform="translate(-388.614 -707.108)" fill="#201210"/>
  <path id="Trazado_945" data-name="Trazado 945" d="M325.753,709.446a46.85,46.85,0,0,1-5.135-5.305,65.235,65.235,0,0,1-5.257-7.693l-.138-.17-.042-.049a.333.333,0,0,0-.19-.358l-.047-.08-.134-.213-.064-.222a.335.335,0,0,0-.195-.366l-.043-.074c.015-.163-.017-.3-.194-.36l-.042-.064c.021-.153.01-.29-.176-.334a.243.243,0,0,0-.061-.115,2.183,2.183,0,0,0-.825-1.677l-.021-.057c-.159-1.475-.981-2.719-1.448-4.089a58.532,58.532,0,0,1-2.991-14.246,63.651,63.651,0,0,1,.115-9.266c.117-1.823.455-3.648.64-5.478a44.77,44.77,0,0,0,1.331-4.764,52.426,52.426,0,0,1,6.2-13.364,53.575,53.575,0,0,1,35.573-24.028,20.641,20.641,0,0,1,4.929-.546,1.5,1.5,0,0,0,1.027-.266,3.77,3.77,0,0,0,1.956-.134l3.743-.01c.256.226.557.153.851.127a53.13,53.13,0,0,1,19.012,4.385,66,66,0,0,1,12.187,7.231c.006.254.184.269.374.27l-.008-.011.23.229-.007-.014c.061.23.219.283.432.24v0c.165.953,1.073,1.233,1.67,1.765a57.193,57.193,0,0,1,10.4,13.064,46.15,46.15,0,0,1,5.411,13.428,42.791,42.791,0,0,1,1.377,9.215c.006.318.241,7.275.229,9.245-.022,3.535-1.264,6.758-2.174,10.035a51.438,51.438,0,0,1-6.23,13.867,54.56,54.56,0,0,1-7.136,9.149,3.173,3.173,0,0,1-1.557.946,12.086,12.086,0,0,0-7.784-7.444,6.1,6.1,0,0,1,1.216-2.881c.8-.989,1.606-1.979,2.392-2.983,2.793-3.572,2.559-7.465-.61-10.719-1.709-1.755-3.768-3.1-5.525-4.8-1.976-1.911-2.285-3.475-1.087-5.986.705-1.479,1.506-2.913,2.166-4.411a10.74,10.74,0,0,0,.8-7.36c-.865-3.12-3.038-5.378-5.172-7.653a6.277,6.277,0,0,1-.584-1.386,32.8,32.8,0,0,0-4.107-10.54,21.955,21.955,0,0,0-11.959-10.669c-1.1-.4-2.264-.461-3.361-.822a.54.54,0,0,0-.763-.052l-2.944.045c-.052-.106-.084-.08-.105.016a15.065,15.065,0,0,0-9.783,5.423,4.783,4.783,0,0,1-1.8,1.349,16.316,16.316,0,0,0-5.917,4.2,20.7,20.7,0,0,0-4.88,13.115,32.376,32.376,0,0,0,.946,10.385c-.368.3-.308.712-.3,1.107a20.145,20.145,0,0,0,.618,3.193,9.633,9.633,0,0,0,2.093,4.6,27.858,27.858,0,0,0,5.251,13.918,13.739,13.739,0,0,0,6.266,4.917c.015.075.031.151.047.227a1.529,1.529,0,0,1-1.519,1.881,1.9,1.9,0,0,0-1.176.486l-.209.074a28.439,28.439,0,0,0-5.488,1.684l-.023.006c-.763.195-1.649.072-2.183.853-.354.076-.749,0-1.047.287-.434-.278-.842-.008-1.226.108-2.64.792-5.269,1.622-7.9,2.433a11.351,11.351,0,0,0-7.92,7.56" transform="translate(-308.625 -616.102)" fill="#ee6c08"/>
  <path id="Trazado_946" data-name="Trazado 946" d="M424.575,616.072a3.766,3.766,0,0,1-1.956.134,4.094,4.094,0,0,1,1.956-.134" transform="translate(-372.686 -616.02)" fill="#ccc"/>
  <path id="Trazado_947" data-name="Trazado 947" d="M436.48,616.2c-.294.026-.595.1-.851-.127.294-.028.6-.116.851.127" transform="translate(-379.985 -616.025)" fill="#ccc"/>
  <path id="Trazado_948" data-name="Trazado 948" d="M510.562,644.232c-.212.043-.371-.01-.432-.24.2-.03.369.014.432.24" transform="translate(-421.781 -631.736)" fill="#808181"/>
  <path id="Trazado_949" data-name="Trazado 949" d="M509.161,643.192c-.189,0-.368-.016-.374-.27l.374.27" transform="translate(-421.028 -631.14)" fill="#808181"/>
  <path id="Trazado_950" data-name="Trazado 950" d="M509.852,643.741l-.23-.229c.136.017.242.064.23.229" transform="translate(-421.497 -631.471)" fill="#808181"/>
  <path id="Trazado_951" data-name="Trazado 951" d="M347.721,816.042a11.351,11.351,0,0,1,7.92-7.56c2.635-.81,5.263-1.641,7.9-2.433.384-.115.792-.386,1.226-.108a13,13,0,0,0-.243,1.5c-.149,3.137,1.264,5.637,3.347,7.8a26.307,26.307,0,0,0,9.657,6.032c2.868,1.117,5.444,2.524,6.893,5.517.454-.681.788-1.281,1.216-1.8a13.084,13.084,0,0,1,6.047-3.749,11.165,11.165,0,0,0,6.613,6.947.667.667,0,0,1,.443.44,6.583,6.583,0,0,1-.708.271,32.436,32.436,0,0,1-7.058,1.2c-4.271-.118-8.542-.1-12.813-.034a37.857,37.857,0,0,1-10.165-2.1,4.973,4.973,0,0,0-2.161-.632l-4.793-1.97,0,.057c0-.174-.126-.2-.257-.21l-.075-.01-.355-.2c-1.9-1.143-3.874-2.144-5.711-3.39a45.822,45.822,0,0,1-6.928-5.562" transform="translate(-330.621 -722.698)" fill="#761b22"/>
  <path id="Trazado_952" data-name="Trazado 952" d="M319.084,790.163a2.183,2.183,0,0,1,.825,1.678c-.81-.3-.86-.967-.825-1.678" transform="translate(-314.599 -713.899)" fill="#a4a3a4"/>
  <path id="Trazado_953" data-name="Trazado 953" d="M323.154,798.165a.334.334,0,0,1,.19.358.3.3,0,0,1-.19-.358" transform="translate(-316.885 -718.396)" fill="#a4a3a4"/>
  <path id="Trazado_954" data-name="Trazado 954" d="M322.151,796.156a.335.335,0,0,1,.195.366.316.316,0,0,1-.195-.366" transform="translate(-316.322 -717.267)" fill="#a4a3a4"/>
  <path id="Trazado_955" data-name="Trazado 955" d="M321.615,795.166c.177.06.209.2.194.36a.345.345,0,0,1-.194-.36" transform="translate(-316.023 -716.711)" fill="#a4a3a4"/>
  <path id="Trazado_956" data-name="Trazado 956" d="M321.116,794.256c.187.044.2.181.176.334l-.176-.334" transform="translate(-315.744 -716.199)" fill="#a4a3a4"/>
  <path id="Trazado_957" data-name="Trazado 957" d="M322.745,797.5l.134.213-.134-.213" transform="translate(-316.658 -718.02)" fill="#a4a3a4"/>
  <path id="Trazado_958" data-name="Trazado 958" d="M323.686,799.1l.138.17-.138-.17" transform="translate(-317.185 -718.919)" fill="#a4a3a4"/>
  <path id="Trazado_959" data-name="Trazado 959" d="M376.573,849.585l.356.205-.356-.205" transform="translate(-346.855 -747.289)" fill="#fefdfe"/>
  <path id="Trazado_960" data-name="Trazado 960" d="M377.556,850.077c.132.014.256.036.257.21l-.257-.21" transform="translate(-347.407 -747.566)" fill="#fefdfe"/>
  <path id="Trazado_961" data-name="Trazado 961" d="M410.171,751.7a13.089,13.089,0,0,0-6.047,3.75c-.429.521-.762,1.122-1.217,1.8-1.449-2.992-4.025-4.4-6.893-5.517a26.3,26.3,0,0,1-9.657-6.033c-2.083-2.161-3.5-4.662-3.347-7.8a12.913,12.913,0,0,1,.243-1.5c.3-.284.693-.211,1.047-.287.725-.291,1.634-.112,2.183-.854l.023-.006a8.681,8.681,0,0,0,3.2-.805c.782-.232,1.67-.219,2.291-.879l.209-.074a4.028,4.028,0,0,0,.761.007c2.049-.367,2.342-.734,1.934-2.374l-.047-.227c.011-1.42-.021-2.842.051-4.258a2.27,2.27,0,0,0-.8-1.9,39.348,39.348,0,0,1-8.016-10.42c-.49-.974-.85-1.975-2.2-1.959-.183,0-.368-.2-.552-.3a9.631,9.631,0,0,1-2.092-4.6,20.165,20.165,0,0,1-.618-3.193c-.009-.4-.07-.811.3-1.107.181-.12.349-.309.546-.348,1.022-.2,1.115-.9,1.185-1.79a29.99,29.99,0,0,1,2.385-10.358c1.486-3.21,3.263-6.206,6.951-7.366,1.155-.309,2.3-.69,3.467-.913,4.976-.948,9.355.117,12.943,3.882a20.494,20.494,0,0,1,3.057,4.7c0,.456.347.779.463,1.189a18.142,18.142,0,0,0,4.02,7.2,2.843,2.843,0,0,1,.691,2.585c-.328,2.2-1.463,4.045-2.365,6a23.97,23.97,0,0,0-2.378,12.516c.124,1.287.815,2.4.929,3.665-.522.509-1.362.749-1.357,1.695.011,2.077.008,4.154,0,6.231,0,.389.027.7.5.826,1.574.436,3.138.909,4.705,1.368.361.255.242.467.029.793a9.259,9.259,0,0,1-2.572,2.463c-3.211,2.235-4.23,5.435-4.375,9.132-.067,1.72.328,3.374.424,5.066" transform="translate(-349.087 -653.156)" fill="#ebb193"/>
  <path id="Trazado_962" data-name="Trazado 962" d="M411.922,706.9c-.114-1.269-.8-2.378-.929-3.665a23.965,23.965,0,0,1,2.378-12.516c.9-1.957,2.038-3.805,2.365-6a2.843,2.843,0,0,0-.691-2.585,18.14,18.14,0,0,1-4.02-7.2c-.116-.41-.46-.733-.463-1.189a17.462,17.462,0,0,0-1.387-6.553,8.388,8.388,0,0,0-2.967-3.811c-2.356-1.614-4.975-1.336-7.495-1.05-2.714.309-5.018,1.957-7.5,3.028-.364.156-.321.437-.12.717-3.688,1.16-5.464,4.157-6.951,7.366A29.993,29.993,0,0,0,381.76,683.8c-.071.889-.163,1.589-1.185,1.79-.2.039-.365.228-.546.347a32.4,32.4,0,0,1-.945-10.385,20.7,20.7,0,0,1,4.88-13.116,16.325,16.325,0,0,1,5.917-4.2,4.774,4.774,0,0,0,1.8-1.349,15.063,15.063,0,0,1,9.783-5.423l.057.021.049-.037,2.943-.044.764.052c1.1.361,2.259.425,3.362.822a21.959,21.959,0,0,1,11.959,10.669,32.811,32.811,0,0,1,4.107,10.54,6.276,6.276,0,0,0,.583,1.386,12.415,12.415,0,0,0-.036,4.216c.178,1.406-.368,2.816-.187,4.238a11.134,11.134,0,0,1-.824,4.567,38.424,38.424,0,0,1-3.383,7.406c-1.463,2.706-1.437,4.532,1.013,6.945,1.451,1.429,2.968,2.795,4.422,4.225a10.057,10.057,0,0,1,3.02,5.664,6.816,6.816,0,0,1-1.454,5.166,14.649,14.649,0,0,1-3.029,3.173c-2.32,1.884-3.08,6.633-1.24,9.539.311.491.553,1.026.866,1.515a18.762,18.762,0,0,0,4.8,4.958,40.089,40.089,0,0,1-5.293,2.845c-2.014.724-4.024,1.461-6.046,2.164a14.206,14.206,0,0,1-1.584.363.667.667,0,0,0-.443-.44,11.164,11.164,0,0,1-6.613-6.947c-.1-1.692-.491-3.346-.424-5.066.145-3.7,1.164-6.9,4.375-9.132a9.262,9.262,0,0,0,2.572-2.462c.213-.326.332-.539-.029-.794.886-.143.89-.886.943-1.509a6.237,6.237,0,0,0-1.738-4.995,46.263,46.263,0,0,0-3.054-3.615" transform="translate(-348.178 -635.933)" fill="#372014"/>
  <path id="Trazado_963" data-name="Trazado 963" d="M481.642,766.591a18.761,18.761,0,0,1-4.8-4.958c-.313-.489-.556-1.024-.866-1.515-1.84-2.906-1.081-7.655,1.24-9.539a14.64,14.64,0,0,0,3.029-3.173,6.817,6.817,0,0,0,1.454-5.166,10.057,10.057,0,0,0-3.021-5.664c-1.454-1.431-2.97-2.8-4.421-4.225-2.45-2.413-2.476-4.239-1.013-6.945A38.4,38.4,0,0,0,476.621,718a11.134,11.134,0,0,0,.824-4.567c-.181-1.422.365-2.832.187-4.238a12.415,12.415,0,0,1,.036-4.216c2.133,2.275,4.307,4.533,5.172,7.653a10.742,10.742,0,0,1-.8,7.36c-.661,1.5-1.461,2.932-2.167,4.411-1.2,2.511-.889,4.075,1.087,5.986,1.757,1.7,3.816,3.045,5.525,4.8,3.169,3.255,3.4,7.147.61,10.719-.785,1-1.588,1.993-2.391,2.983a6.1,6.1,0,0,0-1.217,2.88,7.6,7.6,0,0,0,1.735,6.471c1,1.283,2.114,2.473,3.177,3.7a37.93,37.93,0,0,1-6.756,4.643" transform="translate(-400.512 -666.035)" fill="#201210"/>
  <path id="Trazado_964" data-name="Trazado 964" d="M386.823,750.553c.184.105.369.3.552.3,1.348-.016,1.709.985,2.2,1.959a39.364,39.364,0,0,0,8.016,10.42,2.268,2.268,0,0,1,.8,1.9c-.073,1.417-.039,2.839-.051,4.259a13.739,13.739,0,0,1-6.266-4.917,27.862,27.862,0,0,1-5.251-13.918" transform="translate(-352.595 -691.642)" fill="#201210"/>
  <path id="Trazado_965" data-name="Trazado 965" d="M502.6,821.966c-1.063-1.232-2.181-2.42-3.177-3.7a7.605,7.605,0,0,1-1.735-6.471,12.087,12.087,0,0,1,7.784,7.445,14.214,14.214,0,0,1-2.872,2.73" transform="translate(-414.7 -726.052)" fill="#761b22"/>
  <path id="Trazado_966" data-name="Trazado 966" d="M399.552,799.637c-.621.66-1.51.647-2.291.879a8.69,8.69,0,0,1-3.2.806,28.4,28.4,0,0,1,5.488-1.684" transform="translate(-356.663 -719.223)" fill="#ebb193"/>
  <path id="Trazado_967" data-name="Trazado 967" d="M409.762,794.063c.408,1.64.115,2.007-1.934,2.374a3.991,3.991,0,0,1-.762-.006,1.9,1.9,0,0,1,1.176-.487,1.529,1.529,0,0,0,1.52-1.881" transform="translate(-363.959 -716.091)" fill="#ebb193"/>
  <path id="Trazado_968" data-name="Trazado 968" d="M391.212,803.495c-.549.742-1.458.563-2.183.853.534-.782,1.42-.659,2.183-.853" transform="translate(-353.841 -721.391)" fill="#ebb193"/>
  <path id="Trazado_969" data-name="Trazado 969" d="M437.96,651.29l-.764-.052a.541.541,0,0,1,.764.052" transform="translate(-380.864 -635.739)" fill="#076280"/>
  <path id="Trazado_970" data-name="Trazado 970" d="M430.342,651.422l-.049.037-.057-.021c.022-.1.054-.123.106-.016" transform="translate(-376.961 -635.878)" fill="#076280"/>
  <path id="Trazado_971" data-name="Trazado 971" d="M406.383,679.807c-.2-.28-.244-.561.12-.718,2.48-1.07,4.785-2.719,7.5-3.027,2.52-.287,5.139-.565,7.495,1.05a8.389,8.389,0,0,1,2.967,3.81,17.474,17.474,0,0,1,1.387,6.553,20.507,20.507,0,0,0-3.057-4.7c-3.588-3.765-7.967-4.83-12.943-3.881-1.171.223-2.312.6-3.467.913" transform="translate(-363.473 -649.644)" fill="#201210"/>
  <path id="Trazado_972" data-name="Trazado 972" d="M452.377,778.076a46.252,46.252,0,0,1,3.054,3.615,6.237,6.237,0,0,1,1.738,4.995c-.053.623-.057,1.366-.943,1.509-1.568-.459-3.131-.931-4.705-1.368-.473-.131-.5-.437-.5-.826.007-2.077.01-4.154,0-6.231-.005-.945.835-1.186,1.357-1.695" transform="translate(-388.614 -707.108)" fill="#201210"/>
</svg>
