<svg xmlns="http://www.w3.org/2000/svg" width="107.92" height="107.899" viewBox="0 0 107.92 107.899">
  <path id="Trazado_258" data-name="Trazado 258" d="M723.141,60.227a55.642,55.642,0,0,1-3.3,13.606,52.884,52.884,0,0,1-8.819,14.979,42.116,42.116,0,0,1-4.108,4.477c-.262.237-.445.6-.878.584a11.194,11.194,0,0,0-4.405-5.583,21.385,21.385,0,0,0-5.207-2.083,21.858,21.858,0,0,1-1.953-7.442c.118-.546.3-1.1-.187-1.574a61.74,61.74,0,0,1-.008-6.666,3.667,3.667,0,0,0,.271-2.661,10.488,10.488,0,0,1,.1-1.306,78.014,78.014,0,0,0,1.3-13.99c.043-2.982-.17-5.946-.406-8.921a39.558,39.558,0,0,0-4.711-16.675,19.008,19.008,0,0,0-10.6-9.124,34.491,34.491,0,0,0-16.046-1.659A22.6,22.6,0,0,0,654.4,19.58c-8.6,5.852-11.927,14.387-12.33,24.392a.215.215,0,0,0,0,.2l.006.453a23.514,23.514,0,0,0,.027,3.923,3.694,3.694,0,0,0,.14,1.543l.064,1.121a8.589,8.589,0,0,0,0,1.088,63.43,63.43,0,0,0,1.789,9.638,37.907,37.907,0,0,1,.248,18.238,54.347,54.347,0,0,1-1.871,6.023c-.551.172-1.1.345-1.652.515a11.242,11.242,0,0,0-7.8,7.116c-1.047-.308-1.565-1.244-2.252-1.954a51.714,51.714,0,0,1-7.021-8.839,91.735,91.735,0,0,1-4.919-9.781.213.213,0,0,0-.027-.173l-.2-.244a.373.373,0,0,0-.025-.194.4.4,0,0,0-.182-.455.349.349,0,0,0-.011-.156l.175-.244c-.3-.789-.611-1.572-.885-2.369A45.782,45.782,0,0,1,615.6,56.888a46.717,46.717,0,0,1,.612-10.858c.218-1.211.4-2.427.6-3.642a81.6,81.6,0,0,1,3.251-9.592A53.861,53.861,0,0,1,642.184,7.851,53.978,53.978,0,0,1,666.155.563l6.987.007a53.238,53.238,0,0,1,26.2,8.887c2.381,1.588,4.631,3.372,6.941,5.067.013.146.076.215.227.146a.117.117,0,0,1,.1.065.457.457,0,0,0,.131.671,39.471,39.471,0,0,1,4.122,4.389,43.242,43.242,0,0,1,5.477,7.7,54.614,54.614,0,0,1,6.8,21.113,56.552,56.552,0,0,1,.007,11.624" transform="translate(-615.518 -0.33)" fill="#076280"/>
  <path id="Trazado_263" data-name="Trazado 263" d="M687.662,211.735a33.2,33.2,0,0,1-4.547-2c-.041-.1-.094-.164-.2-.073a.417.417,0,0,1-.114-.1,30.979,30.979,0,0,1,1.028-3.995,8.174,8.174,0,0,0,.261-4.15c-.342-2.953-.847-5.889-.991-8.864l4.624-1.433c2.886,9.388,8.792,15.607,18.607,17.716a3.766,3.766,0,0,0,1.509.164,22.969,22.969,0,0,0,14.133-8.044,24.141,24.141,0,0,0,5.039-9.6,39.559,39.559,0,0,1,4.822,1.314c-.29,2.349-.564,4.7-.872,7.047-.318,2.419-.663,4.823.46,7.161a9.26,9.26,0,0,1,.465,1.906,1.321,1.321,0,0,1-.815.981c-.905.376-1.777.831-2.676,1.224a51.558,51.558,0,0,1-18.183,4.253,50.925,50.925,0,0,1-14.965-1.307c-.174-.246-.364-.256-.569-.038l-.327-.03a.552.552,0,0,0-.347-.382c-1.423-.429-2.823-.958-4.271-1.262-.7-.146-1.3-.688-2.067-.493" transform="translate(-653.323 -107.429)" fill="#dc2e35"/>
  <path id="Trazado_265" data-name="Trazado 265" d="M667.746,194.39c.144,2.976.649,5.911.991,8.864a8.178,8.178,0,0,1-.26,4.15,30.975,30.975,0,0,0-1.028,3.994,16.514,16.514,0,0,1-3.641-1.9,9.714,9.714,0,0,0-1.276-.612c-1.329-1.537-3.255-2.306-4.713-3.657-.827-.766-1.883-1.352-2.336-2.481a11.242,11.242,0,0,1,7.8-7.116c.552-.17,1.1-.343,1.652-.515,1,.008,1.8-.784,2.816-.725" transform="translate(-638.138 -109.263)" fill="#ebb193"/>
  <path id="Trazado_274" data-name="Trazado 274" d="M738.091.27,731.1.264a25.825,25.825,0,0,1,6.987.007" transform="translate(-680.467 -0.03)" fill="#a4a3a4"/>
  <path id="Trazado_316" data-name="Trazado 316" d="M683.058,233.394c.109-.09.162-.025.2.073l-.2-.073" transform="translate(-653.63 -131.161)" fill="#ebb193"/>
  <path id="Trazado_317" data-name="Trazado 317" d="M822.92,32.575c-.151.068-.214,0-.227-.146l.227.146" transform="translate(-731.932 -18.235)" fill="#808181"/>
  <path id="Trazado_323" data-name="Trazado 323" d="M793.382,211.533l-.128-.749a9.181,9.181,0,0,0-.464-1.9c-1.123-2.339-.778-4.742-.46-7.161.308-2.346.583-4.7.872-7.046l2.4.609a21.373,21.373,0,0,1,5.207,2.083,11.192,11.192,0,0,1,4.405,5.583,40.169,40.169,0,0,1-6.2,5.094c-1.794,1.306-3.8,2.262-5.632,3.493" transform="translate(-714.695 -109.423)" fill="#ebb193"/>
  <path id="Trazado_433" data-name="Trazado 433" d="M730.48,105.847l-2.4-.609a39.578,39.578,0,0,0-4.822-1.314,2.318,2.318,0,0,0-1.195-.468c-3-.877-6-1.733-9-2.612-.34-.1-.871-.015-.832-.637l-.1-.232q-.022-2.529-.044-5.057c.023-.021.069-.049.065-.063a.949.949,0,0,0-.072-.151l.013-2.413.152-.168a24.494,24.494,0,0,0,3.227-2.7c.705-.039.977-.432.9-1.107l-.006.005c.5.025.485-.31.452-.655l-.006.006c.5.007.474-.336.451-.678l.918-1.709.159-.308a.1.1,0,0,1,.056-.127,1.781,1.781,0,0,0,.956-2.447l.148-.4.124-.364.121-.513.132-.3c.02-.12.04-.241.06-.361a.448.448,0,0,0,.16-.511l.067-.364a.472.472,0,0,0,.149-.525l.074-.57c.184-.114.224-.251.071-.422-.008-.148-.015-.3-.023-.445.552-.2.314-.64.3-1.011l.093-.97a.3.3,0,0,0,.072-.371q.071-.911.141-1.821c.226-.18.18-.43.172-.671-.021-.214.047-.447-.134-.627a22.254,22.254,0,0,1,.011-2.269c.095-.935-.277-1.327-1.185-1.278-.063-.11-.135-.128-.218-.02-.433-.117-.921.241-1.321-.154-.7-.732-.7-.732-1.095-.311l-.435.011-.226-.149-.65-.247a1.7,1.7,0,0,0-1.74-.637l-.231-.071-.209-.146c-.279.032-.456-.169-.667-.291l-.2-.152-.9-.5-.194-.158c-.32-.261-.769-.3-1.035-.691-.138-.2-.5-.48-.7.042l-.079.139.141-.1a25.36,25.36,0,0,1,2.493,2.768,2.81,2.81,0,0,1-1.721-.593,1.116,1.116,0,0,0-1.073-.466l-.226-.08c-.077-.411-.385-.367-.681-.346l-.861-.507-.206-.16-.222-.091-.1-.233-.128.109-.436-.285-.2-.159c-.5-.041-.753-.475-1.118-.73l-.217-.138h0l-.2-.223-.45-.273-.234-.156a45.045,45.045,0,0,1-6.12-5.256,2.356,2.356,0,0,0-1.964-1.98l-.216-.237c.02-.212-.035-.54.209-.567,1.161-.127,1.26-1.2,1.739-1.912a.722.722,0,0,0-.342-1.164c-.262-.121-.635-.147-.317-.57.282-.375.557-.369.9-.04a18.18,18.18,0,0,0,1.568,1.347c.329.249.513.975,1.115.528.579-.429.967-.946.52-1.769a1.593,1.593,0,0,1,.092-1.663c.34-.53.711-.717,1.235-.248,2.109,1.89,4.311,3.69,6.3,5.7a49.811,49.811,0,0,0,4.95,4.884c.226.172.427.685.755.332.28-.3-.195-.541-.341-.811-.9-1.647-2.523-2.816-3.066-4.692-.057-.2-.274-.412-.017-.575.209-.133.411.02.584.169a20.744,20.744,0,0,0,1.684,1.551c2.054,1.425,3.959,3.048,6.032,4.457a34.636,34.636,0,0,0,4.884,3.043c.311.143.665.242.919-.007.219-.215-.073-.46-.143-.691a66.85,66.85,0,0,0-3.889-9.581,7.407,7.407,0,0,0-1.509-2.488c-.19-.171-.427-.528-.733-.328-.266.174-.165.538-.084.812.3,1.007.62,2.008.934,3.011.1.318.237.714-.042.918s-.7.006-.9-.2a37.861,37.861,0,0,1-2.82-2.568c-1.387-1.676-2.78-3.344-4.082-5.091a8.124,8.124,0,0,0-2.144-2.008c-.6-.379-.864-.322-.862.419,0,.547-.02,1.1,0,1.641.029.668-.22.77-.768.451a11.761,11.761,0,0,1-3.342-2.853c-.138-.173-.3-.338-.2-.58s.35-.221.563-.226a8.629,8.629,0,0,0,1.419-.034c.562-.109,1.108-.537,1.084-1.055-.021-.445-.676-.183-1.046-.223a6.227,6.227,0,0,0-1.2,0c-.649.055-.948-.175-.9-.863.044-.58.015-1.167.005-1.75,0-.206.068-.479-.2-.561-.243-.074-.369.173-.54.3a1.622,1.622,0,0,0-.581,1.556c.012.263.156.665-.215.757-.314.079-.5-.252-.63-.508-.393-.783-1.329-.863-1.867-1.463a.407.407,0,0,0-.593.074c-.6.732-1.163.425-1.806.026a2.676,2.676,0,0,0-3.183.056,2.561,2.561,0,0,0-1.081,2.756,7.847,7.847,0,0,0,1.657,3.606c.441.435,1.02.833.226,1.465-.161.128-.094.312-.01.495.484,1.049.382,1.245-.768,1.032a1.825,1.825,0,0,0-2.183,1.287c-.113.244-.171.48-.488.5-.987-.441-1.354.552-2.012.871a.383.383,0,0,0-.4.439,12.024,12.024,0,0,0-3.081,4.166.427.427,0,0,0-.205.432l0,0a.853.853,0,0,0-.878.478,8.816,8.816,0,0,1-1.064,1.346c-.157.181-.342.422-.641.235s-.184-.422-.1-.672c.07-.2.029-.474.15-.623.306-.377.183-.611-.116-.913-.351-.354-.673-.216-.97-.007-.991.7-1.227,1.534-.4,2.767.264.4.584.626.22,1.2-.257.405.318.852.632.733,1.021-.388,1.356.319,1.794.927q-.1.879-.2,1.757c-.025.021-.074.046-.071.061a.883.883,0,0,0,.06.158,46.625,46.625,0,0,0-.007,6.355,1.5,1.5,0,0,0-.83,1.606,10.989,10.989,0,0,1,0,2.076c-.128,1.531-.117,1.561,1.323,1.355a.69.69,0,0,1,.184.656c-.024.023-.073.056-.069.067a1.014,1.014,0,0,0,.086.152c.024.176.048.351.072.527a.5.5,0,0,0,.141.568l.086.52.117.356q.061.582.121,1.164l.1.368.065.389a.434.434,0,0,0,.168.487,14.179,14.179,0,0,0,1.951,3.732.725.725,0,0,0,.473.668l-.006-.01a1.838,1.838,0,0,0,.672,1.1l-.007-.007a.535.535,0,0,0,.426.465l-.008-.009a2.969,2.969,0,0,0,1.334,1.529l-.007-.007a.556.556,0,0,0,.45.489l.807.826a.545.545,0,0,0,.493.453l-.007-.006c.1.255.15.559.5.607,1.26.682,1.489,1.758,1.349,3.1a22.609,22.609,0,0,0-.037,3.809c.059.9-.265,1.221-1.1,1.471-3.463,1.038-6.9,2.165-10.344,3.26l-4.624,1.433c-1.016-.059-1.813.732-2.816.725a54.373,54.373,0,0,0,1.87-6.023,37.907,37.907,0,0,0-.247-18.238,63.509,63.509,0,0,1-1.789-9.638,8.758,8.758,0,0,1,0-1.089c.3.371.288.891.883,1.144,2.884,1.227,5.359-1.286,5.614-3.4.083-.69.762-2.03-.869-2.246-.22-.029-.2-.291-.121-.453.343-.681-.129-.905-.608-1.142-.383-.19-.76-.393-1.1-.571,0-.52.678-.19.632-.671-.241-.377-1.179-.248-.8-1.108.075-.171-.151-.307-.354-.313a.39.39,0,0,0-.456.362c-.036.324-.007.7-.484.7s-.584.238-.649.67c-.1.686-.82.765-1.295,1.023-.438.238-.358-.428-.619-.576l-.007-.453c.025-.02.074-.047.071-.058a.935.935,0,0,0-.073-.146c.4-10.005,3.734-18.54,12.33-24.392a22.6,22.6,0,0,1,9.772-3.388,34.492,34.492,0,0,1,16.046,1.659,19.01,19.01,0,0,1,10.6,9.124,39.565,39.565,0,0,1,4.711,16.675c.236,2.975.449,5.939.407,8.921a77.973,77.973,0,0,1-1.3,13.99,10.5,10.5,0,0,0-.1,1.306,5.969,5.969,0,0,0-.271,2.661,61.96,61.96,0,0,0,.008,6.666c-.184.555.116,1.051.188,1.575a21.867,21.867,0,0,0,1.953,7.442M708.8,63.6c.407.566.594.963,1.221,1.031-.363-.678-.363-.678-1.221-1.031" transform="translate(-649.575 -19.967)" fill="#ee6c08"/>
  <path id="Trazado_434" data-name="Trazado 434" d="M676.058,98.355c.261.149.181.814.619.576.474-.258,1.19-.337,1.295-1.023.066-.432.18-.673.65-.67s.448-.374.485-.7a.389.389,0,0,1,.456-.362c.2.006.428.142.353.313-.376.861.562.731.8,1.108.047.481-.633.151-.631.67.342.178.718.381,1.1.571.479.237.951.461.609,1.142-.081.161-.1.423.121.452,1.631.217.952,1.557.87,2.246-.255,2.119-2.73,4.631-5.614,3.4-.595-.253-.582-.774-.883-1.144l-.064-1.121c.245.065.488.138.736.194a1.16,1.16,0,0,0,1.347-.7,1.124,1.124,0,0,0-.179-1.412,1.028,1.028,0,0,0-1.474.05,4.161,4.161,0,0,1-.57.323,23.513,23.513,0,0,1-.027-3.924" transform="translate(-649.652 -54.056)" fill="#fba631"/>
  <path id="Trazado_435" data-name="Trazado 435" d="M676.154,109.254a4.085,4.085,0,0,0,.569-.323,1.029,1.029,0,0,1,1.475-.05,1.124,1.124,0,0,1,.179,1.412,1.16,1.16,0,0,1-1.347.7c-.247-.056-.49-.129-.736-.194a3.691,3.691,0,0,1-.14-1.543" transform="translate(-649.729 -61.032)" fill="#fba631"/>
  <path id="Trazado_436" data-name="Trazado 436" d="M795.189,156.85a5.969,5.969,0,0,1,.271-2.661,3.666,3.666,0,0,1-.271,2.661" transform="translate(-716.433 -86.653)" fill="#fba631"/>
  <path id="Trazado_437" data-name="Trazado 437" d="M795.419,177.055c-.072-.524-.372-1.02-.188-1.575.488.474.306,1.028.188,1.575" transform="translate(-716.467 -98.636)" fill="#fba631"/>
  <path id="Trazado_438" data-name="Trazado 438" d="M622.06,164.526c-.335-.042-.512-.147-.182-.455a.4.4,0,0,1,.182.455" transform="translate(-619.208 -92.206)" fill="#ccc"/>
  <path id="Trazado_439" data-name="Trazado 439" d="M676.1,99.649a.925.925,0,0,1,.073.146c0,.011-.046.039-.071.058a.216.216,0,0,1,0-.2" transform="translate(-649.711 -56.007)" fill="#372014"/>
  <path id="Trazado_440" data-name="Trazado 440" d="M622.078,163.4l.175-.244-.175.244" transform="translate(-619.42 -91.694)" fill="#ccc"/>
  <path id="Trazado_441" data-name="Trazado 441" d="M622.773,165.8l-.2-.243.2.243" transform="translate(-619.7 -93.04)" fill="#ccc"/>
  <path id="Trazado_463" data-name="Trazado 463" d="M728.24,106.562l-.918,1.709a1.2,1.2,0,0,0-.451.678l.006-.007a1.079,1.079,0,0,0-.452.655l.006-.005a3.121,3.121,0,0,0-.9,1.107,24.55,24.55,0,0,1-3.227,2.7c-.126-.012-.186.035-.152.168l-.013,2.412c0,.071,0,.142.007.214q.022,2.529.044,5.057c-.077.125.007.181.1.232-.039.622.492.537.832.637,3,.879,6,1.735,9,2.612a2.323,2.323,0,0,1,1.195.468,24.134,24.134,0,0,1-5.039,9.6,22.967,22.967,0,0,1-14.133,8.043,3.759,3.759,0,0,1-1.509-.164c-9.814-2.109-15.721-8.327-18.607-17.716,3.446-1.094,6.882-2.222,10.344-3.259.835-.251,1.159-.573,1.1-1.471a22.615,22.615,0,0,1,.037-3.809c.139-1.34-.09-2.416-1.349-3.1-.029-.318-.074-.623-.5-.607l.007.006c-.006-.324-.19-.453-.493-.453l-.808-.826c0-.306-.131-.482-.45-.489l.007.007a2.647,2.647,0,0,0-1.334-1.529l.007.009c0-.282-.1-.478-.425-.466l.007.007a1.083,1.083,0,0,0-.673-1.1l.006.01a.616.616,0,0,0-.473-.668,14.183,14.183,0,0,1-1.951-3.732.459.459,0,0,0-.168-.487q-.032-.195-.065-.389l-.1-.368q-.06-.582-.121-1.164l-.117-.356-.086-.52a.587.587,0,0,0-.141-.567q-.036-.264-.072-.527c-.006-.073-.012-.146-.018-.219a.691.691,0,0,0-.184-.656q-.247-2.519-.5-5.037a46.605,46.605,0,0,1,.007-6.355c0-.073.007-.145.011-.218l.2-1.757a30.89,30.89,0,0,1,1.374-5.472l0,0c.192-.085.214-.251.205-.432A12.029,12.029,0,0,1,700.4,74.8c.319.022.509-.072.4-.439.658-.319,1.025-1.312,2.012-.871,1.2,1.284,2.208,2.735,3.512,3.923l.216.237a11.419,11.419,0,0,0,1.964,1.981,45.076,45.076,0,0,0,6.12,5.256c.036.115.084.212.234.156l.45.273a.194.194,0,0,0,.2.223h0c.029.115.072.207.218.138.365.255.613.688,1.118.729,0,.134.037.226.2.159l.436.285c.037.117.085.214.231.124l.222.091c.006.134.048.222.206.161l.861.506.681.346.226.08c.279.336.709.325,1.072.466a2.811,2.811,0,0,0,1.721.593,25.315,25.315,0,0,0-2.493-2.767l-.062-.037c.2-.522.567-.246.705-.042.265.393.715.429,1.035.691,0,.134.035.22.194.158l.9.5c.006.127.031.229.2.152.211.122.388.323.666.29.015.127.047.23.209.146l.231.071c.47.513,1.144.468,1.74.637l.651.247c.027.123.067.226.226.149l.435-.011c.287.376.734.194,1.095.311.4.394.888.037,1.321.153l.218.02c.908-.049,1.28.343,1.185,1.279a22.237,22.237,0,0,0-.011,2.268q-.018.316-.037.633v.666q-.07.91-.14,1.821-.036.186-.073.371l-.093.97c-.463.228-.451.6-.3,1.01.008.148.015.3.023.445q-.036.211-.071.422-.036.285-.073.57a.477.477,0,0,0-.149.524l-.067.364a.5.5,0,0,0-.16.512q-.03.18-.06.361l-.132.3-.121.513-.124.364-.148.4-.956,2.447a.1.1,0,0,0-.056.127l-.159.307" transform="translate(-659.636 -41.246)" fill="#ebb193"/>
  <path id="Trazado_556" data-name="Trazado 556" d="M717.58,62.236c-1.3-1.188-2.314-2.639-3.512-3.923.318-.015.376-.251.488-.5a1.825,1.825,0,0,1,2.183-1.287c1.15.213,1.251.017.768-1.032-.084-.183-.151-.367.01-.495.795-.632.216-1.03-.225-1.465a7.843,7.843,0,0,1-1.657-3.606,2.56,2.56,0,0,1,1.081-2.756,2.676,2.676,0,0,1,3.182-.057c.643.4,1.2.706,1.807-.025a.407.407,0,0,1,.593-.075c.537.6,1.473.681,1.867,1.463.129.257.316.587.63.509.371-.093.227-.494.215-.757a1.624,1.624,0,0,1,.582-1.556c.17-.124.3-.371.539-.3.271.082.2.355.2.561.01.584.039,1.17-.005,1.75-.052.688.247.918.9.862a6.262,6.262,0,0,1,1.2,0c.37.04,1.026-.221,1.046.223.024.518-.523.947-1.084,1.055a8.683,8.683,0,0,1-1.419.034c-.212,0-.457-.03-.562.226s.064.407.2.58a11.771,11.771,0,0,0,3.342,2.853c.548.319.8.217.768-.451-.024-.546,0-1.094,0-1.641,0-.74.265-.8.862-.419a8.116,8.116,0,0,1,2.144,2.008c1.3,1.747,2.694,3.415,4.082,5.091a37.85,37.85,0,0,0,2.82,2.569c.2.2.636.389.9.2s.142-.6.042-.919c-.315-1-.635-2-.934-3.011-.082-.274-.183-.638.084-.813.305-.2.543.157.733.328a7.4,7.4,0,0,1,1.509,2.487,66.8,66.8,0,0,1,3.889,9.581c.07.23.361.476.143.69-.255.25-.608.151-.92.008a34.639,34.639,0,0,1-4.884-3.043c-2.073-1.408-3.978-3.032-6.032-4.457a20.59,20.59,0,0,1-1.685-1.551c-.173-.149-.375-.3-.584-.169-.257.163-.039.379.018.575.543,1.877,2.17,3.045,3.065,4.692.147.27.622.51.341.811-.328.353-.529-.16-.755-.332a49.812,49.812,0,0,1-4.95-4.884c-1.99-2.009-4.191-3.808-6.3-5.7-.524-.469-.895-.282-1.235.248a1.593,1.593,0,0,0-.093,1.663c.447.823.059,1.34-.52,1.769-.6.447-.786-.279-1.115-.528a18.261,18.261,0,0,1-1.568-1.347c-.345-.329-.62-.336-.9.04-.318.424.055.449.316.57a.723.723,0,0,1,.342,1.164c-.479.716-.579,1.785-1.74,1.912-.244.027-.188.355-.208.567" transform="translate(-670.894 -26.068)" fill="#fba631"/>
  <path id="Trazado_557" data-name="Trazado 557" d="M695.262,86.658a30.893,30.893,0,0,0-1.374,5.473c-.438-.609-.773-1.315-1.794-.927-.315.119-.889-.328-.632-.733.365-.575.044-.805-.22-1.2-.823-1.234-.587-2.067.4-2.768.3-.21.618-.347.97.007.3.3.422.536.116.913-.121.149-.081.42-.15.623-.085.251-.187.495.1.672s.483-.054.641-.235a8.816,8.816,0,0,0,1.064-1.346.853.853,0,0,1,.878-.478" transform="translate(-657.787 -48.501)" fill="#fba631"/>
  <path id="Trazado_558" data-name="Trazado 558" d="M696.3,118.634l.5,5.037c-1.44.206-1.451.176-1.323-1.355a10.989,10.989,0,0,0,0-2.076,1.5,1.5,0,0,1,.83-1.606" transform="translate(-660.417 -66.675)" fill="#fba631"/>
  <path id="Trazado_559" data-name="Trazado 559" d="M772.606,144.992l.955-2.447a1.781,1.781,0,0,1-.955,2.447" transform="translate(-703.787 -80.11)" fill="#fba631"/>
  <path id="Trazado_560" data-name="Trazado 560" d="M724.541,85.109a11.416,11.416,0,0,1-1.964-1.98,2.356,2.356,0,0,1,1.964,1.98" transform="translate(-675.675 -46.724)" fill="#fba631"/>
  <path id="Trazado_561" data-name="Trazado 561" d="M709,155.676a2.653,2.653,0,0,1,1.334,1.529A2.967,2.967,0,0,1,709,155.676" transform="translate(-668.045 -87.489)" fill="#ebb193"/>
  <path id="Trazado_562" data-name="Trazado 562" d="M764.825,108.231c-.6-.17-1.27-.124-1.74-.637a1.694,1.694,0,0,1,1.74.637" transform="translate(-698.437 -60.458)" fill="#fba631"/>
  <path id="Trazado_563" data-name="Trazado 563" d="M750.711,99.633c.858.353.858.353,1.221,1.031-.628-.068-.814-.465-1.221-1.031" transform="translate(-691.484 -55.998)" fill="#fba631"/>
  <path id="Trazado_564" data-name="Trazado 564" d="M765.929,157.148a3.115,3.115,0,0,1,.9-1.107c.075.675-.2,1.068-.9,1.107" transform="translate(-700.035 -87.694)" fill="#fba631"/>
  <path id="Trazado_565" data-name="Trazado 565" d="M771.145,109.9c-.361-.117-.807.065-1.094-.311.4-.42.4-.42,1.094.311" transform="translate(-702.352 -61.434)" fill="#fba631"/>
  <path id="Trazado_566" data-name="Trazado 566" d="M706.524,152.145a1.083,1.083,0,0,1,.673,1.1,1.84,1.84,0,0,1-.673-1.1" transform="translate(-666.655 -85.505)" fill="#ebb193"/>
  <path id="Trazado_567" data-name="Trazado 567" d="M777.143,130.351c-.147-.411-.159-.782.3-1.01.01.37.248.809-.3,1.01" transform="translate(-706.285 -72.691)" fill="#fba631"/>
  <path id="Trazado_568" data-name="Trazado 568" d="M754.172,107.583c-.364-.141-.794-.129-1.073-.466a1.116,1.116,0,0,1,1.073.466" transform="translate(-692.826 -60.203)" fill="#fba631"/>
  <path id="Trazado_569" data-name="Trazado 569" d="M705.458,150.643a.616.616,0,0,1,.473.668.725.725,0,0,1-.473-.668" transform="translate(-666.056 -84.661)" fill="#ebb193"/>
  <path id="Trazado_570" data-name="Trazado 570" d="M768.991,153.7a1.2,1.2,0,0,1,.451-.678c.023.341.05.685-.451.678" transform="translate(-701.756 -86)" fill="#fba631"/>
  <path id="Trazado_571" data-name="Trazado 571" d="M767.971,155.213a1.079,1.079,0,0,1,.452-.655c.033.345.05.679-.452.655" transform="translate(-701.183 -86.861)" fill="#fba631"/>
  <path id="Trazado_572" data-name="Trazado 572" d="M716.008,163.171c.43-.015.476.289.5.607-.354-.047-.4-.352-.5-.607" transform="translate(-671.984 -91.7)" fill="#ebb193"/>
  <path id="Trazado_573" data-name="Trazado 573" d="M708.964,75.622c.11.367-.08.461-.4.439a.383.383,0,0,1,.4-.439" transform="translate(-667.802 -42.506)" fill="#fba631"/>
  <path id="Trazado_574" data-name="Trazado 574" d="M751.709,106.477l-.681-.346c.3-.021.6-.065.681.346" transform="translate(-691.662 -59.643)" fill="#fba631"/>
  <path id="Trazado_575" data-name="Trazado 575" d="M714.9,162.153c.3,0,.487.129.493.453a.545.545,0,0,1-.493-.453" transform="translate(-671.36 -91.128)" fill="#ebb193"/>
  <path id="Trazado_576" data-name="Trazado 576" d="M712.028,159.15c.318.007.454.184.45.489a.554.554,0,0,1-.45-.489" transform="translate(-669.748 -89.441)" fill="#ebb193"/>
  <path id="Trazado_577" data-name="Trazado 577" d="M708.044,154.633c.326-.013.422.184.425.465a.534.534,0,0,1-.425-.465" transform="translate(-667.509 -86.903)" fill="#ebb193"/>
  <path id="Trazado_578" data-name="Trazado 578" d="M778.657,119.791q.018-.316.037-.633c.18.18.112.414.134.628a1.311,1.311,0,0,1-.171,0" transform="translate(-707.187 -66.969)" fill="#fba631"/>
  <path id="Trazado_579" data-name="Trazado 579" d="M778.655,120.6a1.309,1.309,0,0,0,.171,0c.008.24.054.49-.173.67q0-.333,0-.666" transform="translate(-707.185 -67.775)" fill="#fba631"/>
  <path id="Trazado_580" data-name="Trazado 580" d="M701.269,86.134c.009.18-.013.347-.205.432a.427.427,0,0,1,.205-.432" transform="translate(-663.586 -48.413)" fill="#fba631"/>
  <path id="Trazado_581" data-name="Trazado 581" d="M700.6,141.013a.458.458,0,0,1,.168.487.434.434,0,0,1-.168-.487" transform="translate(-663.321 -79.25)" fill="#fba631"/>
  <path id="Trazado_582" data-name="Trazado 582" d="M747.79,104.119c-.147.09-.195-.006-.231-.124l.128-.109.1.233" transform="translate(-689.713 -58.388)" fill="#fba631"/>
  <path id="Trazado_583" data-name="Trazado 583" d="M776.107,137.467a.5.5,0,0,1,.16-.511.449.449,0,0,1-.16.511" transform="translate(-705.747 -76.97)" fill="#fba631"/>
  <path id="Trazado_584" data-name="Trazado 584" d="M776.618,135.452a.478.478,0,0,1,.149-.525.473.473,0,0,1-.149.525" transform="translate(-706.031 -75.83)" fill="#fba631"/>
  <path id="Trazado_585" data-name="Trazado 585" d="M699.145,133.332a.587.587,0,0,1,.142.567.5.5,0,0,1-.142-.567" transform="translate(-662.492 -74.934)" fill="#fba631"/>
  <path id="Trazado_586" data-name="Trazado 586" d="M777.149,133.085l.071-.422c.154.171.113.308-.071.422" transform="translate(-706.34 -74.558)" fill="#fba631"/>
  <path id="Trazado_587" data-name="Trazado 587" d="M762.289,107.272c-.162.084-.194-.019-.209-.146l.209.146" transform="translate(-697.873 -60.208)" fill="#fba631"/>
  <path id="Trazado_588" data-name="Trazado 588" d="M775.783,110.942l-.217-.02c.083-.108.154-.091.217.02" transform="translate(-705.45 -62.301)" fill="#fba631"/>
  <path id="Trazado_589" data-name="Trazado 589" d="M768.768,109.789c-.159.077-.2-.027-.226-.149l.226.149" transform="translate(-701.503 -61.621)" fill="#fba631"/>
  <path id="Trazado_590" data-name="Trazado 590" d="M778.167,126.65q.037-.185.073-.371a.3.3,0,0,1-.073.371" transform="translate(-706.912 -70.971)" fill="#fba631"/>
  <path id="Trazado_591" data-name="Trazado 591" d="M760.308,106.268c-.164.078-.19-.024-.2-.152l.2.152" transform="translate(-696.767 -59.641)" fill="#fba631"/>
  <path id="Trazado_592" data-name="Trazado 592" d="M698.89,131.628c.006.073.012.146.018.219a1.03,1.03,0,0,1-.086-.152c0-.012.044-.045.069-.067" transform="translate(-662.327 -73.976)" fill="#fba631"/>
  <path id="Trazado_593" data-name="Trazado 593" d="M757.812,104.774c-.158.062-.2-.023-.194-.158l.194.158" transform="translate(-695.365 -58.798)" fill="#fba631"/>
  <path id="Trazado_594" data-name="Trazado 594" d="M699.7,135.815l.117.356-.117-.356" transform="translate(-662.822 -76.329)" fill="#372014"/>
  <path id="Trazado_595" data-name="Trazado 595" d="M748.8,104.785c-.158.061-.2-.026-.205-.16l.205.16" transform="translate(-690.294 -58.803)" fill="#fba631"/>
  <path id="Trazado_596" data-name="Trazado 596" d="M775.685,139.243l.132-.3-.132.3" transform="translate(-705.517 -78.089)" fill="#372014"/>
  <path id="Trazado_597" data-name="Trazado 597" d="M697.378,103.63c0,.073-.007.145-.011.218a.882.882,0,0,1-.06-.158c0-.015.046-.04.071-.06" transform="translate(-661.476 -58.244)" fill="#372014"/>
  <path id="Trazado_598" data-name="Trazado 598" d="M753.544,103.135l.061.037-.141.1.079-.139" transform="translate(-693.032 -57.966)" fill="#fba631"/>
  <path id="Trazado_599" data-name="Trazado 599" d="M746.308,103.279c-.162.066-.2-.026-.2-.159l.2.159" transform="translate(-688.898 -57.957)" fill="#fba631"/>
  <path id="Trazado_600" data-name="Trazado 600" d="M743.279,101.276c-.145.069-.189-.023-.218-.138l.218.138" transform="translate(-687.186 -56.844)" fill="#fba631"/>
  <path id="Trazado_601" data-name="Trazado 601" d="M700.248,139.284l.1.368-.1-.368" transform="translate(-663.128 -78.278)" fill="#372014"/>
  <path id="Trazado_602" data-name="Trazado 602" d="M742.8,100.849a.194.194,0,0,1-.2-.223l.2.223" transform="translate(-686.921 -56.556)" fill="#fba631"/>
  <path id="Trazado_603" data-name="Trazado 603" d="M775.124,141.158c.042-.121.083-.242.124-.364l-.124.364" transform="translate(-705.202 -79.126)" fill="#372014"/>
  <path id="Trazado_604" data-name="Trazado 604" d="M741.264,99.8c-.15.057-.2-.04-.234-.156l.234.156" transform="translate(-686.044 -56.005)" fill="#fba631"/>
  <path id="Trazado_605" data-name="Trazado 605" d="M772.115,148.729l.159-.307-.159.307" transform="translate(-703.511 -83.413)" fill="#372014"/>
  <path id="Trazado_606" data-name="Trazado 606" d="M758.366,182.891c-.095-.051-.178-.106-.1-.232l.1.232" transform="translate(-695.711 -102.671)" fill="#372014"/>
  <path id="Trazado_607" data-name="Trazado 607" d="M758.205,164.9c-.034-.132.026-.18.152-.168l-.152.168" transform="translate(-695.69 -92.579)" fill="#fba631"/>
  <path id="Trazado_608" data-name="Trazado 608" d="M758.193,170.841c0-.071,0-.142-.007-.214a.9.9,0,0,1,.072.151c0,.013-.042.041-.065.063" transform="translate(-695.684 -95.89)" fill="#fba631"/>
</svg>
