<svg xmlns="http://www.w3.org/2000/svg" width="107.732" height="107.904" viewBox="0 0 107.732 107.904">
  <path id="Trazado_250" data-name="Trazado 250" d="M92.165,323.137l.254.182c.177.643.742.975,1.16,1.415a54.037,54.037,0,0,1,6.668,65.55,43.845,43.845,0,0,1-6.079,7.974A12.966,12.966,0,0,0,88.46,394.8c-4.018-1.246-8.07-2.385-12.115-3.544A67.825,67.825,0,0,0,69,389.3l-5.91-5.364c0-.754.039-1.512-.028-2.261-.06-.679.286-1.412-.234-2.037a3.652,3.652,0,0,1,.336-.216,14.179,14.179,0,0,0,5.848-5.168c1.626-2.669,2.074-5.836,2.709-8.884l.329-1.047a3.139,3.139,0,0,0,2.309-1.942,18.953,18.953,0,0,0,1.675-6.133,2.027,2.027,0,0,0-.8-2.172c-.074-.276-.276-.227-.474-.185l-.358-.039c.046-.322.067-.651.144-.966a38.691,38.691,0,0,0,.924-7.749,53.146,53.146,0,0,0-.647-9.531,7.448,7.448,0,0,0-3.043-5.424l-.016-.028a.165.165,0,0,0-.192-.186l-.033-.017a5.807,5.807,0,0,0-2.677-2.128,26.151,26.151,0,0,0-9.323-2.72,28.254,28.254,0,0,0-7.285-.117,26.071,26.071,0,0,0-8.778,2.626,6.26,6.26,0,0,0-2.923,2.552l-.031.022c-.217.037-.244.194-.236.374l-.018.028a.6.6,0,0,0-.648.477,2.563,2.563,0,0,1-1.689,1.69,2.743,2.743,0,0,0-.681.528,9.793,9.793,0,0,0-2.434,3.906,13.537,13.537,0,0,0-.654,8.044q.013.544.025,1.087a9.848,9.848,0,0,0,.4,3.73l.029.874c-.228,1.036.2,2.032.187,3.055a9.856,9.856,0,0,0-1.3.009c-.766.1-1.394.6-1.348,1.33.181,2.871.587,5.712,2.416,8.093a2.012,2.012,0,0,0,1.985.878c.3.394.051,1.03.59,1.315.12,1.345.647,2.6.894,3.912.909,4.822,3.838,8.021,8.084,10.185l-.006.076c-.565.1-.335.549-.366.867-.1,1.033.193,2.088-.181,3.106L38.9,389.958c-1.4.351-2.811.694-4.212,1.055-3.266.841-6.483,1.866-9.775,2.617-2.431.555-4.932.938-7.1,2.282-1.118.692-2.446,1.177-2.965,2.573A53,53,0,0,1,1.959,374.443a49.99,49.99,0,0,1-1.335-8.836q0-3.715,0-7.43a53.345,53.345,0,0,1,15.609-34.35,57.19,57.19,0,0,1,6.609-5.558,52.147,52.147,0,0,1,23.76-9.744,47.279,47.279,0,0,1,10.448-.492A49.834,49.834,0,0,1,69.78,310.2a82.788,82.788,0,0,1,10.768,4.591c3.168,1.6,5.77,3.9,8.579,5.96.966.708,1.773,1.6,2.8,2.219a.185.185,0,0,0,.236.165" transform="translate(-0.621 -307.934)" fill="#bbc9d0"/>
  <path id="Trazado_260" data-name="Trazado 260" d="M112.417,502.617a40.778,40.778,0,0,1-6.706,6.248A55.115,55.115,0,0,1,85.3,518.707a54.015,54.015,0,0,1-29.983-1.338c-1.343-.45-2.649-1.012-3.974-1.515-.226-.086-.442-.293-.711-.1-1.73-1.207-3.69-2.006-5.488-3.1A52.4,52.4,0,0,1,33.1,502.844c.519-1.4,1.847-1.88,2.965-2.572,2.171-1.344,4.672-1.728,7.1-2.282,3.292-.751,6.508-1.776,9.775-2.617,1.4-.361,2.808-.7,4.213-1.055l.475.633.894,1.528.025.061-.005,0,9.678,15.688c.087.177.106.411.369.441,1.079,2.058,2.392,3.973,3.6,5.95.382.624.573.574.909-.037,1.162-2.113,2.367-4.2,3.556-6.3.139-.243.275-.489.419-.729q3.989-6.68,7.756-13.489a4.593,4.593,0,0,0,.84-1.586,8.668,8.668,0,0,0,1.576-2.814,67.864,67.864,0,0,1,7.347,1.958c4.044,1.159,8.1,2.3,12.114,3.544a12.966,12.966,0,0,1,5.708,3.457" transform="translate(-18.87 -412.308)" fill="#040405"/>
  <path id="Trazado_313" data-name="Trazado 313" d="M209.28,342.425a.185.185,0,0,1-.236-.165l.236.165" transform="translate(-117.547 -327.215)" fill="#808181"/>
  <path id="Trazado_340" data-name="Trazado 340" d="M118.085,399.882c-.635,3.047-1.083,6.214-2.709,8.883a14.177,14.177,0,0,1-5.848,5.168,3.782,3.782,0,0,0-.336.216l.014-.008a2.61,2.61,0,0,0-.541.059,26.587,26.587,0,0,1-12.074.846,25.862,25.862,0,0,0-3.832-.687l.019.014c.012-.253-.152-.181-.29-.159-4.246-2.163-7.174-5.364-8.083-10.185-.248-1.313-.774-2.567-.894-3.912.326.026.513.419.911.329a21.085,21.085,0,0,0-.25-3.85c-.073-1.889-.374-3.77-.584-5.654q-.191-1.705-.4-3.408a3.83,3.83,0,0,1,.16-1.926,35.317,35.317,0,0,1,1.633-3.962,6.246,6.246,0,0,0,.817-2.777c.023-.472.15-.94.163-1.411.106-3.912,1.643-5.638,5.5-6.9a32.244,32.244,0,0,1,11.906-1.1l.039,0a16.8,16.8,0,0,1,8.3,2.418c2.34,1.546,3.978,3.684,4.021,6.533a10.175,10.175,0,0,0,1.3,5.167c.347.6.563,1.266.887,1.876a2.477,2.477,0,0,1,.236,1.481c-.34,3.261-.718,6.518-1,9.784a16.847,16.847,0,0,0-.247,3.793c.522-.047.8-.438,1.181-.626" transform="translate(-46.986 -342.45)" fill="#f9c48c"/>
  <path id="Trazado_341" data-name="Trazado 341" d="M100.021,357.267a32.226,32.226,0,0,0-11.906,1.1c-3.861,1.267-5.4,2.993-5.5,6.9-.013.472-.14.939-.162,1.412a6.247,6.247,0,0,1-.818,2.777A35.355,35.355,0,0,0,80,373.422a3.828,3.828,0,0,0-.16,1.926q.212,1.7.4,3.408c.21,1.884.512,3.765.585,5.654a21.083,21.083,0,0,1,.249,3.85c-.4.09-.585-.3-.911-.329-.539-.285-.294-.921-.59-1.315a10.5,10.5,0,0,0-.136-1.288c-.467-2.983-1.118-5.937-1.418-8.946a3.476,3.476,0,0,0-.389-3.132q-.015-.437-.029-.874a5.441,5.441,0,0,0-.4-3.73q-.012-.543-.025-1.087a3.462,3.462,0,0,0,.158-2.019,15.044,15.044,0,0,1,1.084-6.453,6.4,6.4,0,0,1,3.109-3.729,3.849,3.849,0,0,0,1.756-2.444l.018-.028.236-.374.03-.022c1.092-.4,1.748-1.417,2.734-1.942a25.826,25.826,0,0,1,7.5-2.505,29.074,29.074,0,0,1,7.92-.2,28.181,28.181,0,0,1,9.526,2.423c1.189.551,2.066,1.577,3.31,2.012l.033.017.192.186.016.028a1.148,1.148,0,0,0,.407.859,8.032,8.032,0,0,1,2.021,3.543,19.212,19.212,0,0,1,.57,4.837,64.89,64.89,0,0,1-.014,8.929,48.758,48.758,0,0,1-.785,5.574c-1.061,3.389-1.324,6.925-1.93,10.4q-.165.524-.329,1.048c-.384.188-.658.579-1.181.626a16.871,16.871,0,0,1,.247-3.793c.28-3.266.658-6.524,1-9.784a2.478,2.478,0,0,0-.237-1.481c-.325-.61-.541-1.28-.887-1.875a10.171,10.171,0,0,1-1.3-5.167c-.043-2.849-1.681-4.986-4.021-6.533a16.8,16.8,0,0,0-8.3-2.419l-.018-.057Z" transform="translate(-43.639 -330.259)" fill="#742811"/>
  <path id="Trazado_342" data-name="Trazado 342" d="M88.481,487.836l-.475-.633L94.672,481a88.228,88.228,0,0,1,8.779,4.465l-5.381,6.953c-.278.48-.624.486-1.075.213-1.118-.676-2.232-1.361-3.385-1.974a54.933,54.933,0,0,0-5.13-2.819" transform="translate(-49.723 -405.189)" fill="#fefdfe"/>
  <path id="Trazado_343" data-name="Trazado 343" d="M138.125,486.777a8.669,8.669,0,0,1-1.576,2.815,2,2,0,0,0-.623.123c-1.97,1.132-3.941,2.264-5.886,3.439-.447.27-.774.3-1.131-.069-.2-.3-.373-.619-.593-.9q-2.139-2.761-4.292-5.511c-.233-.3-.6-.576-.217-1.01a2.223,2.223,0,0,0,1.1-.434q3.661-1.9,7.312-3.814l5.91,5.364" transform="translate(-69.747 -405.424)" fill="#fefdfe"/>
  <path id="Trazado_344" data-name="Trazado 344" d="M120.741,475.89q-3.655,1.909-7.312,3.814a2.215,2.215,0,0,1-1.1.434l-.332.035a88.284,88.284,0,0,0-8.78-4.465c.374-1.018.081-2.074.181-3.107.031-.319-.2-.767.367-.867l.295.082-.019-.014c.054.086.087.2.164.253a14.286,14.286,0,0,0,16.283-.472l-.014.008c.52.625.173,1.358.234,2.037.067.748.023,1.507.028,2.261" transform="translate(-58.273 -399.899)" fill="#f9c48c"/>
  <path id="Trazado_345" data-name="Trazado 345" d="M75.443,413.091c.3,3.009.951,5.963,1.418,8.946A10.5,10.5,0,0,1,77,423.325a2.01,2.01,0,0,1-1.985-.877c-1.829-2.381-2.235-5.222-2.416-8.093-.046-.732.582-1.228,1.348-1.331a9.773,9.773,0,0,1,1.3-.009l.2.077" transform="translate(-41.063 -366.971)" fill="#f9c48c"/>
  <path id="Trazado_346" data-name="Trazado 346" d="M163.665,423.213c.606-3.473.869-7.01,1.93-10.4l.421-.072.358.038.474.186a2.027,2.027,0,0,1,.8,2.172,18.959,18.959,0,0,1-1.675,6.133,3.138,3.138,0,0,1-2.309,1.942" transform="translate(-92.088 -366.829)" fill="#f9c48c"/>
  <path id="Trazado_347" data-name="Trazado 347" d="M122.755,351.583c-1.245-.435-2.122-1.461-3.31-2.012a28.176,28.176,0,0,0-9.525-2.423,29.094,29.094,0,0,0-7.921.2,25.831,25.831,0,0,0-7.5,2.505c-.985.525-1.642,1.546-2.734,1.942a6.265,6.265,0,0,1,2.923-2.552,26.071,26.071,0,0,1,8.778-2.626,28.273,28.273,0,0,1,7.285.117,26.138,26.138,0,0,1,9.323,2.72,5.809,5.809,0,0,1,2.677,2.127" transform="translate(-51.837 -329.562)" fill="#742811"/>
  <path id="Trazado_348" data-name="Trazado 348" d="M165.671,382.383l-.421.072a48.866,48.866,0,0,0,.784-5.573,64.831,64.831,0,0,0,.014-8.93,19.213,19.213,0,0,0-.57-4.837,8.032,8.032,0,0,0-2.021-3.543,1.148,1.148,0,0,1-.407-.859,7.451,7.451,0,0,1,3.042,5.424,53.185,53.185,0,0,1,.647,9.531,38.7,38.7,0,0,1-.925,7.75c-.076.315-.1.643-.144.965" transform="translate(-91.891 -336.465)" fill="#742811"/>
  <path id="Trazado_349" data-name="Trazado 349" d="M82.851,359.644a3.853,3.853,0,0,1-1.756,2.444,6.394,6.394,0,0,0-3.109,3.729A15.029,15.029,0,0,0,76.9,372.27a3.467,3.467,0,0,1-.158,2.02,13.542,13.542,0,0,1,.654-8.045,9.8,9.8,0,0,1,2.435-3.906,2.743,2.743,0,0,1,.681-.528,2.563,2.563,0,0,0,1.689-1.69.6.6,0,0,1,.648-.477" transform="translate(-43.204 -336.987)" fill="#742811"/>
  <path id="Trazado_350" data-name="Trazado 350" d="M77.176,395.556a5.441,5.441,0,0,1,.4,3.73,9.85,9.85,0,0,1-.4-3.73" transform="translate(-43.612 -357.169)" fill="#742811"/>
  <path id="Trazado_351" data-name="Trazado 351" d="M78.513,409.2l-.2-.077c.011-1.023-.415-2.019-.187-3.055a3.475,3.475,0,0,1,.389,3.132" transform="translate(-44.133 -363.075)" fill="#372014"/>
  <path id="Trazado_352" data-name="Trazado 352" d="M91.395,358.727l-.236.374c-.009-.18.018-.337.236-.374" transform="translate(-51.494 -336.47)" fill="#742811"/>
  <path id="Trazado_353" data-name="Trazado 353" d="M170.325,412.976l-.474-.186c.2-.041.4-.09.474.186" transform="translate(-95.713 -366.836)" fill="#bbc9d0"/>
  <path id="Trazado_354" data-name="Trazado 354" d="M162.767,358.411l-.192-.186a.166.166,0,0,1,.192.186" transform="translate(-91.625 -336.188)" fill="#742811"/>
  <path id="Trazado_355" data-name="Trazado 355" d="M104.768,471.877l-.295-.082,0-.076c.138-.022.3-.094.29.159" transform="translate(-58.976 -399.958)" fill="#742811"/>
  <path id="Trazado_450" data-name="Trazado 450" d="M116.348,491.145l.332-.035c-.383.434-.017.711.217,1.01q2.146,2.756,4.292,5.512c.22.284.4.6.593.9l-.257.383a29.814,29.814,0,0,0-2.613,2.757,1.378,1.378,0,0,0-.43,1.413c.386,1.886.654,3.8,1.129,5.661.178.7-.123,1.657.8,2.1-1.188,2.1-2.393,4.189-3.555,6.3-.336.611-.527.661-.909.037-1.211-1.977-2.525-3.892-3.6-5.95.014-.438.382-.822.2-1.29a1.852,1.852,0,0,0,.26-1.093.586.586,0,0,0,.181-.653c1.765-5.637,1.765-5.637-1.33-9.084a1.072,1.072,0,0,0-.172-.127c-.119-.325-.593-.449-.506-.891l5.381-6.953" transform="translate(-62.619 -410.875)" fill="#ee6c08"/>
  <path id="Trazado_451" data-name="Trazado 451" d="M100.359,504.086a1,1,0,0,1,.172.127c3.1,3.447,3.1,3.447,1.331,9.084a.638.638,0,0,0-.181.653,1.848,1.848,0,0,1-.26,1.093c-.261.235-.146.72-.566.849L91.177,500.2a1.139,1.139,0,0,1,.9.281c2.039,1.248,4.1,2.462,6.127,3.726.782.488,1.483.711,2.157-.124" transform="translate(-51.505 -415.973)" fill="#fefdfe"/>
  <path id="Trazado_452" data-name="Trazado 452" d="M130,517.69c-.919-.439-.618-1.4-.8-2.1-.475-1.861-.743-3.775-1.129-5.661a1.379,1.379,0,0,1,.43-1.413,29.745,29.745,0,0,1,2.613-2.757c.405,1.323.463,1.327,1.57.641,1.606-.995,3.24-1.946,4.857-2.924.222-.134.414-.345.63-.008q-3.761,6.811-7.756,13.489c-.144.241-.279.486-.418.729" transform="translate(-72.215 -417.72)" fill="#fefdfe"/>
  <path id="Trazado_453" data-name="Trazado 453" d="M99.187,502.079c-.675.835-1.375.612-2.157.124-2.029-1.264-4.088-2.478-6.127-3.726a1.14,1.14,0,0,0-.9-.281l.006,0,.121-.112-.147.051-.894-1.528a54.83,54.83,0,0,1,5.13,2.819c1.152.612,2.267,1.3,3.384,1.974.451.273.8.267,1.076-.213-.087.442.388.566.506.891" transform="translate(-50.333 -413.963)" fill="#ccc"/>
  <path id="Trazado_454" data-name="Trazado 454" d="M142.136,501.669c-.216-.336-.408-.125-.629.009-1.617.978-3.251,1.928-4.857,2.923-1.107.686-1.165.681-1.57-.641l.257-.383c.357.369.684.339,1.131.068,1.945-1.175,3.916-2.307,5.886-3.439a2.028,2.028,0,0,1,.623-.123,4.586,4.586,0,0,1-.841,1.586" transform="translate(-76.175 -415.916)" fill="#ccc"/>
  <path id="Trazado_455" data-name="Trazado 455" d="M113.269,534.953c.419-.13.3-.614.566-.849.185.468-.182.852-.2,1.29-.264-.029-.283-.263-.369-.441" transform="translate(-63.919 -435.035)" fill="#ccc"/>
  <path id="Trazado_456" data-name="Trazado 456" d="M91.131,500.031l.147-.051-.121.113-.026-.062" transform="translate(-51.479 -415.857)" fill="#fefdfe"/>
  <path id="Trazado_490" data-name="Trazado 490" d="M121.55,471.584a14.287,14.287,0,0,1-16.283.472c-.077-.051-.11-.167-.164-.253a25.865,25.865,0,0,1,3.833.687,26.594,26.594,0,0,0,12.074-.847,2.639,2.639,0,0,1,.54-.059" transform="translate(-59.33 -399.898)" fill="#742811"/>
  <path id="Trazado_491" data-name="Trazado 491" d="M129.321,369.509l.022-.055.018.057-.04,0" transform="translate(-72.938 -342.499)" fill="#e96733"/>
  <path id="Trazado_609" data-name="Trazado 609" d="M115.133,530.771a.638.638,0,0,1,.181-.653.587.587,0,0,1-.181.653" transform="translate(-64.957 -432.795)" fill="#ccc"/>
</svg>
