<svg xmlns="http://www.w3.org/2000/svg" width="107.811" height="108.021" viewBox="0 0 107.811 108.021">
  <path id="Trazado_254" data-name="Trazado 254" d="M709.946,397.775l-.415.449-.212.234c-.071.073-1.006,1.037-1.077,1.115l-.213.209-.01.01a1.1,1.1,0,0,0-.688.853c-.41.231-.631.768-1.2.736a9.367,9.367,0,0,0-3.779-5.093,1.451,1.451,0,0,0-1.15-.828l-.014-.011c-.02-.129-.09-.18-.218-.138l-.5-.219a1.685,1.685,0,0,0-1.006-.611c-1.734-.53-3.482-1.011-5.225-1.51l.014.013a.2.2,0,0,0-.256-.177,8.214,8.214,0,0,1-1.058-.187c-1.236-.289-2.346-1.019-3.657-1.029a1.025,1.025,0,0,0-1.111-.292.692.692,0,0,1-.036-.214c.8-4.943.895-9.95,1.208-14.93.184-2.927.277-5.875.29-8.817a2.912,2.912,0,0,0,1.113-1.411,19.711,19.711,0,0,0,1.695-6.46,1.407,1.407,0,0,0-.627-1.309c.128-1.334.367-2.651.5-3.989a39.664,39.664,0,0,0-.42-10.963,31.166,31.166,0,0,0-2.963-8.849,15.465,15.465,0,0,0-5.525-6.5,23.857,23.857,0,0,0-16.206-3.4,8.252,8.252,0,0,0-4.944,2.044,8.976,8.976,0,0,1-3.917,2.124,12.9,12.9,0,0,0-6.639,4.881,26.884,26.884,0,0,0-4.756,14.958c-.113,2.585-.038,5.179-.022,7.769a5.5,5.5,0,0,0,.45,2.408c-.523,2.04.2,3.962.791,5.812.5,1.54,1.165,3.225,3.152,3.593-.117.8-.714,1.39-.906,2.176a19.243,19.243,0,0,0-.458,5.694,46.753,46.753,0,0,0,.447,5.634,12.336,12.336,0,0,1-.009,5.395c-.655,2.477-2.653,3.918-4.22,5.7l-.054.083-.265.053a3.7,3.7,0,0,0-2.24.654l-.17.04a1.218,1.218,0,0,0-1.155.244,7.084,7.084,0,0,0-4.112,1.488h0c-.2-.007-.357.047-.4.272l-.031-.071.036.069a6.155,6.155,0,0,0-3.114,2.514l-.156.308a7,7,0,0,0-1.8,2.886,33.851,33.851,0,0,1-5.379-5.543,55.2,55.2,0,0,1-6.557-10.709c-1.316-2.8-2.291-5.737-3.408-8.617a.83.83,0,0,0,.045-.319,50.147,50.147,0,0,1-1.62-9.95l-.02-.41c-.049-.662.058-4.318-.15-5.484.135-.895-.061-1.816.052-2.682.343-2.611.85-5.2,1.293-7.8a58.125,58.125,0,0,1,5.507-14.084,55.751,55.751,0,0,1,4.8-7.032,53.783,53.783,0,0,1,66.2-15,47.549,47.549,0,0,1,12.861,8.985c.338.34,2.025,1.828,2.325,2.142A53.344,53.344,0,0,1,723.374,359.3a76.724,76.724,0,0,1-.194,8.955,55.869,55.869,0,0,1-3.836,14.5,52.517,52.517,0,0,1-6.665,11.546,13.069,13.069,0,0,1-1.617,2.159c-.068.078-.834.8-.89,1.08v.011l-.226.215" transform="translate(-615.615 -307.949)" fill="#d7cca8"/>
  <path id="Trazado_264" data-name="Trazado 264" d="M676.291,469.667c1.567-1.778,3.565-3.219,4.22-5.7a12.336,12.336,0,0,0,.009-5.395,46.853,46.853,0,0,1-.447-5.634,19.229,19.229,0,0,1,.458-5.694c.191-.786.789-1.376.906-2.176.455-.163.654.084.81.469a31.324,31.324,0,0,0,8.611,11.7,1.778,1.778,0,0,1,.694,1.493c-.049,2.335-.056,4.671-.047,7.007a9.943,9.943,0,0,1-.621,3.262,18.544,18.544,0,0,1-6.034,8.525c-.559.447-1.133.876-1.7,1.313-.209.057-.167.247-.207.393a1.966,1.966,0,0,0-.851.671,3.081,3.081,0,0,0-1.121,1.065l-.2.212a2.769,2.769,0,0,0-1.049,1.338,1.858,1.858,0,0,0-.552,1.069,1.382,1.382,0,0,0-.306,1.122,2.535,2.535,0,0,0,.175,1.738.365.365,0,0,0,.164.437l.2.474c.333.662.152.951-.606.881a4.858,4.858,0,0,0-.842.063,40.386,40.386,0,0,1-8.35-4.682q-.185-1.218-.368-2.434a.73.73,0,0,0,0-.866,4.429,4.429,0,0,1,.151-1.6.167.167,0,0,0,.013-.125,6.645,6.645,0,0,1,.449-1.9c.981-2.587,3.067-4.241,5.025-6a2.115,2.115,0,0,0,1.1-.893l.265-.053.055-.083" transform="translate(-645.874 -384.981)" fill="#312b24"/>
  <path id="Trazado_267" data-name="Trazado 267" d="M661.623,511.335a4.441,4.441,0,0,0-.151,1.6,1.369,1.369,0,0,0,0,.865q.184,1.218.368,2.435c-1.129-.413-1.932-1.372-3.046-1.811-.861-.755-1.73-1.5-2.58-2.27-.291-.264-.537-.578-.8-.869.032-1.314,1.123-2.169,1.455-3.353l.156-.307,3.115-2.516-.036-.068.032.07a.446.446,0,0,0,.4-.271h0l3.438-1.172.285-.122.4-.068a1.039,1.039,0,0,0,1.147-.369l.17-.04c.371.118.838-.216,1.139.239-1.958,1.764-4.045,3.417-5.025,6a6.653,6.653,0,0,0-.449,1.9l-.059.062Z" transform="translate(-638.146 -417.597)" fill="#25a394"/>
  <path id="Trazado_270" data-name="Trazado 270" d="M693.937,544.493c-1.07-.162-1.953-.98-3.1-.881l.022,0c-.089-.27-.307-.256-.526-.238l-1.189-.77a4.962,4.962,0,0,1,.843-.063c.757.07.938-.219.606-.881a.425.425,0,0,1,.5.305,2.57,2.57,0,0,0,2.463,1.863c.386,0,.569.268.624.629l-.243.032" transform="translate(-657.081 -439.287)" fill="#25a394"/>
  <path id="Trazado_324" data-name="Trazado 324" d="M744.209,517.534a54.04,54.04,0,0,1-8.951,3.442c-2.151.58-4.314,1.163-6.474,1.705a23.6,23.6,0,0,1-5.176.519,67.762,67.762,0,0,1-9.158-.179,52.328,52.328,0,0,1-8.628-1.651,1.225,1.225,0,0,1-.833-.465c.257-.318.521-.24.865-.1a15.341,15.341,0,0,0,4.762,1.092c1.448.088,2.815.544,4.265.6a9.353,9.353,0,0,1,2.445.034,11.126,11.126,0,0,0,4.81.172q3.053-.294,6.1-.679a31.148,31.148,0,0,0,3.619-.634c2.7-.679,5.346-1.593,7.978-2.515a16.023,16.023,0,0,0,4.17-2.016,21.651,21.651,0,0,0-5.555-.371c-1.291-.035-1.5-.342-1.116-1.558a2.107,2.107,0,0,0,.1-.531c.012-.225-.023-.471-.306-.492s-.566.176-.508.443c.288,1.313-.7.676-1.186.808L737,509.043a5.256,5.256,0,0,0,1.1-2.838l.156-.23.047-.042a.7.7,0,0,0,.316-.865q.053-.315.106-.631c.373-.374.248-.846.254-1.292l0-.013c.349-.395.206-.858.182-1.305l.011-.043a5.471,5.471,0,0,0,.214-2.6l.109-.3c1.31.01,2.42.74,3.656,1.029a8.277,8.277,0,0,0,1.057.187l.256.177-.014-.013c.089.111.157.288.269.323,1.985.609,3.974,1.2,5.962,1.8l.5.219.217.138.014.011a1.64,1.64,0,0,0,1.15.828,9.362,9.362,0,0,1,3.779,5.093,8.588,8.588,0,0,1-2.547,2.566,68.555,68.555,0,0,1-9.592,6.3m3.45-2.653a.409.409,0,0,0-.274-.368,3.813,3.813,0,0,0-2.766.447.835.835,0,0,0,.014,1.1.745.745,0,0,0,1,.115c.654-.488,1.514-.669,2.027-1.295m8.166-6.581c-.1-.344-.158-.9-.6-.885-.467.021-.561.612-.653,1.012s.208.594.59.6c.454.007.652-.256.658-.727m-4.8,3.435c.04.263.14.587.5.511s.8-.224.767-.737c-.021-.337-.282-.476-.6-.477-.436,0-.646.236-.662.7" transform="translate(-665.835 -415.246)" fill="#25a394"/>
  <path id="Trazado_325" data-name="Trazado 325" d="M826.56,517.3l.213-.209-.213.209" transform="translate(-734.147 -425.481)" fill="#808181"/>
  <path id="Trazado_394" data-name="Trazado 394" d="M693.522,438.834c.567-.437,1.141-.866,1.7-1.313A18.54,18.54,0,0,0,701.256,429a9.939,9.939,0,0,0,.621-3.262c-.009-2.335,0-4.672.047-7.007a1.775,1.775,0,0,0-.694-1.492,31.324,31.324,0,0,1-8.611-11.7c-.156-.386-.354-.632-.81-.47-1.986-.368-2.655-2.053-3.151-3.593-.6-1.85-1.314-3.772-.791-5.812.268-.242.468-.618.85-.656.9-.089,1-.7,1.132-1.424a35.327,35.327,0,0,1,3.053-9.434,26.388,26.388,0,0,1,8.249-10.041c.554-.4.834-.433,1.236.241a41.987,41.987,0,0,0,3.693,5.152c5.462,6.639,11.923,11.878,20.307,14.387.587.176.68.482.68,1.019q0,5.365.059,10.73a3.9,3.9,0,0,1-.3,1.593,35.429,35.429,0,0,1-7.945,10.066,1.109,1.109,0,0,0-.362.973c.008,2.007.015,4.014-.007,6.021a.817.817,0,0,0,.665.948c2.41.7,4.811,1.44,7.215,2.165.073,1.2-.374,2.359-.387,3.531a61.554,61.554,0,0,1-.744,6.8c-.226,1.846-.706,3.661-1.072,5.489-.852.3-1.395,1.052-2.153,1.49-.321-.032-.612-.009-.715.373l-.433.225-.4.259a.557.557,0,0,1-.181.067c-.329-.069-.636-.1-.7.354a.591.591,0,0,1-.182.067c-.36-.016-.779-.183-.922.359a.631.631,0,0,1-.181.061c-.247-.032-.494-.065-.661.188l-.033.012a1.042,1.042,0,0,0-1.094.369l-.433.032c-.094-.042-.2-.135-.281-.12a29.351,29.351,0,0,1-8.194.208,7.88,7.88,0,0,0-2.691-.267c-.626-.141-1.264-.239-1.874-.43a16.653,16.653,0,0,1-8.006-5.371c-.159-.191-.269-.45-.59-.395v.027a2.064,2.064,0,0,0-.92-1.511h0c-.008-.127-.016-.254-.024-.381" transform="translate(-656.112 -344.967)" fill="#ebb193"/>
  <path id="Trazado_395" data-name="Trazado 395" d="M723.8,427.028c.368-1.829.848-3.643,1.073-5.489a61.459,61.459,0,0,0,.743-6.8c.013-1.173.46-2.329.387-3.531.084-1.63.156-3.261.253-4.89.291-4.9.443-9.8.413-14.7a.634.634,0,0,0-.232-.579,3.89,3.89,0,0,0,.3-1.593q-.052-5.365-.06-10.731c0-.537-.092-.843-.679-1.019-8.384-2.51-14.846-7.748-20.307-14.387a41.959,41.959,0,0,1-3.694-5.152c-.4-.674-.682-.638-1.235-.241a26.4,26.4,0,0,0-8.25,10.041,35.356,35.356,0,0,0-3.053,9.434c-.13.72-.234,1.335-1.132,1.424-.382.038-.583.414-.85.656a5.5,5.5,0,0,1-.45-2.408c-.016-2.59-.091-5.184.022-7.769a26.884,26.884,0,0,1,4.756-14.958,12.9,12.9,0,0,1,6.639-4.881,8.975,8.975,0,0,0,3.917-2.124,8.252,8.252,0,0,1,4.944-2.044,23.856,23.856,0,0,1,16.206,3.4,15.465,15.465,0,0,1,5.526,6.5,31.183,31.183,0,0,1,2.963,8.849,39.684,39.684,0,0,1,.42,10.963c-.13,1.337-.368,2.655-.5,3.989-.159-.08-.312-.173-.477-.238-1.243-.5-1.528-.3-1.549,1.027-.044,2.8-.1,5.594-.155,8.39-.012,2.942-.105,5.89-.29,8.817-.313,4.981-.406,9.987-1.208,14.931a.683.683,0,0,0,.035.214c-.264,3.513-.837,6.985-1.391,10.459l-1.571,6.118a7.05,7.05,0,0,1-.507,1.287q-.093.221-.186.443l-.269.437a6.157,6.157,0,0,1-1.93,2.15l-.015.005-.009-.078-.076-.022-.455-.114c0-.1,0-.2-.006-.307a5.255,5.255,0,0,0,.918-2.01l.219-.665a7.4,7.4,0,0,0,.8-2.8" transform="translate(-655.717 -328.775)" fill="#312b24"/>
  <path id="Trazado_396" data-name="Trazado 396" d="M784.576,431.116c.053-2.8.11-5.594.155-8.39.021-1.326.3-1.524,1.549-1.027.164.066.318.158.477.238a1.406,1.406,0,0,1,.627,1.309,19.712,19.712,0,0,1-1.695,6.46,2.91,2.91,0,0,1-1.113,1.411" transform="translate(-710.556 -371.728)" fill="#ebb193"/>
  <path id="Trazado_397" data-name="Trazado 397" d="M778.062,508.591c.555-3.474,1.127-6.946,1.391-10.459a1.024,1.024,0,0,1,1.111.292c-.035.1-.072.2-.109.3a6.615,6.615,0,0,0-.214,2.6l-.011.042c-.325.4-.172.863-.182,1.306l-.005.013a1.34,1.34,0,0,0-.254,1.292q-.053.315-.1.631c-.4.18-.294.546-.317.865l-.047.041c-.051.077-.1.154-.156.23a5.259,5.259,0,0,1-1.1,2.838" transform="translate(-706.895 -414.791)" fill="#ebb193"/>
  <path id="Trazado_398" data-name="Trazado 398" d="M801.319,504.146c-1.989-.6-3.978-1.188-5.962-1.8-.112-.035-.18-.212-.269-.323,1.743.5,3.491.98,5.225,1.51a1.685,1.685,0,0,1,1.006.611" transform="translate(-716.462 -417.013)" fill="#25a394"/>
  <path id="Trazado_399" data-name="Trazado 399" d="M656.425,514.186c-.332,1.184-1.422,2.039-1.455,3.353l-.347-.467a7.007,7.007,0,0,1,1.8-2.886" transform="translate(-637.718 -423.848)" fill="#25a394"/>
  <path id="Trazado_400" data-name="Trazado 400" d="M662.207,507.744l-3.115,2.515a6.153,6.153,0,0,1,3.115-2.515" transform="translate(-640.223 -420.227)" fill="#25a394"/>
  <path id="Trazado_401" data-name="Trazado 401" d="M670.538,504.045l-3.438,1.172a7.088,7.088,0,0,1,4.113-1.488.447.447,0,0,1,.007.125l-.4.068-.285.122" transform="translate(-644.714 -417.97)" fill="#25a394"/>
  <path id="Trazado_402" data-name="Trazado 402" d="M680.65,502.482c-.3-.454-.768-.121-1.139-.239a3.7,3.7,0,0,1,2.24-.654,2.116,2.116,0,0,1-1.1.892" transform="translate(-651.679 -416.768)" fill="#25a394"/>
  <path id="Trazado_403" data-name="Trazado 403" d="M812.124,508.533a1.64,1.64,0,0,1-1.15-.828,1.452,1.452,0,0,1,1.15.828" transform="translate(-725.389 -420.204)" fill="#25a394"/>
  <path id="Trazado_404" data-name="Trazado 404" d="M676.5,503.485a.445.445,0,0,0-.007-.125,1.218,1.218,0,0,1,1.154-.244,1.039,1.039,0,0,1-1.147.369" transform="translate(-649.986 -417.6)" fill="#25a394"/>
  <path id="Trazado_405" data-name="Trazado 405" d="M666.589,507.127a.449.449,0,0,1-.4.272c.04-.225.2-.279.4-.272" transform="translate(-644.21 -419.879)" fill="#25a394"/>
  <path id="Trazado_406" data-name="Trazado 406" d="M794.791,501.82l-.256-.177a.2.2,0,0,1,.256.177" transform="translate(-716.151 -416.794)" fill="#25a394"/>
  <path id="Trazado_407" data-name="Trazado 407" d="M810.663,507.485l-.218-.138c.128-.042.2.008.218.138" transform="translate(-725.091 -419.995)" fill="#25a394"/>
  <path id="Trazado_408" data-name="Trazado 408" d="M685.284,501.278l-.055.083.055-.083" transform="translate(-654.891 -416.593)" fill="#25a394"/>
  <path id="Trazado_464" data-name="Trazado 464" d="M724.617,532.993l.075.022.01.078a1.184,1.184,0,0,0,.239.191c.1.044.148-.034.063-.1a.826.826,0,0,0-.287-.092,6.164,6.164,0,0,0,1.93-2.15c.167.016.356.07.451-.125.082-.169-.071-.237-.182-.312l.186-.442c.21.029.422.042.5-.216a.338.338,0,0,0-.214-.409.953.953,0,0,1,.224-.661c.483-.133,1.474.5,1.186-.809-.059-.267.216-.464.507-.443s.318.267.306.492a2.122,2.122,0,0,1-.1.531c-.388,1.216-.175,1.524,1.116,1.558a21.653,21.653,0,0,1,5.555.371,16.034,16.034,0,0,1-4.171,2.016c-2.632.921-5.278,1.836-7.978,2.515a31.222,31.222,0,0,1-3.618.634q-3.046.388-6.1.679a11.129,11.129,0,0,1-4.81-.173,9.366,9.366,0,0,0-2.445-.034c-1.45-.058-2.817-.515-4.264-.6a15.345,15.345,0,0,1-4.762-1.092c-.344-.139-.608-.216-.865.1l-.378-.035a.731.731,0,0,0-1.153-.41l-.377-.039c-.056-.361-.238-.63-.624-.629a2.57,2.57,0,0,1-2.463-1.863.425.425,0,0,0-.5-.305l-.2-.474c.387-.312.127-.381-.164-.437a2.535,2.535,0,0,1-.175-1.738c.5-.265,1.278-.455.306-1.122a1.858,1.858,0,0,1,.552-1.069,1.107,1.107,0,0,0,1.049-1.338l.2-.212a.948.948,0,0,0,1.121-1.065,1.967,1.967,0,0,1,.851-.671l.231-.011h0a1.49,1.49,0,0,0,.919,1.511l0-.026c.013.215.021.429.041.643.1,1.121,1.226,1.24,1.837,1.862a16.018,16.018,0,0,0,3.973,2.812,14.361,14.361,0,0,0,5.25,1.648c1.761.162,3.5.525,5.286.579a36.992,36.992,0,0,0,5.287-.573,3.824,3.824,0,0,0,2.827-1.219,1.92,1.92,0,0,0,1.964-.894l-.011.01a.428.428,0,0,0,.453-.226l-.012.008a.408.408,0,0,0,.444-.237l-.015.005c1.271-.464,1.271-.464,1.511.849,0,.021.06.033.092.05q-.11.332-.219.665a1.942,1.942,0,0,0-.919,2.01c0,.1,0,.2.006.307,0,.169-.032.375.211.4.184.018.2-.156.244-.284" transform="translate(-658.014 -428.856)" fill="#25a394"/>
  <path id="Trazado_465" data-name="Trazado 465" d="M694.232,527.568a1.107,1.107,0,0,1-1.049,1.338,2.769,2.769,0,0,1,1.049-1.338" transform="translate(-659.201 -431.368)" fill="#25a394"/>
  <path id="Trazado_466" data-name="Trazado 466" d="M691.511,533.064c.972.667.2.857-.306,1.122a1.382,1.382,0,0,1,.306-1.122" transform="translate(-658.081 -434.457)" fill="#25a394"/>
  <path id="Trazado_467" data-name="Trazado 467" d="M697.156,524.654a.949.949,0,0,1-1.121,1.065,3.081,3.081,0,0,1,1.121-1.065" transform="translate(-660.804 -429.73)" fill="#25a394"/>
  <path id="Trazado_468" data-name="Trazado 468" d="M691.608,539.592c.291.057.551.125.164.437a.365.365,0,0,1-.164-.437" transform="translate(-658.309 -438.125)" fill="#25a394"/>
  <path id="Trazado_469" data-name="Trazado 469" d="M669.157,526.469a1.368,1.368,0,0,1,0-.865.73.73,0,0,1,0,.865" transform="translate(-645.833 -430.264)" fill="#25a394"/>
  <path id="Trazado_470" data-name="Trazado 470" d="M700.768,522.607l-.231.011c.039-.146,0-.336.206-.393q.012.191.025.381" transform="translate(-663.333 -428.365)" fill="#25a394"/>
  <path id="Trazado_471" data-name="Trazado 471" d="M669.528,521.785l-.046-.063.059-.062a.163.163,0,0,1-.013.125" transform="translate(-646.057 -428.047)" fill="#25a394"/>
  <path id="Trazado_476" data-name="Trazado 476" d="M701.494,547.963a.731.731,0,0,1,1.153.41l-.472.028a.408.408,0,0,0-.443-.206,1.164,1.164,0,0,0-.2-.035,1.615,1.615,0,0,0-.04-.2" transform="translate(-663.871 -442.75)" fill="#25a394"/>
  <path id="Trazado_477" data-name="Trazado 477" d="M674.947,504.293l.285-.122-.285.122" transform="translate(-649.122 -418.218)" fill="#25a394"/>
  <path id="Trazado_478" data-name="Trazado 478" d="M798.234,534.808c-.512.625-1.373.806-2.027,1.294a.744.744,0,0,1-1-.115.835.835,0,0,1-.014-1.1,3.811,3.811,0,0,1,2.766-.447.407.407,0,0,1,.274.368" transform="translate(-716.41 -435.173)" fill="#25a394"/>
  <path id="Trazado_479" data-name="Trazado 479" d="M819.406,519.256c-.006.471-.2.735-.658.727-.381-.006-.681-.206-.59-.6s.185-.991.653-1.012c.438-.019.492.541.6.884" transform="translate(-729.417 -426.199)" fill="#25a394"/>
  <path id="Trazado_480" data-name="Trazado 480" d="M810.079,527.33c.016-.467.226-.7.662-.7.319,0,.579.14.6.477.033.513-.4.66-.767.737s-.456-.248-.5-.511" transform="translate(-724.886 -430.84)" fill="#25a394"/>
  <path id="Trazado_481" data-name="Trazado 481" d="M783.008,502.176a6.6,6.6,0,0,1,.214-2.6,5.471,5.471,0,0,1-.214,2.6" transform="translate(-709.661 -415.633)" fill="#25a394"/>
  <path id="Trazado_482" data-name="Trazado 482" d="M781.91,509.915a1.34,1.34,0,0,1,.254-1.292c-.006.446.12.918-.254,1.292" transform="translate(-709.016 -420.721)" fill="#25a394"/>
  <path id="Trazado_483" data-name="Trazado 483" d="M782.56,506.919c.01-.442-.142-.907.182-1.305.023.447.166.91-.182,1.305" transform="translate(-709.408 -419.029)" fill="#25a394"/>
  <path id="Trazado_484" data-name="Trazado 484" d="M781.042,513.878c.023-.319-.083-.685.317-.865a.7.7,0,0,1-.317.865" transform="translate(-708.57 -423.188)" fill="#25a394"/>
  <path id="Trazado_485" data-name="Trazado 485" d="M780.578,515.311l.156-.23-.156.23" transform="translate(-708.309 -424.35)" fill="#a4a3a4"/>
  <path id="Trazado_521" data-name="Trazado 521" d="M766.373,450.074a.634.634,0,0,1,.232.579c.03,4.906-.122,9.806-.413,14.7-.1,1.63-.17,3.26-.253,4.89-2.4-.725-4.8-1.463-7.215-2.165a.817.817,0,0,1-.665-.948c.022-2.007.015-4.014.007-6.021a1.109,1.109,0,0,1,.361-.973,35.431,35.431,0,0,0,7.946-10.066" transform="translate(-695.655 -387.817)" fill="#312b24"/>
  <path id="Trazado_522" data-name="Trazado 522" d="M727.662,532.227a3.824,3.824,0,0,1-2.827,1.219,36.992,36.992,0,0,1-5.287.573c-1.785-.054-3.525-.417-5.286-.579a14.36,14.36,0,0,1-5.25-1.648,16.031,16.031,0,0,1-3.973-2.812c-.611-.622-1.737-.741-1.837-1.862-.019-.214-.028-.428-.041-.643.322-.056.432.2.59.394a16.652,16.652,0,0,0,8.007,5.371c.609.191,1.248.289,1.873.43a1.577,1.577,0,0,0,1.091.4c1.618.178,3.238.377,4.863.435a13.168,13.168,0,0,0,5.212-.652l.433-.032a1.1,1.1,0,0,0,1.094-.37l.034-.012a.636.636,0,0,0,.661-.188.647.647,0,0,0,.181-.061l.45.025Z" transform="translate(-664.807 -430.75)" fill="#25a394"/>
  <path id="Trazado_523" data-name="Trazado 523" d="M738.226,540.72a13.172,13.172,0,0,1-5.212.652c-1.624-.058-3.245-.258-4.863-.435a1.579,1.579,0,0,1-1.092-.4,7.878,7.878,0,0,1,2.691.267,29.336,29.336,0,0,0,8.194-.209c.084-.015.188.078.282.12" transform="translate(-678.236 -438.622)" fill="#ebb193"/>
  <path id="Trazado_524" data-name="Trazado 524" d="M767.134,535.032c-.032-.016-.088-.029-.092-.05-.24-1.312-.24-1.312-1.51-.849l.249-.411c.759-.437,1.3-1.187,2.153-1.49a7.4,7.4,0,0,1-.8,2.8" transform="translate(-699.854 -433.99)" fill="#25a394"/>
  <path id="Trazado_525" data-name="Trazado 525" d="M761.035,537.574a1.919,1.919,0,0,1-1.964.894l-.013-.016.473-.383a.6.6,0,0,0,.182-.068.791.791,0,0,0,.7-.353.572.572,0,0,0,.181-.067l.436-.007" transform="translate(-696.217 -436.991)" fill="#25a394"/>
  <path id="Trazado_526" data-name="Trazado 526" d="M701.985,524.607a1.491,1.491,0,0,1-.92-1.511,2.064,2.064,0,0,1,.92,1.511" transform="translate(-663.63 -428.854)" fill="#25a394"/>
  <path id="Trazado_527" data-name="Trazado 527" d="M754.63,540.093a1.1,1.1,0,0,1-1.094.37,1.042,1.042,0,0,1,1.094-.37" transform="translate(-693.114 -438.396)" fill="#ebb193"/>
  <path id="Trazado_528" data-name="Trazado 528" d="M758.955,538.657l-.473.384-.449-.025c.143-.542.562-.375.922-.359" transform="translate(-695.641 -437.58)" fill="#ebb193"/>
  <path id="Trazado_529" data-name="Trazado 529" d="M765.185,535.62l-.25.411.015-.005-.416.037-.064-.07c.1-.382.394-.406.715-.373" transform="translate(-699.258 -435.888)" fill="#ebb193"/>
  <path id="Trazado_530" data-name="Trazado 530" d="M761.258,537.692a.79.79,0,0,1-.7.354c.068-.45.376-.423.7-.354" transform="translate(-697.057 -437.036)" fill="#ebb193"/>
  <path id="Trazado_531" data-name="Trazado 531" d="M756.771,539.635a.636.636,0,0,1-.661.188c.167-.253.414-.219.661-.187" transform="translate(-694.56 -438.137)" fill="#ebb193"/>
  <path id="Trazado_532" data-name="Trazado 532" d="M763.482,536.71l.433-.224.063.069a1.1,1.1,0,0,0-.028.2l.011-.008-.418.032Z" transform="translate(-698.703 -436.38)" fill="#ebb193"/>
  <path id="Trazado_533" data-name="Trazado 533" d="M763.011,537.25l-.436.006.4-.258.062.068a.592.592,0,0,0-.035.193l.011-.009" transform="translate(-698.193 -436.668)" fill="#ebb193"/>
  <path id="Trazado_534" data-name="Trazado 534" d="M766.592,542.148a1.942,1.942,0,0,1,.918-2.01,5.249,5.249,0,0,1-.918,2.01" transform="translate(-700.45 -438.433)" fill="#25a394"/>
  <path id="Trazado_535" data-name="Trazado 535" d="M773.6,537.56a.338.338,0,0,1,.214.409c-.075.258-.286.246-.5.216a.947.947,0,0,1,.283-.626" transform="translate(-704.23 -436.983)" fill="#25a394"/>
  <path id="Trazado_536" data-name="Trazado 536" d="M772.548,540c.111.075.264.143.182.312-.1.195-.284.141-.451.125l.269-.437" transform="translate(-703.646 -438.354)" fill="#25a394"/>
  <path id="Trazado_537" data-name="Trazado 537" d="M767.061,545.54c-.043.129-.06.3-.244.284-.243-.024-.206-.23-.211-.4l.455.114" transform="translate(-700.458 -441.404)" fill="#25a394"/>
  <path id="Trazado_538" data-name="Trazado 538" d="M767.855,545.9a.827.827,0,0,1,.287.092c.085.07.037.148-.063.1a1.179,1.179,0,0,1-.239-.191l.014-.005" transform="translate(-701.152 -441.672)" fill="#25a394"/>
  <path id="Trazado_610" data-name="Trazado 610" d="M764.553,536.8a1.135,1.135,0,0,1,.028-.2l.415-.037a.407.407,0,0,1-.443.237" transform="translate(-699.304 -436.422)" fill="#25a394"/>
  <path id="Trazado_611" data-name="Trazado 611" d="M763.544,537.307a.6.6,0,0,1,.035-.194l.418-.032a.428.428,0,0,1-.453.226" transform="translate(-698.737 -436.714)" fill="#25a394"/>
  <path id="Trazado_615" data-name="Trazado 615" d="M737.831,536.894a14.6,14.6,0,0,0,.039-4.263,15.029,15.029,0,0,1,.835,4.324Z" transform="translate(-684.289 -434.214)" fill="#312b24"/>
</svg>
