<svg xmlns="http://www.w3.org/2000/svg" width="107.909" height="108.055" viewBox="0 0 107.909 108.055">
  <path id="Trazado_973" data-name="Trazado 973" d="M363.172.569c12.619.07,23.537,4.76,33.41,12.295l.347.2h0c.05.255.184.35.432.225l0,0c-.142.415.2.63.378.912a.678.678,0,0,0,.466.436l0,0a.52.52,0,0,0,.488.4l.342.256a1.6,1.6,0,0,0,.728.807l.936.927a.384.384,0,0,0,.382.407l.242.242a1.177,1.177,0,0,0,.841.888,32.383,32.383,0,0,1,5.852,8.011A74.452,74.452,0,0,1,413.65,39.69a49.961,49.961,0,0,1,2.07,11.752,59.214,59.214,0,0,1-.921,13.93,61.069,61.069,0,0,1-2.357,8.045A55.4,55.4,0,0,1,404.2,87.879c-.759.974-1.311,2.2-2.562,2.733a15.751,15.751,0,0,0-5.259-3.255c-.928-.778-2.126-.764-3.211-1.053a39.837,39.837,0,0,0-6.248-1.628c-.591-.166-1.181-.339-1.774-.5-2.862-.762-5.66-1.757-8.563-2.372-1.9-1.972-3.952-3.789-5.975-5.634l.021-4.117a6,6,0,0,1,.608-.44,14.19,14.19,0,0,0,7.577-11.3,18.007,18.007,0,0,1,.818-3.49,3.459,3.459,0,0,0,2.2-1.955,17.746,17.746,0,0,0,1.705-6.377c.159-1.431-.422-1.981-2.061-2.156a2.744,2.744,0,0,1,.037-.973,61.387,61.387,0,0,0,.771-6.934c.126-4.1-.023-8.177-1.53-12.07a10.685,10.685,0,0,0-4.306-5.754c-2.01-1.186-4.081-2.267-6.123-3.4A12.3,12.3,0,0,0,362.8,15.3a45.6,45.6,0,0,0-13.853,3.687,9.666,9.666,0,0,0-5.129,6.054,35.753,35.753,0,0,0-1.654,10.38.459.459,0,0,0-.022.668l-.062,1.7a20.62,20.62,0,0,0,0,5.562l.05,1.251c-.251.347-.05.76-.166,1.127-.163.28.414.374.169.675-.182,0-.364-.013-.545-.014-1.558-.009-2.228.633-2.136,2.181a15.759,15.759,0,0,0,2.062,6.74,2.983,2.983,0,0,0,2.349,1.574c.32,1.3.719,2.588.943,3.9a15.509,15.509,0,0,0,4.151,8.536,42.045,42.045,0,0,0,4.167,3.107q0,1.866-.008,3.731l-6.81,6.272c-4.93,1.282-9.864,2.547-14.787,3.853-2.174.577-4.445.912-6.393,2.136-1.118.7-2.4,1.244-3.023,2.549-.55-.649-1.086-1.311-1.652-1.945-1.527-1.709-2.682-3.7-4.125-5.469-1.388-2.613-2.931-5.136-4.1-7.874a54.973,54.973,0,0,1-4.179-17.741A52.674,52.674,0,0,1,309,43.506a56.765,56.765,0,0,1,4.1-12.254,57.221,57.221,0,0,1,7.9-12.011,55.422,55.422,0,0,1,10.554-9.469,50.758,50.758,0,0,1,10.545-5.561A56.512,56.512,0,0,1,355.26.838c1.109-.152,2.255.2,3.331-.282.822.136,1.655.051,2.49.187a2.744,2.744,0,0,0,2.092-.174" transform="translate(-307.907 -0.313)" fill="#ee6c08"/>
  <path id="Trazado_974" data-name="Trazado 974" d="M359.582,208.566c-2.541-1.235-5.108-2.411-7.533-3.881a54.137,54.137,0,0,1-9.854-7.713c-.618-.606-1.253-1.193-1.881-1.79.621-1.305,1.9-1.847,3.022-2.549,1.948-1.224,4.219-1.559,6.393-2.136,4.923-1.306,9.858-2.571,14.787-3.853l.545.711,1.029,1.74c.256.438.505.88.77,1.313q4.439,7.252,8.882,14.5l3.619,5.956c.6.981.817,1.006,1.365.019a49.513,49.513,0,0,0,3.163-5.956c3.02-4.978,5.859-10.06,8.716-15.132a5.535,5.535,0,0,0,.825-1.55l.006-.009.173-.211,1.181-2.009c2.9.615,5.7,1.61,8.563,2.372.593.158,1.183.331,1.774.5a73.289,73.289,0,0,0,9.459,2.682,15.75,15.75,0,0,1,5.259,3.255,25.3,25.3,0,0,1-4.231,4.359,60.039,60.039,0,0,1-5.313,4.171c-1.653.868-3.179,1.945-4.83,2.829a54.651,54.651,0,0,1-22.984,6.343,52.871,52.871,0,0,1-17.8-2.2c-.609-.177-1.2-.644-1.913-.358-.982-.658-2.193-.794-3.2-1.4" transform="translate(-326.117 -104.547)" fill="#10293c"/>
  <path id="Trazado_975" data-name="Trazado 975" d="M428.181.256a2.744,2.744,0,0,1-2.092.174c-.835-.135-1.668-.05-2.49-.187a10.7,10.7,0,0,1,4.582.013" transform="translate(-372.917)" fill="#ebb193"/>
  <path id="Trazado_976" data-name="Trazado 976" d="M385.779,63.416l-.05-1.251a42.7,42.7,0,0,0,0-5.562l.062-1.7q.011-.334.022-.668a35.735,35.735,0,0,1,1.654-10.38,9.667,9.667,0,0,1,5.129-6.055,45.611,45.611,0,0,1,13.853-3.687,12.3,12.3,0,0,1,7.52,1.912c2.042,1.131,4.113,2.212,6.123,3.4a10.686,10.686,0,0,1,4.306,5.755c1.507,3.892,1.656,7.965,1.53,12.069a61.405,61.405,0,0,1-.771,6.935,2.754,2.754,0,0,0-.038.973c-.075.611-.155,1.221-.225,1.833-.335,2.923-1.1,5.767-1.615,8.656a17.981,17.981,0,0,0-.817,3.49,14.191,14.191,0,0,1-7.577,11.3,5.93,5.93,0,0,0-.608.44,1.126,1.126,0,0,0-.678.389,44.668,44.668,0,0,1-5.67,2.229,2.263,2.263,0,0,1-.523.12c-1.155-.016-2.158.668-3.455.33a39.655,39.655,0,0,1-7.176-2.695,42.07,42.07,0,0,1-4.168-3.106,15.512,15.512,0,0,1-4.151-8.536c-.223-1.317-.623-2.6-.943-3.905a85.316,85.316,0,0,1-1.73-10.481c.246-.3-.332-.4-.169-.675.426-.321.192-.739.166-1.127m21.3-16.9a44.054,44.054,0,0,1-7.89-.556A7.627,7.627,0,0,0,391.3,49.2c-2.546,3.631-3.247,7.8-3.495,12.062a83.3,83.3,0,0,0,.589,13.608,11.617,11.617,0,0,0,5.366,9.024,4.075,4.075,0,0,0,4.656.321c2.02-1.156,4.22-1.826,6.588-.891.2.08.489-.06.737-.094,2.348-.328,4.708-.436,6.744,1,.973.685,1.691.314,2.506-.062a15.265,15.265,0,0,0,4.376-3.353c1.685-1.708,3.062-3.575,3.026-6.176a35.919,35.919,0,0,1,.287-4.365,42.409,42.409,0,0,0-.317-13.288c-.618-2.98-1.451-5.9-3.591-8.226a7,7,0,0,0-5.856-2.625c-1.889.14-3.78.251-5.671.374-.061-.1-.117-.094-.171.006m-6.57,39.222a7.038,7.038,0,0,0,1.749,1.02c2.577,1.306,5.011.744,7.4-.528.2-.109.421-.212.429-.431.013-.338-.316-.182-.488-.262a5.254,5.254,0,0,0-3.936-.5.876.876,0,0,1-.515-.059,7.189,7.189,0,0,0-4.643.758" transform="translate(-351.553 -19.131)" fill="#201210"/>
  <path id="Trazado_977" data-name="Trazado 977" d="M396.1,180.112l-.545-.71,6.81-6.273c2.325,1.2,4.708,2.3,6.953,3.636a3.155,3.155,0,0,0,3.588-.009,67.454,67.454,0,0,1,6.949-3.614c2.022,1.846,4.072,3.662,5.975,5.634l-1.181,2.009-.174.211-.006.009a9.768,9.768,0,0,0-1.086.459c-1.946,1.1-3.887,2.214-5.812,3.352-.333.2-.6.4-.965.126-1.507-2.258-3.314-4.287-4.919-6.469-.474-.645-.787-.615-1.192-.014-.141.208-.277.419-.416.628a55.538,55.538,0,0,0-4.473,5.855.726.726,0,0,1-.9-.022c-1.15-.689-2.289-1.4-3.469-2.032a36.937,36.937,0,0,0-5.137-2.775" transform="translate(-357.161 -97.303)" fill="#fefdfe"/>
  <path id="Trazado_978" data-name="Trazado 978" d="M428.594,167.878a67.457,67.457,0,0,0-6.949,3.614,3.155,3.155,0,0,1-3.588.009c-2.245-1.335-4.628-2.436-6.953-3.636q0-1.866.008-3.731a39.672,39.672,0,0,0,7.176,2.695c1.3.338,2.3-.346,3.455-.33a2.215,2.215,0,0,0,.523-.12.687.687,0,0,0,.657.605,4.465,4.465,0,0,0,5.013-2.834,1.126,1.126,0,0,1,.679-.389q-.011,2.058-.021,4.117" transform="translate(-365.895 -92.037)" fill="#ebb193"/>
  <path id="Trazado_979" data-name="Trazado 979" d="M382.585,105.181a85.363,85.363,0,0,0,1.73,10.481,2.981,2.981,0,0,1-2.349-1.573,15.768,15.768,0,0,1-2.062-6.74c-.092-1.547.578-2.19,2.136-2.181.182,0,.364.009.545.013" transform="translate(-348.4 -59.095)" fill="#ebb193"/>
  <path id="Trazado_980" data-name="Trazado 980" d="M471.625,115.552c.516-2.89,1.281-5.732,1.615-8.656.07-.611.15-1.221.226-1.833,1.639.174,2.22.725,2.061,2.156a17.728,17.728,0,0,1-1.705,6.377,3.458,3.458,0,0,1-2.2,1.955" transform="translate(-399.86 -59.037)" fill="#ebb193"/>
  <path id="Trazado_981" data-name="Trazado 981" d="M497.719,195.25a73.287,73.287,0,0,1-9.459-2.682,39.83,39.83,0,0,1,6.248,1.628c1.084.289,2.283.275,3.211,1.053" transform="translate(-409.186 -108.227)" fill="#761b22"/>
  <path id="Trazado_982" data-name="Trazado 982" d="M385.672,85.533a42.765,42.765,0,0,1,0,5.562,20.62,20.62,0,0,1,0-5.562" transform="translate(-351.539 -48.062)" fill="#761b22"/>
  <path id="Trazado_983" data-name="Trazado 983" d="M385.817,101.086c.027.388.261.806-.166,1.127.116-.367-.086-.78.166-1.127" transform="translate(-351.633 -56.801)" fill="#761b22"/>
  <path id="Trazado_984" data-name="Trazado 984" d="M385.9,80.138q-.011.334-.022.668a.458.458,0,0,1,.022-.668" transform="translate(-351.688 -45.03)" fill="#761b22"/>
  <path id="Trazado_985" data-name="Trazado 985" d="M429.33,217.331a49.521,49.521,0,0,1-3.163,5.956c-.548.987-.768.962-1.365-.019l-3.62-5.956c.668-.247.475-.9.591-1.369.617-2.479,1.168-4.975,1.741-7.465a5.05,5.05,0,0,1,3.95.032c.311,1.609.589,3.226.945,4.825a21.431,21.431,0,0,0,.92,4" transform="translate(-371.559 -116.952)" fill="#761b22"/>
  <path id="Trazado_986" data-name="Trazado 986" d="M411.136,199.808c-.573,2.49-1.124,4.986-1.741,7.465-.116.465.076,1.122-.591,1.369q-4.441-7.25-8.881-14.5c-.265-.433-.514-.875-.77-1.313.34-.363.578-.039.846.121,2.124,1.27,4.284,2.485,6.36,3.829.847.548,1.295.417,1.694-.41a35.212,35.212,0,0,1,3.084,3.44" transform="translate(-359.195 -108.281)" fill="#fefdfe"/>
  <path id="Trazado_987" data-name="Trazado 987" d="M437.387,209.774a21.431,21.431,0,0,1-.92-4c-.357-1.6-.634-3.216-.945-4.824a.127.127,0,0,0,.044-.14c1.174-1.048,1.96-2.468,3.261-3.393.109.875.414,1.174,1.257.568a24.455,24.455,0,0,1,2.685-1.641,12.306,12.306,0,0,1,3.335-1.7c-2.858,5.071-5.7,10.154-8.716,15.132" transform="translate(-379.6 -109.394)" fill="#fefdfe"/>
  <path id="Trazado_988" data-name="Trazado 988" d="M406.733,194.348c-.4.827-.847.959-1.694.41-2.076-1.344-4.235-2.56-6.36-3.83-.268-.16-.506-.484-.846-.121l-1.028-1.74a37.031,37.031,0,0,1,5.137,2.775c1.179.635,2.319,1.344,3.469,2.032a.725.725,0,0,0,.9.022l.423.451" transform="translate(-357.881 -106.26)" fill="#ccc"/>
  <path id="Trazado_989" data-name="Trazado 989" d="M450.342,192.656a12.305,12.305,0,0,0-3.335,1.7A24.4,24.4,0,0,0,444.322,196c-.843.606-1.148.307-1.257-.568a.413.413,0,0,1,.239-.39c.364.271.632.071.965-.126,1.925-1.139,3.867-2.249,5.812-3.352a9.682,9.682,0,0,1,1.086-.459,5.542,5.542,0,0,1-.825,1.55" transform="translate(-383.833 -107.406)" fill="#ccc"/>
  <path id="Trazado_990" data-name="Trazado 990" d="M461.573,190.815l.174-.211-.174.211" transform="translate(-394.226 -107.123)" fill="#ccc"/>
  <path id="Trazado_991" data-name="Trazado 991" d="M409.992,61.632c1.89-.124,3.782-.234,5.671-.374a7,7,0,0,1,5.856,2.625c2.139,2.328,2.972,5.245,3.591,8.225a42.4,42.4,0,0,1,.317,13.289,35.907,35.907,0,0,0-.287,4.365c.036,2.6-1.341,4.468-3.026,6.175a15.261,15.261,0,0,1-4.375,3.353c-.816.376-1.533.747-2.507.062-2.036-1.433-4.4-1.324-6.744-1-.248.035-.535.173-.736.094-2.368-.935-4.568-.265-6.588.891a4.076,4.076,0,0,1-4.656-.321A11.617,11.617,0,0,1,391.141,90a83.315,83.315,0,0,1-.589-13.608c.248-4.261.948-8.431,3.495-12.062a7.627,7.627,0,0,1,7.885-3.244,44.012,44.012,0,0,0,7.89.557l.087.035Z" transform="translate(-354.297 -34.258)" fill="#ebb193"/>
  <path id="Trazado_992" data-name="Trazado 992" d="M419.652,150.876a7.189,7.189,0,0,1,4.643-.758.876.876,0,0,0,.515.059,5.254,5.254,0,0,1,3.936.5c.172.079.5-.077.488.262-.008.219-.225.322-.429.431-2.392,1.273-4.826,1.834-7.4.528a7.038,7.038,0,0,1-1.749-1.02" transform="translate(-370.698 -84.273)" fill="#ebb193"/>
  <path id="Trazado_993" data-name="Trazado 993" d="M442.255,164.649a4.464,4.464,0,0,1-5.014,2.834.686.686,0,0,1-.656-.6,44.666,44.666,0,0,0,5.67-2.229" transform="translate(-380.201 -92.518)" fill="#a4a3a4"/>
  <path id="Trazado_994" data-name="Trazado 994" d="M434.82,62.391l-.085.041-.087-.035c.054-.1.111-.11.171-.006" transform="translate(-379.121 -35.017)" fill="#761b22"/>
  <path id="Trazado_995" data-name="Trazado 995" d="M435.239,191.186a.413.413,0,0,0-.239.39c-1.3.926-2.087,2.346-3.26,3.393a9.128,9.128,0,0,0-1.377-2.578,15.794,15.794,0,0,1-1.651-7.06c.138-.209.276-.42.416-.628.4-.6.718-.63,1.192.014,1.6,2.182,3.412,4.211,4.919,6.469" transform="translate(-375.784 -103.549)" fill="#761b22"/>
  <path id="Trazado_996" data-name="Trazado 996" d="M422.974,186.727a15.792,15.792,0,0,0,1.651,7.06A9.115,9.115,0,0,1,426,196.365a.127.127,0,0,1-.043.14,5.05,5.05,0,0,0-3.95-.032,35.1,35.1,0,0,0-3.083-3.44l-.424-.451a55.473,55.473,0,0,1,4.473-5.855" transform="translate(-370.055 -104.944)" fill="#742811"/>
</svg>
