<svg xmlns="http://www.w3.org/2000/svg" viewBox="0 0 340.04 128.48">
    <defs>
        <style>.cls-1{fill:#fff;}.cls-2{fill:#1d1d1b;}</style>
    </defs>
    <g id="Capa_2" data-name="Capa 2">
        <g id="LOG_IN" data-name="LOG IN">
            <path d="M23.14,7.2c2.71-.31,2.71-.31,3.42,2.09q4.13,13.91,8.26,27.8c.08.28.2.56.4,1.12.55-1.86,1-3.46,1.5-5.06C39.16,24.88,41.63,16.61,44,8.32c.32-1.12.89-1.24,1.88-1.26s1.36.3,1.64,1.24q4.14,14.26,8.37,28.5c.11.37.23.73.45,1.43.34-1.14.6-2,.84-2.79Q61.12,22.3,65,9.15c.7-2.35.7-2.35,3.37-1.91-.27.95-.53,1.89-.81,2.83-3.1,10.12-6.24,20.22-9.27,30.36C57.9,41.88,57,41.51,56,41.62s-1.3-.33-1.54-1.19q-4.09-14-8.23-28c-.12-.41-.29-.81-.53-1.51-1,3.33-1.89,6.36-2.78,9.4-2,6.78-4,13.55-6,20.35a1.2,1.2,0,0,1-1.56,1c-.82-.11-1.77.42-2.19-1C30,29.79,26.67,19,23.36,8.18,23.27,7.88,23.22,7.57,23.14,7.2Z"/>
            <path d="M170,21.69c.25-.49.4-.77.53-1.05a7.79,7.79,0,0,1,10-4.09c2.86,1,3.9,3.41,4,6.13.21,5,.17,10,.22,15,0,1.23,0,2.47,0,3.82h-2.43V40q0-8-.1-16.08c0-.2,0-.4,0-.6-.25-2-.76-3.93-2.93-4.69A5.69,5.69,0,0,0,172.94,20a9.8,9.8,0,0,0-2.59,7.13c0,4.32,0,8.64,0,13v1.41h-2.52V40c0-5.32,0-10.64-.06-16a9.78,9.78,0,0,0-.15-1.42c-.3-1.88-1-3.51-3-4.14a5.64,5.64,0,0,0-5.91,1.26A9.61,9.61,0,0,0,156,27.07c0,4.36,0,8.72,0,13.08v1.37h-2.33V16.64h2.31v4c1.74-2.94,4.19-4.57,7.62-4.51S169.24,18,170,21.69Z"/>
            <path d="M211.57,29.32H191.89c-.46,3.9,1.44,8.21,4.25,9.78a8.91,8.91,0,0,0,12.71-4.23c.54-1.2,1.48-.46,2.27-.59a8.92,8.92,0,0,1-7.92,7.63,19.18,19.18,0,0,1-6-.28,9.31,9.31,0,0,1-7-6.85,18.83,18.83,0,0,1-.09-11c1.58-5.48,6.21-8.37,12-7.61C208.46,17,212.52,22.52,211.57,29.32Zm-2.38-1.89c-.2-5.91-3.89-9.67-9.09-9.43-5.38.26-8.08,4.36-8.21,9.43Z"/>
            <path d="M69.83,29.24c0,2.91.43,5.5,2,7.73,1.88,2.66,4.63,3.37,7.71,3.19a7.64,7.64,0,0,0,7-4.56c.72-1.55.7-1.56,2.59-1.22-.8,3.37-2.59,5.92-6,7a13.52,13.52,0,0,1-9-.08A9.69,9.69,0,0,1,68,34.25a19.23,19.23,0,0,1-.1-9.85c1.46-5.87,6.07-9,12.09-8.23,5.84.72,9.52,4.86,9.77,11,0,.64,0,1.28,0,2.06Zm.08-1.84H87.17c.09-5.53-3.62-9.46-8.75-9.39S69.74,22.06,69.91,27.4Z"/>
            <path d="M125.78,29c.22-1.54.34-3.1.7-4.6,1.16-4.84,4.17-7.55,9.13-8.17,3.84-.47,7.41.19,10.22,3.15a10.78,10.78,0,0,1,2.63,5.17,19.61,19.61,0,0,1,0,9.14c-1.4,5.81-5.68,8.75-12.06,8.36-6-.37-9.81-4.24-10.36-10.52-.07-.84-.09-1.68-.14-2.51Zm20.77.12c-.13-1.22-.19-2.47-.41-3.68-.83-4.63-3.78-7.15-8.52-7.35a8.12,8.12,0,0,0-8.66,6.4,17.4,17.4,0,0,0,.21,9.93c2.29,7.25,11.8,6.84,14.89,2.93C146,34.94,146.44,32.12,146.55,29.14Z"/>
            <path d="M264.26,29.1a48.65,48.65,0,0,1-.89,5.29c-1.5,5.36-5.75,8.06-11.85,7.68-5.74-.35-9.44-3.87-10.27-9.8A20.08,20.08,0,0,1,241.7,24a10.24,10.24,0,0,1,10.09-7.84,13.31,13.31,0,0,1,6.08,1.05C262,19.1,263.5,22.7,264,26.92c.08.71.07,1.44.11,2.15Zm-20.86-.44c.18,1.69.24,2.93.46,4.14.78,4.29,3.74,7.06,7.71,7.28,5,.27,8.1-1.74,9.4-6.18a16.74,16.74,0,0,0-.12-10c-1.22-3.75-4.23-5.79-8.32-5.78s-7.05,2-8.23,5.84A38.57,38.57,0,0,0,243.4,28.66Z"/>
            <path d="M120.62,32.94h2.17a8.81,8.81,0,0,1-3.15,6.87c-5.48,4.69-14.79,2.29-17.27-4.45a17.66,17.66,0,0,1-1-7.31,20.93,20.93,0,0,1,.58-3.78c1.48-5.81,6.1-8.85,12.06-8.08,4.16.55,7.2,2.47,8.45,6.67a22.29,22.29,0,0,1,.42,2.23c-.46,0-.79.07-1.13.08h-1.11c-.11-.41-.19-.75-.28-1.09-1-3.63-3.38-5.66-6.95-5.91-4.12-.28-7.12,1.32-8.49,4.83a16.37,16.37,0,0,0-.06,12.06c1.42,3.73,4.62,5.44,8.85,5,3.65-.38,6-2.68,6.77-6.55C120.53,33.35,120.56,33.2,120.62,32.94Z"/>
            <path d="M230.66,18.59h-4.47V16.65h4.42V9.11h2.45v7.44h6.38v2h-6.37V35.75a11.39,11.39,0,0,0,.05,1.31c.21,2.08.85,2.71,3,2.8,1.11,0,2.22,0,3.39,0v1.79a42,42,0,0,1-5.27,0c-2.46-.31-3.53-1.78-3.54-4.46,0-5.72,0-11.44,0-17.15Z"/>
            <path d="M94.4,7.16c.44,0,.83-.06,1.22-.06s.7.05,1.11.08V41.52H94.4Z"/>
            <rect class="cls-2" x="284.04" y="98.72" width="56" height="29.76" rx="14.88"/>
            <path class="cls-1" d="M296.05,117.82v1.85h-1.41V106.91h1.49v5.27a3.1,3.1,0,0,1,3.18-1.93c2.49,0,4,1.77,4,4.8s-1.53,4.8-4,4.8A3.18,3.18,0,0,1,296.05,117.82Zm5.79-2.77c0-2.53-1.17-3.66-2.87-3.66s-2.84,1.13-2.84,3.66,1.16,3.65,2.84,3.65S301.84,117.57,301.84,115.05Z"/>
            <path class="cls-1" d="M305,115.05c0-2.85,1.47-4.8,4.32-4.8s4.33,2,4.33,4.58a2.22,2.22,0,0,1,0,.45h-7.13c0,2.51,1.22,3.53,2.94,3.53a2.58,2.58,0,0,0,2.7-2h1.33a3.7,3.7,0,0,1-4,3C306.55,119.85,305,118,305,115.05Zm1.49-.77h5.68c-.2-2-1.26-3-2.85-3S306.66,112.27,306.46,114.28Z"/>
            <path class="cls-1" d="M316.25,117.52v-6h-1.57v-1.07h1.57v-2.8h1.49v2.8H320v1.07h-2.22v6.06c0,.89.3,1.11,1.26,1.11l1,0v1c-.36,0-.95.09-1.27.09C316.92,119.76,316.25,119.24,316.25,117.52Z"/>
            <path class="cls-1" d="M321.48,117.05c0-1.36.86-2.41,3.12-2.61l1.7-.15c1.25-.1,1.61-.37,1.61-1.05,0-1.18-.66-1.92-2.2-1.92s-2.19.61-2.29,1.92H322c0-1.83,1.13-3,3.71-3s3.71,1.16,3.71,3v4.06a6,6,0,0,0,.29,2.37h-1.31a2.58,2.58,0,0,1-.39-1.76,3.12,3.12,0,0,1-3.23,1.94C322.67,119.85,321.48,118.77,321.48,117.05Zm6.43-1.41v-.91a2.39,2.39,0,0,1-1.61.53l-1.27.11c-1.47.11-2.06.73-2.06,1.59,0,1.06.64,1.85,2.19,1.85C327,118.81,327.91,117.36,327.91,115.64Z"/>
            <path d="M9.16,70.09v58.06H0V70.09Z"/>
            <path d="M72.12,70.09v58.06H64.18L31.06,85.35v42.8H21.94V70.09h7.94L63,112.89V70.09Z"/>
            <path d="M122.49,120.68v7.47H83.16v-5.72c5.3-5.31,7.76-7.89,14-14.52,7.12-7.55,15.42-15.76,15.42-21.73,0-5.64-3.47-9.7-9.94-9.7-7,0-10.13,4.89-11,8.79l-8.49-1.82c2.47-9.37,10.5-14.35,20.44-14.35,10.4,0,18.07,7.55,18.07,17.08,0,9.21-9.49,17.17-25.37,34.5Z"/>
            <path d="M172.4,114.21H145l-5.39,13.94h-9.85l23.72-58.06h10.4l23.72,58.06h-9.85Zm-3-7.63L158.71,79,148,106.58Z"/>
            <path d="M231.25,128.15,218,105.67a23.38,23.38,0,0,1-2.46.08H205v22.4h-9.13V70.09h19.71c14.6,0,23,7.8,23,17.84,0,7-4.1,12.93-11.49,15.83l15.14,24.39ZM215.56,98.21c8.85,0,13.59-4.07,13.59-10.28s-4.74-10.29-13.59-10.29H205V98.21Z"/>
            <path d="M288.19,77.64H272v50.51h-9.12V77.64H246.77V70.09h41.42Z"/>
        </g>
    </g>
</svg>
