<svg xmlns="http://www.w3.org/2000/svg" viewBox="0 0 222.95 227.47"><defs><style>.cls-1{fill:#fff;}</style></defs><g id="Capa_2" data-name="Capa 2"><g id="NOTES"><path class="cls-1" d="M106.4,227.47c-6.73,0-14.17-4.12-14.5-10.81,0-.47,0-.95,0-1.43,0-3,2.78-5.06,6.8-5.1h26a10.61,10.61,0,0,1,2.59.26c2.52.62,4.21,2.26,4.41,4.25.44,4.39-1.41,7.88-5.5,10.38a17,17,0,0,1-9,2.44h-4c-2.25,0-4.5,0-6.75,0Zm-6.33-11.17a.66.66,0,0,0,0,.14c.14,3,3.42,4.83,6.35,4.85h10.75a7.28,7.28,0,0,0,3.88-1.07,4.67,4.67,0,0,0,2.52-3.91H100.07Z"/><path class="cls-1" d="M99.22,188H90.09a11.31,11.31,0,0,1-11-8.07,15.65,15.65,0,0,1-.48-3.64V176c-.41-8.05-3.78-14.44-10.29-19.55a69.26,69.26,0,0,1-19-22.65,65.15,65.15,0,0,1-6.47-19.65,63.93,63.93,0,0,1-.75-13.87A65.11,65.11,0,0,1,59.56,59.15a70.18,70.18,0,0,1,46.6-22.54,71.78,71.78,0,0,1,9.71-.09,69.76,69.76,0,0,1,31,9.2c16.64,9.68,27.52,23.9,32.34,42.26A59.9,59.9,0,0,1,181,99.29a64.12,64.12,0,0,1-.08,10.12,65.64,65.64,0,0,1-15.83,37.33,67.35,67.35,0,0,1-10.41,9.79A25.05,25.05,0,0,0,145.21,171a27.17,27.17,0,0,0-.69,6,10.77,10.77,0,0,1-3,7.41A11.5,11.5,0,0,1,133,188H99.22ZM111.69,44.45c-1.6,0-3.23.06-4.88.19A61.79,61.79,0,0,0,97,46.15,61.09,61.09,0,0,0,65.79,64.49a57.36,57.36,0,0,0-15.37,36.24,56.44,56.44,0,0,0,.65,12.17,57.81,57.81,0,0,0,5.69,17.29,60.35,60.35,0,0,0,16.83,20c8.35,6.54,12.84,15.09,13.36,25.42l0,.29a9.39,9.39,0,0,0,.2,1.91,3,3,0,0,0,2.94,2.12H133a3,3,0,0,0,2.36-1,2.84,2.84,0,0,0,.81-2.06,34.74,34.74,0,0,1,.92-7.67,33.15,33.15,0,0,1,12.44-19,59.47,59.47,0,0,0,9.15-8.6,57.82,57.82,0,0,0,13.94-32.9,55.76,55.76,0,0,0,.07-8.89A51.71,51.71,0,0,0,171.17,90c-4.25-16.23-13.86-28.79-28.55-37.33a61.27,61.27,0,0,0-27.28-8.07C114.14,44.49,112.93,44.45,111.69,44.45Z"/><path class="cls-1" d="M129.54,206.75H94.8a8.11,8.11,0,0,1-2-.19,6.17,6.17,0,0,1-4.7-5.56,26.58,26.58,0,0,1,0-3,6.29,6.29,0,0,1,6-6.18c.23,0,.47,0,.71,0h34.48a10,10,0,0,1,1.9.16,6.22,6.22,0,0,1,5,5.88c0,.95,0,1.92,0,2.89a6.28,6.28,0,0,1-6,6Zm-.33-6.17h.72a.09.09,0,0,0,.08,0c0-.82,0-1.65,0-2.46a2.24,2.24,0,0,0-.73-.09H94.49c-.16,0-.24,0-.25.06a.41.41,0,0,0,0,.19,21.63,21.63,0,0,0,0,2.33,4,4,0,0,0,.53,0h34.45Z"/><path class="cls-1" d="M112.47,30.15h-2.06c-4,0-7.2-2.63-7.2-5.87V5.86c0-3.23,3.23-5.86,7.2-5.86h2.06c4,0,7.19,2.63,7.19,5.86V24.28C119.66,27.52,116.43,30.15,112.47,30.15ZM110.41,5.36a.57.57,0,0,0-.62.5V24.28a.58.58,0,0,0,.62.51h2.06a.57.57,0,0,0,.61-.51V5.86a.56.56,0,0,0-.61-.5Z"/><path class="cls-1" d="M46,62.62l-1.45,1.46c-2.81,2.8-7,3.23-9.23.94l-13-13c-2.28-2.28-1.86-6.42.94-9.23l1.46-1.45c2.8-2.81,7-3.23,9.23-1l13,13C49.24,55.67,48.82,59.82,46,62.62ZM27,46.55a.57.57,0,0,0-.08.79l13,13a.57.57,0,0,0,.79-.08l1.46-1.46a.57.57,0,0,0,.08-.79l-13-13a.56.56,0,0,0-.79.08Z"/><path class="cls-1" d="M176.9,61.6l-1.46-1.45c-2.8-2.81-3.23-6.95-.94-9.23l13-13c2.29-2.29,6.43-1.86,9.24.94l1.45,1.46c2.81,2.8,3.23,6.94.95,9.23l-13,13C183.84,64.83,179.7,64.41,176.9,61.6Zm16.07-19a.57.57,0,0,0-.79-.08l-13,13a.56.56,0,0,0,.08.79l1.46,1.45a.56.56,0,0,0,.79.08l13-13a.56.56,0,0,0-.08-.79Z"/><path class="cls-1" d="M30.15,111.49v2.06c0,4-2.63,7.19-5.87,7.19H5.86c-3.23,0-5.86-3.23-5.86-7.19v-2.06c0-4,2.63-7.2,5.86-7.2H24.28C27.52,104.29,30.15,107.52,30.15,111.49ZM5.36,113.55a.56.56,0,0,0,.5.61H24.28a.57.57,0,0,0,.51-.61v-2.06a.58.58,0,0,0-.51-.62H5.86a.57.57,0,0,0-.5.62Z"/><path class="cls-1" d="M192.81,113.55v-2.06c0-4,2.63-7.2,5.86-7.2h18.42c3.23,0,5.86,3.23,5.86,7.2v2.06c0,4-2.63,7.19-5.86,7.19H198.67C195.44,120.74,192.81,117.51,192.81,113.55Zm24.78-2.06a.57.57,0,0,0-.5-.62H198.67a.57.57,0,0,0-.5.62v2.06a.56.56,0,0,0,.5.61h18.42a.56.56,0,0,0,.5-.61Z"/></g></g></svg>
