<svg xmlns="http://www.w3.org/2000/svg" viewBox="0 0 222.63 228.54"><defs><style>.cls-1{fill:none;stroke:#fff;stroke-miterlimit:10;stroke-width:10px;}</style></defs><g id="Capa_2" data-name="Capa 2"><g id="NOTES"><path class="cls-1" d="M61.14,223.54h-35A21.12,21.12,0,0,1,5,202.42q0-44.85.11-89.7A9.43,9.43,0,0,1,7.4,107C12.47,101.34,17.84,96,23.1,90.47q36.4-38,72.86-75.91c1.94-2,4-3.94,6-5.85a14,14,0,0,1,19.64.63L129.93,18q42.69,44.45,85.32,89a9.18,9.18,0,0,1,2.27,5.78c.14,29.94.09,59.88.11,89.83h0a21,21,0,0,1-21,21H161.58a21.12,21.12,0,0,1-21.12-21.13q0-31,0-62c0-14.8-11.56-27.94-25.66-29.52a29.07,29.07,0,0,0-31.7,23c-.93,4.37-.88,9-.89,13.51q0,27.48.06,54.95A21.12,21.12,0,0,1,61.14,223.54Z"/></g></g></svg>
