<svg xmlns="http://www.w3.org/2000/svg" viewBox="0 0 188.6 230.65"><defs><style>.cls-1{fill:none;stroke:#fff;stroke-miterlimit:10;stroke-width:10px;}</style></defs><g id="Capa_2" data-name="Capa 2"><g id="NOTES"><path class="cls-1" d="M94.25,225.65c-27.47-.32-59.9-8.17-81.06-25.7-7-5.78-9-13.49-7.9-22.17,3.54-27.37,32.75-46,60.42-46.14q28.71-.12,57.44,0c28.84.14,59.41,21.5,60.43,49.61a22.65,22.65,0,0,1-8.93,19.38C153.56,217.75,121.37,225.35,94.25,225.65Z"/><path class="cls-1" d="M43.41,56C43.26,28,66,5.17,94.22,5a51,51,0,0,1,51.12,50.66c.35,27.83-22.89,51.18-51,51.19A51.14,51.14,0,0,1,43.41,56Z"/></g></g></svg>
