<svg xmlns="http://www.w3.org/2000/svg" viewBox="0 0 223.64 227.67"><defs><style>.cls-1{fill:none;stroke:#fff;stroke-miterlimit:10;stroke-width:10px;}</style></defs><g id="Capa_2" data-name="Capa 2"><g id="NOTES"><path class="cls-1" d="M98.56,131.12l0,0v19.77c0,.15,0,.3,0,.45a4.91,4.91,0,0,0,8.15,3.54l39.8-34.57a4.19,4.19,0,0,0,0-6.17l-39.8-35a4.92,4.92,0,0,0-8.18,3.52c0,.14,0,.28,0,.43v19.77s0,0,0,0c-1.28-.13-68.61-8.45-51.87,77a0,0,0,0,0,.05,0C46.76,176.11,48.17,133,98.56,131.12Z"/><rect class="cls-1" x="5" y="35.52" width="182.25" height="187.15" rx="41.94"/><path class="cls-1" d="M182.07,5H73A36.58,36.58,0,0,0,36.84,35.83,36.57,36.57,0,0,0,5,72.09v114a36.57,36.57,0,0,0,36.57,36.57H150.68a36.58,36.58,0,0,0,36.12-30.83,36.57,36.57,0,0,0,31.84-36.26v-114A36.57,36.57,0,0,0,182.07,5Z"/></g></g></svg>
