<svg xmlns="http://www.w3.org/2000/svg" viewBox="0 0 74.94 75.25"><defs><style>.cls-1{fill:#fff;}</style></defs><g id="Objects"><path class="cls-1" d="M56.59,25.56a16.19,16.19,0,0,1-3.93,1.11c.62-.11,1.53-1.24,1.9-1.7a7.13,7.13,0,0,0,1.28-2.36c0-.07.06-.15,0-.2a.22.22,0,0,0-.21,0A19.6,19.6,0,0,1,51,24.19a.3.3,0,0,1-.32-.08,4,4,0,0,0-.41-.41A8,8,0,0,0,48,22.32a7.74,7.74,0,0,0-3.43-.55,8.09,8.09,0,0,0-3.26.92,8.41,8.41,0,0,0-2.63,2.15A8.08,8.08,0,0,0,37.14,28a8.63,8.63,0,0,0-.09,3.32c0,.19,0,.21-.15.19C30.54,30.54,25.28,28.27,21,23.4c-.19-.21-.29-.21-.44,0-1.87,2.8-1,7.3,1.37,9.52.31.29.63.59,1,.86a8.39,8.39,0,0,1-3.07-.86c-.18-.12-.28,0-.29.16a4.76,4.76,0,0,0,.05.91,8.13,8.13,0,0,0,5,6.49,4.46,4.46,0,0,0,1,.31,9.11,9.11,0,0,1-3,.1c-.22,0-.3.06-.22.27,1.32,3.61,4.18,4.68,6.32,5.3.29.05.57.05.86.11l-.05,0c-.71,1.08-3.17,1.89-4.32,2.29a15.36,15.36,0,0,1-6.55.84c-.35-.05-.43-.05-.52,0s0,.14.1.23c.45.3.9.56,1.36.81A22.25,22.25,0,0,0,24,52.57c7.87,2.17,16.73.57,22.65-5.3,4.64-4.61,6.26-11,6.26-17.34,0-.25.3-.39.47-.52a15.71,15.71,0,0,0,3.16-3.2,1.29,1.29,0,0,0,.27-.62v0C56.82,25.46,56.75,25.49,56.59,25.56Z"/></g></svg>
