<svg xmlns="http://www.w3.org/2000/svg" xmlns:xlink="http://www.w3.org/1999/xlink" viewBox="0 0 818.34 224.87"><defs><style>.cls-1,.cls-6{fill:none;}.cls-2{clip-path:url(#clip-path);}.cls-3{fill:#fff;}.cls-4{clip-path:url(#clip-path-2);}.cls-5{clip-path:url(#clip-path-3);}.cls-6{stroke:#000;stroke-miterlimit:10;stroke-width:7px;}</style><clipPath id="clip-path" transform="translate(15.09 23.68)"><path class="cls-1" d="M244.67,171.88c0-.61,1.72-140.84,1.72-140.84l201.5-2.44,18.82,26.25v117Z"/></clipPath><clipPath id="clip-path-2" transform="translate(15.09 23.68)"><rect class="cls-1" x="473.23" width="315.47" height="184.19"/></clipPath><clipPath id="clip-path-3" transform="translate(15.09 23.68)"><rect class="cls-1" x="13.92" y="11.08" width="172.21" height="185.03"/></clipPath></defs><g id="Capa_2" data-name="Capa 2"><g id="Capa_1-2" data-name="Capa 1"><g class="cls-2"><g id="LOGO"><path d="M423.46-3.55h-137a73.3,73.3,0,0,0-73.22,73.22v89.57h11.29V69.67A62,62,0,0,1,286.44,7.75h137a62,62,0,0,1,61.92,61.92v68.49a8,8,0,0,1-8,8h-12v0h-60c7-30,60.8-32.64,60.8-71.16,0-18.41-14.7-30.32-35-30.32-19.65,0-35,12.53-40.23,30.32l11.91,7.58c3.72-15,13.31-26.3,28.16-26.3,11.91,0,20.27,7.58,20.27,19,0,33-59.87,35-59.87,74.88a57,57,0,0,0,.31,7.27h71.35v0h14.26a19.37,19.37,0,0,0,19.34-19.34V69.67A73.31,73.31,0,0,0,423.46-3.55Z" transform="translate(15.09 23.68)"/><rect x="266.5" y="70.54" width="15.01" height="110.61"/><polygon points="378.04 161.5 320.03 70.54 302.85 70.54 302.85 181.15 315.23 181.15 315.23 90.8 372.94 181.15 390.42 181.15 390.42 70.54 378.04 70.54 378.04 161.5"/><path class="cls-3" d="M681.19,103.47c14.07-3.09,28.62-12.06,28.62-28.77,0-18.1-17.18-27.85-36.36-27.85H627.19V157.46h15.17V109h24.13c15.47,0,23.51,5.57,24.6,20,.77,10.36.15,25.22,3.55,28.46h16.25c-4.18-3.55-3.41-17.79-3.87-29.39C706.25,112.14,695.88,105.33,681.19,103.47Zm-38.83-6.18V58.76h28.15c14.08,0,23,6.66,23,17.79,0,10.68-9,20.74-23,20.74Z" transform="translate(15.09 23.68)"/><polygon class="cls-3" points="728.46 70.53 728.46 82.45 765.89 82.45 765.89 181.15 781.05 181.15 781.05 82.45 818.34 82.45 818.34 70.53 728.46 70.53"/><path class="cls-3" d="M567.84,46.77h-8.4L517.51,157.38H533.6l12.07-32.49h44.2l12.06,32.49H618L576.1,46.77Zm0,66.52H550l17.77-47.58,17.77,47.58Z" transform="translate(15.09 23.68)"/></g></g><g class="cls-4"><g id="LOGO-2" data-name="LOGO"><path class="cls-3" d="M388.45-3.45h-137a73.31,73.31,0,0,0-73.22,73.22v89.58h11.3V69.77A62,62,0,0,1,251.43,7.85h137a62,62,0,0,1,61.92,61.92v68.49a8,8,0,0,1-8,8h-12v0h-60c7-30,60.8-32.65,60.8-71.17,0-18.41-14.69-30.32-35-30.32-19.65,0-35,12.53-40.22,30.32l11.91,7.58c3.71-15,13.3-26.3,28.15-26.3,11.92,0,20.27,7.59,20.27,19,0,33-59.87,35-59.87,74.88a57,57,0,0,0,.31,7.27h71.36v0h14.25a19.36,19.36,0,0,0,19.34-19.34V69.77A73.3,73.3,0,0,0,388.45-3.45Z" transform="translate(15.09 23.68)"/><rect class="cls-3" x="231.49" y="70.64" width="15.01" height="110.61"/><polygon class="cls-3" points="343.03 161.6 285.02 70.64 267.85 70.64 267.85 181.25 280.22 181.25 280.22 90.91 337.93 181.25 355.41 181.25 355.41 70.64 343.03 70.64 343.03 161.6"/><path d="M646.18,103.57c14.08-3.09,28.62-12.06,28.62-28.77C674.8,56.7,657.63,47,638.44,47H592.19V157.57h15.16V109.14h24.13c15.47,0,23.52,5.57,24.6,20,.77,10.37.15,25.22,3.56,28.47h16.24c-4.17-3.56-3.4-17.79-3.87-29.4C671.24,112.24,660.88,105.43,646.18,103.57Zm-38.83-6.18V58.87H635.5c14.08,0,23,6.65,23,17.79,0,10.67-9,20.73-23,20.73Z" transform="translate(15.09 23.68)"/><polygon points="693.45 70.64 693.45 82.55 730.89 82.55 730.89 181.25 746.05 181.25 746.05 82.55 783.33 82.55 783.33 70.64 693.45 70.64"/><path d="M532.83,46.87h-8.4L482.51,157.48H498.6L510.66,125h44.2l12.07,32.48H583L541.09,46.87Zm0,66.52H515l17.77-47.58,17.77,47.58Z" transform="translate(15.09 23.68)"/></g></g><g class="cls-5"><path d="M210.89,201.19h-226V-22.26c0-1.42,0-1.42,1.43-1.42H210.89Zm-4.49-4.56V-17.71c0-1.52,0-1.52-1.56-1.52H-9c-1.59,0-1.59,0-1.59,1.61V195.11c0,1.59,0,1.59,1.6,1.59H69.64a1.92,1.92,0,0,0,.76,0c.34-.17.79-.4.88-.7a20,20,0,0,0,.68-3,92.64,92.64,0,0,0-1.1-33.12c-1-5.14-3-10.09-4.66-15.1a95.79,95.79,0,0,0-12.43-25.31,211.19,211.19,0,0,0-18-21.78c-3.44-3.77-6.77-7.64-10.07-11.54A11.27,11.27,0,0,1,24,83c-.63-1.64,0-2.76,1.71-3.27a5.4,5.4,0,0,1,4.16.4,43.06,43.06,0,0,1,7.19,4.34c4,3.33,7.72,7,11.59,10.52,3.59,3.26,7.18,6.53,10.87,9.68a11.68,11.68,0,0,0,3.71,2,2.71,2.71,0,0,0,3.87-2.42,13,13,0,0,0-.13-3.79,52.89,52.89,0,0,0-4.4-13C58.23,78,53.7,68.61,49.33,59.12A75.8,75.8,0,0,1,46,50.49a10.75,10.75,0,0,1-.16-6.57,3.22,3.22,0,0,1,4.68-2.15A11,11,0,0,1,53.56,44a45.18,45.18,0,0,1,7,10.3c4.88,9.24,9.59,18.58,14.53,27.79a108.93,108.93,0,0,0,6.08,9.58c.75,1.12,1.89,2.08,3.42,1.69s2-1.82,2.13-3.15A61.37,61.37,0,0,0,87,80C86,70,84.73,59.91,83.53,49.87a138,138,0,0,1-1.38-18.94,18.23,18.23,0,0,1,1.37-7.68,4.45,4.45,0,0,1,3.93-2.74A3.64,3.64,0,0,1,91.12,23a26.11,26.11,0,0,1,2.06,6.18c1.65,10.57,3,21.18,4.69,31.75,1.24,7.9,2.71,15.77,4.22,23.63a29,29,0,0,0,2.06,6.19,2.38,2.38,0,0,0,4.27.3,9.38,9.38,0,0,0,1.31-2.63c.74-2.47,1.43-5,2-7.47,2.59-11.31,5-22.65,7.74-33.94a56.14,56.14,0,0,1,3.18-8.68,5.4,5.4,0,0,1,3.34-3c2.09-.7,3.65,0,4.36,2.06a12.89,12.89,0,0,1,.66,3.3c.38,6-.62,12-1.63,17.91-1.87,10.86-3.9,21.7-5.68,32.57a64.41,64.41,0,0,0-.74,17.09,24.87,24.87,0,0,0,1.56,6.54c1.09,2.8,3.83,3.72,6.52,2.31a18.88,18.88,0,0,0,4.05-2.94,45.72,45.72,0,0,0,7.68-10.33A26.62,26.62,0,0,1,153,93.41c4.82-2.6,9.9-3.53,15.23-1.77,4.1,1.35,4.89,3.71,2.23,7.07a68.16,68.16,0,0,1-6.16,6.67,104,104,0,0,0-18.54,23.44c-2.32,4.08-4.3,8.38-6.86,12.3-3.55,5.43-7.42,10.66-11.31,15.86-4.25,5.68-6.15,12.13-6.93,19a109.26,109.26,0,0,0-.19,19.31c.06,1,.35,1.4,1.49,1.4q41.52-.06,83,0C205.43,196.7,205.86,196.66,206.4,196.63Zm-105-62.21c6.85-2.3,11.56-7.11,15.35-13-4-3.55-14.88-6.55-19.53-5.33,1.21.31,2.27.54,3.31.86a9,9,0,0,1,3.23,15.52C103,133.15,102.15,133.78,101.36,134.42Zm-22.23-4.66c4.22,3.59,14.64,6.47,19.26,5.35,0-.05-.09-.13-.14-.15-.67-.18-1.34-.36-2-.51-3.76-.86-6.26-3.1-7.12-6.87s.43-6.87,3.43-9.28l1.94-1.57C88.53,118.62,82.57,123.75,79.13,129.76Z" transform="translate(15.09 23.68)"/></g><rect class="cls-6" x="18.59" y="30.16" width="190.28" height="189.63"/></g></g></svg>