<svg xmlns='http://www.w3.org/2000/svg'>
  <symbol id='add-artwork' fill='none' viewBox='0 0 17 19'>
    <path fill='currentColor' fill-rule='evenodd'
          d='M11.386 18.987s-.148-.135-.165-.245a9.722 9.722 0 0 1 .124-3.597c.142-.557.316-1.105.522-1.64a10.32 10.32 0 0 1 1.395-2.75 23.323 23.323 0 0 1 2.013-2.365c.386-.408.76-.831 1.13-1.254.082-.102.148-.217.193-.341.07-.178 0-.3-.191-.355a.623.623 0 0 0-.467.045c-.283.13-.553.288-.806.471-.45.363-.867.762-1.3 1.143-.404.354-.806.71-1.22 1.052a1.339 1.339 0 0 1-.417.22.295.295 0 0 1-.284-.011.326.326 0 0 1-.151-.251 1.406 1.406 0 0 1 .014-.412c.103-.493.27-.97.498-1.415.491-1.03.999-2.054 1.49-3.085.143-.304.268-.617.374-.937.082-.23.089-.48.018-.714a.387.387 0 0 0-.208-.246.354.354 0 0 0-.315.013c-.127.06-.243.143-.342.245-.312.333-.575.71-.784 1.12-.548 1.005-1.076 2.019-1.63 3.02-.21.36-.438.707-.683 1.042a.37.37 0 0 1-.164.154.352.352 0 0 1-.22.027.325.325 0 0 1-.177-.128.348.348 0 0 1-.06-.216 6.499 6.499 0 0 1-.035-1.11c.11-1.094.253-2.185.388-3.276.1-.68.152-1.368.155-2.057a1.924 1.924 0 0 0-.154-.835.516.516 0 0 0-.18-.213.488.488 0 0 0-.26-.085.399.399 0 0 0-.248.064.424.424 0 0 0-.164.204 2.752 2.752 0 0 0-.231.67c-.185 1.15-.34 2.302-.526 3.45-.14.858-.305 1.713-.474 2.567-.05.233-.128.46-.231.673a.283.283 0 0 1-.094.113.268.268 0 0 1-.386-.081.984.984 0 0 1-.147-.285c-.083-.268-.16-.54-.224-.812-.29-1.23-.567-2.46-.869-3.687a5.997 5.997 0 0 0-.356-.942.611.611 0 0 0-.154-.205.583.583 0 0 0-.22-.12.34.34 0 0 0-.416.087.37.37 0 0 0-.073.137 1.346 1.346 0 0 0-.075.358 8.15 8.15 0 0 0 .184 1.945c.208 1.179.435 2.357.636 3.54.113.611.141 1.237.084 1.858a2.675 2.675 0 0 1-.174.71.528.528 0 0 1-.31.3.487.487 0 0 1-.422-.05 2.096 2.096 0 0 1-.455-.317 4.966 4.966 0 0 1-.86-1.123 2.952 2.952 0 0 0-1.15-1.13 2.15 2.15 0 0 0-1.71-.192c-.459.147-.547.404-.248.77.214.258.445.5.69.726a11.392 11.392 0 0 1 2.08 2.546c.261.444.482.91.77 1.336.398.59.832 1.158 1.269 1.723.444.598.714 1.316.777 2.07.071.696.078 1.398.021 2.096l5.605-.013Zm-5.183-8.021a3.283 3.283 0 0 0 1.722 1.41l-.085-.066c-.06-.047-.12-.094-.18-.144a.897.897 0 0 1-.31-.419.935.935 0 0 1-.031-.528.98.98 0 0 1 .248-.476.921.921 0 0 1 .456-.263c.08-.024.16-.043.247-.063l.125-.03a3.392 3.392 0 0 0-2.192.579Zm2.055 1.485a3.39 3.39 0 0 0 2.16-.58 3.249 3.249 0 0 0-1.721-1.415l.218.17a.907.907 0 0 1 .351.438.95.95 0 0 1 .034.57.996.996 0 0 1-.289.501.933.933 0 0 1-.51.245c-.076.017-.151.036-.227.055-.006.002-.01.011-.016.016Z'
          clip-rule='evenodd' />
  </symbol>

  <symbol id='edit-profile' fill='none' viewBox='0 0 25 21'>
    <path stroke='currentColor' stroke-linecap='round' stroke-linejoin='round' stroke-width='1.5'
          d='M18.794 15.561c-2.277 1.902-5.296 3.057-8.622 3.057-3.327 0-6.346-1.155-8.623-3.057.128-1.096.895-2.17 2.264-3.01 3.506-2.123 9.237-2.123 12.717 0 1.369.84 2.136 1.914 2.264 3.01ZM10.326 8.498a1.35 1.35 0 0 0-.307 0c-2.251-.07-4.042-1.75-4.042-3.815 0-2.112 1.867-3.827 4.196-3.827 2.315 0 4.196 1.715 4.196 3.827-.013 2.065-1.791 3.745-4.043 3.815Z' />
    <ellipse cx='3.618' cy='4.836' fill='var(--background)' rx='3.618' ry='4.836'
             transform='matrix(.7298 .68367 -.74786 .66386 19.293 9.476)' />
    <path stroke='currentColor' stroke-linecap='round' stroke-linejoin='round' stroke-miterlimit='10'
          d='m18.655 12.918-2.616 2.386c-.1.091-.2.27-.22.4l-.142.911c-.053.33.202.56.564.515l1-.13a.967.967 0 0 0 .438-.2l2.616-2.386c.452-.412.664-.89 0-1.496-.664-.605-1.188-.412-1.64 0Z' />
    <path stroke='currentColor' stroke-linecap='round' stroke-linejoin='round' stroke-miterlimit='10'
          d='M18.195 13.3c.229.743.865 1.324 1.683 1.535' />
  </symbol>

  <symbol id='create-post' fill='none' viewBox='0 0 20 20'>
    <path stroke='currentColor' stroke-linecap='round' stroke-linejoin='round' stroke-miterlimit='10' stroke-width='1.5'
          d='M2.5 18.333h15M9.908 4.208A5.105 5.105 0 0 0 14.45 8.5' />
    <path stroke='currentColor' stroke-linecap='round' stroke-linejoin='round' stroke-miterlimit='10' stroke-width='1.5'
          d='m11.047 3-6.841 7.242c-.258.275-.508.816-.558 1.191l-.309 2.7c-.108.975.592 1.642 1.559 1.475l2.683-.458c.375-.067.9-.342 1.158-.625l6.842-7.242c1.183-1.25 1.716-2.675-.125-4.416C13.623 1.142 12.23 1.75 11.047 3Z' />
  </symbol>

  <symbol id='comments' viewBox='0 0 24 24' fill='none'>
    <path
      d='M22 6.25V11.35C22 12.62 21.58 13.69 20.83 14.43C20.09 15.18 19.02 15.6 17.75 15.6V17.41C17.75 18.09 16.99 18.5 16.43 18.12L15.46 17.48C15.55 17.17 15.59 16.83 15.59 16.47V12.4C15.59 10.36 14.23 9 12.19 9H5.39999C5.25999 9 5.13 9.01002 5 9.02002V6.25C5 3.7 6.7 2 9.25 2H17.75C20.3 2 22 3.7 22 6.25Z'
      stroke='currentColor' stroke-width='1.5' stroke-miterlimit='10' stroke-linecap='round' stroke-linejoin='round' />
    <path
      d='M15.59 12.4V16.47C15.59 16.83 15.55 17.17 15.46 17.48C15.09 18.95 13.87 19.87 12.19 19.87H9.47L6.45 21.88C6 22.19 5.39999 21.86 5.39999 21.32V19.87C4.37999 19.87 3.53 19.53 2.94 18.94C2.34 18.34 2 17.49 2 16.47V12.4C2 10.5 3.18 9.19002 5 9.02002C5.13 9.01002 5.25999 9 5.39999 9H12.19C14.23 9 15.59 10.36 15.59 12.4Z'
      stroke='currentColor' stroke-width='1.5' stroke-miterlimit='10' stroke-linecap='round' stroke-linejoin='round' />
  </symbol>

  <symbol id='likes' viewBox='0 0 22 20' fill='none'>
    <path
      d='M11.62 18.8101C11.28 18.9301 10.72 18.9301 10.38 18.8101C7.48 17.8201 1 13.6901 1 6.6901C1 3.6001 3.49 1.1001 6.56 1.1001C8.38 1.1001 9.99 1.9801 11 3.3401C12.01 1.9801 13.63 1.1001 15.44 1.1001C18.51 1.1001 21 3.6001 21 6.6901C21 13.6901 14.52 17.8201 11.62 18.8101Z'
      stroke='currentColor' stroke-width='1.5' stroke-linecap='round' stroke-linejoin='round' />
  </symbol>

  <symbol id='post-more-option' viewBox='0 0 32 6' fill='none'>
    <path
      d='M16 4.83317C17.0126 4.83317 17.8334 4.01236 17.8334 2.99984C17.8334 1.98732 17.0126 1.1665 16 1.1665C14.9875 1.1665 14.1667 1.98732 14.1667 2.99984C14.1667 4.01236 14.9875 4.83317 16 4.83317Z'
      stroke='currentColor'
      stroke-linecap='round'
      stroke-linejoin='round'
    />
    <path
      d='M28.8334 4.83317C29.8459 4.83317 30.6667 4.01236 30.6667 2.99984C30.6667 1.98732 29.8459 1.1665 28.8334 1.1665C27.8209 1.1665 27 1.98732 27 2.99984C27 4.01236 27.8209 4.83317 28.8334 4.83317Z'
      stroke='currentColor'
      stroke-linecap='round'
      stroke-linejoin='round'
    />
    <path
      d='M3.16671 4.83317C4.17923 4.83317 5.00004 4.01236 5.00004 2.99984C5.00004 1.98732 4.17923 1.1665 3.16671 1.1665C2.15419 1.1665 1.33337 1.98732 1.33337 2.99984C1.33337 4.01236 2.15419 4.83317 3.16671 4.83317Z'
      stroke='currentColor'
      stroke-linecap='round'
      stroke-linejoin='round'
    />
  </symbol>

  <symbol id='share' height='28' viewBox='0 0 28 28' fill='none'>
    <path
      d='M10.0217 15.7618L17.99 20.4052M17.9783 7.59516L10.0217 12.2385M24.5 5.8335C24.5 7.76649 22.933 9.3335 21 9.3335C19.067 9.3335 17.5 7.76649 17.5 5.8335C17.5 3.9005 19.067 2.3335 21 2.3335C22.933 2.3335 24.5 3.9005 24.5 5.8335ZM10.5 14.0002C10.5 15.9332 8.933 17.5002 7 17.5002C5.067 17.5002 3.5 15.9332 3.5 14.0002C3.5 12.0672 5.067 10.5002 7 10.5002C8.933 10.5002 10.5 12.0672 10.5 14.0002ZM24.5 22.1668C24.5 24.0998 22.933 25.6668 21 25.6668C19.067 25.6668 17.5 24.0998 17.5 22.1668C17.5 20.2338 19.067 18.6668 21 18.6668C22.933 18.6668 24.5 20.2338 24.5 22.1668Z'
      stroke='currentColor' stroke-linecap='round' stroke-linejoin='round' />
  </symbol>

  <symbol id='back-button' viewBox='0 0 19 19' fill='none'>
    <path
      d='M1.5319 0L0 1.5319L7.90072 9.43262L0 17.3333L1.5319 18.8652L9.43262 10.9645L17.3333 18.8652L18.8652 17.3333L10.9645 9.43262L18.8652 1.5319L17.3333 0L9.43262 7.90072L1.5319 0Z'
      fill='currentColor'
    />
  </symbol>

  <symbol id='exclamation-mark' viewBox='0 0 24 24' fill='none'>
    <path
      d='M12 22C17.5228 22 22 17.5228 22 12C22 6.47715 17.5228 2 12 2C6.47715 2 2 6.47715 2 12C2 17.5228 6.47715 22 12 22Z'
      stroke='currentColor'
      stroke-width='2'
      stroke-linecap='round'
      stroke-linejoin='round'
    />
    <path d='M12 8V12' stroke='currentColor' stroke-width='2' stroke-linecap='round' stroke-linejoin='round' />
    <path d='M12 16H12.01' stroke='currentColor' stroke-width='2' stroke-linecap='round' stroke-linejoin='round' />
  </symbol>

  <symbol id='warning-mark' viewBox='0 0 27 24' fill='none'>
    <path
      d='M11.2942 3.85996L1.99766 18C1.80599 18.3024 1.70457 18.6453 1.7035 18.9945C1.70243 19.3437 1.80174 19.6871 1.99155 19.9905C2.18136 20.2939 2.45506 20.5467 2.78541 20.7238C3.11576 20.9009 3.49126 20.9961 3.87454 21H22.4676C22.8509 20.9961 23.2264 20.9009 23.5568 20.7238C23.8871 20.5467 24.1608 20.2939 24.3506 19.9905C24.5404 19.6871 24.6397 19.3437 24.6387 18.9945C24.6376 18.6453 24.5362 18.3024 24.3445 18L15.048 3.85996C14.8523 3.56607 14.5768 3.32308 14.248 3.15444C13.9193 2.98581 13.5484 2.89722 13.1711 2.89722C12.7938 2.89722 12.4229 2.98581 12.0941 3.15444C11.7654 3.32308 11.4899 3.56607 11.2942 3.85996Z'
      stroke='var(--errorMessage)'
      stroke-width='2'
      stroke-linecap='round'
      stroke-linejoin='round'
    />
    <path d='M13.171 9V13' stroke='var(--errorMessage)' stroke-width='2' stroke-linecap='round'
          stroke-linejoin='round' />
    <path d='M13.171 17H13.182' stroke='var(--errorMessage)' stroke-width='2' stroke-linecap='round'
          stroke-linejoin='round' />
  </symbol>

  <symbol id='drag-file' viewBox='0 0 80 79' fill='none'>
    <g>
      <path
        d='M38.2225 45.1224C43.3309 45.1224 47.4721 41.0337 47.4721 35.9899C47.4721 30.9462 43.3309 26.8574 38.2225 26.8574C33.1141 26.8574 28.9729 30.9462 28.9729 35.9899C28.9729 41.0337 33.1141 45.1224 38.2225 45.1224Z'
        stroke='currentColor'
        stroke-width='1.5'
        stroke-linecap='round'
        stroke-linejoin='round'
      />
      <path
        d='M55.3062 66.15C55.3062 58.5775 47.6695 52.4023 38.2224 52.4023C28.7753 52.4023 21.1387 58.545 21.1387 66.15'
        stroke='currentColor'
        stroke-width='1.5'
        stroke-linecap='round'
        stroke-linejoin='round'
      />
      <path
        d='M69.6249 41.125C69.6249 58.1875 55.6353 72 38.3541 72C21.0728 72 7.08325 58.1875 7.08325 41.125C7.08325 24.0625 21.0728 10.25 38.3541 10.25C42.6662 10.25 46.7808 11.095 50.5333 12.655C50.1053 13.955 49.8749 15.32 49.8749 16.75C49.8749 19.1875 50.5662 21.495 51.7841 23.445C52.4424 24.55 53.2983 25.5574 54.2858 26.4024C56.5899 28.4824 59.6512 29.75 63.0416 29.75C64.4899 29.75 65.8724 29.5224 67.1562 29.0674C68.7362 32.7724 69.6249 36.8675 69.6249 41.125Z'
        stroke='currentColor'
        stroke-width='1.5'
        stroke-linecap='round'
        stroke-linejoin='round'
      />
      <path
        d='M76.2083 16.75C76.2083 17.79 76.0767 18.7975 75.8133 19.7725C75.5171 21.0725 74.9904 22.34 74.2992 23.445C72.7192 26.0775 70.1846 28.1249 67.1562 29.0674C65.8725 29.5224 64.49 29.75 63.0417 29.75C59.6512 29.75 56.59 28.4824 54.2858 26.4024C53.2983 25.5574 52.4425 24.55 51.7842 23.445C50.5663 21.495 49.875 19.1875 49.875 16.75C49.875 15.32 50.1054 13.955 50.5333 12.655C51.1588 10.77 52.2121 9.08007 53.5946 7.68257C55.9975 5.24507 59.355 3.75 63.0417 3.75C66.9258 3.75 70.4479 5.40756 72.8179 8.07256C74.9246 10.3801 76.2083 13.435 76.2083 16.75Z'
        stroke='currentColor'
        stroke-width='1.5'
        stroke-miterlimit='10'
        stroke-linecap='round'
        stroke-linejoin='round'
      />
      <path
        d='M67.9461 16.6846H58.137'
        stroke='currentColor'
        stroke-width='1.5'
        stroke-miterlimit='10'
        stroke-linecap='round'
        stroke-linejoin='round'
      />
      <path
        d='M63.0415 11.9399V21.6574'
        stroke='currentColor'
        stroke-width='1.5'
        stroke-miterlimit='10'
        stroke-linecap='round'
        stroke-linejoin='round'
      />
    </g>
  </symbol>

  <symbol id='zoom-in' viewBox='0 0 24 24'>
    <path
      d='m23.707 22.293-5.969-5.969a10.016 10.016 0 1 0-1.414 1.414l5.969 5.969a1 1 0 0 0 1.414-1.414ZM10 18a8 8 0 1 1 8-8 8.009 8.009 0 0 1-8 8Z'
    />
    <path d='M13 9h-2V7a1 1 0 0 0-2 0v2H7a1 1 0 0 0 0 2h2v2a1 1 0 0 0 2 0v-2h2a1 1 0 0 0 0-2Z' />
  </symbol>

  <symbol id='zoom-out' viewBox='0 0 24 24'>
    <path
      d='m23.707 22.293-5.969-5.969a10.016 10.016 0 1 0-1.414 1.414l5.969 5.969a1 1 0 0 0 1.414-1.414ZM10 18a8 8 0 1 1 8-8 8.009 8.009 0 0 1-8 8Z'
    />
    <path d='M13 9H7a1 1 0 0 0 0 2h6a1 1 0 0 0 0-2Z' />
  </symbol>

  <symbol id='rotate-right' viewBox='0 0 512 452.64'>
    <path
      d='M368.35 161.02c-33.05-59.34-90.64-98.27-164.75-89.98-69.06 7.72-131.91 57.64-147.19 131.68-12.78 61.99 10.79 121.11 52.63 161.1 48.87 46.7 122.66 67.32 192.61 36.01 35.84-16.05 60.23-36.5 78.47-62.84 1.86-2.46 4.36-6.41 7.83-9 10.07-7.53 23.32 1.42 21.28 12.44-.43 2.36-1.49 4.88-3.36 7.53-15 23.71-31.64 41.83-53.38 58.4-49.84 37.98-114.27 55.13-178.91 41.8-60.24-12.42-109.19-48.92-139.52-97.8C-18.98 264.9-6.89 162.04 48.32 89.93c34.29-44.79 85.22-77.72 147.5-87.26 105.15-16.11 210.71 42.27 244.52 135.32l42.51-13.6c11.78-3.73 24.36 2.79 28.1 14.57a22.33 22.33 0 0 1-.9 15.89l-48.64 108.53c-5.04 11.3-18.29 16.36-29.59 11.32l-1.65-.82-.02.03-106.62-58.85c-10.86-5.96-14.83-19.6-8.87-30.46 3.15-5.74 8.44-9.55 14.34-11l39.35-12.58z'
    />
  </symbol>

  <symbol id='flip-horizontal' viewBox='0 0 512 417.79'>
    <path
      d='M333.55 16.79 511 392.75c2.46 5.22.22 11.45-4.99 13.91-1.45.68-2.97 1.01-4.46 1l-177.77.03c-5.78 0-10.47-4.7-10.47-10.48V20.58c0-5.78 4.69-10.47 10.47-10.47 4.44 0 8.25 2.77 9.77 6.68zM240.3 402.16c0 18.18 26.25 21.89 30.98 3.74.28-1.29.45-2.4.45-3.74v-9.45c0-18.18-26.25-21.89-30.98-3.74-.28 1.29-.45 2.4-.45 3.74v9.45zm0-72.3c0 18.18 26.25 21.89 30.98 3.74.28-1.29.45-2.4.45-3.74v-31.42c0-18.18-26.25-21.89-30.98-3.74-.28 1.29-.45 2.4-.45 3.74v31.42zm0-94.27c0 18.18 26.25 21.89 30.98 3.74.28-1.29.45-2.4.45-3.74v-31.42c0-18.18-26.25-21.89-30.98-3.73-.28 1.28-.45 2.39-.45 3.73v31.42zm0-94.26c0 18.17 26.25 21.88 30.98 3.73.28-1.28.45-2.39.45-3.73V109.9c0-18.17-26.25-21.89-30.98-3.73-.28 1.28-.45 2.39-.45 3.73v31.43zm0-94.27c0 18.17 26.25 21.89 30.98 3.73.28-1.28.45-2.39.45-3.73V15.63c0-18.17-26.25-21.88-30.98-3.73-.28 1.29-.45 2.39-.45 3.73v31.43zM1.33 392.11 178.79 16.12c2.46-5.21 8.7-7.45 13.91-4.99 3.78 1.78 5.99 5.54 5.99 9.45l.04 376.63c0 5.78-4.7 10.48-10.48 10.48H10.48c-5.79 0-10.48-4.7-10.48-10.48 0-1.85.48-3.59 1.33-5.1zm483.72-5.37L334.26 67.26v319.48h150.79z'
    />
  </symbol>

  <symbol id='upload-file' viewBox='0 0 24 24'>
    <path
      d='M8.71 7.71 11 5.41V15a1 1 0 0 0 2 0V5.41l2.29 2.3a1 1 0 0 0 1.42 0 1 1 0 0 0 0-1.42l-4-4a1 1 0 0 0-.33-.21 1 1 0 0 0-.76 0 1 1 0 0 0-.33.21l-4 4a1 1 0 1 0 1.42 1.42ZM21 12a1 1 0 0 0-1 1v6a1 1 0 0 1-1 1H5a1 1 0 0 1-1-1v-6a1 1 0 0 0-2 0v6a3 3 0 0 0 3 3h14a3 3 0 0 0 3-3v-6a1 1 0 0 0-1-1Z'
      fill='currentColor'
    />
  </symbol>

  <symbol id='refresh' viewBox='0 0 32 32'>
    <path
      d='M29.974 0c-1.12 0-2.026.908-2.026 2.026V6.75C25.664 3.984 23.032 0 15.788 0 7.084 0 0 7.082 0 15.788s7.084 15.788 15.788 15.788a15.77 15.77 0 0 0 15.004-10.864 2.062 2.062 0 1 0-3.92-1.29 11.65 11.65 0 0 1-11.084 8.028c-6.432 0-11.664-5.232-11.664-11.664s5.232-11.64 11.664-11.64c4.554 0 7.084 2.834 9.148 5.806h-5.094a2.026 2.026 0 1 0 0 4.052h10.132A2.021 2.021 0 0 0 32 11.982V2.026A2.027 2.027 0 0 0 29.974 0z'
    />
  </symbol>

  <symbol id='edit-photo' viewBox='0 0 56 56' fill='none'>
    <path
      d='M25.9008 15.3994H23.1008C16.1008 15.3994 13.3008 18.1994 13.3008 25.1994V33.5994C13.3008 40.5994 16.1008 43.3994 23.1008 43.3994H31.5008C38.5008 43.3994 41.3008 40.5994 41.3008 33.5994V30.7994'
      stroke='#FEFEFA' stroke-width='1.5' stroke-linecap='round' stroke-linejoin='round' />
    <path
      d='M32.9566 16.8276L21.9246 27.8596C21.5046 28.2796 21.0846 29.1056 21.0006 29.7076L20.3986 33.9216C20.1746 35.4476 21.2526 36.5116 22.7786 36.3016L26.9926 35.6996C27.5806 35.6156 28.4066 35.1956 28.8406 34.7756L39.8726 23.7436C41.7766 21.8396 42.6726 19.6276 39.8726 16.8276C37.0726 14.0276 34.8606 14.9236 32.9566 16.8276Z'
      stroke='#FEFEFA' stroke-width='1.5' stroke-miterlimit='10' stroke-linecap='round' stroke-linejoin='round' />
    <path d='M31.373 18.4092C32.311 21.7552 34.929 24.3732 38.289 25.3252' stroke='#FEFEFA' stroke-width='1.5'
          stroke-miterlimit='10' stroke-linecap='round' stroke-linejoin='round' />
  </symbol>

  <symbol id='feed-column' viewBox='0 0 22 24' fill='none'>
    <path stroke='currentColor' stroke-linecap='round' stroke-linejoin='round' stroke-width='1.5'
          d='M6.637 5H14.6c.549 0 1.036.02 1.47.09 2.326.29 2.954 1.53 2.954 4.91v4c0 3.38-.628 4.62-2.955 4.91-.433.07-.92.09-1.469.09H6.637c-.549 0-1.035-.02-1.469-.09-2.327-.29-2.955-1.53-2.955-4.91v-4c0-3.38.628-4.62 2.955-4.91.434-.07.92-.09 1.469-.09ZM3.982 2h13.273M4.424 22h13.272' />
  </symbol>

  <symbol id='feed-masonry' viewBox='0 0 22 24' fill='none'>
    <path stroke='currentColor' stroke-linecap='round' stroke-linejoin='round' stroke-width='1.5'
          d='M7.92 22h5.28c4.4 0 6.16-2 6.16-7V9c0-5-1.76-7-6.16-7H7.92c-4.4 0-6.16 2-6.16 7v6c0 5 1.76 7 6.16 7ZM10.56 2v20M1.76 9.5h8.8M10.56 14.5h8.8' />
  </symbol>

  <symbol id='hamburguer' viewBox='0 0 24 9'>
    <line y1='0.5' x2='24' y2='0.5' stroke='currentColor' />
    <line y1='8.5' x2='24' y2='8.5' stroke='currentColor' />
  </symbol>

  <symbol id='close' viewBox='0 0 24 24'>
    <path
      d='M6.69689 16.5966L16.5964 6.69715C16.7916 6.50188 17.1082 6.50188 17.3035 6.69715C17.4988 6.89241 17.4988 7.20899 17.3035 7.40425L7.404 17.3037C7.20874 17.499 6.89215 17.499 6.69689 17.3037C6.50163 17.1085 6.50163 16.7919 6.69689 16.5966Z'
      stroke='currentColor' />
    <path
      d='M7.40385 6.6964L17.3033 16.5959C17.4986 16.7912 17.4986 17.1077 17.3033 17.303C17.1081 17.4983 16.7915 17.4983 16.5962 17.303L6.69674 7.40351C6.50148 7.20825 6.50148 6.89166 6.69674 6.6964C6.892 6.50114 7.20858 6.50114 7.40385 6.6964Z'
      stroke='currentColor' />
  </symbol>

  <symbol id='moon' viewBox='0 0 26 26'>
    <path fill-rule='evenodd' clip-rule='evenodd'
          d='M18.7373 4.28252C19.8358 8.22624 18.8344 12.6321 15.7333 15.7333C12.6321 18.8344 8.22623 19.8358 4.28251 18.7373C4.65939 19.3032 5.09768 19.8406 5.5975 20.3404C9.66864 24.4116 16.2693 24.4116 20.3404 20.3404C24.4116 16.2693 24.4116 9.66864 20.3404 5.5975C19.8406 5.09768 19.3032 4.6594 18.7373 4.28252ZM15.2998 2.80627C17.3656 6.3042 16.8958 10.885 13.8904 13.8904C10.885 16.8958 6.3042 17.3656 2.80627 15.2998C2.6801 15.2253 2.55534 15.1475 2.43211 15.0664C2.02158 14.7962 1.62807 14.4894 1.2562 14.1459C1.16629 14.0629 1.07765 13.9777 0.990335 13.8904C0.624532 13.5246 -0.0486112 13.7563 0.00278195 14.2711C0.0208349 14.4519 0.0426582 14.6324 0.0682518 14.8125C0.139743 15.3155 0.240658 15.8152 0.370987 16.3087C0.426466 16.5188 0.487275 16.7277 0.553415 16.9353C1.16487 18.8548 2.23193 20.6606 3.75464 22.1833C8.84356 27.2722 17.0944 27.2722 22.1833 22.1833C27.2722 17.0944 27.2722 8.84356 22.1833 3.75464C20.6606 2.23193 18.8548 1.16487 16.9353 0.553415C16.7277 0.487275 16.5188 0.426466 16.3087 0.370987C15.8152 0.240658 15.3155 0.139743 14.8125 0.0682517C14.6324 0.0426582 14.4519 0.0208349 14.2711 0.00278196C13.7563 -0.0486112 13.5246 0.624532 13.8904 0.990335C13.9777 1.07765 14.0629 1.16629 14.1459 1.2562C14.4894 1.62807 14.7962 2.02159 15.0664 2.43211C15.1475 2.55534 15.2253 2.6801 15.2998 2.80627Z'
          fill='currentColor' />
  </symbol>

  <symbol id='sun' viewBox='0 0 22 22'>
    <path
      d='M9.95 1.55C9.95 0.970142 10.4201 0.5 11 0.5C11.5799 0.5 12.05 0.970142 12.05 1.55V2.6C12.05 3.17986 11.5799 3.65 11 3.65C10.4201 3.65 9.95 3.17986 9.95 2.6V1.55Z'
      fill='currentColor' />
    <path fill-rule='evenodd' clip-rule='evenodd'
          d='M11 16.25C13.8995 16.25 16.25 13.8995 16.25 11C16.25 8.10045 13.8995 5.75 11 5.75C8.10045 5.75 5.75 8.10045 5.75 11C5.75 13.8995 8.10045 16.25 11 16.25ZM11 14.15C12.7397 14.15 14.15 12.7397 14.15 11C14.15 9.2603 12.7397 7.85 11 7.85C9.2603 7.85 7.85 9.2603 7.85 11C7.85 12.7397 9.2603 14.15 11 14.15Z'
          fill='currentColor' />
    <path
      d='M11 18.35C10.4201 18.35 9.95 18.8201 9.95 19.4V20.45C9.95 21.0299 10.4201 21.5 11 21.5C11.5799 21.5 12.05 21.0299 12.05 20.45V19.4C12.05 18.8201 11.5799 18.35 11 18.35Z'
      fill='currentColor' />
    <path
      d='M3.5754 5.0603C3.16525 4.65014 3.16525 3.98543 3.5754 3.57527C3.98543 3.16525 4.65027 3.16525 5.0603 3.57527L5.80268 4.31779C6.21284 4.72781 6.21284 5.39265 5.80268 5.80268C5.39265 6.21271 4.72781 6.21271 4.31779 5.80268L3.5754 5.0603Z'
      fill='currentColor' />
    <path
      d='M16.1972 16.1972C15.7872 16.6072 15.7872 17.2721 16.1972 17.6821L16.9397 18.4246C17.3497 18.8346 18.0146 18.8346 18.4246 18.4246C18.8346 18.0146 18.8346 17.3497 18.4246 16.9397L17.6821 16.1972C17.2721 15.7872 16.6072 15.7872 16.1972 16.1972Z'
      fill='currentColor' />
    <path
      d='M1.55 12.05C0.970142 12.05 0.5 11.5799 0.5 11C0.5 10.4201 0.970142 9.95 1.55 9.95H2.6C3.17986 9.95 3.65 10.4201 3.65 11C3.65 11.5799 3.17986 12.05 2.6 12.05H1.55Z'
      fill='currentColor' />
    <path
      d='M18.35 11C18.35 11.5799 18.8201 12.05 19.4 12.05H20.45C21.0299 12.05 21.5 11.5799 21.5 11C21.5 10.4201 21.0299 9.95 20.45 9.95H19.4C18.8201 9.95 18.35 10.4201 18.35 11Z'
      fill='currentColor' />
    <path
      d='M4.43571 17.8786C3.99158 18.2513 3.32918 18.1934 2.95645 17.7492C2.58372 17.305 2.64166 16.6427 3.08591 16.2699L3.8902 15.595C4.33445 15.2223 4.99672 15.2802 5.36958 15.7244C5.74231 16.1686 5.68437 16.8309 5.24012 17.2037L4.43571 17.8786Z'
      fill='currentColor' />
    <path
      d='M16.6304 6.27538C17.0031 6.71963 17.6654 6.77757 18.1097 6.40484L18.914 5.72988C19.3582 5.35715 19.4161 4.69487 19.0434 4.25062C18.6707 3.80637 18.0084 3.74844 17.5642 4.12129L16.7597 4.79613C16.3156 5.16886 16.2577 5.83126 16.6304 6.27538Z'
      fill='currentColor' />
  </symbol>

  <symbol id='mobile-bar-home' fill='none' viewBox="0 0 31 32">
    <path d="M4 30.5H11.5V19.5C11.5 17.8431 12.8431 16.5 14.5 16.5H16.5C18.1569 16.5 19.5 17.8431 19.5 19.5V30.5H27C28.6569 30.5 30 29.1569 30 27.5V12.9931C30 12.3675 29.7072 11.7779 29.2088 11.3998L16.7088 1.917C15.9941 1.37484 15.0059 1.37484 14.2912 1.917L1.79123 11.3998C1.29278 11.7779 1 12.3675 1 12.9931V27.5C1 29.1569 2.34315 30.5 4 30.5Z" stroke="currentColor" stroke-width="1.5"/>
 </symbol>

  <symbol id='mobile-bar-discover' fill='none' viewBox='0 0 30 30'>
    <path stroke='currentColor' stroke-linecap='round' stroke-linejoin='round' stroke-width='1.5'
          d='m28.5 28.5-6.525-6.525M25.5 13.5c0 6.627-5.373 12-12 12s-12-5.373-12-12 5.373-12 12-12 12 5.373 12 12Z' />
  </symbol>

  <symbol id='mobile-bar-add' fill='none' viewBox='2 2 32 32'>
    <path stroke='currentColor' stroke-linecap='round' stroke-linejoin='round' stroke-width='1.5'
          d='M18 33c8.25 0 15-6.75 15-15S26.25 3 18 3 3 9.75 3 18s6.75 15 15 15ZM10 18h16M18 26V10' />
  </symbol>

  <symbol id='add-tab-create-post' fill="none" viewBox="0 0 38 39" >   
    <path d="M10 29.811H28" stroke="currentColor" stroke-width="2" stroke-miterlimit="10" stroke-linecap="round" stroke-linejoin="round"/>
    <path d="M18.8906 12.624C19.3206 15.4226 21.5606 17.5621 24.3406 17.8461" stroke="currentColor" stroke-width="2" stroke-miterlimit="10" stroke-linecap="round" stroke-linejoin="round"/>
    <path d="M20.2594 11.154L12.0494 19.9656C11.7394 20.3002 11.4394 20.9593 11.3794 21.4156L11.0094 24.7009C10.8794 25.8873 11.7194 26.6984 12.8794 26.4956L16.0994 25.938C16.5494 25.8568 17.1794 25.5222 17.4894 25.1775L25.6994 16.3659C27.1194 14.8449 27.7594 13.111 25.5494 10.9918C23.3494 8.89285 21.6794 9.63306 20.2594 11.154Z" stroke="currentColor" stroke-width="2" stroke-miterlimit="10" stroke-linecap="round" stroke-linejoin="round"/>
    <path d="M33 1.41943H5C2.79086 1.41943 1 3.23534 1 5.47538V33.867C1 36.107 2.79086 37.9229 5 37.9229H33C35.2091 37.9229 37 36.107 37 33.867V5.47538C37 3.23534 35.2091 1.41943 33 1.41943Z" stroke="currentColor" stroke-width="2" stroke-linecap="round" stroke-linejoin="round"/>
  </symbol>

  <symbol id='add-tab-add-artwork' fill="none" viewBox="0 0 38 39" >    
    <path fill-rule="evenodd" clip-rule="evenodd" d="M23.0019 29.9849C23.0019 29.9849 22.8331 29.8282 22.8133 29.7014C22.6043 28.3164 22.6523 26.9018 22.9546 25.5361C23.1169 24.8908 23.3163 24.2565 23.5517 23.6367C23.9247 22.4959 24.4616 21.4223 25.1437 20.4535C25.8512 19.4872 26.6193 18.5721 27.4428 17.7143C27.8836 17.2419 28.3105 16.7522 28.7329 16.2625C28.8273 16.1452 28.902 16.0117 28.9538 15.8678C29.0344 15.6616 28.9538 15.5214 28.7354 15.4563C28.5576 15.4027 28.3673 15.4215 28.202 15.5088C27.8794 15.6595 27.5712 15.8422 27.2816 16.0547C26.7672 16.4745 26.292 16.9369 25.797 17.3778C25.3363 17.7877 24.8771 18.1992 24.4039 18.5955C24.2606 18.7092 24.0997 18.7959 23.9283 18.8516C23.8772 18.8774 23.8208 18.8896 23.7642 18.8872C23.7076 18.8849 23.6524 18.8679 23.6034 18.8379C23.5543 18.808 23.513 18.7658 23.4829 18.7151C23.4528 18.6645 23.4349 18.6068 23.4308 18.5472C23.4133 18.3884 23.419 18.2276 23.4477 18.0706C23.5649 17.4994 23.7562 16.948 24.0163 16.432C24.5771 15.2385 25.1567 14.0534 25.7164 12.8599C25.8808 12.5081 26.0238 12.1456 26.1443 11.7745C26.2385 11.5093 26.2457 11.2184 26.1647 10.9484C26.1476 10.8853 26.1174 10.827 26.0763 10.7777C26.0352 10.7284 25.9842 10.6894 25.927 10.6635C25.8699 10.6377 25.8079 10.6255 25.7458 10.628C25.6836 10.6306 25.6228 10.6477 25.5676 10.6781C25.4227 10.7479 25.2905 10.844 25.1771 10.962C24.8215 11.3473 24.52 11.7842 24.2815 12.2595C23.6556 13.422 23.0526 14.5961 22.4198 15.755C22.1803 16.1714 21.9204 16.5743 21.6412 16.9621C21.5977 17.0408 21.5321 17.1032 21.4535 17.1409C21.3749 17.1785 21.2871 17.1894 21.2024 17.1721C21.1209 17.1481 21.0497 17.0954 21.0005 17.0229C20.9513 16.9504 20.927 16.8623 20.9317 16.7732C20.8821 16.3467 20.8686 15.9163 20.8914 15.4873C21.0168 14.2208 21.181 12.9586 21.3347 11.6947C21.4492 10.9065 21.5084 10.1104 21.5118 9.31294C21.5246 8.98082 21.4644 8.65009 21.3357 8.34668C21.2904 8.24574 21.2194 8.16003 21.1307 8.09906C21.042 8.03809 20.939 8.00426 20.8332 8.00133C20.7336 7.99362 20.6343 8.01959 20.5497 8.07546C20.4651 8.13133 20.3995 8.2142 20.3625 8.31204C20.2423 8.55727 20.1536 8.81832 20.0988 9.0883C19.8874 10.4177 19.7108 11.7525 19.4978 13.0819C19.3386 14.076 19.1496 15.0658 18.957 16.0547C18.8993 16.3245 18.8106 16.5859 18.6928 16.833C18.6688 16.8863 18.6318 16.9318 18.5855 16.9649C18.5392 16.998 18.4854 17.0174 18.4296 17.0212C18.3738 17.025 18.3181 17.013 18.2681 16.9865C18.2182 16.96 18.1759 16.9198 18.1456 16.8703C18.0725 16.7711 18.0156 16.6597 17.9774 16.5407C17.8824 16.23 17.7948 15.9161 17.7212 15.6001C17.3898 14.1773 17.0744 12.7512 16.7296 11.3315C16.6241 10.9561 16.4879 10.591 16.3226 10.2403C16.2809 10.1491 16.2211 10.0683 16.1473 10.0033C16.0735 9.93844 15.9874 9.89094 15.8948 9.86403C15.8426 9.83765 15.7856 9.82349 15.7277 9.82252C15.6698 9.82156 15.6124 9.83381 15.5594 9.85844C15.5064 9.88306 15.4591 9.91948 15.4208 9.9652C15.3824 10.0109 15.3538 10.0649 15.3371 10.1233C15.2902 10.2568 15.2616 10.3965 15.252 10.5385C15.2325 11.2955 15.3029 12.052 15.4614 12.7906C15.6997 14.1552 15.959 15.5198 16.1878 16.8881C16.3169 17.5969 16.3493 18.3216 16.2838 19.04C16.2548 19.3227 16.1878 19.5997 16.0848 19.8625C16.0531 19.9441 16.005 20.0174 15.9438 20.0775C15.8827 20.1376 15.8099 20.183 15.7305 20.2105C15.6511 20.238 15.567 20.2471 15.4839 20.237C15.4009 20.227 15.3209 20.198 15.2495 20.1522C15.0619 20.0542 14.8872 19.9307 14.7301 19.7848C14.3447 19.4038 14.0136 18.9661 13.747 18.4853C13.433 17.9291 12.9788 17.476 12.435 17.1763C12.1397 17.005 11.8152 16.8972 11.4802 16.859C11.1452 16.8208 10.8063 16.853 10.4832 16.9537C9.95782 17.1238 9.85732 17.4214 10.1986 17.846C10.4434 18.1441 10.7069 18.4247 10.9872 18.6858C11.9105 19.5414 12.7103 20.5348 13.3614 21.6344C13.6599 22.1477 13.9126 22.6883 14.241 23.1816C14.6957 23.8639 15.1913 24.5221 15.6898 25.1761C16.1975 25.8683 16.5058 26.7001 16.5779 27.572C16.6584 28.3787 16.6664 29.1917 16.6018 30L23.0019 29.9849ZM17.0834 20.697C17.5401 21.4647 18.2347 22.042 19.0491 22.3309C19.0169 22.305 18.9844 22.2792 18.9521 22.2536C18.8833 22.1989 18.8146 22.1443 18.7471 22.0873C18.5855 21.9667 18.462 21.7976 18.3925 21.602C18.3231 21.4064 18.3109 21.1934 18.3575 20.9904C18.4004 20.7818 18.4989 20.5906 18.6413 20.439C18.7838 20.2875 18.9642 20.182 19.1615 20.1349C19.2522 20.1073 19.3445 20.0853 19.4433 20.0618C19.4893 20.0509 19.5366 20.0396 19.5859 20.0273C18.7044 19.9519 17.8242 20.1875 17.0834 20.697ZM19.4302 22.4175C20.3 22.4836 21.1665 22.2473 21.8969 21.7446C21.4434 20.9728 20.7479 20.3935 19.9312 20.1065C20.0143 20.1721 20.0969 20.2383 20.1799 20.3039C20.3614 20.4235 20.5019 20.6012 20.581 20.811C20.66 21.0207 20.6734 21.2517 20.6193 21.4701C20.5677 21.6945 20.4529 21.8972 20.29 22.0515C20.1272 22.2058 19.9238 22.3045 19.7068 22.3345C19.6202 22.3539 19.5347 22.3765 19.4486 22.3986C19.4411 22.4007 19.4361 22.4112 19.4302 22.4175Z" fill="currentColor"/>
    <path d="M33 1.14697H5C2.79086 1.14697 1 2.96288 1 5.20292V33.5945C1 35.8346 2.79086 37.6505 5 37.6505H33C35.2091 37.6505 37 35.8346 37 33.5945V5.20292C37 2.96288 35.2091 1.14697 33 1.14697Z" stroke="currentColor" stroke-width="2" stroke-linecap="round" stroke-linejoin="round"/>
  </symbol>

  <symbol id='edit-post' fill="none" viewBox="0 0 42 42" >  
    <path d="M20.8073 8.83691C21.5598 13.6669 25.4797 17.3594 30.3447 17.8494" stroke="currentColor" stroke-width="2" stroke-miterlimit="10" stroke-linecap="round" stroke-linejoin="round"/>
    <path d="M23.1997 6.30111L8.83224 21.5086C8.28974 22.0861 7.76474 23.2236 7.65974 24.0111L7.01224 29.6811C6.78474 31.7286 8.25474 33.1286 10.2847 32.7786L15.9197 31.8161C16.7072 31.6761 17.8097 31.0986 18.3522 30.5036L32.7197 15.2961C35.2047 12.6711 36.3247 9.67861 32.4572 6.02111C28.6072 2.39861 25.6847 3.67611 23.1997 6.30111Z" stroke="currentColor" stroke-width="2" stroke-miterlimit="10" stroke-linecap="round" stroke-linejoin="round"/>
    <path d="M13 23.6364L20 16M16.1818 26.1818L23.1818 18.5455" stroke="currentColor" stroke-linecap="round" stroke-linejoin="round"/>
  </symbol>

  <symbol id='delete-post' fill="none" viewBox="0 0 38 38" >     
    <path d="M4.75 9.5H7.91667H33.25" stroke="var(--errorMessage)" stroke-width="2" stroke-linecap="round" stroke-linejoin="round"/>
    <path d="M30.0833 9.49984V31.6665C30.0833 32.5064 29.7497 33.3118 29.1558 33.9057C28.5619 34.4995 27.7565 34.8332 26.9166 34.8332H11.0833C10.2434 34.8332 9.43799 34.4995 8.84412 33.9057C8.25026 33.3118 7.91663 32.5064 7.91663 31.6665V9.49984M12.6666 9.49984V6.33317C12.6666 5.49332 13.0003 4.68786 13.5941 4.094C14.188 3.50013 14.9934 3.1665 15.8333 3.1665H22.1666C23.0065 3.1665 23.8119 3.50013 24.4058 4.094C24.9997 4.68786 25.3333 5.49332 25.3333 6.33317V9.49984" stroke="var(--errorMessage)" stroke-width="2" stroke-linecap="round" stroke-linejoin="round"/>
    <path d="M15.8334 17.4165V26.9165" stroke="var(--errorMessage)" stroke-width="2" stroke-linecap="round" stroke-linejoin="round"/>
    <path d="M22.1666 17.4165V26.9165" stroke="var(--errorMessage)" stroke-width="2" stroke-linecap="round" stroke-linejoin="round"/>    
  </symbol>

  
</svg>

