<svg width="32" height="6" viewBox="0 0 32 6" fill="none" xmlns="http://www.w3.org/2000/svg">
  <path
    d="M16 4.83317C17.0126 4.83317 17.8334 4.01236 17.8334 2.99984C17.8334 1.98732 17.0126 1.1665 16 1.1665C14.9875 1.1665 14.1667 1.98732 14.1667 2.99984C14.1667 4.01236 14.9875 4.83317 16 4.83317Z"
    stroke="#FEFEFA"
    stroke-linecap="round"
    stroke-linejoin="round"
  />
  <path
    d="M28.8334 4.83317C29.8459 4.83317 30.6667 4.01236 30.6667 2.99984C30.6667 1.98732 29.8459 1.1665 28.8334 1.1665C27.8209 1.1665 27 1.98732 27 2.99984C27 4.01236 27.8209 4.83317 28.8334 4.83317Z"
    stroke="#FEFEFA"
    stroke-linecap="round"
    stroke-linejoin="round"
  />
  <path
    d="M3.16671 4.83317C4.17923 4.83317 5.00004 4.01236 5.00004 2.99984C5.00004 1.98732 4.17923 1.1665 3.16671 1.1665C2.15419 1.1665 1.33337 1.98732 1.33337 2.99984C1.33337 4.01236 2.15419 4.83317 3.16671 4.83317Z"
    stroke="#FEFEFA"
    stroke-linecap="round"
    stroke-linejoin="round"
  />
</svg>