<svg xmlns="http://www.w3.org/2000/svg" width="107.892" height="108.057" viewBox="0 0 107.892 108.057">
  <path id="Trazado_251" data-name="Trazado 251" d="M618.62,687.331c-.02-.086-.04-.171-.06-.257a24.863,24.863,0,0,0-1.126-4.4,44.791,44.791,0,0,1-1.452-9.125c-.182-4.68-.363-9.387.751-14.024a4.936,4.936,0,0,0,.29-2.16c.6-2.2,1.194-4.4,1.975-6.546a53.8,53.8,0,0,1,8.609-15.177,52.83,52.83,0,0,1,14.848-12.817,51.556,51.556,0,0,1,12.362-5.214,63.509,63.509,0,0,1,7.825-1.639,45.178,45.178,0,0,1,10.769-.385,59.34,59.34,0,0,1,17.051,4.068,50,50,0,0,1,14.544,9.058,19.356,19.356,0,0,0,3.795,3.1c-.015.179.036.306.242.316h0c-.025.172.053.239.219.216h0c-.137.508.29.718.561.967a30.766,30.766,0,0,1,4.693,6.284,3.238,3.238,0,0,0,1.278,1.763l.555,1.076c-.079.413.217.554.508.7a6.223,6.223,0,0,0,.827,2.013,35.611,35.611,0,0,1,2.552,5.253,41.279,41.279,0,0,1,3.266,14.614c.059.864-.245,1.758.208,2.591q.011,2.084.023,4.17a48.857,48.857,0,0,1-2.322,13.8,53.661,53.661,0,0,1-6.669,13.893c-1.273,1.867-2.706,3.6-4.026,5.424-.3.419-.616.826-1.2.834a10.988,10.988,0,0,0-3.048-2.206,1.608,1.608,0,0,0-.942-.447l-.074.005a.343.343,0,0,0-.366-.189l-.038-.046-.055.024-.345-.21-.084-.013c-3.064-1.029-6.176-1.89-9.324-2.622l.009.006c-2.628-.978-5.343-1.673-8.039-2.424-.957-.267-1.865-.823-2.924-.629l-5.745-5.326q-.008-2.253-.017-4.509l.457-.32h.1l.024-.093c1.7-1.2,3.449-2.355,4.526-4.225l-.019.022c.154.007.177-.091.169-.213a15.572,15.572,0,0,0,2.433-6.555c.253-.06.291-.238.253-.459l.007-.037a1.208,1.208,0,0,0,.231-.845,14.108,14.108,0,0,1,.692-2.814c1.2.22,1.652-.741,2.068-1.494a16.323,16.323,0,0,0,1.805-6.517c.136-1.5-.412-2-1.97-2.052a13.491,13.491,0,0,1,.371-3.348,31.649,31.649,0,0,0,.421-6.356,34.262,34.262,0,0,0-.5-6.008c-.922-5.222-3.126-9.6-7.579-12.648-3.133-2.147-6.719-2.9-10.422-3.242a.442.442,0,0,0-.682-.022,18.962,18.962,0,0,0-11.022,2.873,6.755,6.755,0,0,0-3.18,3.615,1.787,1.787,0,0,1-1.107,1.193,7.683,7.683,0,0,0-5.029,6.456,84.737,84.737,0,0,0-.695,13.6,17.893,17.893,0,0,0,.163,4.009c-.182,0-.364-.009-.545-.01-1.645-.011-2.1.432-1.986,2.078a16.451,16.451,0,0,0,.431,2.567c.542,2.31,1.144,4.6,3.538,5.782.682.384.512,1.094.647,1.688-.037.141.029.2.163.206q.038.221.077.443c-.027.3-.2.675.366.627.343,1.205.624,2.433,1.046,3.609.481,1.341.785,2.8,2.028,3.741-.22.505.245.7.472.976a23.885,23.885,0,0,0,4.841,3.966q-.036,1.954-.072,3.908a46.288,46.288,0,0,0-4.2,3.788,13.914,13.914,0,0,0-2.615,2.6.978.978,0,0,0-.185.032,1.175,1.175,0,0,0-.418-.049q-4.166,1.108-8.326,2.235c-.6.133-1.2.25-1.8.4-2.5.638-4.993,1.294-7.493,1.929a16.942,16.942,0,0,0-6.134,3.4c-.4-.074-.595-.4-.837-.665a46.845,46.845,0,0,1-7.836-11.7c-.313-.656-.894-1.192-.921-1.979a2.947,2.947,0,0,0-.814-1.847.4.4,0,0,0-.067-.132,2.355,2.355,0,0,0-.781-1.921" transform="translate(-615.846 -615.416)" fill="#b8a888"/>
  <path id="Trazado_326" data-name="Trazado 326" d="M783.944,811.04l.074,0c.082.639.569.423.942.447a10.981,10.981,0,0,1,3.049,2.205,44.043,44.043,0,0,1-8.2,7.462,58.135,58.135,0,0,1-9.187,5.414c-1.15.453-2.29.931-3.452,1.352a47.736,47.736,0,0,1-11.622,2.872,2.982,2.982,0,0,1,1-2.438c.358-.359.66-.772,1.01-1.139,1.931-2.024,3.623-4.252,5.427-6.384,1.921-2.27,3.886-4.5,5.754-6.816,1.2-1.484,1.132-1.532.049-3.012-.214-.293-.393-.611-.58-.923-.135-.227-.276-.557-.046-.7,1-.633,2.032-1.216,3.064-1.8a.469.469,0,0,1,.414.072c.64.53,1.391.3,2.1.34l-.009-.006a.428.428,0,0,0,.387.442c2.052.363,3.983,1.18,6,1.629.964.214,1.881.783,2.932.551l.084.013.345.211.054-.025.039.046.365.188" transform="translate(-694.338 -723.38)" fill="#372014"/>
  <path id="Trazado_327" data-name="Trazado 327" d="M673.105,829.659a31.379,31.379,0,0,1-4.214-1.272,2.778,2.778,0,0,0-1.235-.314c-3.213-1.709-6.6-3.106-9.6-5.2a64.593,64.593,0,0,1-9.9-8.318,1.431,1.431,0,0,1-.283-.683,16.929,16.929,0,0,1,6.133-3.4c2.5-.635,4.994-1.291,7.493-1.929.6-.152,1.2-.269,1.8-.4a.508.508,0,0,0,.6.155,1.245,1.245,0,0,1,1.568.31c.421.438,1.021.7,1.44,1.142a.828.828,0,0,1-.058,1.022,3.091,3.091,0,0,1-.866.957.908.908,0,0,0-.267,1.49c1.129,1.146,1.867,2.58,2.983,3.752,1.647,1.73,3.156,3.6,4.673,5.452,1.817,2.213,3.353,4.655,5.475,6.62.238.22.755.448.482.843-.195.28-.677.139-1.034.054-.769-.183-1.472-1.226-2.347-.168-.061.074-.356,0-.52-.063a.783.783,0,0,0-.956.3,1.459,1.459,0,0,1-.885-.205c-.058-.377-.176-.563-.48-.149" transform="translate(-633.983 -723.712)" fill="#372014"/>
  <path id="Trazado_328" data-name="Trazado 328" d="M622.179,779.571a2.355,2.355,0,0,1,.781,1.921,4.079,4.079,0,0,1-.781-1.921" transform="translate(-619.619 -707.656)" fill="#a4a3a4"/>
  <path id="Trazado_329" data-name="Trazado 329" d="M624.115,784.258a2.948,2.948,0,0,1,.814,1.847,2.575,2.575,0,0,1-.814-1.847" transform="translate(-620.706 -710.29)" fill="#a4a3a4"/>
  <path id="Trazado_356" data-name="Trazado 356" d="M702.177,716.383c-1.244-.938-1.547-2.4-2.028-3.741-.422-1.177-.7-2.4-1.046-3.609q-.008-.316-.016-.633,0-.657-.007-1.315c-.008-.143-.017-.287-.025-.43a31.564,31.564,0,0,1-.52-4.667c-.139-2.095-.429-4.242.445-6.326A16.33,16.33,0,0,0,700.5,688.8a33.782,33.782,0,0,1-.056-5.237c.8-6.7,4.271-8.224,9.083-7.484a41.6,41.6,0,0,0,13.268.18,6.831,6.831,0,0,1,7.51,4.167,10.176,10.176,0,0,1,.785,4.919,10.514,10.514,0,0,0,1.391,6.281,8.782,8.782,0,0,1,1.048,5.158c-.307,3.325-.661,6.648-.715,9.992a2.807,2.807,0,0,0-.149,1.4q-.016.455-.032.91c-.171.209-.394.415-.045.661a15.588,15.588,0,0,1-2.433,6.555c-.083.05-.248.035-.169.213l.019-.022c-1.354.224-2.6.85-3.987,1-.721.078-.845-.085-.88-.75a6.778,6.778,0,0,0-1.187-3.24c-1.538-2.445-6.457-3.7-8.108-1.2a2.365,2.365,0,0,0-2.315-1.335,6.172,6.172,0,0,0-6.754,5.928c-.053.552-.2.643-.728.579a15.363,15.363,0,0,1-3.871-1.088" transform="translate(-662.22 -649.409)" fill="#724636"/>
  <path id="Trazado_357" data-name="Trazado 357" d="M730.03,691.33c.055-3.344.407-6.668.714-9.992a8.77,8.77,0,0,0-1.048-5.158,10.522,10.522,0,0,1-1.391-6.281,10.172,10.172,0,0,0-.785-4.919,6.83,6.83,0,0,0-7.51-4.167,41.587,41.587,0,0,1-13.267-.18c-4.812-.74-8.279.785-9.083,7.484a33.775,33.775,0,0,0,.056,5.237,16.337,16.337,0,0,1-1.521,6.856c-.875,2.084-.584,4.232-.445,6.327a31.5,31.5,0,0,0,.519,4.667c-.183.155-.161.3.026.43q0,.658.007,1.316l-.35,0c-.025-.148-.052-.3-.077-.443l.094-.137-.257-.069c-.135-.594.035-1.3-.644-1.687.288-.182.184-.465.123-.682a50.836,50.836,0,0,1-1.563-9.737,17.863,17.863,0,0,1-.163-4.009,84.736,84.736,0,0,1,.695-13.6,7.684,7.684,0,0,1,5.029-6.457,1.787,1.787,0,0,0,1.107-1.193,6.757,6.757,0,0,1,3.18-3.615,18.957,18.957,0,0,1,11.022-2.873l.681.021c3.7.343,7.29,1.1,10.423,3.242,4.454,3.051,6.658,7.426,7.579,12.648a34.262,34.262,0,0,1,.5,6.008,31.713,31.713,0,0,1-.421,6.356,13.45,13.45,0,0,0-.372,3.347c-.375,1.945-.535,3.918-1.009,5.861a24.4,24.4,0,0,0-.894,4.2,14.1,14.1,0,0,0-.692,2.814c-.321.215-.215.547-.23.845l-.007.037-.208-.2q.016-.455.032-.91c.329-.435.16-.924.149-1.4" transform="translate(-659.433 -633.96)" fill="#201210"/>
  <path id="Trazado_358" data-name="Trazado 358" d="M694.257,826.273a.782.782,0,0,1,.955-.3c.163.064.458.137.52.063.875-1.058,1.578-.016,2.347.168.357.085.84.226,1.034-.054.274-.395-.244-.622-.481-.843-2.123-1.965-3.659-4.407-5.475-6.62-1.518-1.849-3.026-3.722-4.673-5.452-1.116-1.172-1.854-2.606-2.982-3.752a.908.908,0,0,1,.267-1.489,3.091,3.091,0,0,0,.866-.957.827.827,0,0,0,.058-1.023c-.419-.438-1.019-.7-1.44-1.142a1.245,1.245,0,0,0-1.568-.31.508.508,0,0,1-.6-.155q4.162-1.121,8.325-2.236a1.188,1.188,0,0,1,.418.05c-1.7,1.576-1.728,3.266-.513,5.2.794,1.266,1.367,1.279,2.551.394.346-.258.671-.545,1.005-.818l.286.429a9.867,9.867,0,0,0-1.762,1.43,4.386,4.386,0,0,0,2.446-.132c.517.221.649.753.91,1.167q3.142,5.01,6.251,10.04l.259.468,4.213,6.807,3.7-6.633a.323.323,0,0,0,.189-.361l8.434-14.588.737-1.47a11.31,11.31,0,0,0,1.536-2.627c1.06-.194,1.967.363,2.924.629,2.7.751,5.41,1.445,8.038,2.424-.712-.037-1.463.19-2.1-.34a.468.468,0,0,0-.414-.072c-1.032.58-2.065,1.162-3.064,1.8-.23.146-.089.476.046.7.187.312.366.63.58.923,1.082,1.48,1.149,1.528-.05,3.013-1.868,2.312-3.834,4.546-5.754,6.816-1.8,2.132-3.5,4.36-5.427,6.384-.35.367-.653.78-1.01,1.139a2.983,2.983,0,0,0-1,2.438,18.263,18.263,0,0,1-4.389.461l-.216.02a7.9,7.9,0,0,1-2.207.092,1.911,1.911,0,0,0-1.485,0l-2.213-.1-.427-.013a46.376,46.376,0,0,1-9.644-1.564m-4.319-20.95c-.384.619-.142,1.307-.888,1.281-.15-.005-.235.148-.224.315s.175.307.282.251c.85-.435.966.431,1.557,1.034-.03-1.14-.57-1.829-.727-2.881" transform="translate(-653.629 -719.972)" fill="#201210"/>
  <path id="Trazado_359" data-name="Trazado 359" d="M706.98,761.3a15.362,15.362,0,0,0,3.871,1.088c.528.064.675-.027.728-.579a6.172,6.172,0,0,1,6.754-5.928,2.366,2.366,0,0,1,2.315,1.335c1.651-2.5,6.57-1.244,8.108,1.2a6.777,6.777,0,0,1,1.187,3.24c.035.665.159.828.88.75,1.387-.149,2.632-.775,3.987-1-1.078,1.87-2.823,3.026-4.525,4.224l-.1.011-.03.084-.456.32a.74.74,0,0,0-.63.374c-.917.427-1.817.9-2.754,1.274-2.65,1.067-5.323,1.872-8.229.961a36.882,36.882,0,0,1-5.8-2.414,23.9,23.9,0,0,1-4.842-3.966c-.227-.277-.692-.471-.472-.976m15.154,3.842c-.076,1.284.509,2.344,1.32,2.436.868.1,3.8-1.519,4.163-2.353a5.338,5.338,0,0,0-.357-5.508,4.669,4.669,0,0,0-4.776-1.99,6.228,6.228,0,0,1-3.493.015,3.42,3.42,0,0,0-2.461.218,4.766,4.766,0,0,0-3.16,4.1c-.223,1.988.36,3.585,2.412,4.362.644.244,1.238.623,1.879.875a1.5,1.5,0,0,0,1.957-1.634,3.378,3.378,0,0,1-.069-1.507,1.11,1.11,0,0,1,1.03-.973c.518-.029,1.037-.033,1.347.5a2.9,2.9,0,0,1,.206,1.46" transform="translate(-667.022 -694.33)" fill="#724636"/>
  <path id="Trazado_360" data-name="Trazado 360" d="M703.466,794.884a13.931,13.931,0,0,1,2.615-2.6,46.307,46.307,0,0,1,4.2-3.787q3.628,1.882,7.255,3.766c.473.247,1.043.41,1.1,1.085-.212.378-.637.608-.74,1.061-.874,1.1-1.773,2.189-2.612,3.319a10.785,10.785,0,0,0-1.87,2.615,1.692,1.692,0,0,1-.952-.128c-1.243-.733-2.471-1.492-3.738-2.182a25.841,25.841,0,0,0-4.752-2.508l-.006-.013a.318.318,0,0,0-.3-.381l-.2-.245" transform="translate(-665.08 -712.67)" fill="#fefdfe"/>
  <path id="Trazado_361" data-name="Trazado 361" d="M753.475,794.516a11.31,11.31,0,0,1-1.536,2.627,1.485,1.485,0,0,0-.9.34c-1.763,1.007-3.509,2.043-5.282,3.032-.432.241-.86.774-1.46.3a2.539,2.539,0,0,0-.669-1.09q-2.322-3.041-4.652-6.075c.878-.509,1.744-1.039,2.636-1.523a55.08,55.08,0,0,0,5.709-3.117l.407.181,5.746,5.326" transform="translate(-685.034 -712.959)" fill="#fefdfe"/>
  <path id="Trazado_362" data-name="Trazado 362" d="M736.107,783.706a55.121,55.121,0,0,1-5.709,3.117c-.892.483-1.758,1.014-2.636,1.522l-.389-.014c-.056-.675-.626-.839-1.1-1.085q-3.624-1.891-7.256-3.766.036-1.955.072-3.908a36.8,36.8,0,0,0,5.8,2.414c2.906.912,5.579.107,8.229-.96.937-.378,1.837-.847,2.754-1.274.514,1.292.13,2.637.238,3.954" transform="translate(-673.819 -707.657)" fill="#724636"/>
  <path id="Trazado_363" data-name="Trazado 363" d="M690.627,720.955a50.865,50.865,0,0,0,1.563,9.737c.061.217.165.5-.123.682-2.4-1.184-3-3.473-3.541-5.783a16.508,16.508,0,0,1-.431-2.567c-.119-1.646.341-2.089,1.986-2.078.181,0,.363.007.545.01" transform="translate(-656.583 -674.713)" fill="#724636"/>
  <path id="Trazado_364" data-name="Trazado 364" d="M779.174,730.747a24.479,24.479,0,0,1,.893-4.2c.474-1.942.635-3.916,1.01-5.861,1.558.048,2.106.554,1.971,2.053a16.32,16.32,0,0,1-1.805,6.517c-.417.753-.867,1.714-2.068,1.494" transform="translate(-707.621 -674.566)" fill="#724636"/>
  <path id="Trazado_365" data-name="Trazado 365" d="M701.486,803.08l.2.245c.041.172.083.342.3.381l.006.013a4.191,4.191,0,0,0,.74,1.339l1.614,2.834c-.335.273-.66.559-1.005.818-1.184.885-1.757.872-2.551-.394-1.214-1.937-1.186-3.627.513-5.2a.982.982,0,0,1,.185-.032" transform="translate(-663.101 -720.866)" fill="#372014"/>
  <path id="Trazado_366" data-name="Trazado 366" d="M806.4,811.157c-1.051.232-1.968-.337-2.932-.551-2.022-.449-3.953-1.267-6-1.629a.428.428,0,0,1-.387-.442c3.148.732,6.259,1.593,9.324,2.622" transform="translate(-717.679 -723.932)" fill="#201210"/>
  <path id="Trazado_367" data-name="Trazado 367" d="M757.72,783.457c-.107-1.316.276-2.662-.238-3.954a.742.742,0,0,1,.63-.374q.008,2.256.016,4.51l-.408-.182" transform="translate(-695.432 -707.408)" fill="#b8a888"/>
  <path id="Trazado_368" data-name="Trazado 368" d="M821.492,815.947c-.373-.024-.86.191-.942-.447a1.6,1.6,0,0,1,.942.447" transform="translate(-730.871 -727.845)" fill="#201210"/>
  <path id="Trazado_369" data-name="Trazado 369" d="M699.144,750.073l.35-.005q.008.317.016.633c-.561.047-.393-.331-.366-.627" transform="translate(-662.626 -691.078)" fill="#372014"/>
  <path id="Trazado_370" data-name="Trazado 370" d="M776.283,751.632l.207.2c.039.221,0,.4-.253.459-.349-.245-.126-.451.046-.661" transform="translate(-705.868 -691.957)" fill="#372014"/>
  <path id="Trazado_371" data-name="Trazado 371" d="M777.062,750.923c.016-.3-.09-.63.231-.845a1.215,1.215,0,0,1-.231.845" transform="translate(-706.432 -691.084)" fill="#372014"/>
  <path id="Trazado_372" data-name="Trazado 372" d="M742.216,648.327l-.682-.021a.442.442,0,0,1,.682.021" transform="translate(-686.471 -633.789)" fill="#076280"/>
  <path id="Trazado_373" data-name="Trazado 373" d="M759.961,778.277l.03-.084.1-.011-.025.094Z" transform="translate(-696.825 -706.876)" fill="#a4a3a4"/>
  <path id="Trazado_374" data-name="Trazado 374" d="M698.64,748.6l.257.069-.094.137c-.134-.006-.2-.065-.163-.206" transform="translate(-662.363 -690.253)" fill="#372014"/>
  <path id="Trazado_375" data-name="Trazado 375" d="M770.509,768.315c-.079-.178.086-.163.169-.213.008.123-.015.22-.169.213" transform="translate(-702.741 -701.212)" fill="#a9a8a8"/>
  <path id="Trazado_376" data-name="Trazado 376" d="M818.893,814.761l-.345-.21.345.21" transform="translate(-729.746 -727.312)" fill="#201210"/>
  <path id="Trazado_377" data-name="Trazado 377" d="M819.912,815.268l-.365-.188a.341.341,0,0,1,.365.188" transform="translate(-730.307 -727.608)" fill="#201210"/>
  <path id="Trazado_486" data-name="Trazado 486" d="M736.622,861.7a1.909,1.909,0,0,1,1.485,0,3.618,3.618,0,0,1-1.485,0" transform="translate(-683.711 -753.721)" fill="#761b22"/>
  <path id="Trazado_487" data-name="Trazado 487" d="M705.466,856.953c.3-.414.422-.227.48.149l-.48-.149" transform="translate(-666.204 -751.006)" fill="#201210"/>
  <path id="Trazado_488" data-name="Trazado 488" d="M730.6,861.631l.427.013a.266.266,0,0,1-.427-.013" transform="translate(-680.325 -753.767)" fill="#761b22"/>
  <path id="Trazado_489" data-name="Trazado 489" d="M745.05,861.661l.216-.02-.216.02" transform="translate(-688.447 -753.772)" fill="#761b22"/>
  <path id="Trazado_492" data-name="Trazado 492" d="M776.772,746.37c.01.471.179.96-.149,1.4a2.8,2.8,0,0,1,.149-1.4" transform="translate(-706.175 -689)" fill="#372014"/>
  <path id="Trazado_493" data-name="Trazado 493" d="M699.789,746.514c-.187-.133-.208-.276-.026-.43.009.143.017.287.026.43" transform="translate(-662.929 -688.84)" fill="#372014"/>
  <path id="Trazado_494" data-name="Trazado 494" d="M737.051,833.162l-3.7,6.634-4.213-6.807c.107-.14.278-.266.313-.422.644-2.89,1.271-5.783,1.9-8.675l3.961.088q.416,2.512.831,5.023l.905,4.16" transform="translate(-679.505 -732.561)" fill="#e96733"/>
  <path id="Trazado_495" data-name="Trazado 495" d="M707.92,810.427l-1.614-2.834a1.79,1.79,0,0,1,1.007.367c2.133,1.308,4.281,2.592,6.4,3.928.764.483,1.319.513,1.7-.406a13.223,13.223,0,0,1,2.03,2.162.189.189,0,0,0,.186.229l.026.029a.19.19,0,0,0,.2.212l.205.216a.212.212,0,0,0,.194.239l.018.014c-.422,2.152-.952,4.282-1.44,6.417-.175.764.106,1.8-.783,2.362q-3.121-5.022-6.251-10.04c-.26-.414-.392-.947-.91-1.168a1.976,1.976,0,0,0-.683-1.3l-.286-.429" transform="translate(-666.676 -723.402)" fill="#fefdfe"/>
  <path id="Trazado_496" data-name="Trazado 496" d="M744.067,821.72q-.416-2.512-.832-5.023l.375-.437.872-.807c.658-.609,1.008-1.525,1.9-1.9.216.911.7,1.1,1.483.573a17.006,17.006,0,0,1,1.66-1.016c1.37-.7,2.532-1.8,4.07-2.181L745.16,825.52a22.156,22.156,0,0,0-.53-2.4c-.155-.469.1-1.134-.563-1.4" transform="translate(-687.427 -725.278)" fill="#fefdfe"/>
  <path id="Trazado_497" data-name="Trazado 497" d="M757.63,809.04c-1.539.385-2.7,1.478-4.07,2.181a17.006,17.006,0,0,0-1.66,1.016c-.784.524-1.267.338-1.483-.573a.48.48,0,0,1,.308-.424c.6.477,1.027-.056,1.46-.3,1.773-.989,3.518-2.025,5.281-3.032a1.483,1.483,0,0,1,.9-.34l-.737,1.47" transform="translate(-691.462 -723.386)" fill="#ccc"/>
  <path id="Trazado_498" data-name="Trazado 498" d="M728.548,832.327c.89-.562.608-1.6.783-2.362.488-2.135,1.019-4.265,1.44-6.417l.25.151c-.631,2.892-1.258,5.785-1.9,8.675-.035.156-.205.281-.313.421l-.258-.468" transform="translate(-679.174 -732.367)" fill="#ebb193"/>
  <path id="Trazado_499" data-name="Trazado 499" d="M708.382,815.042a1.974,1.974,0,0,1,.683,1.3,4.386,4.386,0,0,1-2.446.132,9.856,9.856,0,0,1,1.762-1.43" transform="translate(-666.853 -727.588)" fill="#372014"/>
  <path id="Trazado_500" data-name="Trazado 500" d="M697.3,810.242c.157,1.052.7,1.741.727,2.881-.591-.6-.708-1.469-1.557-1.034-.107.055-.27-.072-.282-.251s.074-.32.224-.315c.746.026.5-.662.888-1.281" transform="translate(-660.989 -724.891)" fill="#372014"/>
  <path id="Trazado_501" data-name="Trazado 501" d="M745.134,835.558c.667.265.408.93.563,1.4a22.183,22.183,0,0,1,.53,2.4.322.322,0,0,1-.189.36q-.452-2.08-.9-4.16" transform="translate(-688.494 -739.116)" fill="#ebb193"/>
  <path id="Trazado_502" data-name="Trazado 502" d="M730.349,767.379a2.9,2.9,0,0,0-.206-1.46c-.31-.533-.829-.529-1.347-.5a1.11,1.11,0,0,0-1.03.973,3.379,3.379,0,0,0,.069,1.507,1.5,1.5,0,0,1-1.957,1.634c-.642-.252-1.235-.631-1.879-.875-2.052-.777-2.635-2.375-2.412-4.363a4.766,4.766,0,0,1,3.16-4.1,3.419,3.419,0,0,1,2.461-.218,6.228,6.228,0,0,0,3.493-.015,4.669,4.669,0,0,1,4.776,1.99,5.338,5.338,0,0,1,.357,5.508c-.363.834-3.295,2.451-4.163,2.353-.812-.092-1.4-1.152-1.32-2.436" transform="translate(-675.236 -696.564)" fill="#724636"/>
  <path id="Trazado_503" data-name="Trazado 503" d="M729.684,811.585l-.25-.15-.018-.014a.19.19,0,0,0-.194-.239l-.206-.216c0-.137-.061-.213-.2-.212l-.026-.029a.185.185,0,0,0-.186-.229,13.222,13.222,0,0,0-2.029-2.161.638.638,0,0,0-.4-.41,10.79,10.79,0,0,1,1.87-2.615c.839-1.13,1.738-2.215,2.612-3.319a12.668,12.668,0,0,0,3.37,9.245l-.375.437-3.961-.088" transform="translate(-677.837 -720.254)" fill="#742811"/>
  <path id="Trazado_504" data-name="Trazado 504" d="M739.763,809.875a12.668,12.668,0,0,1-3.37-9.245c.1-.453.528-.683.74-1.061l.389.013q2.327,3.037,4.652,6.075a2.537,2.537,0,0,1,.669,1.09.479.479,0,0,0-.309.423c-.892.375-1.242,1.291-1.9,1.9l-.872.807" transform="translate(-683.58 -718.893)" fill="#e96733"/>
  <path id="Trazado_505" data-name="Trazado 505" d="M714.059,809.355a.639.639,0,0,1,.4.41c-.381.92-.937.888-1.7.406-2.116-1.336-4.264-2.62-6.4-3.928a1.794,1.794,0,0,0-1.006-.367,4.191,4.191,0,0,1-.74-1.339,25.815,25.815,0,0,1,4.751,2.508c1.266.69,2.5,1.448,3.738,2.182a1.691,1.691,0,0,0,.952.128" transform="translate(-665.728 -721.685)" fill="#ccc"/>
  <path id="Trazado_506" data-name="Trazado 506" d="M704.225,804.02c-.213-.039-.255-.209-.3-.381a.318.318,0,0,1,.3.381" transform="translate(-665.34 -721.18)" fill="#ccc"/>
  <path id="Trazado_612" data-name="Trazado 612" d="M731.717,821.405a.184.184,0,0,1,.186.229.19.19,0,0,1-.186-.229" transform="translate(-680.954 -731.163)" fill="#ebb193"/>
  <path id="Trazado_613" data-name="Trazado 613" d="M732.2,821.995c.143,0,.205.074.2.212a.19.19,0,0,1-.2-.212" transform="translate(-681.229 -731.495)" fill="#ebb193"/>
  <path id="Trazado_614" data-name="Trazado 614" d="M733.137,822.972a.19.19,0,0,1,.194.239.212.212,0,0,1-.194-.239" transform="translate(-681.752 -732.043)" fill="#ebb193"/>
</svg>
