<svg xmlns="http://www.w3.org/2000/svg" width="107.723" height="107.986" viewBox="0 0 107.723 107.986">
  <path id="Trazado_253" data-name="Trazado 253" d="M.558,664.662a52.121,52.121,0,0,1,7.633-23.107,53.957,53.957,0,0,1,37.346-25.182c1.6-.264,3.222-.368,4.834-.545l.262-.013,1.475-.07a11.855,11.855,0,0,0,3.782-.063l1.7.111.276.024a53.139,53.139,0,0,1,33.7,14.857c.342.323.731.6,1.1.892.078.089.236.255.236.255.009.141,1.849,2.057,2.618,3.014a54.2,54.2,0,0,1,12.511,34.245,61.125,61.125,0,0,1-.373,7.3,63.131,63.131,0,0,1-1.8,8.919,34.3,34.3,0,0,1-2.609,6.7,76.077,76.077,0,0,1-5.159,8.849,25.46,25.46,0,0,1-4.1,4.994,12.238,12.238,0,0,0-4.236-2.829c-2.632-1.02-5.4-1.579-8.1-2.412-1.666-.516-3.347-.981-5.073-1.483.32-.415.827-.319.925-.839-2.877-.784-5.693-1.743-8.6-2.388-.366-.042-.535-.356-.771-.57q-2.629-2.387-5.249-4.783a14.422,14.422,0,0,0-.018-1.857,1.987,1.987,0,0,1,1.186-2.19c4.823-2.728,6.321-7.426,7.282-12.429.008-.045-.083-.108-.127-.163a1.585,1.585,0,0,0,.627-1.07c.088-.671.224-1.336.34-2a1.271,1.271,0,0,0,.987-.4,8.583,8.583,0,0,0,1.958-3.578c.346-1.409.568-2.835.772-4.269a1.578,1.578,0,0,0-1.612-2.011,46.2,46.2,0,0,0,.623-6.049c.009-2.4-.009-4.8-.161-7.2a10.625,10.625,0,0,0-1.384-5.5c-1.108-1.675-2.353-3.173-4.379-3.73a1.342,1.342,0,0,1-.985-1.01,9.314,9.314,0,0,0-2.809-3.969c-3.418-2.926-7.5-3.186-11.672-2.648a30.12,30.12,0,0,1-8.692.29,10.762,10.762,0,0,1-6.232-2.9c-.358-.362-.516-.943-1.13-1.166a9.833,9.833,0,0,0,1.189,4.993,8.458,8.458,0,0,1-1.78-1.653c-.083,1.006.522,1.784.614,2.68l-.025.026a10.7,10.7,0,0,1-3.634-3.95,8.1,8.1,0,0,0,.853,4.978c-.052.05-.1.1-.152.154a6.354,6.354,0,0,1-2.668-3.676,7.444,7.444,0,0,0,.065,4.108,4.854,4.854,0,0,0,2.358,3.1c-2.226-.035-3.32-1.854-4.878-3.126a22.168,22.168,0,0,0,.024,3.1c.333,2.227,1.174,4.159,3.6,4.86.451.13.418.337.341.714a30,30,0,0,0-.18,9.724,23.437,23.437,0,0,0,.332,3.441c.489,1.79.737,3.647,1.087,5.475-.218,0-.435,0-.654,0-1.572.015-1.992.437-1.972,2.015a15.056,15.056,0,0,0,1.375,5.887c.562,1.276,1.295,2.579,3.032,2.579.17.518.29,1.068.859,1.328a.483.483,0,0,0-.207.573c.612,2.264.92,4.62,1.947,6.76a14.475,14.475,0,0,0,5.43,5.8,2.605,2.605,0,0,1,1.118,2.9c-.033.286-.119.566-.18.849-1.994,1.861-3.961,3.751-5.994,5.566-.716.639-.616.994.154,1.37-.166.3-.523.256-.762.424a5.318,5.318,0,0,0-1.3.105c-3.411,1.151-6.941,1.86-10.394,2.851-3.829,1.1-7.891,1.547-11.267,3.945l-.227.184h0l-.223.184-.291.244a1.614,1.614,0,0,1-1.041.279l-.015-.019a.761.761,0,0,0-.688-.778l-.054-.062c.027-.27-.114-.4-.366-.426l-.022-.029c.059-.3-.1-.437-.377-.472a1.658,1.658,0,0,0-.107-.152.931.931,0,0,0-.767-.944,1.145,1.145,0,0,0-.113-.151c.032-.219-.1-.293-.284-.329-.028-.049-.057-.1-.086-.144a.5.5,0,0,0-.443-.613l-.027-.037a2.284,2.284,0,0,0-1.069-1.5l-.028-.037a1.531,1.531,0,0,0-.844-1.288l-.028-.045c.048-.185.031-.331-.205-.348l-.055-.065c.086-.335-.018-.555-.376-.621l-.028-.044a5.9,5.9,0,0,0-1.518-2.666l-.155-.171c.23-.314.041-.406-.238-.45l-.016-.019-.165-.255-.3-.648c.387-.395.03-.752-.108-1.066a61.362,61.362,0,0,1-3.5-9.792c-.25-1-.187-2.1-.842-2.989l-.064-.388c.141-.152.184-.286-.063-.372a24.268,24.268,0,0,1-.6-4.667,6.758,6.758,0,0,0-.106-2.448q-.016-1.609-.033-3.219a13.2,13.2,0,0,0,.247-3.573" transform="translate(-0.311 -615.605)" fill="#fba631"/>
  <path id="Trazado_259" data-name="Trazado 259" d="M74.791,826.288a25.7,25.7,0,0,1-5.854.008l-.268-.008a54.023,54.023,0,0,1-12.791-2.421,45.431,45.431,0,0,1-7.359-2.968,2.4,2.4,0,0,0-.628-.132l-.164-.077c-.016-.145-.093-.2-.236-.163l-.426-.244a.187.187,0,0,0-.257-.166l-.009-.006c-.061-.226-.226-.26-.425-.233a58.991,58.991,0,0,1-13.556-10.7c-.121-.132-.221-.284-.331-.427l.643-.676.291-.244.222-.184h0l.227-.184c3.376-2.4,7.437-2.846,11.267-3.945,3.453-.991,6.984-1.7,10.394-2.851a5.321,5.321,0,0,1,1.3-.1l.225.309a3.151,3.151,0,0,0,.174.392q7.125,11.537,14.257,23.068c.142.229.2.559.572.61.252-.25.106-.536.08-.807a1.54,1.54,0,0,0,.5-.543c1.148-1.936,2.315-3.862,3.476-5.791.575-.958,1.169-1.906,1.721-2.877q3.434-6.035,6.847-12.08l.765-1.352a12.826,12.826,0,0,0,1.536-2.741c2.9.645,5.72,1.6,8.6,2.388-.1.521-.605.424-.925.839,1.725.5,3.407.968,5.073,1.483,2.69.832,5.463,1.392,8.1,2.412a12.245,12.245,0,0,1,4.236,2.829,9.3,9.3,0,0,1-2.246,2.49,55.683,55.683,0,0,1-7.545,6.084,52.63,52.63,0,0,1-24.382,8.812,22.939,22.939,0,0,1-2.833.191l-.27.008" transform="translate(-18.391 -718.474)" fill="#201210"/>
  <path id="Trazado_276" data-name="Trazado 276" d="M14.454,796.092a5.914,5.914,0,0,1,1.518,2.666,7.264,7.264,0,0,1-1.518-2.666" transform="translate(-8.258 -716.979)" fill="#ebb193"/>
  <path id="Trazado_279" data-name="Trazado 279" d="M122.329,615.549a11.853,11.853,0,0,1-3.782.064,13.279,13.279,0,0,1,3.782-.064" transform="translate(-66.749 -615.446)" fill="#ebb193"/>
  <path id="Trazado_281" data-name="Trazado 281" d="M21.494,807.766a2.283,2.283,0,0,1,1.068,1.5,2.325,2.325,0,0,1-1.068-1.5" transform="translate(-12.214 -723.54)" fill="#ebb193"/>
  <path id="Trazado_284" data-name="Trazado 284" d="M19.5,804.742a1.529,1.529,0,0,1,.844,1.287,1.608,1.608,0,0,1-.844-1.287" transform="translate(-11.095 -721.84)" fill="#ebb193"/>
  <path id="Trazado_287" data-name="Trazado 287" d="M26.107,814.088a.931.931,0,0,1,.767.945,1.325,1.325,0,0,1-.767-.945" transform="translate(-14.806 -727.092)" fill="#ebb193"/>
  <path id="Trazado_288" data-name="Trazado 288" d="M29.973,818.848a.76.76,0,0,1,.688.778.847.847,0,0,1-.688-.778" transform="translate(-16.979 -729.767)" fill="#ebb193"/>
  <path id="Trazado_289" data-name="Trazado 289" d="M32.618,820.031l-.643.676a.554.554,0,0,1-.4-.4,1.612,1.612,0,0,0,1.042-.279" transform="translate(-17.879 -730.431)" fill="#ebb193"/>
  <path id="Trazado_293" data-name="Trazado 293" d="M17.985,802.279c.358.066.462.286.376.621a.625.625,0,0,1-.376-.621" transform="translate(-10.242 -720.456)" fill="#ebb193"/>
  <path id="Trazado_294" data-name="Trazado 294" d="M23.993,811.263a.5.5,0,0,1,.443.613.592.592,0,0,1-.443-.613" transform="translate(-13.618 -725.504)" fill="#ebb193"/>
  <path id="Trazado_296" data-name="Trazado 296" d="M28.1,816.59c.279.035.436.167.376.472a.45.45,0,0,1-.376-.472" transform="translate(-15.928 -728.498)" fill="#ebb193"/>
  <path id="Trazado_298" data-name="Trazado 298" d="M29.013,817.734c.252.03.393.157.366.426a.493.493,0,0,1-.366-.426" transform="translate(-16.439 -729.141)" fill="#ebb193"/>
  <path id="Trazado_301" data-name="Trazado 301" d="M25.2,812.991c.18.036.315.111.283.33a.362.362,0,0,1-.283-.33" transform="translate(-14.297 -726.475)" fill="#ebb193"/>
  <path id="Trazado_302" data-name="Trazado 302" d="M64.186,846.964c.2-.027.365.007.425.233a.361.361,0,0,1-.425-.233" transform="translate(-36.203 -745.561)" fill="#808181"/>
  <path id="Trazado_303" data-name="Trazado 303" d="M18.968,803.845c.236.017.254.163.205.348l-.205-.348" transform="translate(-10.794 -721.336)" fill="#ebb193"/>
  <path id="Trazado_319" data-name="Trazado 319" d="M131.328,615.859l-.276-.024c.1-.12.193-.1.276.024" transform="translate(-73.775 -615.621)" fill="#ebb193"/>
  <path id="Trazado_320" data-name="Trazado 320" d="M114.843,615.867l-.262.013c.081-.131.168-.145.262-.013" transform="translate(-64.521 -615.63)" fill="#ebb193"/>
  <path id="Trazado_321" data-name="Trazado 321" d="M65.178,847.507a.188.188,0,0,1,.258.166.2.2,0,0,1-.258-.166" transform="translate(-36.76 -745.865)" fill="#808181"/>
  <path id="Trazado_322" data-name="Trazado 322" d="M66.739,848.441c.142-.038.219.018.235.163-.137.031-.21-.031-.235-.163" transform="translate(-37.638 -746.389)" fill="#808181"/>
  <path id="Trazado_387" data-name="Trazado 387" d="M92.155,725.423c.061-.283.147-.563.18-.849a2.605,2.605,0,0,0-1.118-2.9,14.472,14.472,0,0,1-5.429-5.8c-1.027-2.141-1.334-4.5-1.947-6.76a.484.484,0,0,1,.208-.573c.254.083.294.557.687.382.22-.1.153-.3.137-.471-.393-3.977-.776-7.955-1.2-11.929a6.582,6.582,0,0,1,.522-3.921,18.77,18.77,0,0,0,2.248-7.917,4.835,4.835,0,0,1,2.076-3.683,9.055,9.055,0,0,1,3.108-1.567,31.594,31.594,0,0,1,16.428-.4c5.392,1.293,7.93,4.643,7.97,10.19a2.036,2.036,0,0,0,.167,1.046c.668,1.253,1.264,2.545,1.874,3.828a2.3,2.3,0,0,1,.355,1.243c-.289,2.705-.515,5.419-.877,8.114-.263,1.958-.367,3.917-.486,6.019l.952-.487c.045.054.136.118.127.163-.961,5-2.459,9.7-7.282,12.429a1.986,1.986,0,0,0-1.186,2.19,14.5,14.5,0,0,1,.018,1.858c-.432.444-3.743,4.646-8.983,4.638-1.629-.1-8.251.269-8.553-4.835" transform="translate(-47.112 -650.696)" fill="#ebb193"/>
  <path id="Trazado_388" data-name="Trazado 388" d="M108.469,688.007l-.952.488c.119-2.1.223-4.061.485-6.019.362-2.7.588-5.409.877-8.114a2.3,2.3,0,0,0-.355-1.244c-.609-1.284-1.206-2.575-1.874-3.828a2.038,2.038,0,0,1-.166-1.046c-.04-5.547-2.578-8.9-7.97-10.191a31.6,31.6,0,0,0-16.428.4,9.056,9.056,0,0,0-3.108,1.567A4.837,4.837,0,0,0,76.9,663.7a18.768,18.768,0,0,1-2.248,7.917,6.583,6.583,0,0,0-.522,3.921c.42,3.974.8,7.953,1.2,11.93.016.167.084.372-.137.471-.393.176-.433-.3-.687-.382-.569-.26-.689-.81-.859-1.328-.152-1.074-.263-2.156-.463-3.222a71.217,71.217,0,0,0-1.318-7.257c-.35-1.829-.6-3.685-1.087-5.475a23.5,23.5,0,0,1-.332-3.441,29.992,29.992,0,0,1,.18-9.724c.076-.377.109-.583-.342-.714-2.424-.7-3.265-2.632-3.6-4.86a22.172,22.172,0,0,1-.024-3.1c1.557,1.272,2.651,3.091,4.878,3.126a4.852,4.852,0,0,1-2.358-3.1,7.436,7.436,0,0,1-.065-4.108,6.346,6.346,0,0,0,2.668,3.675l.266.173.274.159.07.117c0-.02,0-.047-.007-.057a.351.351,0,0,0-.078-.043l-.2-.245-.178-.257a8.1,8.1,0,0,1-.853-4.979,10.693,10.693,0,0,0,3.633,3.95l.13.095-.1-.12c-.093-.9-.7-1.674-.615-2.68a8.452,8.452,0,0,0,1.781,1.653,9.828,9.828,0,0,1-1.189-4.992c.614.222.772.8,1.13,1.166a10.759,10.759,0,0,0,6.233,2.9,30.117,30.117,0,0,0,8.691-.29c4.171-.538,8.255-.278,11.672,2.648a9.306,9.306,0,0,1,2.809,3.969,1.341,1.341,0,0,0,.985,1.009c2.026.558,3.27,2.056,4.379,3.73a10.625,10.625,0,0,1,1.384,5.5c.152,2.4.17,4.8.161,7.2a46.113,46.113,0,0,1-.623,6.049c-1.239,3.308-1.534,6.81-2.1,10.255-.116.668-.253,1.332-.34,2a1.588,1.588,0,0,1-.628,1.07" transform="translate(-37.567 -629.722)" fill="#742811"/>
  <path id="Trazado_389" data-name="Trazado 389" d="M75.228,720.575a71.212,71.212,0,0,1,1.318,7.257c.2,1.066.311,2.148.463,3.223-1.737,0-2.47-1.3-3.032-2.58a15.059,15.059,0,0,1-1.375-5.887c-.02-1.578.4-2,1.972-2.016.218,0,.436,0,.654,0" transform="translate(-40.932 -674.544)" fill="#ebb193"/>
  <path id="Trazado_390" data-name="Trazado 390" d="M164.361,728.38c.571-3.446.865-6.948,2.1-10.256a1.577,1.577,0,0,1,1.612,2.012c-.2,1.434-.425,2.859-.771,4.269a8.591,8.591,0,0,1-1.958,3.578,1.271,1.271,0,0,1-.987.4" transform="translate(-92.343 -673.169)" fill="#ebb193"/>
  <path id="Trazado_391" data-name="Trazado 391" d="M88.82,801.915c2.715,1.555,5.434,3.1,8.14,4.672a.832.832,0,0,0,1.091-.017l.507.667c-.711.948-1.426.547-2.208.062q-2.589-1.605-5.234-3.121c-.931-.532-1.7-1.364-2.833-1.53l-.225-.308c.239-.169.6-.124.762-.425" transform="translate(-49.617 -720.251)" fill="#ccc"/>
  <path id="Trazado_392" data-name="Trazado 392" d="M35.35,818.635l-.227.184.227-.184" transform="translate(-19.872 -729.646)" fill="#ebb193"/>
  <path id="Trazado_393" data-name="Trazado 393" d="M34.841,819.053l-.222.184.222-.184" transform="translate(-19.589 -729.882)" fill="#ebb193"/>
  <path id="Trazado_444" data-name="Trazado 444" d="M115.079,861.607l.269.008-.269-.008" transform="translate(-64.8 -753.793)" fill="#052d43"/>
  <path id="Trazado_445" data-name="Trazado 445" d="M129.053,861.6l.27-.008a.167.167,0,0,1-.27.008" transform="translate(-72.652 -753.782)" fill="#052d43"/>
  <path id="Trazado_446" data-name="Trazado 446" d="M88.571,803.59c1.129.167,1.9,1,2.833,1.53q2.645,1.513,5.234,3.121c.782.485,1.5.885,2.208-.062l2.932,3.274c-.565,2.522-1.052,5.064-1.727,7.556a3.441,3.441,0,0,0,.53,3.245c1.1,1.482,1.771,3.251,3.074,4.6.027.271.173.558-.08.807-.376-.051-.43-.381-.572-.61q-7.135-11.53-14.257-23.068a3.086,3.086,0,0,1-.174-.392" transform="translate(-49.905 -721.193)" fill="#fefdfe"/>
  <path id="Trazado_447" data-name="Trazado 447" d="M118.147,836.937c-1.3-1.349-1.977-3.118-3.074-4.6a3.44,3.44,0,0,1-.53-3.245c.676-2.491,1.162-5.034,1.727-7.556l4.034.03c.565,3.021,1.078,6.053,1.823,9.037-1.161,1.929-2.328,3.854-3.477,5.791a1.538,1.538,0,0,1-.5.542" transform="translate(-64.397 -731.277)" fill="#fefdfe"/>
  <path id="Trazado_448" data-name="Trazado 448" d="M129.748,823.049c-.745-2.985-1.258-6.016-1.823-9.036l.329-.413A9.955,9.955,0,0,0,130,811.63l.219-.255v.01l.221-.236-.01.018c.24-.124.33-.456.649-.472.372,1.262.4,1.281,1.505.688.479-.255.924-.573,1.4-.839a33.335,33.335,0,0,1,4.333-2.451q-3.422,6.041-6.848,12.08c-.552.971-1.146,1.918-1.721,2.877" transform="translate(-72.019 -723.723)" fill="#fefdfe"/>
  <path id="Trazado_449" data-name="Trazado 449" d="M142.363,806.359a33.287,33.287,0,0,0-4.333,2.451c-.474.266-.919.583-1.4.839-1.109.592-1.133.574-1.505-.688-.006-.124.037-.208.177-.209.789.262,1.378-.215,1.983-.566,1.681-.977,3.349-1.979,5.015-2.982a1.494,1.494,0,0,1,.826-.2l-.765,1.352" transform="translate(-76.065 -721.989)" fill="#ccc"/>
  <path id="Trazado_513" data-name="Trazado 513" d="M79.615,658.075a.376.376,0,0,1,.077.043c.011.01.005.038.007.058-.023-.039-.046-.078-.07-.117l-.014.016" transform="translate(-44.873 -639.395)" fill="#e96733"/>
  <path id="Trazado_514" data-name="Trazado 514" d="M79.087,657.535l.195.246.015-.016-.274-.16.064-.069" transform="translate(-44.54 -639.101)" fill="#e96733"/>
  <path id="Trazado_515" data-name="Trazado 515" d="M78.566,656.95l.179.257-.064.069-.267-.172c.049-.053.1-.1.152-.154" transform="translate(-44.198 -638.772)" fill="#e96733"/>
  <path id="Trazado_516" data-name="Trazado 516" d="M85.133,654.543l.1.12-.13-.095.025-.026" transform="translate(-47.959 -637.419)" fill="#e96733"/>
  <path id="Trazado_517" data-name="Trazado 517" d="M115.347,799.465a13.787,13.787,0,0,0,3.322,9.287l-.329.413-4.034-.03-2.932-3.274-.508-.667c1.433-1.957,2.9-3.884,4.48-5.729" transform="translate(-62.434 -718.875)" fill="#fefdfe"/>
  <path id="Trazado_518" data-name="Trazado 518" d="M130.513,808.6a1.334,1.334,0,0,0-.192-1.3c-.614-.8-1.153-1.665-1.694-2.521-.241-.383-.682-.7-.523-1.255a19.494,19.494,0,0,1,3.235,4.395c-.14,0-.183.085-.177.209-.319.016-.409.347-.649.472" transform="translate(-72.101 -721.155)" fill="#fefdfe"/>
  <path id="Trazado_519" data-name="Trazado 519" d="M127.321,802.391c-.63.009-.686-.416-.672-.893l.672.893" transform="translate(-71.3 -720.017)" fill="#fefdfe"/>
  <path id="Trazado_520" data-name="Trazado 520" d="M125.83,800.411c-.576-.018-.605-.464-.682-.871l.682.871" transform="translate(-70.458 -718.917)" fill="#fefdfe"/>
</svg>
