<svg xmlns="http://www.w3.org/2000/svg" xmlns:xlink="http://www.w3.org/1999/xlink" viewBox="0 0 98.17 52.11"><defs><style>.cls-1,.cls-4{fill:none;}.cls-2{fill:white;}.cls-3{clip-path:url(#clip-path);}.cls-4{stroke:white;stroke-miterlimit:10;stroke-width:4px;}</style><clipPath id="clip-path" transform="translate(-12.74 -8.24)"><polygon class="cls-1" points="0 0 0 61.52 16.69 61.63 16.77 55.33 96.3 55.33 96.3 70.48 116.35 70.48 116.35 0 0 0"/></clipPath></defs><g id="Capa_2" data-name="Capa 2"><g id="Capa_1-2" data-name="Capa 1"><path class="cls-2" d="M29.9,60.32V22.68h4.58V60.32Z" transform="translate(-12.74 -8.24)"/><path class="cls-2" d="M42.35,60.32V22.68H47L65.25,52.29V22.68h4.38V60.32h-4.7L46.75,30.71V60.32Z" transform="translate(-12.74 -8.24)"/><path class="cls-2" d="M98,56.36v4H75.1a11.55,11.55,0,0,1,1.83-6,34.83,34.83,0,0,1,7-7.89q6-5.3,7.8-8.19a10.14,10.14,0,0,0,1.85-5.38,6.21,6.21,0,0,0-1.89-4.69,7,7,0,0,0-9.52.15,7.7,7.7,0,0,0-1.9,5.61l-4.38-.49c.31-3.61,1.45-6.33,3.44-8.15a11.18,11.18,0,0,1,7.85-2.73q5.31,0,8,3.18A10.8,10.8,0,0,1,98,33a12.53,12.53,0,0,1-2.13,6.89,52.28,52.28,0,0,1-8.1,8.79c-2.54,2.32-4.17,3.89-4.91,4.73A16,16,0,0,0,81,56.2Z" transform="translate(-12.74 -8.24)"/><g class="cls-3"><path class="cls-4" d="M108.91,58.34H14.74V25.47A15.23,15.23,0,0,1,30,10.24h63.7a15.23,15.23,0,0,1,15.24,15.23Z" transform="translate(-12.74 -8.24)"/></g></g></g></svg>
