<svg xmlns="http://www.w3.org/2000/svg" viewBox="0 0 153.01 42.21">
    <defs>
        <style>.cls-1{fill:#fff;}</style>
    </defs>
    <g id="Capa_2" data-name="Capa 2">
        <g id="Capa_1-2" data-name="Capa 1">
            <path class="cls-1" d="M54.52,0H19A19,19,0,0,0,0,19V42.21H2.93V19A16.07,16.07,0,0,1,19,2.93H54.52A16.08,16.08,0,0,1,70.58,19V36.75a2.09,2.09,0,0,1-2.09,2.08H49.82C51.63,31,65.59,30.36,65.59,20.37c0-4.77-3.81-7.86-9.07-7.86a10.7,10.7,0,0,0-10.43,7.86l3.09,2c1-3.89,3.45-6.82,7.3-6.82,3.09,0,5.26,2,5.26,4.93,0,8.55-15.53,9.07-15.53,19.42a14.78,14.78,0,0,0,.08,1.88h22.2a5,5,0,0,0,5-5V19A19,19,0,0,0,54.52,0Z"/>
            <rect class="cls-1" x="9.9" y="13.07" width="3.89" height="28.68"/>
            <polygon class="cls-1" points="38.83 36.66 23.79 13.07 19.33 13.07 19.33 41.75 22.54 41.75 22.54 18.33 37.51 41.75 42.04 41.75 42.04 13.07 38.83 13.07 38.83 36.66"/>
            <path class="cls-1" d="M121.35,27.75c3.65-.8,7.42-3.13,7.42-7.46,0-4.69-4.45-7.22-9.42-7.22h-12V41.75h3.93V29.2h6.26c4,0,6.1,1.44,6.38,5.17.2,2.69,0,6.54.92,7.38h4.22c-1.09-.92-.89-4.61-1-7.62C127.85,30,125.16,28.23,121.35,27.75Zm-10.07-1.6v-10h7.31c3.65,0,6,1.72,6,4.61s-2.32,5.38-6,5.38Z"/>
            <polygon class="cls-1" points="129.7 13.07 129.7 16.16 139.41 16.16 139.41 41.75 143.34 41.75 143.34 16.16 153.01 16.16 153.01 13.07 129.7 13.07"/>
            <path class="cls-1" d="M92,13.05H89.78L78.91,41.73h4.17l3.13-8.42H97.67l3.13,8.42H105L94.1,13.05ZM92,30.3H87.33L91.94,18,96.55,30.3Z"/>
        </g>
    </g>
</svg>
