<svg xmlns="http://www.w3.org/2000/svg" xmlns:xlink="http://www.w3.org/1999/xlink" viewBox="0 0 201.2 52.11"><defs><style>.cls-1,.cls-4{fill:none;}.cls-2{fill:white;}.cls-3{clip-path:url(#clip-path);}.cls-4{stroke:white;stroke-miterlimit:10;stroke-width:4px;}</style><clipPath id="clip-path" transform="translate(-12.74 -8.24)"><polygon class="cls-1" points="0 0 0 61.52 16.69 61.63 16.77 55.33 96.3 55.33 96.3 70.48 116.35 70.48 116.35 0 0 0"/></clipPath></defs><g id="Capa_2" data-name="Capa 2"><g id="Capa_1-2" data-name="Capa 1"><path class="cls-2" d="M29.9,60.32V22.68h4.58V60.32Z" transform="translate(-12.74 -8.24)"/><path class="cls-2" d="M42.35,60.32V22.68H47L65.25,52.29V22.68h4.38V60.32h-4.7L46.75,30.71V60.32Z" transform="translate(-12.74 -8.24)"/><path class="cls-2" d="M98,56.36v4H75.1a11.55,11.55,0,0,1,1.83-6,34.83,34.83,0,0,1,7-7.89q6-5.3,7.8-8.19a10.14,10.14,0,0,0,1.85-5.38,6.21,6.21,0,0,0-1.89-4.69,7,7,0,0,0-9.52.15,7.7,7.7,0,0,0-1.9,5.61l-4.38-.49c.31-3.61,1.45-6.33,3.44-8.15a11.18,11.18,0,0,1,7.85-2.73q5.31,0,8,3.18A10.8,10.8,0,0,1,98,33a12.53,12.53,0,0,1-2.13,6.89,52.28,52.28,0,0,1-8.1,8.79c-2.54,2.32-4.17,3.89-4.91,4.73A16,16,0,0,0,81,56.2Z" transform="translate(-12.74 -8.24)"/><path class="cls-2" d="M117.87,60.32l13.36-37.64h5.9l14.18,37.64h-5.24l-4-11.4H126.47l-3.77,11.4Zm9.94-15.45h12.8L137,34.44c-1.12-3.2-2.93-5.8-3.45-7.8a50.52,50.52,0,0,1-1.9,7.19Z" transform="translate(-12.74 -8.24)"/><path class="cls-2" d="M154.91,60.32V22.68h15.36a18,18,0,0,1,7.1,1.05,8.6,8.6,0,0,1,3.76,3.51,10.83,10.83,0,0,1,1.47,5.68,9.61,9.61,0,0,1-2.5,6.9,12,12,0,0,1-7.24,3.37,11.26,11.26,0,0,1,2.94,2.09,26.87,26.87,0,0,1,3.6,4.8l6,10.24h-5.76l-4.62-7.82a48.51,48.51,0,0,0-4-6.19,7.8,7.8,0,0,0-2.65-2.15,9.26,9.26,0,0,0-3.58-.55h-5.3V60.32Zm4.58-21h9.85a13.38,13.38,0,0,0,4.9-.69,5.68,5.68,0,0,0,2.65-2.18,6.11,6.11,0,0,0,1-3.47A5.63,5.63,0,0,0,176,28.47a8.24,8.24,0,0,0-5.56-1.63H159.49Z" transform="translate(-12.74 -8.24)"/><path class="cls-2" d="M197.89,60.32V27.12h-11.4V22.68h27.45v4.44H202.47v33.2Z" transform="translate(-12.74 -8.24)"/><g class="cls-3"><path class="cls-4" d="M108.91,58.34H14.74V25.47A15.23,15.23,0,0,1,30,10.24h63.7a15.23,15.23,0,0,1,15.24,15.23Z" transform="translate(-12.74 -8.24)"/></g></g></g></svg>
