<svg xmlns="http://www.w3.org/2000/svg" viewBox="0 0 87.47 169.52"><defs><style>.cls-1{fill:#ebaf4c;}.cls-2{fill:#282e69;}</style></defs><g id="Capa_2" data-name="Capa 2"><g id="Capa_1-2" data-name="Capa 1"><path class="cls-1" d="M39.44,141.75a29,29,0,0,1-2.61-1.42c-7.4-5-14.65-10.23-21.11-16.5-4-3.93-8.12-7.76-11.15-12.55A22.65,22.65,0,0,1,.85,99.72c-.24-9-.41-18.07-.56-27.11C.16,64.81.12,57,0,49.2a18.61,18.61,0,0,1,1.06-7.58A5.71,5.71,0,0,1,6.48,37.7a5,5,0,0,1,5.09,3.77,22,22,0,0,1,1.08,5.58c.21,9.43.27,18.86.38,28.29,0,3.14.1,6.29.07,9.43a4.73,4.73,0,0,0,1.68,3.76c5.41,4.94,10.76,9.94,16.2,14.85,2.33,2.1,4.76,4.09,7.24,6a3.45,3.45,0,0,1,1.58,2.85q.06,14.3.09,28.58C39.89,141,39.73,141.16,39.44,141.75Z"/><path class="cls-1" d="M47.81,141.59c-.18-1.36-.36-2.19-.38-3-.16-8.19-.18-16.39-.49-24.57-.12-3.13,1.11-5.13,3.48-7,4.65-3.6,9.11-7.47,13.69-11.17,2.88-2.32,5.79-4.63,8.8-6.77a4.28,4.28,0,0,0,1.84-4.16c-.19-4.46-.43-8.94-.35-13.41a84.48,84.48,0,0,1,1-9.89,14.25,14.25,0,0,1,5.69-9.24A6.2,6.2,0,0,1,86.19,51c.15,1.63.38,3.28.43,4.94.32,10.56.73,21.11.84,31.68.06,6-.19,12-1.93,17.81A34.82,34.82,0,0,1,79,117.35c-4.13,5.13-9.16,9.34-14.33,13.35-3.6,2.78-7.4,5.29-11.19,7.81C51.87,139.6,50,140.4,47.81,141.59Z"/><path class="cls-1" d="M43.58,76.43c-1.33-1-2.61-1.91-3.78-2.84a7.94,7.94,0,0,1-2.58-5.25C37.1,61.65,37.08,55,37,48.27c0-4.47,0-8.94-.08-13.41-.07-6.18-.23-12.36-.24-18.54,0-3.7,0-7.42.37-11.1A5.61,5.61,0,0,1,42,.07a5.56,5.56,0,0,1,6.08,3.29,13.33,13.33,0,0,1,1.22,5.19c.15,10.09.09,20.19.19,30.28Q49.65,53.4,50,68a5.2,5.2,0,0,1-2,4.73C46.55,73.78,45.23,75,43.58,76.43Z"/><path class="cls-2" d="M46.79,85a2.69,2.69,0,0,0-2.32,2.58A2.29,2.29,0,0,0,46.08,90a2.47,2.47,0,0,0,3.13-1.13c.94,2.24-.2,5.07-2.56,6.53a6.12,6.12,0,0,1-7.89-9.14C40.69,83.88,43.84,83.35,46.79,85Z"/><path class="cls-2" d="M25.22,90.43a12.26,12.26,0,0,0,6-3.8c3.27-3.37,7.07-5.63,12-5.55,4.32.08,7.67,2.18,10.64,5.11-1.24-.67-2.47-1.37-3.72-2C43.7,81.08,38.91,82.69,35.23,86a61.86,61.86,0,0,1-5,4.19A4.68,4.68,0,0,1,25.22,90.43Z"/><path class="cls-2" d="M61.46,89.81C59,90.38,57.28,92,55.61,93.7c-3.26,3.36-7.06,5.63-12,5.54C39.34,99.17,36,97.07,33,94.14c1.24.67,2.47,1.37,3.72,2,6.37,3.13,11.16,1.52,14.84-1.8a59.85,59.85,0,0,1,5-4.19A4.47,4.47,0,0,1,61.46,89.81Z"/><path class="cls-1" d="M19.69,79.1a6.72,6.72,0,0,0,2,5.22h0l7.89-7.88a5.4,5.4,0,0,0,1.56-3.68v0c.11-6.52,0-13,0-19.55,0-6-.11-12.06-.18-18.1-.06-4.58,0-9.16-.25-13.73a16.23,16.23,0,0,0-1.17-5.53c-1.41-3.33-5.24-4.11-8.1-1.93a5.15,5.15,0,0,0-2.17,4.15c-.13,6.55-.38,13.1-.3,19.65C19.14,51.5,19.57,65.3,19.69,79.1Z"/><path class="cls-1" d="M66.69,79.1a6.75,6.75,0,0,1-2,5.23l-8-8a5.1,5.1,0,0,1-1.45-3.57v0c-.11-6.52,0-13,0-19.55,0-6,.11-12.06.18-18.1,0-4.58,0-9.16.25-13.73a16.23,16.23,0,0,1,1.17-5.53c1.41-3.33,5.24-4.11,8.1-1.93a5.15,5.15,0,0,1,2.17,4.15c.13,6.55.38,13.1.3,19.65C67.25,51.5,66.82,65.3,66.69,79.1Z"/><path class="cls-2" d="M3.16,152v17.49H.41V152Z"/><path class="cls-2" d="M22.13,152v17.49H19.74l-10-12.9v12.9H7V152H9.4l10,12.89V152Z"/><path class="cls-2" d="M37.31,167.27v2.25H25.46V167.8c1.6-1.6,2.34-2.38,4.21-4.38,2.14-2.27,4.64-4.75,4.64-6.55a2.74,2.74,0,0,0-3-2.92A3.28,3.28,0,0,0,28,156.6l-2.56-.55c.75-2.82,3.17-4.32,6.16-4.32A5.2,5.2,0,0,1,37,156.87c0,2.78-2.86,5.18-7.65,10.4Z"/><path class="cls-2" d="M52.35,165.32H44.1l-1.62,4.2h-3L46.66,152H49.8L57,169.52H54Zm-.9-2.3-3.22-8.32L45,163Z"/><path class="cls-2" d="M70.09,169.52l-4-6.77c-.21,0-.46,0-.74,0H62.17v6.75H59.42V152h5.94c4.4,0,6.93,2.35,6.93,5.37a5,5,0,0,1-3.46,4.77l4.56,7.35Zm-4.73-9c2.67,0,4.1-1.23,4.1-3.1s-1.43-3.1-4.1-3.1H62.17v6.2Z"/><path class="cls-2" d="M87.25,154.3H82.39v15.22H79.64V154.3H74.77V152H87.25Z"/></g></g></svg>