<svg xmlns="http://www.w3.org/2000/svg" xmlns:xlink="http://www.w3.org/1999/xlink" viewBox="0 0 226.63 221.79"><defs><style>.cls-1{fill:none;}.cls-2{fill:#fff;}.cls-3{opacity:0.45;}.cls-4{clip-path:url(#clip-path);}.cls-5{clip-path:url(#clip-path-2);}</style><clipPath id="clip-path" transform="translate(-24.87 -10.1)"><polygon class="cls-1" points="30.37 14 115.37 0 118.52 67.56 135.37 84 100.37 118 87.56 106.06 0 95.58 30.37 14"/></clipPath><clipPath id="clip-path-2" transform="translate(-24.87 -10.1)"><polygon class="cls-1" points="246 228 161 242 157.85 174.44 141 158 176 124 188.81 135.94 276.37 146.42 246 228"/></clipPath></defs><g id="Capa_2" data-name="Capa 2"><g id="NOTES"><polygon class="cls-1" points="135.04 54.85 135.03 54.83 140.94 61.22 135.04 54.85"/><polygon class="cls-2" points="162.24 84.25 162.23 84.24 168.42 90.92 168.39 90.9 162.24 84.25"/><path class="cls-2" d="M165.25,59.08l0,0A18.57,18.57,0,0,1,164,60.68l0,0A18.52,18.52,0,0,0,165.25,59.08Z" transform="translate(-24.87 -10.1)"/><path class="cls-2" d="M101.23,197.26c2.94,7.5.27,15.94-5.88,21a20.14,20.14,0,0,1-22.11,2.29A19.21,19.21,0,0,1,63,201.18c.61-5.53-1.25-7.3-6.81-6.69A19.44,19.44,0,0,1,37.7,164.23a19.74,19.74,0,0,1,23.24-7.07c8.36,3.08,15.43,1.71,21.79-3.8l-6.51-6.51c-3.83,2.86-7.79,3.4-13,1.63-11.21-3.82-21.5-1.38-29.84,6.91s-10.52,18.31-6.7,29.16,12,17.12,23.62,18.86l3.09.45c.39,2.12.67,4.23,1.18,6.28a28.85,28.85,0,0,0,36.28,20.55c15.87-4.68,24.62-21.27,19-36.65-1.78-4.82-1.27-8.6,1.41-12.19l-6.48-6.48C99.34,181.79,97.91,188.75,101.23,197.26Z" transform="translate(-24.87 -10.1)"/><path class="cls-2" d="M170.53,67.16c.28-.32.56-.64.82-1l-.14-.16c-.28.32-.56.64-.86.95Z" transform="translate(-24.87 -10.1)"/><path class="cls-2" d="M165.93,48c1.59,4.34,1.35,7.84-.68,11.12l6,7,.14.16c5.1-6.3,6.4-13.14,3.15-21.46-2.93-7.5-.27-15.94,5.89-21a20.12,20.12,0,0,1,22.1-2.29,19.19,19.19,0,0,1,10.22,19.36c-.61,5.53,1.26,7.3,6.82,6.69A19.43,19.43,0,0,1,238,77.77a19.73,19.73,0,0,1-23.24,7.06c-8.59-3.15-15.81-1.62-22.31,4.28L199,95.58c4-3.24,8.1-3.92,13.57-2.06,11.22,3.82,21.5,1.38,29.84-6.91s10.52-18.31,6.71-29.16-12-17.12-23.63-18.86l-3.09-.45c-.39-2.12-.66-4.23-1.18-6.28a28.84,28.84,0,0,0-36.28-20.55C169,16,160.27,32.58,165.93,48Z" transform="translate(-24.87 -10.1)"/><path class="cls-2" d="M170.35,67c.3-.31.58-.63.86-.95l-6-7a18.52,18.52,0,0,1-1.18,1.63Z" transform="translate(-24.87 -10.1)"/><path class="cls-2" d="M187.1,94.34h0l3.12-3.07Z" transform="translate(-24.87 -10.1)"/><path class="cls-2" d="M162.48,62.45a20.91,20.91,0,0,0,1.59-1.74l0,0a24.61,24.61,0,0,1-2,2.16l-2.14,2.1h0Z" transform="translate(-24.87 -10.1)"/><path class="cls-2" d="M191.65,89.89l5.9,6.88,0,0c.45-.44.91-.85,1.37-1.22l-6.47-6.47C192.2,89.36,191.93,89.62,191.65,89.89Z" transform="translate(-24.87 -10.1)"/><path class="cls-2" d="M193.26,101l0,0,.14-.14,3.82-3.78.34-.31,0,0Z" transform="translate(-24.87 -10.1)"/><path class="cls-2" d="M170.53,67.16l-.18-.17-.48.51-4,3.92.2.22,2.49-2.42C169.28,68.54,169.92,67.85,170.53,67.16Z" transform="translate(-24.87 -10.1)"/><path class="cls-2" d="M170.35,67l-6.28-6.28a20.91,20.91,0,0,1-1.59,1.74L159.91,65l5.9,6.38.09.09,4-3.92Z" transform="translate(-24.87 -10.1)"/><path class="cls-2" d="M190.23,91.28l-3.12,3.07,6.15,6.65,4.29-4.23-5.9-6.88-.15.14Z" transform="translate(-24.87 -10.1)"/><polygon class="cls-2" points="141.67 104.47 135.13 110.9 113 132.67 106.48 139.09 79.87 165.27 86.35 171.75 113 145.51 119.52 139.09 141.65 117.29 148.19 110.85 168.42 90.92 162.23 84.24 141.67 104.47"/><polygon class="cls-2" points="141.23 61.54 141.03 61.32 140.94 61.22 135.03 54.83 127.45 62.26 133.91 68.72 141.23 61.54"/><polygon class="cls-2" points="51.35 136.75 57.86 143.26 64.63 136.62 58.13 130.12 51.35 136.75"/><polygon class="cls-3" points="106.46 82.8 112.97 76.44 106.46 82.8 106.46 82.8"/><polygon class="cls-2" points="90.87 110.9 113 89.21 119.54 82.8 133.91 68.72 127.45 62.26 113 76.4 112.97 76.44 106.46 82.8 84.33 104.47 77.81 110.85 58.13 130.12 64.63 136.62 84.35 117.29 90.87 110.9"/><g class="cls-4"><path d="M111.69,60.68a18.57,18.57,0,0,1-1.19-1.62v0a16.53,16.53,0,0,0,1.17,1.63Z" transform="translate(-24.87 -10.1)"/><path class="cls-2" d="M141.82,60.86,127.37,75l0,0-.59.57-10.9-10.67-6.15,6.64,6.15-6.64-2.15-2.1a24.61,24.61,0,0,1-2-2.16l0,0a16.53,16.53,0,0,1-1.17-1.63c-2-3.28-2.28-6.78-.68-11.12,5.65-15.38-3.1-32-19-36.65A28.85,28.85,0,0,0,54.56,31.86c-.51,2-.78,4.16-1.18,6.28l-3.09.45c-11.63,1.74-19.8,8-23.62,18.86s-1.57,20.94,6.7,29.16S52,97.34,63.21,93.52c5.47-1.86,9.57-1.18,13.58,2.06.46.37.91.78,1.37,1.22l.33.31,3.82,3.78.14.14h0l9.14,9L72.5,128.72l6.5,6.5,19.72-19.33,6.52-6.39,22.13-21.69,6.54-6.4,14.37-14.09ZM88.63,94.34,85.5,91.28,84.23,90l-.15-.14c-.27-.27-.55-.53-.83-.78-6.49-5.9-13.71-7.43-22.31-4.28A19.74,19.74,0,0,1,37.7,77.77,19.44,19.44,0,0,1,56.21,47.51c5.56.61,7.42-1.16,6.82-6.69A19.18,19.18,0,0,1,73.24,21.46a20.14,20.14,0,0,1,22.11,2.29c6.15,5.05,8.82,13.49,5.88,21-3.25,8.32-2,15.16,3.15,21.46l.82,1c.61.69,1.25,1.38,2,2.06l2.48,2.42h0L120.21,82,98.7,103.07l-.6.59-9.47-9.32" transform="translate(-24.87 -10.1)"/></g><g class="cls-5"><path d="M164.68,181.32c.43.54.83,1.08,1.19,1.62v0a16.53,16.53,0,0,0-1.17-1.63Z" transform="translate(-24.87 -10.1)"/><path class="cls-2" d="M134.55,181.14,149,167l0,0,.58-.57,10.91,10.67,6.15-6.64-6.15,6.64,2.15,2.1a26.25,26.25,0,0,1,2,2.16l0,0a16.53,16.53,0,0,1,1.17,1.63c2,3.28,2.28,6.78.68,11.12-5.65,15.38,3.1,32,19,36.65a28.86,28.86,0,0,0,36.29-20.55c.51-2,.78-4.16,1.17-6.28l3.1-.45c11.63-1.74,19.8-8,23.62-18.86s1.56-20.94-6.7-29.16-18.63-10.73-29.85-6.91c-5.47,1.86-9.57,1.18-13.57-2.06-.46-.37-.91-.78-1.37-1.22l-.33-.31-3.82-3.78a.93.93,0,0,1-.14-.14h0l-9.14-9,19.09-18.69-6.5-6.5-19.72,19.33-6.52,6.39L149,154.19l-6.54,6.4-14.37,14.09Zm53.18-33.48,3.14,3.06c.42.42.84.84,1.27,1.25l.15.14c.27.27.55.53.82.78,6.5,5.9,13.72,7.43,22.32,4.28a19.74,19.74,0,0,1,23.24,7.06,19.44,19.44,0,0,1-18.51,30.26c-5.56-.61-7.43,1.16-6.82,6.69a19.2,19.2,0,0,1-10.21,19.36A20.14,20.14,0,0,1,181,218.25c-6.16-5.05-8.82-13.49-5.89-21,3.26-8.32,2-15.16-3.15-21.46-.26-.32-.54-.64-.82-1-.6-.69-1.24-1.38-1.94-2.06l-2.49-2.42h0L156.16,160l21.51-21.06.6-.59,9.46,9.32" transform="translate(-24.87 -10.1)"/></g></g></g></svg>
