<svg xmlns="http://www.w3.org/2000/svg" viewBox="0 0 222.29 228"><defs><style>.cls-1{fill:none;stroke:#808080;stroke-miterlimit:10;stroke-width:10px;}</style></defs><g id="Capa_2" data-name="Capa 2"><g id="NOTES"><path class="cls-1" d="M214.19,56,165,7.93A10.3,10.3,0,0,0,157.8,5H46.94A41.94,41.94,0,0,0,5.09,44.13a6.3,6.3,0,0,0,1.73,4.72l51.49,54.37a6.33,6.33,0,0,0,4.14,2l37.06,2.52a6.32,6.32,0,0,1,5.65,4.66l15.38,57.91a6.21,6.21,0,0,0,1.77,3l51.13,48a6.34,6.34,0,0,0,4.7,1.7,41.94,41.94,0,0,0,39.15-41.85V63.34A10.31,10.31,0,0,0,214.19,56Z"/><path class="cls-1" d="M159,8V50.38A12.62,12.62,0,0,0,171.62,63H217"/><path class="cls-1" d="M143.71,223H39.19A34.19,34.19,0,0,1,5,188.81V80.27a.32.32,0,0,1,.55-.22l42.91,45.3a5.12,5.12,0,0,0,3.37,1.59L82,129a5.14,5.14,0,0,1,4.61,3.8L99.19,180a5.1,5.1,0,0,0,1.44,2.42l43.12,40.46A.06.06,0,0,1,143.71,223Z"/></g></g></svg>
