<svg xmlns="http://www.w3.org/2000/svg" viewBox="0 0 74.94 75.25"><g id="Objects"><path d="M50,27.29A2.25,2.25,0,1,1,47.71,25,2.24,2.24,0,0,1,50,27.29Zm-2.8,10.06a9.43,9.43,0,1,1-9.43-9.43A9.44,9.44,0,0,1,47.16,37.35Zm-3.39,0a6,6,0,1,0-6,6A6,6,0,0,0,43.77,37.35Zm13-7.57a11.5,11.5,0,0,0-11.5-11.5H29.62a11.5,11.5,0,0,0-11.5,11.5V45.47A11.5,11.5,0,0,0,29.62,57h15.7a11.5,11.5,0,0,0,11.5-11.5ZM53,45.3a7.9,7.9,0,0,1-7.9,7.9H29.8a7.9,7.9,0,0,1-7.9-7.9V30a7.9,7.9,0,0,1,7.9-7.9H45.14A7.9,7.9,0,0,1,53,30Z"/></g></svg>
