<svg xmlns="http://www.w3.org/2000/svg" viewBox="0 0 203 209.61"><g id="Capa_2" data-name="Capa 2"><g id="NOTES"><path d="M40,108a9.21,9.21,0,0,0,2.37-3.12,5,5,0,0,0-5.24-7.05c-1.35.22-2.61,1.13-4.31,2.9-6.21,6.44-12.44,12.87-18.55,19.41C8,128,2.61,137.07.82,147.68c-.26,1.56-.45,3.13-.65,4.69A20.79,20.79,0,0,0,0,155v1.07c0,1.38.08,3.62.18,5h0a54.83,54.83,0,0,0,4.16,17.38c9,21.5,31.54,34.14,53.66,30.6,9-1,21.17-7.91,27-14,13.79-14.26,28.5-28.53,41.94-43.15,12.29-13.38,16.38-29.6,12.91-47.77a51.2,51.2,0,0,0-13.36-25.9A14.06,14.06,0,0,0,124,76c-3-2-10,2-6.38,7.23A16.74,16.74,0,0,0,119.14,85C133,101,138,121,118,146c-13.18,13.91-25,27.08-38.32,40.86-4,4.09-11,8.16-18.23,11.1-8.11,3.3-21,2.45-28.4-2.29C18,186,15,178,11,169,6,156,13.41,136.85,21.06,128c3-3.45,6.09-6.77,9.23-10.06S36.92,111.22,40,108Z"/><path d="M163,101.59a9.31,9.31,0,0,0-2.37,3.13,5,5,0,0,0,5.24,7c1.35-.23,2.61-1.14,4.31-2.9,6.21-6.45,12.44-12.87,18.55-19.42,6.27-7.86,11.66-16.91,13.45-27.52.26-1.55.45-3.12.65-4.69a20.79,20.79,0,0,0,.17-2.61V53.56c0-1.37-.08-3.61-.18-5h0a54.9,54.9,0,0,0-4.16-17.38C189.71,9.7,167.12-2.94,145,.59c-9,1-21.17,7.91-27,14C104.21,28.85,89.5,43.13,76.06,57.75c-12.29,13.37-16.38,29.6-12.91,47.76a51.2,51.2,0,0,0,13.36,25.9A13.66,13.66,0,0,0,79,133.59c3,2,10-2,6.38-7.23a17.81,17.81,0,0,0-1.52-1.77c-13.86-16-18.86-36,1.14-61,13.18-13.91,25-27.08,38.32-40.86,4-4.09,11-8.16,18.23-11.09,8.11-3.31,21-2.45,28.4,2.28C185,23.59,188,31.59,192,40.59c5,13-2.41,32.17-10.06,41.06-3,3.45-6.09,6.77-9.23,10.06s-6.63,6.69-9.71,9.88Z"/></g></g></svg>