<svg xmlns="http://www.w3.org/2000/svg" viewBox="0 0 230.99 230.99"><g id="Capa_2" data-name="Capa 2"><g id="NOTES"><path d="M231,114.47a143.26,143.26,0,0,1-3.14,27.68c-10.25,45.18-49.23,81-94.91,87.57a117.28,117.28,0,0,1-63.22-8,8,8,0,0,0-4.89-.25c-14.62,4.07-29.58,5.42-44.68,5.8-2.87.07-5.73.15-8.6.2-2.59,0-4.73-.21-5.56-3a5.85,5.85,0,0,1,2.54-6.6c10.38-7.41,15.52-17.46,15-30.24A8.54,8.54,0,0,0,22,183.19C5.46,160.46-2,135,.44,107.09c3.61-41.79,24.06-73.56,61-93.32,66.56-35.61,147.74.94,166.17,74.16,1.37,5.44,1.9,11.09,2.84,16.64M26.23,215.41a1.23,1.23,0,0,0,1.21,1.7c1.89-.11,4-.23,6.15-.42,10.21-.92,20.41-2,30.14-5.47a8.53,8.53,0,0,1,7,.26c20.22,9.38,41.46,12.59,63.25,8.06,41.64-8.64,70.23-33.29,82.39-74s1.81-77-28.71-106.58C147.19-.37,81.71.56,41.6,40.3,3.63,78-.71,136.21,31.22,179.18a11.82,11.82,0,0,1,2,5,39.5,39.5,0,0,1-1,15.54C30.9,205.09,28.4,210.21,26.23,215.41Z"/></g></g></svg>
