<svg xmlns="http://www.w3.org/2000/svg" viewBox="0 0 276.67 276.78"><defs><style>.cls-1{fill:none;stroke:#000;stroke-miterlimit:10;stroke-width:10px;}</style></defs><g id="Capa_2" data-name="Capa 2"><g id="NOTES"><g id="EDIT_PROFILE" data-name="EDIT PROFILE"><path class="cls-1" d="M153.26,5h2c.11.08.2.23.31.24,2.52.39,5.07.63,7.56,1.17,4.54,1,9.05,2.11,13.55,3.27,2.17.56,4.32,1.27,6.43,2,3,1.09,5.9,2.27,8.82,3.49a1.79,1.79,0,0,1,.83,1.14c.3,1.43.48,2.87.7,4.31a21.67,21.67,0,0,1-.37,8.41,17.36,17.36,0,0,0-.51,3.12c-.17,4.08,1.38,7.64,3.56,11a35.53,35.53,0,0,0,8.12,8.61c4.83,3.72,10,6.55,16.2,7.35a14.42,14.42,0,0,0,9.11-1.5,24.58,24.58,0,0,1,12.59-3.18,1.46,1.46,0,0,1,1.05.5c2.2,2.95,4.48,5.85,6.49,8.93,2.37,3.63,4.54,7.38,6.72,11.13a75.52,75.52,0,0,1,6.31,13.92,2.63,2.63,0,0,1-.15,2.39,23.76,23.76,0,0,1-7.25,7.55,15.71,15.71,0,0,0-5.2,4.63,23.94,23.94,0,0,0-3.49,12,59.46,59.46,0,0,0,.43,9.8,31.5,31.5,0,0,0,5.8,15.24,12.67,12.67,0,0,0,6.88,4.94,22.32,22.32,0,0,1,11.34,6.69,2.12,2.12,0,0,1,.57,1.42,55.11,55.11,0,0,1-.94,8.15q-2.18,8.94-4.86,17.74c-1.26,4.1-2.92,8.07-4.45,12.07a1.54,1.54,0,0,1-1,.79,24.35,24.35,0,0,1-4.3.68,31.31,31.31,0,0,1-7.32-.24c-4.73-1-9.21-.9-13.59,1.27-6.65,3.31-11.34,8.55-14.83,15a25.83,25.83,0,0,0-2.94,9.08,16.69,16.69,0,0,0,1.5,10.35c1.91,3.54,3.77,7.08,4.23,11.16.15,1.43.36,2.82-1.09,3.87-2,1.43-3.82,3.05-5.81,4.47a115.29,115.29,0,0,1-18.57,10.62c-3.46,1.6-7.05,2.92-10.62,4.3a2.08,2.08,0,0,1-1.59-.21,24,24,0,0,1-7.69-8,17.93,17.93,0,0,0-4.36-5.17c-4.22-3.09-9.12-4-14.16-4.14a42.06,42.06,0,0,0-8,.65,32.45,32.45,0,0,0-12.59,4.67c-3.45,2.2-6.22,5-7.35,9.08a28,28,0,0,1-4.79,10c-1,1.21-1.85,2.31-3.69,2-2.78-.41-5.63-.44-8.36-1-4.22-.9-8.43-1.94-12.54-3.25-5.7-1.83-11.3-4-16.94-6a1.26,1.26,0,0,1-.61-.83c-.21-1.25-.35-2.53-.48-3.8a25.91,25.91,0,0,1,.22-8.87,17.45,17.45,0,0,0,.15-9.1,25.19,25.19,0,0,0-5.61-10,36.92,36.92,0,0,0-13.58-9.66,29.82,29.82,0,0,0-8.64-2.13,16,16,0,0,0-9.28,2.09,23.07,23.07,0,0,1-13.08,3,1.57,1.57,0,0,1-1-.28,16.49,16.49,0,0,1-1.78-2.22c-3-4.59-6.06-9.16-9-13.82A115.43,115.43,0,0,1,14,189.23a3.76,3.76,0,0,1,.1-3.52A21.74,21.74,0,0,1,21.32,178c2.44-1.66,5-3.08,6.91-5.48a25.8,25.8,0,0,0,5.7-15.41,27.79,27.79,0,0,0,0-4.47,36.86,36.86,0,0,0-1.27-6.73,22.44,22.44,0,0,0-7.07-10.72,21.22,21.22,0,0,0-7.34-4c-5-1.55-9.64-3.75-13.23-7.72v-3.56a2,2,0,0,0,.26-.53c.26-1.65.45-3.32.78-5,.5-2.42,1.13-4.8,1.65-7.22a161.58,161.58,0,0,1,5.43-18.93c.68-1.94,1.12-4.25,3.9-4.45a9.68,9.68,0,0,0,1.27-.29,23.58,23.58,0,0,1,8.54-.26c1.69.26,3.35.71,5.05.87,4.2.38,7.89-1.11,11.32-3.37a29.85,29.85,0,0,0,7.59-7,67.1,67.1,0,0,0,5.45-8.17,26.92,26.92,0,0,0,3.1-9.7,15.78,15.78,0,0,0-1.58-9.33,25.17,25.17,0,0,1-2-5.82,58,58,0,0,1-.89-6.72,2,2,0,0,1,.44-1.56A149.7,149.7,0,0,1,77,18.87c3.68-1.94,7.54-3.5,11.31-5.26a2.71,2.71,0,0,1,2.71.11,24.62,24.62,0,0,1,8.66,8.4,15.07,15.07,0,0,0,4.92,5.09,26.12,26.12,0,0,0,12.57,3.57,56.52,56.52,0,0,0,8.91-.42A30.29,30.29,0,0,0,138,26.44c3.85-2.25,6.76-5.26,8-9.71a22.86,22.86,0,0,1,3.93-8C151,7.43,152.16,6.24,153.26,5ZM141.69,66.43c-19.44.21-35.5,6.25-49,18.59a68.75,68.75,0,0,0-23,48.71c-1,19.7,5.27,37,18.58,51.58a68.39,68.39,0,0,0,48.57,22.86c19.73,1,37.09-5.3,51.65-18.67a68.57,68.57,0,0,0,22.75-48.62c1-19.92-5.49-37.42-19.12-52A69.18,69.18,0,0,0,141.69,66.43Z"/></g></g></g></svg>
