<svg xmlns="http://www.w3.org/2000/svg" viewBox="0 0 224.21 185.56"><g id="Capa_2" data-name="Capa 2"><g id="NOTES"><path d="M112.1,184.55c-13.93-6.14-29.14-8.35-44.22-8.44a191.11,191.11,0,0,0-56.62,8.7c-2.31.7-4.74,1.33-6.73-.14a12.42,12.42,0,0,1-2.17-2.12A10.27,10.27,0,0,1,0,176V36.8a5.2,5.2,0,0,1,.64-2.56c2-3.53,4.82-4.62,9.33-4.58q4.84,0,9.71,0h3.56a.71.71,0,0,0,.7-.69c0-7.62,0-14.46,0-21.3C24,3,26.46.74,31.11.36A135.88,135.88,0,0,1,67.92,2.83a87.16,87.16,0,0,1,44.18,24.4M34.83,141c24.59-.17,54.24,5.5,72.37,24.52a.33.33,0,0,0,.57-.22c0-2.71.09-11,.09-11.32,0-34.54,0-75.32,0-110.4a18.44,18.44,0,0,0-5.13-12.86C98.12,26,92.53,23.12,86,19.63A89.78,89.78,0,0,0,43.79,9.24c-1.09,0-5.76.07-8.42.15a1.68,1.68,0,0,0-1.64,1.68V139.89A1.1,1.1,0,0,0,34.83,141ZM11.26,39.46A1.52,1.52,0,0,0,9.75,41V172.86a1,1,0,0,0,1.25,1c24.5-5.93,57.45-9.28,82.76-5.62.13,0,4.2.88,4.15.77-.43-.95-4.33-4.85-5.09-5.46a44,44,0,0,0-7.95-4.95,75.4,75.4,0,0,0-30.09-8.2c-7.32-.52-14.71-.13-22.06,0a8.41,8.41,0,0,1-6.24-2c-2.11-1.95-2.55-4.45-2.55-7.19q0-50.84,0-101.67"/><path d="M112.1,27.23a87.2,87.2,0,0,1,44.18-24.4A136,136,0,0,1,193.1.36c4.65.38,7.12,2.61,7.15,7.35.05,6.84,0,13.68,0,21.3a.7.7,0,0,0,.7.69h3.56c3.24,0,6.48,0,9.7,0,4.52,0,7.35,1.05,9.34,4.58a5.31,5.31,0,0,1,.64,2.56V176a10.27,10.27,0,0,1-2.36,6.59,12.78,12.78,0,0,1-2.17,2.12c-2,1.47-4.42.84-6.73.14-18.46-5.58-37.3-8.81-56.62-8.7-15.08.09-30.29,2.3-44.23,8.44m78.38-44.66V11.07a1.68,1.68,0,0,0-1.64-1.68c-2.66-.08-7.33-.16-8.42-.15a89.78,89.78,0,0,0-42.24,10.39c-6.5,3.49-12.09,6.38-16.68,11.08a18.4,18.4,0,0,0-5.13,12.86c0,35.08,0,75.86,0,110.4,0,.3,0,8.61.09,11.32a.33.33,0,0,0,.57.22c18.12-19,47.78-24.69,72.37-24.52A1.1,1.1,0,0,0,190.48,139.89Zm9.78-100.43q0,50.83,0,101.67c0,2.74-.44,5.24-2.55,7.19a8.41,8.41,0,0,1-6.24,2c-7.36-.09-14.75-.48-22.07,0a75.4,75.4,0,0,0-30.08,8.2,44,44,0,0,0-8,4.95c-.76.61-4.66,4.51-5.09,5.46,0,.11,4-.75,4.15-.77,25.31-3.66,58.26-.31,82.76,5.62a1,1,0,0,0,1.25-1V41A1.52,1.52,0,0,0,213,39.46"/></g></g></svg>
