<svg xmlns="http://www.w3.org/2000/svg" viewBox="0 0 232.7 229.08"><defs><style>.cls-1{fill:none;stroke:#000;stroke-miterlimit:10;stroke-width:10px;}</style></defs><g id="Capa_2" data-name="Capa 2"><g id="NOTES"><circle class="cls-1" cx="116.2" cy="178.58" r="11.5"/><path class="cls-1" d="M116.2,153.08h0a8.71,8.71,0,0,1-8.7-8.33l-3.26-74.18a12,12,0,0,1,12-12.49h0a12,12,0,0,1,12,12.49l-3.26,74.18A8.7,8.7,0,0,1,116.2,153.08Z"/><path class="cls-1" d="M6.69,201.79l96-188.42a15.33,15.33,0,0,1,27.32,0l96,188.42a15.33,15.33,0,0,1-13.65,22.29h-192A15.33,15.33,0,0,1,6.69,201.79Z"/></g></g></svg>
