<svg xmlns="http://www.w3.org/2000/svg" viewBox="0 0 233.07 229"><defs><style>.cls-1{fill:none;stroke:#000;stroke-miterlimit:10;stroke-width:10px;}</style></defs><g id="Capa_2" data-name="Capa 2"><g id="NOTES"><path class="cls-1" d="M122.12,119.26a0,0,0,0,1,0,0v42.44c0,.33,0,.66,0,1,.58,9.09,10.91,13.45,17.5,7.59L225.15,96.1a9,9,0,0,0,0-13.25L139.73,7.71c-6.57-5.92-17-1.58-17.54,7.55,0,.3,0,.61,0,.92V58.62s0,.05,0,0C119.36,58.39-25.21,40.52,10.74,224c0,.07.11.07.11,0C10.9,215.87,13.93,123.33,122.12,119.26Z"/></g></g></svg>
