<svg xmlns="http://www.w3.org/2000/svg" viewBox="0 0 231.99 232.02"><defs><style>.cls-1{fill:none;stroke:#000;stroke-miterlimit:10;stroke-width:10px;}</style></defs><g id="Capa_2" data-name="Capa 2"><g id="NOTES"><path class="cls-1" d="M95.17,136.82h-69A20.81,20.81,0,0,1,17.13,97.1a21.83,21.83,0,0,1,9.11-1.9H95.17v-.95q0-34,0-68.05a20.25,20.25,0,0,1,8.24-16.94,20.72,20.72,0,0,1,32.77,11.78,23.12,23.12,0,0,1,.57,5.32q.06,33.93,0,67.87v1h1q34,0,68,0a20.34,20.34,0,0,1,17.57,9.05c8.64,12.37,1.24,29.8-13.66,32.23a25.15,25.15,0,0,1-4.06.31q-33.92,0-67.81,0h-1v.94q0,34,0,68c0,7.76-3.24,13.89-9.79,18.08A20.77,20.77,0,0,1,95.5,209.72a25.94,25.94,0,0,1-.32-4.13q0-33.87,0-67.75Z"/></g></g></svg>
