<svg xmlns="http://www.w3.org/2000/svg" viewBox="0 0 228 228"><defs><style>.cls-1{fill:#fff;}.cls-2{fill:none;stroke:#fff;stroke-miterlimit:10;stroke-width:10px;}</style></defs><g id="Capa_2" data-name="Capa 2"><g id="NOTES"><path class="cls-1" d="M114.09,114h79c4.94,0,6.56,1.67,6.36,6.59-.83,19.91-9,36.65-22.5,50.88S147,194.83,127.62,198.26c-18.6,3.29-36.19,0-52.73-8.73-18.27-9.67-32-23.82-40.43-42.84A69.74,69.74,0,0,1,28.51,120c-.11-4.15,1.68-6,5.9-6Zm-76,9.54c3.33,23.69,15.38,41.74,35.14,54.18,26.06,16.42,53.15,16.9,79.67,1.18,20.85-12.35,33.5-30.82,37.08-55.36Z"/><path class="cls-1" d="M156.71,47.58c12.95,0,23.65,10.39,23.72,23,0,3.16-1.86,5.33-4.64,5.38s-4.59-2-4.79-5.07c-.52-8-6.53-13.91-14.21-13.93S143,62.88,142.5,71.07c-.2,3-2.24,5-4.93,4.9s-4.46-2.14-4.5-5.06C132.92,58.23,143.7,47.58,156.71,47.58Z"/><path class="cls-1" d="M47.58,70C48,57.52,58.65,47.53,71.5,47.58c12.57,0,23.14,10.26,23.42,22.66.08,3.43-1.6,5.58-4.48,5.73s-4.72-1.89-5-5.33a14.22,14.22,0,0,0-27.72-3.85A16.43,16.43,0,0,0,57,70.48c-.29,3.61-2.13,5.67-5,5.48S47.46,73.63,47.58,70Z"/><circle class="cls-2" cx="114" cy="114" r="109"/></g></g></svg>
