<svg xmlns="http://www.w3.org/2000/svg" viewBox="0 0 221.68 222"><defs><style>.cls-1{fill:none;stroke:#fff;stroke-miterlimit:10;stroke-width:10px;}</style></defs><g id="Capa_2" data-name="Capa 2"><g id="NOTES"><path class="cls-1" d="M197.39,27.37a1.7,1.7,0,0,0,1,2.89c8.26.35,14.15,4.07,16.6,13.11,2,7.38-.37,13.27-7.32,19.05a1.72,1.72,0,0,0,.23,2.76A17,17,0,0,1,216.67,81a16.76,16.76,0,0,1-9.47,15.35A1.72,1.72,0,0,0,207,99.3a17.6,17.6,0,0,1,8.09,12.84c1.53,12-6.37,21.36-18,21.43-14.61.09-29.22,0-43.83,0-8.05,0-9.26,1.65-6.89,9.76,3.08,10.52,6.56,20.92,9.33,31.53,2.12,8.14,3,16.55,1,25-2,8.21-6.84,13.89-14.5,16.54-4.95,1.72-8.52-.18-9.84-5.43-1.93-7.69-3.52-15.48-5-23.29a55.08,55.08,0,0,0-11.28-24c-6.28-8.07-11.6-17-17.3-25.55-5.22-7.86-10.28-15.84-15.62-23.62a21,21,0,0,0-18.76-9.59c-4.45.1-8.91,0-13.36-.19-6.39-.23-8.11-2.12-8.11-8.71q0-37.39,0-74.78c0-4.39,1.4-6.47,5.29-6.38,16.69.38,32.93-2.76,49.26-5.84,20-3.78,40.38-4,60.69-4,9.84,0,19.69.23,29.53.32,7.06.07,11.45,3,13.23,9C202.3,19.07,201.3,23.28,197.39,27.37Z"/><rect class="cls-1" x="5" y="14.02" width="19.49" height="89.23" rx="6.76"/></g></g></svg>
