<svg xmlns="http://www.w3.org/2000/svg" viewBox="0 0 228 228"><defs><style>.cls-1{fill:none;stroke:#fff;stroke-miterlimit:10;stroke-width:10px;}</style></defs><g id="Capa_2" data-name="Capa 2"><g id="NOTES"><circle class="cls-1" cx="114" cy="114" r="109"/><path class="cls-1" d="M107.41,184.38a39.14,39.14,0,0,1-6.58-.56c-.75-.14-1.51-.28-2.25-.45-11.43-2.62-18.24-12.44-16.91-24.13A41.37,41.37,0,0,1,86,145.36c2.81-5.61,5.64-11.21,8.4-16.84a15.09,15.09,0,0,0,1.94-6.78,3.88,3.88,0,0,0-3.51-4.13c-3.58-.56-7,.49-10.37,1.38a4,4,0,0,1-5.2-3.44,4.31,4.31,0,0,1,2-4,41.44,41.44,0,0,1,17.2-7.85,35.16,35.16,0,0,1,19.8,1.24c10.07,3.82,14.45,13.1,13.57,22.8A39.34,39.34,0,0,1,125.41,142c-2.8,5.56-5.66,11.1-8.3,16.73a22.66,22.66,0,0,0-1.93,6.52c-.35,2.52,1.13,4.09,3.66,4.43,3.27.44,6.39-.41,9.51-1.22a6.47,6.47,0,0,1,2.61-.24,3.72,3.72,0,0,1,3.12,3,3.9,3.9,0,0,1-1.47,4.19,34.85,34.85,0,0,1-11.37,6.35c-3.33,1.08-6.82,1.64-10.24,2.44h0a10.17,10.17,0,0,1-1.84.21Z"/><circle class="cls-1" cx="128.5" cy="66.5" r="21"/></g></g></svg>
