<svg xmlns="http://www.w3.org/2000/svg" xmlns:xlink="http://www.w3.org/1999/xlink" viewBox="0 0 230.18 230"><defs><style>.cls-1,.cls-2{fill:none;}.cls-2{stroke:#fff;stroke-miterlimit:10;stroke-width:10px;}.cls-3{clip-path:url(#clip-path);}.cls-4{clip-path:url(#clip-path-2);}</style><clipPath id="clip-path" transform="translate(0 -5)"><polygon class="cls-1" points="55.08 0 41.08 177 176.08 42 55.08 0"/></clipPath><clipPath id="clip-path-2" transform="translate(0 -5)"><polygon class="cls-1" points="179.58 235.5 193.58 58.5 58.58 193.5 179.58 235.5"/></clipPath></defs><g id="Capa_2" data-name="Capa 2"><g id="NOTES"><path class="cls-2" d="M5,120.08C4.68,59.72,53.87,10.38,114.75,10,175.2,9.63,224.4,58.38,225.17,119.42,225.94,179.55,175.72,230,115.08,230,54.67,230,5.33,180.75,5,120.08Z" transform="translate(0 -5)"/><line class="cls-2" x1="35.21" y1="195.32" x2="194.81" y2="35.72"/><g class="cls-3"><path class="cls-2" d="M81.6,76.19A33.2,33.2,0,0,1,148,76c.23,18.13-14.91,33.34-33.2,33.34A33.31,33.31,0,0,1,81.6,76.19Z" transform="translate(0 -5)"/><path class="cls-2" d="M114.6,186.39c-17.89-.21-39-5.32-52.79-16.74-4.55-3.76-5.88-8.78-5.15-14.44C59,137.38,78,125.24,96,125.16q18.7-.07,37.41,0c18.78.1,38.69,14,39.36,32.31A14.77,14.77,0,0,1,167,170.1C153.24,181.24,132.27,186.2,114.6,186.39Z" transform="translate(0 -5)"/></g><g class="cls-4"><path class="cls-2" d="M81.6,76.19A33.2,33.2,0,0,1,148,76c.23,18.13-14.91,33.34-33.2,33.34A33.31,33.31,0,0,1,81.6,76.19Z" transform="translate(0 -5)"/><path class="cls-2" d="M114.6,186.39c-17.89-.21-39-5.32-52.79-16.74-4.55-3.76-5.88-8.78-5.15-14.44C59,137.38,78,125.24,96,125.16q18.7-.07,37.41,0c18.78.1,38.69,14,39.36,32.31A14.77,14.77,0,0,1,167,170.1C153.24,181.24,132.27,186.2,114.6,186.39Z" transform="translate(0 -5)"/></g></g></g></svg>